M48
; DRILL file KiCad 10.0.0 date 2026-08-16T09:25:39
; FORMAT={-:-/ absolute / metric / decimal}
; #@! TF.CreationDate,2026-08-16T09:25:39-04:00
; #@! TF.GenerationSoftware,Kicad,Pcbnew,10.0.0
; #@! TF.FileFunction,Plated,1,2,PTH
FMAT,2
METRIC
; #@! TA.AperFunction,Plated,PTH,ViaDrill
T1C0.300
; #@! TA.AperFunction,Plated,PTH,ComponentDrill
T2C0.500
; #@! TA.AperFunction,Plated,PTH,ComponentDrill
T3C0.800
; #@! TA.AperFunction,Plated,PTH,ComponentDrill
T4C1.000
%
G90
G05
T1
X48.65Y-178.7
X49.223Y-33.179
X50.2Y-108.0
X51.4Y-29.2
X52.0Y-61.8
X52.082Y-64.282
X52.1Y-169.0
X52.423Y-108.2
X52.57Y-159.2
X52.6Y-58.2
X52.6Y-103.75
X52.711Y-106.561
X52.74Y-156.23
X52.776Y-30.6
X52.8Y-28.6
X52.95Y-83.0
X53.167Y-42.6
X53.167Y-94.15
X53.167Y-149.01
X53.172Y-65.398
X53.176Y-64.176
X53.4Y-142.8
X53.6Y-78.4
X53.82Y-155.66
X53.85Y-52.05
X53.9Y-196.8
X53.95Y-38.95
X53.95Y-60.4
X54.0Y-37.65
X54.0Y-135.8
X54.1Y-47.7
X54.1Y-103.9
X54.128Y-100.128
X54.2Y-66.2
X54.2Y-127.476
X54.25Y-62.35
X54.4Y-78.4
X54.4Y-191.4
X54.529Y-143.4
X54.6Y-146.215
X54.7Y-35.5
X54.825Y-57.2
X55.05Y-53.25
X55.053Y-144.2
X55.4Y-151.4
X55.481Y-100.1
X55.6Y-109.6
X55.6Y-130.0
X56.0Y-86.6
X56.0Y-195.0
X56.025Y-157.15
X56.1Y-144.2
X56.171Y-16.465
X56.2Y-143.4
X56.281Y-100.1
X56.31Y-159.23
X56.45Y-92.75
X56.455Y-107.147
X56.6Y-177.673
X56.775Y-50.6
X56.8Y-63.8
X56.8Y-65.6
X56.8Y-181.6
X56.9Y-38.45
X56.916Y-16.335
X56.95Y-136.45
X57.0Y-69.2
X57.0Y-83.0
X57.0Y-85.4
X57.14Y-155.7
X57.2Y-86.501
X57.25Y-25.7
X57.25Y-71.2
X57.375Y-47.725
X57.45Y-196.8
X57.75Y-50.625
X57.775Y-49.8
X57.779Y-76.5
X57.8Y-57.4
X58.0Y-142.4
X58.15Y-16.25
X58.2Y-31.0
X58.2Y-133.05
X58.4Y-29.2
X58.4Y-139.8
X58.497Y-50.625
X58.5Y-56.6
X58.61Y-160.28
X58.85Y-121.6
X58.92Y-155.15
X58.96Y-158.28
X59.2Y-51.3
X59.2Y-57.4
X59.4Y-15.8
X59.474Y-83.376
X59.476Y-86.461
X59.481Y-110.6
X59.5Y-48.95
X59.6Y-98.3
X59.6Y-121.125
X59.665Y-85.535
X59.675Y-142.6
X59.8Y-66.2
X59.8Y-144.2
X59.8Y-178.3
X59.85Y-71.2
X59.876Y-76.302
X59.993Y-106.331
X60.005Y-101.2
X60.2Y-105.35
X60.268Y-121.6
X60.4Y-55.524
X60.65Y-178.3
X60.965Y-109.661
X61.0Y-78.4
X61.0Y-106.4
X61.0Y-122.0
X61.1Y-117.65
X61.133Y-62.3
X61.2Y-105.6
X61.2Y-107.2
X61.2Y-138.6
X61.3Y-58.9
X61.4Y-90.2
X61.464Y-87.279
X61.6Y-122.475
X61.725Y-45.575
X61.752Y-78.4
X61.9Y-178.3
X62.0Y-32.4
X62.0Y-62.8
X62.2Y-103.6
X62.2Y-142.6
X62.2Y-144.2
X62.25Y-137.0
X62.4Y-82.4
X62.4Y-148.2
X62.5Y-48.4
X62.6Y-64.8
X62.7Y-40.25
X62.8Y-128.6
X63.05Y-98.0
X63.05Y-120.75
X63.1Y-38.15
X63.175Y-47.95
X63.2Y-157.8
X63.35Y-62.15
X63.6Y-129.2
X63.8Y-42.927
X64.0Y-69.4
X64.0Y-81.35
X64.2Y-105.6
X64.2Y-163.2
X64.524Y-107.13
X65.3Y-105.15
X67.5Y-17.0
T2
X59.85Y-114.05
X59.85Y-115.05
X60.85Y-114.05
X60.85Y-115.05
X61.85Y-114.05
X61.85Y-115.05
T3
X50.495Y-30.582
X50.495Y-33.122
X50.495Y-35.662
X50.495Y-38.202
X50.495Y-40.742
X50.495Y-43.282
X50.495Y-45.822
X50.495Y-48.362
X50.495Y-50.902
X50.495Y-55.961
X50.495Y-58.501
X50.495Y-61.041
X50.495Y-63.581
X50.495Y-66.121
X50.495Y-68.661
X50.495Y-71.201
X50.495Y-73.741
X50.495Y-76.281
X50.495Y-81.341
X50.495Y-83.881
X50.495Y-86.421
X50.495Y-88.961
X50.495Y-91.501
X50.495Y-94.041
X50.495Y-96.581
X50.495Y-99.121
X50.495Y-101.661
X50.495Y-106.721
X50.495Y-109.261
X50.495Y-111.801
X50.495Y-114.341
X50.495Y-116.881
X50.495Y-119.421
X50.495Y-121.961
X50.495Y-124.501
X50.495Y-127.041
X50.495Y-132.1
X50.495Y-134.64
X50.495Y-137.18
X50.495Y-139.72
X50.495Y-142.26
X50.495Y-144.8
X50.495Y-147.34
X50.495Y-149.88
X50.495Y-152.42
X50.495Y-157.48
X50.495Y-160.02
X50.495Y-162.56
X50.495Y-165.1
X50.495Y-167.64
X50.495Y-170.18
X50.495Y-172.72
X50.495Y-175.26
X50.495Y-177.8
X65.735Y-30.582
X65.735Y-33.122
X65.735Y-35.662
X65.735Y-38.202
X65.735Y-40.742
X65.735Y-43.282
X65.735Y-45.822
X65.735Y-48.362
X65.735Y-50.902
X65.735Y-55.961
X65.735Y-58.501
X65.735Y-61.041
X65.735Y-63.581
X65.735Y-66.121
X65.735Y-68.661
X65.735Y-71.201
X65.735Y-73.741
X65.735Y-76.281
X65.735Y-81.341
X65.735Y-83.881
X65.735Y-86.421
X65.735Y-88.961
X65.735Y-91.501
X65.735Y-94.041
X65.735Y-96.581
X65.735Y-99.121
X65.735Y-101.661
X65.735Y-106.721
X65.735Y-109.261
X65.735Y-111.801
X65.735Y-114.341
X65.735Y-116.881
X65.735Y-119.421
X65.735Y-121.961
X65.735Y-124.501
X65.735Y-127.041
X65.735Y-132.1
X65.735Y-134.64
X65.735Y-137.18
X65.735Y-139.72
X65.735Y-142.26
X65.735Y-144.8
X65.735Y-147.34
X65.735Y-149.88
X65.735Y-152.42
X65.735Y-157.48
X65.735Y-160.02
X65.735Y-162.56
X65.735Y-165.1
X65.735Y-167.64
X65.735Y-170.18
X65.735Y-172.72
X65.735Y-175.26
X65.735Y-177.8
T4
X48.05Y-197.6
M30
