%TF.GenerationSoftware,KiCad,Pcbnew,10.0.0*%
%TF.CreationDate,2026-08-16T09:25:36-04:00*%
%TF.ProjectId,emustation-alpha-display,656d7573-7461-4746-996f-6e2d616c7068,rev?*%
%TF.SameCoordinates,Original*%
%TF.FileFunction,Legend,Bot*%
%TF.FilePolarity,Positive*%
%FSLAX46Y46*%
G04 Gerber Fmt 4.6, Leading zero omitted, Abs format (unit mm)*
G04 Created by KiCad (PCBNEW 10.0.0) date 2026-08-16 09:25:36*
%MOMM*%
%LPD*%
G01*
G04 APERTURE LIST*
%ADD10C,0.100000*%
%ADD11C,0.125000*%
%ADD12C,0.200000*%
G04 APERTURE END LIST*
D10*
X52197000Y-180403500D02*
X62484000Y-180403500D01*
X62484000Y-183832500D01*
X52197000Y-183832500D01*
X52197000Y-180403500D01*
G36*
X52197000Y-180403500D02*
G01*
X62484000Y-180403500D01*
X62484000Y-183832500D01*
X52197000Y-183832500D01*
X52197000Y-180403500D01*
G37*
X52256846Y-191521957D02*
X54931155Y-191521957D01*
X54931155Y-194183000D01*
X52256846Y-194183000D01*
X52256846Y-191521957D01*
G36*
X52256846Y-191521957D02*
G01*
X54931155Y-191521957D01*
X54931155Y-194183000D01*
X52256846Y-194183000D01*
X52256846Y-191521957D01*
G37*
X52256846Y-195392479D02*
X54931155Y-195392479D01*
X54931155Y-198053522D01*
X52256846Y-198053522D01*
X52256846Y-195392479D01*
G36*
X52256846Y-195392479D02*
G01*
X54931155Y-195392479D01*
X54931155Y-198053522D01*
X52256846Y-198053522D01*
X52256846Y-195392479D01*
G37*
X59876846Y-191455479D02*
X62551155Y-191455479D01*
X62551155Y-194116522D01*
X59876846Y-194116522D01*
X59876846Y-191455479D01*
G36*
X59876846Y-191455479D02*
G01*
X62551155Y-191455479D01*
X62551155Y-194116522D01*
X59876846Y-194116522D01*
X59876846Y-191455479D01*
G37*
X59876846Y-195326001D02*
X62551155Y-195326001D01*
X62551155Y-197987044D01*
X59876846Y-197987044D01*
X59876846Y-195326001D01*
G36*
X59876846Y-195326001D02*
G01*
X62551155Y-195326001D01*
X62551155Y-197987044D01*
X59876846Y-197987044D01*
X59876846Y-195326001D01*
G37*
D11*
X58607668Y-189974309D02*
X58274335Y-189974309D01*
X58131478Y-190498119D02*
X58607668Y-190498119D01*
X58607668Y-190498119D02*
X58607668Y-189498119D01*
X58607668Y-189498119D02*
X58131478Y-189498119D01*
X57131478Y-190402880D02*
X57179097Y-190450500D01*
X57179097Y-190450500D02*
X57321954Y-190498119D01*
X57321954Y-190498119D02*
X57417192Y-190498119D01*
X57417192Y-190498119D02*
X57560049Y-190450500D01*
X57560049Y-190450500D02*
X57655287Y-190355261D01*
X57655287Y-190355261D02*
X57702906Y-190260023D01*
X57702906Y-190260023D02*
X57750525Y-190069547D01*
X57750525Y-190069547D02*
X57750525Y-189926690D01*
X57750525Y-189926690D02*
X57702906Y-189736214D01*
X57702906Y-189736214D02*
X57655287Y-189640976D01*
X57655287Y-189640976D02*
X57560049Y-189545738D01*
X57560049Y-189545738D02*
X57417192Y-189498119D01*
X57417192Y-189498119D02*
X57321954Y-189498119D01*
X57321954Y-189498119D02*
X57179097Y-189545738D01*
X57179097Y-189545738D02*
X57131478Y-189593357D01*
X56512430Y-189498119D02*
X56321954Y-189498119D01*
X56321954Y-189498119D02*
X56226716Y-189545738D01*
X56226716Y-189545738D02*
X56131478Y-189640976D01*
X56131478Y-189640976D02*
X56083859Y-189831452D01*
X56083859Y-189831452D02*
X56083859Y-190164785D01*
X56083859Y-190164785D02*
X56131478Y-190355261D01*
X56131478Y-190355261D02*
X56226716Y-190450500D01*
X56226716Y-190450500D02*
X56321954Y-190498119D01*
X56321954Y-190498119D02*
X56512430Y-190498119D01*
X56512430Y-190498119D02*
X56607668Y-190450500D01*
X56607668Y-190450500D02*
X56702906Y-190355261D01*
X56702906Y-190355261D02*
X56750525Y-190164785D01*
X56750525Y-190164785D02*
X56750525Y-189831452D01*
X56750525Y-189831452D02*
X56702906Y-189640976D01*
X56702906Y-189640976D02*
X56607668Y-189545738D01*
X56607668Y-189545738D02*
X56512430Y-189498119D01*
X58782287Y-193133404D02*
X58306097Y-193133404D01*
X58877525Y-193419119D02*
X58544192Y-192419119D01*
X58544192Y-192419119D02*
X58210859Y-193419119D01*
X56020382Y-192895309D02*
X55877525Y-192942928D01*
X55877525Y-192942928D02*
X55829906Y-192990547D01*
X55829906Y-192990547D02*
X55782287Y-193085785D01*
X55782287Y-193085785D02*
X55782287Y-193228642D01*
X55782287Y-193228642D02*
X55829906Y-193323880D01*
X55829906Y-193323880D02*
X55877525Y-193371500D01*
X55877525Y-193371500D02*
X55972763Y-193419119D01*
X55972763Y-193419119D02*
X56353715Y-193419119D01*
X56353715Y-193419119D02*
X56353715Y-192419119D01*
X56353715Y-192419119D02*
X56020382Y-192419119D01*
X56020382Y-192419119D02*
X55925144Y-192466738D01*
X55925144Y-192466738D02*
X55877525Y-192514357D01*
X55877525Y-192514357D02*
X55829906Y-192609595D01*
X55829906Y-192609595D02*
X55829906Y-192704833D01*
X55829906Y-192704833D02*
X55877525Y-192800071D01*
X55877525Y-192800071D02*
X55925144Y-192847690D01*
X55925144Y-192847690D02*
X56020382Y-192895309D01*
X56020382Y-192895309D02*
X56353715Y-192895309D01*
X58163240Y-197133880D02*
X58210859Y-197181500D01*
X58210859Y-197181500D02*
X58353716Y-197229119D01*
X58353716Y-197229119D02*
X58448954Y-197229119D01*
X58448954Y-197229119D02*
X58591811Y-197181500D01*
X58591811Y-197181500D02*
X58687049Y-197086261D01*
X58687049Y-197086261D02*
X58734668Y-196991023D01*
X58734668Y-196991023D02*
X58782287Y-196800547D01*
X58782287Y-196800547D02*
X58782287Y-196657690D01*
X58782287Y-196657690D02*
X58734668Y-196467214D01*
X58734668Y-196467214D02*
X58687049Y-196371976D01*
X58687049Y-196371976D02*
X58591811Y-196276738D01*
X58591811Y-196276738D02*
X58448954Y-196229119D01*
X58448954Y-196229119D02*
X58353716Y-196229119D01*
X58353716Y-196229119D02*
X58210859Y-196276738D01*
X58210859Y-196276738D02*
X58163240Y-196324357D01*
X56210858Y-197229119D02*
X56210858Y-196229119D01*
X56210858Y-196229119D02*
X55972763Y-196229119D01*
X55972763Y-196229119D02*
X55829906Y-196276738D01*
X55829906Y-196276738D02*
X55734668Y-196371976D01*
X55734668Y-196371976D02*
X55687049Y-196467214D01*
X55687049Y-196467214D02*
X55639430Y-196657690D01*
X55639430Y-196657690D02*
X55639430Y-196800547D01*
X55639430Y-196800547D02*
X55687049Y-196991023D01*
X55687049Y-196991023D02*
X55734668Y-197086261D01*
X55734668Y-197086261D02*
X55829906Y-197181500D01*
X55829906Y-197181500D02*
X55972763Y-197229119D01*
X55972763Y-197229119D02*
X56210858Y-197229119D01*
X67037287Y-182513000D02*
X66894430Y-182560619D01*
X66894430Y-182560619D02*
X66656335Y-182560619D01*
X66656335Y-182560619D02*
X66561097Y-182513000D01*
X66561097Y-182513000D02*
X66513478Y-182465380D01*
X66513478Y-182465380D02*
X66465859Y-182370142D01*
X66465859Y-182370142D02*
X66465859Y-182274904D01*
X66465859Y-182274904D02*
X66513478Y-182179666D01*
X66513478Y-182179666D02*
X66561097Y-182132047D01*
X66561097Y-182132047D02*
X66656335Y-182084428D01*
X66656335Y-182084428D02*
X66846811Y-182036809D01*
X66846811Y-182036809D02*
X66942049Y-181989190D01*
X66942049Y-181989190D02*
X66989668Y-181941571D01*
X66989668Y-181941571D02*
X67037287Y-181846333D01*
X67037287Y-181846333D02*
X67037287Y-181751095D01*
X67037287Y-181751095D02*
X66989668Y-181655857D01*
X66989668Y-181655857D02*
X66942049Y-181608238D01*
X66942049Y-181608238D02*
X66846811Y-181560619D01*
X66846811Y-181560619D02*
X66608716Y-181560619D01*
X66608716Y-181560619D02*
X66465859Y-181608238D01*
X65656335Y-182513000D02*
X65751573Y-182560619D01*
X65751573Y-182560619D02*
X65942049Y-182560619D01*
X65942049Y-182560619D02*
X66037287Y-182513000D01*
X66037287Y-182513000D02*
X66084906Y-182417761D01*
X66084906Y-182417761D02*
X66084906Y-182036809D01*
X66084906Y-182036809D02*
X66037287Y-181941571D01*
X66037287Y-181941571D02*
X65942049Y-181893952D01*
X65942049Y-181893952D02*
X65751573Y-181893952D01*
X65751573Y-181893952D02*
X65656335Y-181941571D01*
X65656335Y-181941571D02*
X65608716Y-182036809D01*
X65608716Y-182036809D02*
X65608716Y-182132047D01*
X65608716Y-182132047D02*
X66084906Y-182227285D01*
X65180144Y-182560619D02*
X65180144Y-181893952D01*
X65180144Y-182084428D02*
X65132525Y-181989190D01*
X65132525Y-181989190D02*
X65084906Y-181941571D01*
X65084906Y-181941571D02*
X64989668Y-181893952D01*
X64989668Y-181893952D02*
X64894430Y-181893952D01*
X64561096Y-182560619D02*
X64561096Y-181893952D01*
X64561096Y-181560619D02*
X64608715Y-181608238D01*
X64608715Y-181608238D02*
X64561096Y-181655857D01*
X64561096Y-181655857D02*
X64513477Y-181608238D01*
X64513477Y-181608238D02*
X64561096Y-181560619D01*
X64561096Y-181560619D02*
X64561096Y-181655857D01*
X63656335Y-182560619D02*
X63656335Y-182036809D01*
X63656335Y-182036809D02*
X63703954Y-181941571D01*
X63703954Y-181941571D02*
X63799192Y-181893952D01*
X63799192Y-181893952D02*
X63989668Y-181893952D01*
X63989668Y-181893952D02*
X64084906Y-181941571D01*
X63656335Y-182513000D02*
X63751573Y-182560619D01*
X63751573Y-182560619D02*
X63989668Y-182560619D01*
X63989668Y-182560619D02*
X64084906Y-182513000D01*
X64084906Y-182513000D02*
X64132525Y-182417761D01*
X64132525Y-182417761D02*
X64132525Y-182322523D01*
X64132525Y-182322523D02*
X64084906Y-182227285D01*
X64084906Y-182227285D02*
X63989668Y-182179666D01*
X63989668Y-182179666D02*
X63751573Y-182179666D01*
X63751573Y-182179666D02*
X63656335Y-182132047D01*
X63037287Y-182560619D02*
X63132525Y-182513000D01*
X63132525Y-182513000D02*
X63180144Y-182417761D01*
X63180144Y-182417761D02*
X63180144Y-181560619D01*
D10*
X49123819Y-89786674D02*
X48123819Y-89786674D01*
X48123819Y-89786674D02*
X48123819Y-90024769D01*
X48123819Y-90024769D02*
X48171438Y-90167626D01*
X48171438Y-90167626D02*
X48266676Y-90262864D01*
X48266676Y-90262864D02*
X48361914Y-90310483D01*
X48361914Y-90310483D02*
X48552390Y-90358102D01*
X48552390Y-90358102D02*
X48695247Y-90358102D01*
X48695247Y-90358102D02*
X48885723Y-90310483D01*
X48885723Y-90310483D02*
X48980961Y-90262864D01*
X48980961Y-90262864D02*
X49076200Y-90167626D01*
X49076200Y-90167626D02*
X49123819Y-90024769D01*
X49123819Y-90024769D02*
X49123819Y-89786674D01*
X49076200Y-90739055D02*
X49123819Y-90881912D01*
X49123819Y-90881912D02*
X49123819Y-91120007D01*
X49123819Y-91120007D02*
X49076200Y-91215245D01*
X49076200Y-91215245D02*
X49028580Y-91262864D01*
X49028580Y-91262864D02*
X48933342Y-91310483D01*
X48933342Y-91310483D02*
X48838104Y-91310483D01*
X48838104Y-91310483D02*
X48742866Y-91262864D01*
X48742866Y-91262864D02*
X48695247Y-91215245D01*
X48695247Y-91215245D02*
X48647628Y-91120007D01*
X48647628Y-91120007D02*
X48600009Y-90929531D01*
X48600009Y-90929531D02*
X48552390Y-90834293D01*
X48552390Y-90834293D02*
X48504771Y-90786674D01*
X48504771Y-90786674D02*
X48409533Y-90739055D01*
X48409533Y-90739055D02*
X48314295Y-90739055D01*
X48314295Y-90739055D02*
X48219057Y-90786674D01*
X48219057Y-90786674D02*
X48171438Y-90834293D01*
X48171438Y-90834293D02*
X48123819Y-90929531D01*
X48123819Y-90929531D02*
X48123819Y-91167626D01*
X48123819Y-91167626D02*
X48171438Y-91310483D01*
X49123819Y-91739055D02*
X48123819Y-91739055D01*
X48123819Y-91739055D02*
X48123819Y-92120007D01*
X48123819Y-92120007D02*
X48171438Y-92215245D01*
X48171438Y-92215245D02*
X48219057Y-92262864D01*
X48219057Y-92262864D02*
X48314295Y-92310483D01*
X48314295Y-92310483D02*
X48457152Y-92310483D01*
X48457152Y-92310483D02*
X48552390Y-92262864D01*
X48552390Y-92262864D02*
X48600009Y-92215245D01*
X48600009Y-92215245D02*
X48647628Y-92120007D01*
X48647628Y-92120007D02*
X48647628Y-91739055D01*
X48457152Y-93167626D02*
X49123819Y-93167626D01*
X48076200Y-92929531D02*
X48790485Y-92691436D01*
X48790485Y-92691436D02*
X48790485Y-93310483D01*
G36*
X53812705Y-89079976D02*
G01*
X53812705Y-89371113D01*
X55391002Y-89371113D01*
X57394282Y-88207052D01*
X57394282Y-87927149D01*
X55804749Y-87927149D01*
X53812705Y-89079976D01*
G37*
G36*
X56207750Y-86662460D02*
G01*
X53812705Y-86662460D01*
X53812705Y-87692188D01*
X53935803Y-87692188D01*
X56207750Y-87692188D01*
X57013751Y-87692188D01*
X57909146Y-87177324D01*
X57013751Y-86662460D01*
X56207750Y-86662460D01*
G37*
G36*
X57629243Y-89594839D02*
G01*
X58155343Y-90120939D01*
X58670206Y-89594839D01*
X58658971Y-89594839D01*
X58658971Y-89393583D01*
X58658971Y-89371113D01*
X58658971Y-87927149D01*
X58658971Y-87692188D01*
X58658971Y-87614030D01*
X58144107Y-87311657D01*
X57629243Y-87614030D01*
X57629243Y-87692188D01*
X57629243Y-87927149D01*
X57629243Y-88072718D01*
X57629243Y-89594839D01*
G37*
G36*
X61983116Y-87692188D02*
G01*
X62475510Y-87692188D01*
X62475510Y-86662460D01*
X60080465Y-86662460D01*
X59274463Y-86662460D01*
X58379069Y-87177324D01*
X59274463Y-87692188D01*
X60080465Y-87692188D01*
X61983116Y-87692188D01*
G37*
G36*
X58144107Y-84222474D02*
G01*
X57618008Y-84759808D01*
X57629243Y-84759808D01*
X57629243Y-86281929D01*
X57629243Y-86741106D01*
X58144107Y-87042990D01*
X58658971Y-86741106D01*
X58658971Y-84983535D01*
X58658971Y-84950317D01*
X58658971Y-84759808D01*
X58670206Y-84759808D01*
X58144107Y-84222474D01*
G37*
G36*
X60483465Y-86427498D02*
G01*
X62475510Y-85274672D01*
X62475510Y-84983535D01*
X60897213Y-84983535D01*
X58893933Y-86147596D01*
X58893933Y-86427498D01*
X60483465Y-86427498D01*
G37*
G36*
X58893933Y-87927149D02*
G01*
X58893933Y-88207052D01*
X60897213Y-89371113D01*
X62475510Y-89371113D01*
X62475510Y-89079976D01*
X60483465Y-87927149D01*
X58893933Y-87927149D01*
G37*
G36*
X52894840Y-84222474D02*
G01*
X52548015Y-84569787D01*
X52548015Y-89785349D01*
X52894840Y-90132174D01*
X53588978Y-89438036D01*
X53588978Y-89214309D01*
X53588978Y-87692188D01*
X53588978Y-86662460D01*
X53588978Y-85140338D01*
X53588978Y-84916612D01*
X52894840Y-84222474D01*
G37*
G36*
X57394282Y-86427498D02*
G01*
X57394282Y-86147596D01*
X55391002Y-84983535D01*
X53812705Y-84983535D01*
X53812705Y-85274672D01*
X55804749Y-86427498D01*
X57394282Y-86427498D01*
G37*
G36*
X58312146Y-90277742D02*
G01*
X58267206Y-90333430D01*
X58267206Y-90635802D01*
X62889746Y-90635802D01*
X63236571Y-90288978D01*
X62542433Y-89594839D01*
X62475510Y-89594839D01*
X61300213Y-89594839D01*
X58994561Y-89594839D01*
X58312146Y-90277742D01*
G37*
G36*
X63393375Y-90132174D02*
G01*
X63740200Y-89785349D01*
X63740200Y-84569787D01*
X63393375Y-84222474D01*
X62699236Y-84916612D01*
X62699236Y-85140338D01*
X62699236Y-86662460D01*
X62699236Y-87692188D01*
X62699236Y-89214309D01*
X62699236Y-89438036D01*
X63393375Y-90132174D01*
G37*
G36*
X53051644Y-90288978D02*
G01*
X53398469Y-90635802D01*
X58032244Y-90635802D01*
X58032244Y-90333430D01*
X57987303Y-90277742D01*
X57304889Y-89594839D01*
X56946340Y-89594839D01*
X54988001Y-89594839D01*
X53812705Y-89594839D01*
X53745782Y-89594839D01*
X53051644Y-90288978D01*
G37*
G36*
X57976068Y-84066158D02*
G01*
X58032244Y-84021218D01*
X58032244Y-83718845D01*
X53398469Y-83718845D01*
X53051644Y-84066158D01*
X53745782Y-84759808D01*
X53812705Y-84759808D01*
X54988001Y-84759808D01*
X57293654Y-84759808D01*
X57976068Y-84066158D01*
G37*
G36*
X63236571Y-84066158D02*
G01*
X62889746Y-83718845D01*
X58255971Y-83718845D01*
X58255971Y-84021218D01*
X58312146Y-84066158D01*
X58994561Y-84759808D01*
X61300213Y-84759808D01*
X62475510Y-84759808D01*
X62542433Y-84759808D01*
X63236571Y-84066158D01*
G37*
G36*
X62777883Y-92385558D02*
G01*
X63046550Y-92441734D01*
X63314728Y-92385558D01*
X63538943Y-92239990D01*
X63684512Y-92016263D01*
X63740200Y-91747596D01*
X63684512Y-91478929D01*
X63538943Y-91255202D01*
X63314728Y-91109634D01*
X63046550Y-91053458D01*
X62777883Y-91109634D01*
X62554156Y-91255202D01*
X62408587Y-91478929D01*
X62352412Y-91747596D01*
X62408587Y-92016263D01*
X62554156Y-92239990D01*
X62777883Y-92385558D01*
G37*
G36*
X53812705Y-98216612D02*
G01*
X53812705Y-98507749D01*
X55391002Y-98507749D01*
X57394282Y-97343688D01*
X57394282Y-97063786D01*
X55804749Y-97063786D01*
X53812705Y-98216612D01*
G37*
G36*
X56207750Y-95799096D02*
G01*
X53812705Y-95799096D01*
X53812705Y-96828824D01*
X53935803Y-96828824D01*
X56207750Y-96828824D01*
X57013751Y-96828824D01*
X57909146Y-96313960D01*
X57013751Y-95799096D01*
X56207750Y-95799096D01*
G37*
G36*
X57629243Y-98731476D02*
G01*
X58155343Y-99257575D01*
X58670206Y-98731476D01*
X58658971Y-98731476D01*
X58658971Y-98530220D01*
X58658971Y-98507749D01*
X58658971Y-97063786D01*
X58658971Y-96828824D01*
X58658971Y-96750666D01*
X58144107Y-96448294D01*
X57629243Y-96750666D01*
X57629243Y-96828824D01*
X57629243Y-97063786D01*
X57629243Y-97209354D01*
X57629243Y-98731476D01*
G37*
G36*
X61983116Y-96828824D02*
G01*
X62475510Y-96828824D01*
X62475510Y-95799096D01*
X60080465Y-95799096D01*
X59274463Y-95799096D01*
X58379069Y-96313960D01*
X59274463Y-96828824D01*
X60080465Y-96828824D01*
X61983116Y-96828824D01*
G37*
G36*
X58144107Y-93359110D02*
G01*
X57618008Y-93896444D01*
X57629243Y-93896444D01*
X57629243Y-95418566D01*
X57629243Y-95877742D01*
X58144107Y-96179627D01*
X58658971Y-95877742D01*
X58658971Y-94120171D01*
X58658971Y-94086954D01*
X58658971Y-93896444D01*
X58670206Y-93896444D01*
X58144107Y-93359110D01*
G37*
G36*
X60483465Y-95564135D02*
G01*
X62475510Y-94411308D01*
X62475510Y-94120171D01*
X60897213Y-94120171D01*
X58893933Y-95284232D01*
X58893933Y-95564135D01*
X60483465Y-95564135D01*
G37*
G36*
X58893933Y-97063786D02*
G01*
X58893933Y-97343688D01*
X60897213Y-98507749D01*
X62475510Y-98507749D01*
X62475510Y-98216612D01*
X60483465Y-97063786D01*
X58893933Y-97063786D01*
G37*
G36*
X52894840Y-93359110D02*
G01*
X52548015Y-93706424D01*
X52548015Y-98921985D01*
X52894840Y-99268810D01*
X53588978Y-98574672D01*
X53588978Y-98350946D01*
X53588978Y-96828824D01*
X53588978Y-95799096D01*
X53588978Y-94276975D01*
X53588978Y-94053248D01*
X52894840Y-93359110D01*
G37*
G36*
X57394282Y-95564135D02*
G01*
X57394282Y-95284232D01*
X55391002Y-94120171D01*
X53812705Y-94120171D01*
X53812705Y-94411308D01*
X55804749Y-95564135D01*
X57394282Y-95564135D01*
G37*
G36*
X58312146Y-99414379D02*
G01*
X58267206Y-99470066D01*
X58267206Y-99772439D01*
X62889746Y-99772439D01*
X63236571Y-99425614D01*
X62542433Y-98731476D01*
X62475510Y-98731476D01*
X61300213Y-98731476D01*
X58994561Y-98731476D01*
X58312146Y-99414379D01*
G37*
G36*
X63393375Y-99268810D02*
G01*
X63740200Y-98921985D01*
X63740200Y-93706424D01*
X63393375Y-93359110D01*
X62699236Y-94053248D01*
X62699236Y-94276975D01*
X62699236Y-95799096D01*
X62699236Y-96828824D01*
X62699236Y-98350946D01*
X62699236Y-98574672D01*
X63393375Y-99268810D01*
G37*
G36*
X53051644Y-99425614D02*
G01*
X53398469Y-99772439D01*
X58032244Y-99772439D01*
X58032244Y-99470066D01*
X57987303Y-99414379D01*
X57304889Y-98731476D01*
X56946340Y-98731476D01*
X54988001Y-98731476D01*
X53812705Y-98731476D01*
X53745782Y-98731476D01*
X53051644Y-99425614D01*
G37*
G36*
X57976068Y-93202795D02*
G01*
X58032244Y-93157854D01*
X58032244Y-92855481D01*
X53398469Y-92855481D01*
X53051644Y-93202795D01*
X53745782Y-93896444D01*
X53812705Y-93896444D01*
X54988001Y-93896444D01*
X57293654Y-93896444D01*
X57976068Y-93202795D01*
G37*
G36*
X63236571Y-93202795D02*
G01*
X62889746Y-92855481D01*
X58255971Y-92855481D01*
X58255971Y-93157854D01*
X58312146Y-93202795D01*
X58994561Y-93896444D01*
X61300213Y-93896444D01*
X62475510Y-93896444D01*
X62542433Y-93896444D01*
X63236571Y-93202795D01*
G37*
G36*
X62777883Y-101522195D02*
G01*
X63046550Y-101578371D01*
X63314728Y-101522195D01*
X63538943Y-101376626D01*
X63684512Y-101152899D01*
X63740200Y-100884232D01*
X63684512Y-100615565D01*
X63538943Y-100391839D01*
X63314728Y-100246270D01*
X63046550Y-100190094D01*
X62777883Y-100246270D01*
X62554156Y-100391839D01*
X62408587Y-100615565D01*
X62352412Y-100884232D01*
X62408587Y-101152899D01*
X62554156Y-101376626D01*
X62777883Y-101522195D01*
G37*
X49123819Y-38874914D02*
X48123819Y-38874914D01*
X48123819Y-38874914D02*
X48123819Y-39113009D01*
X48123819Y-39113009D02*
X48171438Y-39255866D01*
X48171438Y-39255866D02*
X48266676Y-39351104D01*
X48266676Y-39351104D02*
X48361914Y-39398723D01*
X48361914Y-39398723D02*
X48552390Y-39446342D01*
X48552390Y-39446342D02*
X48695247Y-39446342D01*
X48695247Y-39446342D02*
X48885723Y-39398723D01*
X48885723Y-39398723D02*
X48980961Y-39351104D01*
X48980961Y-39351104D02*
X49076200Y-39255866D01*
X49076200Y-39255866D02*
X49123819Y-39113009D01*
X49123819Y-39113009D02*
X49123819Y-38874914D01*
X49076200Y-39827295D02*
X49123819Y-39970152D01*
X49123819Y-39970152D02*
X49123819Y-40208247D01*
X49123819Y-40208247D02*
X49076200Y-40303485D01*
X49076200Y-40303485D02*
X49028580Y-40351104D01*
X49028580Y-40351104D02*
X48933342Y-40398723D01*
X48933342Y-40398723D02*
X48838104Y-40398723D01*
X48838104Y-40398723D02*
X48742866Y-40351104D01*
X48742866Y-40351104D02*
X48695247Y-40303485D01*
X48695247Y-40303485D02*
X48647628Y-40208247D01*
X48647628Y-40208247D02*
X48600009Y-40017771D01*
X48600009Y-40017771D02*
X48552390Y-39922533D01*
X48552390Y-39922533D02*
X48504771Y-39874914D01*
X48504771Y-39874914D02*
X48409533Y-39827295D01*
X48409533Y-39827295D02*
X48314295Y-39827295D01*
X48314295Y-39827295D02*
X48219057Y-39874914D01*
X48219057Y-39874914D02*
X48171438Y-39922533D01*
X48171438Y-39922533D02*
X48123819Y-40017771D01*
X48123819Y-40017771D02*
X48123819Y-40255866D01*
X48123819Y-40255866D02*
X48171438Y-40398723D01*
X49123819Y-40827295D02*
X48123819Y-40827295D01*
X48123819Y-40827295D02*
X48123819Y-41208247D01*
X48123819Y-41208247D02*
X48171438Y-41303485D01*
X48171438Y-41303485D02*
X48219057Y-41351104D01*
X48219057Y-41351104D02*
X48314295Y-41398723D01*
X48314295Y-41398723D02*
X48457152Y-41398723D01*
X48457152Y-41398723D02*
X48552390Y-41351104D01*
X48552390Y-41351104D02*
X48600009Y-41303485D01*
X48600009Y-41303485D02*
X48647628Y-41208247D01*
X48647628Y-41208247D02*
X48647628Y-40827295D01*
X48123819Y-42255866D02*
X48123819Y-42065390D01*
X48123819Y-42065390D02*
X48171438Y-41970152D01*
X48171438Y-41970152D02*
X48219057Y-41922533D01*
X48219057Y-41922533D02*
X48361914Y-41827295D01*
X48361914Y-41827295D02*
X48552390Y-41779676D01*
X48552390Y-41779676D02*
X48933342Y-41779676D01*
X48933342Y-41779676D02*
X49028580Y-41827295D01*
X49028580Y-41827295D02*
X49076200Y-41874914D01*
X49076200Y-41874914D02*
X49123819Y-41970152D01*
X49123819Y-41970152D02*
X49123819Y-42160628D01*
X49123819Y-42160628D02*
X49076200Y-42255866D01*
X49076200Y-42255866D02*
X49028580Y-42303485D01*
X49028580Y-42303485D02*
X48933342Y-42351104D01*
X48933342Y-42351104D02*
X48695247Y-42351104D01*
X48695247Y-42351104D02*
X48600009Y-42303485D01*
X48600009Y-42303485D02*
X48552390Y-42255866D01*
X48552390Y-42255866D02*
X48504771Y-42160628D01*
X48504771Y-42160628D02*
X48504771Y-41970152D01*
X48504771Y-41970152D02*
X48552390Y-41874914D01*
X48552390Y-41874914D02*
X48600009Y-41827295D01*
X48600009Y-41827295D02*
X48695247Y-41779676D01*
G36*
X53812705Y-38320616D02*
G01*
X53812705Y-38611753D01*
X55391002Y-38611753D01*
X57394282Y-37447692D01*
X57394282Y-37167789D01*
X55804749Y-37167789D01*
X53812705Y-38320616D01*
G37*
G36*
X56207750Y-35903100D02*
G01*
X53812705Y-35903100D01*
X53812705Y-36932828D01*
X53935803Y-36932828D01*
X56207750Y-36932828D01*
X57013751Y-36932828D01*
X57909146Y-36417964D01*
X57013751Y-35903100D01*
X56207750Y-35903100D01*
G37*
G36*
X57629243Y-38835479D02*
G01*
X58155343Y-39361579D01*
X58670206Y-38835479D01*
X58658971Y-38835479D01*
X58658971Y-38634223D01*
X58658971Y-38611753D01*
X58658971Y-37167789D01*
X58658971Y-36932828D01*
X58658971Y-36854670D01*
X58144107Y-36552297D01*
X57629243Y-36854670D01*
X57629243Y-36932828D01*
X57629243Y-37167789D01*
X57629243Y-37313358D01*
X57629243Y-38835479D01*
G37*
G36*
X61983116Y-36932828D02*
G01*
X62475510Y-36932828D01*
X62475510Y-35903100D01*
X60080465Y-35903100D01*
X59274463Y-35903100D01*
X58379069Y-36417964D01*
X59274463Y-36932828D01*
X60080465Y-36932828D01*
X61983116Y-36932828D01*
G37*
G36*
X58144107Y-33463114D02*
G01*
X57618008Y-34000448D01*
X57629243Y-34000448D01*
X57629243Y-35522569D01*
X57629243Y-35981746D01*
X58144107Y-36283630D01*
X58658971Y-35981746D01*
X58658971Y-34224175D01*
X58658971Y-34190957D01*
X58658971Y-34000448D01*
X58670206Y-34000448D01*
X58144107Y-33463114D01*
G37*
G36*
X60483465Y-35668138D02*
G01*
X62475510Y-34515312D01*
X62475510Y-34224175D01*
X60897213Y-34224175D01*
X58893933Y-35388236D01*
X58893933Y-35668138D01*
X60483465Y-35668138D01*
G37*
G36*
X58893933Y-37167789D02*
G01*
X58893933Y-37447692D01*
X60897213Y-38611753D01*
X62475510Y-38611753D01*
X62475510Y-38320616D01*
X60483465Y-37167789D01*
X58893933Y-37167789D01*
G37*
G36*
X52894840Y-33463114D02*
G01*
X52548015Y-33810427D01*
X52548015Y-39025989D01*
X52894840Y-39372814D01*
X53588978Y-38678676D01*
X53588978Y-38454949D01*
X53588978Y-36932828D01*
X53588978Y-35903100D01*
X53588978Y-34380978D01*
X53588978Y-34157252D01*
X52894840Y-33463114D01*
G37*
G36*
X57394282Y-35668138D02*
G01*
X57394282Y-35388236D01*
X55391002Y-34224175D01*
X53812705Y-34224175D01*
X53812705Y-34515312D01*
X55804749Y-35668138D01*
X57394282Y-35668138D01*
G37*
G36*
X58312146Y-39518382D02*
G01*
X58267206Y-39574070D01*
X58267206Y-39876442D01*
X62889746Y-39876442D01*
X63236571Y-39529618D01*
X62542433Y-38835479D01*
X62475510Y-38835479D01*
X61300213Y-38835479D01*
X58994561Y-38835479D01*
X58312146Y-39518382D01*
G37*
G36*
X63393375Y-39372814D02*
G01*
X63740200Y-39025989D01*
X63740200Y-33810427D01*
X63393375Y-33463114D01*
X62699236Y-34157252D01*
X62699236Y-34380978D01*
X62699236Y-35903100D01*
X62699236Y-36932828D01*
X62699236Y-38454949D01*
X62699236Y-38678676D01*
X63393375Y-39372814D01*
G37*
G36*
X53051644Y-39529618D02*
G01*
X53398469Y-39876442D01*
X58032244Y-39876442D01*
X58032244Y-39574070D01*
X57987303Y-39518382D01*
X57304889Y-38835479D01*
X56946340Y-38835479D01*
X54988001Y-38835479D01*
X53812705Y-38835479D01*
X53745782Y-38835479D01*
X53051644Y-39529618D01*
G37*
G36*
X57976068Y-33306798D02*
G01*
X58032244Y-33261858D01*
X58032244Y-32959485D01*
X53398469Y-32959485D01*
X53051644Y-33306798D01*
X53745782Y-34000448D01*
X53812705Y-34000448D01*
X54988001Y-34000448D01*
X57293654Y-34000448D01*
X57976068Y-33306798D01*
G37*
G36*
X63236571Y-33306798D02*
G01*
X62889746Y-32959485D01*
X58255971Y-32959485D01*
X58255971Y-33261858D01*
X58312146Y-33306798D01*
X58994561Y-34000448D01*
X61300213Y-34000448D01*
X62475510Y-34000448D01*
X62542433Y-34000448D01*
X63236571Y-33306798D01*
G37*
G36*
X62777883Y-41626198D02*
G01*
X63046550Y-41682374D01*
X63314728Y-41626198D01*
X63538943Y-41480630D01*
X63684512Y-41256903D01*
X63740200Y-40988236D01*
X63684512Y-40719569D01*
X63538943Y-40495842D01*
X63314728Y-40350274D01*
X63046550Y-40294098D01*
X62777883Y-40350274D01*
X62554156Y-40495842D01*
X62408587Y-40719569D01*
X62352412Y-40988236D01*
X62408587Y-41256903D01*
X62554156Y-41480630D01*
X62777883Y-41626198D01*
G37*
G36*
X53812705Y-47457252D02*
G01*
X53812705Y-47748389D01*
X55391002Y-47748389D01*
X57394282Y-46584328D01*
X57394282Y-46304426D01*
X55804749Y-46304426D01*
X53812705Y-47457252D01*
G37*
G36*
X56207750Y-45039736D02*
G01*
X53812705Y-45039736D01*
X53812705Y-46069464D01*
X53935803Y-46069464D01*
X56207750Y-46069464D01*
X57013751Y-46069464D01*
X57909146Y-45554600D01*
X57013751Y-45039736D01*
X56207750Y-45039736D01*
G37*
G36*
X57629243Y-47972116D02*
G01*
X58155343Y-48498215D01*
X58670206Y-47972116D01*
X58658971Y-47972116D01*
X58658971Y-47770860D01*
X58658971Y-47748389D01*
X58658971Y-46304426D01*
X58658971Y-46069464D01*
X58658971Y-45991306D01*
X58144107Y-45688934D01*
X57629243Y-45991306D01*
X57629243Y-46069464D01*
X57629243Y-46304426D01*
X57629243Y-46449994D01*
X57629243Y-47972116D01*
G37*
G36*
X61983116Y-46069464D02*
G01*
X62475510Y-46069464D01*
X62475510Y-45039736D01*
X60080465Y-45039736D01*
X59274463Y-45039736D01*
X58379069Y-45554600D01*
X59274463Y-46069464D01*
X60080465Y-46069464D01*
X61983116Y-46069464D01*
G37*
G36*
X58144107Y-42599750D02*
G01*
X57618008Y-43137084D01*
X57629243Y-43137084D01*
X57629243Y-44659206D01*
X57629243Y-45118382D01*
X58144107Y-45420267D01*
X58658971Y-45118382D01*
X58658971Y-43360811D01*
X58658971Y-43327594D01*
X58658971Y-43137084D01*
X58670206Y-43137084D01*
X58144107Y-42599750D01*
G37*
G36*
X60483465Y-44804775D02*
G01*
X62475510Y-43651948D01*
X62475510Y-43360811D01*
X60897213Y-43360811D01*
X58893933Y-44524872D01*
X58893933Y-44804775D01*
X60483465Y-44804775D01*
G37*
G36*
X58893933Y-46304426D02*
G01*
X58893933Y-46584328D01*
X60897213Y-47748389D01*
X62475510Y-47748389D01*
X62475510Y-47457252D01*
X60483465Y-46304426D01*
X58893933Y-46304426D01*
G37*
G36*
X52894840Y-42599750D02*
G01*
X52548015Y-42947064D01*
X52548015Y-48162625D01*
X52894840Y-48509450D01*
X53588978Y-47815312D01*
X53588978Y-47591586D01*
X53588978Y-46069464D01*
X53588978Y-45039736D01*
X53588978Y-43517615D01*
X53588978Y-43293888D01*
X52894840Y-42599750D01*
G37*
G36*
X57394282Y-44804775D02*
G01*
X57394282Y-44524872D01*
X55391002Y-43360811D01*
X53812705Y-43360811D01*
X53812705Y-43651948D01*
X55804749Y-44804775D01*
X57394282Y-44804775D01*
G37*
G36*
X58312146Y-48655019D02*
G01*
X58267206Y-48710706D01*
X58267206Y-49013079D01*
X62889746Y-49013079D01*
X63236571Y-48666254D01*
X62542433Y-47972116D01*
X62475510Y-47972116D01*
X61300213Y-47972116D01*
X58994561Y-47972116D01*
X58312146Y-48655019D01*
G37*
G36*
X63393375Y-48509450D02*
G01*
X63740200Y-48162625D01*
X63740200Y-42947064D01*
X63393375Y-42599750D01*
X62699236Y-43293888D01*
X62699236Y-43517615D01*
X62699236Y-45039736D01*
X62699236Y-46069464D01*
X62699236Y-47591586D01*
X62699236Y-47815312D01*
X63393375Y-48509450D01*
G37*
G36*
X53051644Y-48666254D02*
G01*
X53398469Y-49013079D01*
X58032244Y-49013079D01*
X58032244Y-48710706D01*
X57987303Y-48655019D01*
X57304889Y-47972116D01*
X56946340Y-47972116D01*
X54988001Y-47972116D01*
X53812705Y-47972116D01*
X53745782Y-47972116D01*
X53051644Y-48666254D01*
G37*
G36*
X57976068Y-42443435D02*
G01*
X58032244Y-42398494D01*
X58032244Y-42096121D01*
X53398469Y-42096121D01*
X53051644Y-42443435D01*
X53745782Y-43137084D01*
X53812705Y-43137084D01*
X54988001Y-43137084D01*
X57293654Y-43137084D01*
X57976068Y-42443435D01*
G37*
G36*
X63236571Y-42443435D02*
G01*
X62889746Y-42096121D01*
X58255971Y-42096121D01*
X58255971Y-42398494D01*
X58312146Y-42443435D01*
X58994561Y-43137084D01*
X61300213Y-43137084D01*
X62475510Y-43137084D01*
X62542433Y-43137084D01*
X63236571Y-42443435D01*
G37*
G36*
X62777883Y-50762835D02*
G01*
X63046550Y-50819011D01*
X63314728Y-50762835D01*
X63538943Y-50617266D01*
X63684512Y-50393539D01*
X63740200Y-50124872D01*
X63684512Y-49856205D01*
X63538943Y-49632479D01*
X63314728Y-49486910D01*
X63046550Y-49430734D01*
X62777883Y-49486910D01*
X62554156Y-49632479D01*
X62408587Y-49856205D01*
X62352412Y-50124872D01*
X62408587Y-50393539D01*
X62554156Y-50617266D01*
X62777883Y-50762835D01*
G37*
X49123819Y-115013954D02*
X48123819Y-115013954D01*
X48123819Y-115013954D02*
X48123819Y-115252049D01*
X48123819Y-115252049D02*
X48171438Y-115394906D01*
X48171438Y-115394906D02*
X48266676Y-115490144D01*
X48266676Y-115490144D02*
X48361914Y-115537763D01*
X48361914Y-115537763D02*
X48552390Y-115585382D01*
X48552390Y-115585382D02*
X48695247Y-115585382D01*
X48695247Y-115585382D02*
X48885723Y-115537763D01*
X48885723Y-115537763D02*
X48980961Y-115490144D01*
X48980961Y-115490144D02*
X49076200Y-115394906D01*
X49076200Y-115394906D02*
X49123819Y-115252049D01*
X49123819Y-115252049D02*
X49123819Y-115013954D01*
X49076200Y-115966335D02*
X49123819Y-116109192D01*
X49123819Y-116109192D02*
X49123819Y-116347287D01*
X49123819Y-116347287D02*
X49076200Y-116442525D01*
X49076200Y-116442525D02*
X49028580Y-116490144D01*
X49028580Y-116490144D02*
X48933342Y-116537763D01*
X48933342Y-116537763D02*
X48838104Y-116537763D01*
X48838104Y-116537763D02*
X48742866Y-116490144D01*
X48742866Y-116490144D02*
X48695247Y-116442525D01*
X48695247Y-116442525D02*
X48647628Y-116347287D01*
X48647628Y-116347287D02*
X48600009Y-116156811D01*
X48600009Y-116156811D02*
X48552390Y-116061573D01*
X48552390Y-116061573D02*
X48504771Y-116013954D01*
X48504771Y-116013954D02*
X48409533Y-115966335D01*
X48409533Y-115966335D02*
X48314295Y-115966335D01*
X48314295Y-115966335D02*
X48219057Y-116013954D01*
X48219057Y-116013954D02*
X48171438Y-116061573D01*
X48171438Y-116061573D02*
X48123819Y-116156811D01*
X48123819Y-116156811D02*
X48123819Y-116394906D01*
X48123819Y-116394906D02*
X48171438Y-116537763D01*
X49123819Y-116966335D02*
X48123819Y-116966335D01*
X48123819Y-116966335D02*
X48123819Y-117347287D01*
X48123819Y-117347287D02*
X48171438Y-117442525D01*
X48171438Y-117442525D02*
X48219057Y-117490144D01*
X48219057Y-117490144D02*
X48314295Y-117537763D01*
X48314295Y-117537763D02*
X48457152Y-117537763D01*
X48457152Y-117537763D02*
X48552390Y-117490144D01*
X48552390Y-117490144D02*
X48600009Y-117442525D01*
X48600009Y-117442525D02*
X48647628Y-117347287D01*
X48647628Y-117347287D02*
X48647628Y-116966335D01*
X48123819Y-117871097D02*
X48123819Y-118490144D01*
X48123819Y-118490144D02*
X48504771Y-118156811D01*
X48504771Y-118156811D02*
X48504771Y-118299668D01*
X48504771Y-118299668D02*
X48552390Y-118394906D01*
X48552390Y-118394906D02*
X48600009Y-118442525D01*
X48600009Y-118442525D02*
X48695247Y-118490144D01*
X48695247Y-118490144D02*
X48933342Y-118490144D01*
X48933342Y-118490144D02*
X49028580Y-118442525D01*
X49028580Y-118442525D02*
X49076200Y-118394906D01*
X49076200Y-118394906D02*
X49123819Y-118299668D01*
X49123819Y-118299668D02*
X49123819Y-118013954D01*
X49123819Y-118013954D02*
X49076200Y-117918716D01*
X49076200Y-117918716D02*
X49028580Y-117871097D01*
G36*
X53812705Y-114459656D02*
G01*
X53812705Y-114750793D01*
X55391002Y-114750793D01*
X57394282Y-113586732D01*
X57394282Y-113306829D01*
X55804749Y-113306829D01*
X53812705Y-114459656D01*
G37*
G36*
X56207750Y-112042140D02*
G01*
X53812705Y-112042140D01*
X53812705Y-113071868D01*
X53935803Y-113071868D01*
X56207750Y-113071868D01*
X57013751Y-113071868D01*
X57909146Y-112557004D01*
X57013751Y-112042140D01*
X56207750Y-112042140D01*
G37*
G36*
X57629243Y-114974519D02*
G01*
X58155343Y-115500619D01*
X58670206Y-114974519D01*
X58658971Y-114974519D01*
X58658971Y-114773263D01*
X58658971Y-114750793D01*
X58658971Y-113306829D01*
X58658971Y-113071868D01*
X58658971Y-112993710D01*
X58144107Y-112691337D01*
X57629243Y-112993710D01*
X57629243Y-113071868D01*
X57629243Y-113306829D01*
X57629243Y-113452398D01*
X57629243Y-114974519D01*
G37*
G36*
X61983116Y-113071868D02*
G01*
X62475510Y-113071868D01*
X62475510Y-112042140D01*
X60080465Y-112042140D01*
X59274463Y-112042140D01*
X58379069Y-112557004D01*
X59274463Y-113071868D01*
X60080465Y-113071868D01*
X61983116Y-113071868D01*
G37*
G36*
X58144107Y-109602154D02*
G01*
X57618008Y-110139488D01*
X57629243Y-110139488D01*
X57629243Y-111661609D01*
X57629243Y-112120786D01*
X58144107Y-112422670D01*
X58658971Y-112120786D01*
X58658971Y-110363215D01*
X58658971Y-110329997D01*
X58658971Y-110139488D01*
X58670206Y-110139488D01*
X58144107Y-109602154D01*
G37*
G36*
X60483465Y-111807178D02*
G01*
X62475510Y-110654352D01*
X62475510Y-110363215D01*
X60897213Y-110363215D01*
X58893933Y-111527276D01*
X58893933Y-111807178D01*
X60483465Y-111807178D01*
G37*
G36*
X58893933Y-113306829D02*
G01*
X58893933Y-113586732D01*
X60897213Y-114750793D01*
X62475510Y-114750793D01*
X62475510Y-114459656D01*
X60483465Y-113306829D01*
X58893933Y-113306829D01*
G37*
G36*
X52894840Y-109602154D02*
G01*
X52548015Y-109949467D01*
X52548015Y-115165029D01*
X52894840Y-115511854D01*
X53588978Y-114817716D01*
X53588978Y-114593989D01*
X53588978Y-113071868D01*
X53588978Y-112042140D01*
X53588978Y-110520018D01*
X53588978Y-110296292D01*
X52894840Y-109602154D01*
G37*
G36*
X57394282Y-111807178D02*
G01*
X57394282Y-111527276D01*
X55391002Y-110363215D01*
X53812705Y-110363215D01*
X53812705Y-110654352D01*
X55804749Y-111807178D01*
X57394282Y-111807178D01*
G37*
G36*
X58312146Y-115657422D02*
G01*
X58267206Y-115713110D01*
X58267206Y-116015482D01*
X62889746Y-116015482D01*
X63236571Y-115668658D01*
X62542433Y-114974519D01*
X62475510Y-114974519D01*
X61300213Y-114974519D01*
X58994561Y-114974519D01*
X58312146Y-115657422D01*
G37*
G36*
X63393375Y-115511854D02*
G01*
X63740200Y-115165029D01*
X63740200Y-109949467D01*
X63393375Y-109602154D01*
X62699236Y-110296292D01*
X62699236Y-110520018D01*
X62699236Y-112042140D01*
X62699236Y-113071868D01*
X62699236Y-114593989D01*
X62699236Y-114817716D01*
X63393375Y-115511854D01*
G37*
G36*
X53051644Y-115668658D02*
G01*
X53398469Y-116015482D01*
X58032244Y-116015482D01*
X58032244Y-115713110D01*
X57987303Y-115657422D01*
X57304889Y-114974519D01*
X56946340Y-114974519D01*
X54988001Y-114974519D01*
X53812705Y-114974519D01*
X53745782Y-114974519D01*
X53051644Y-115668658D01*
G37*
G36*
X57976068Y-109445838D02*
G01*
X58032244Y-109400898D01*
X58032244Y-109098525D01*
X53398469Y-109098525D01*
X53051644Y-109445838D01*
X53745782Y-110139488D01*
X53812705Y-110139488D01*
X54988001Y-110139488D01*
X57293654Y-110139488D01*
X57976068Y-109445838D01*
G37*
G36*
X63236571Y-109445838D02*
G01*
X62889746Y-109098525D01*
X58255971Y-109098525D01*
X58255971Y-109400898D01*
X58312146Y-109445838D01*
X58994561Y-110139488D01*
X61300213Y-110139488D01*
X62475510Y-110139488D01*
X62542433Y-110139488D01*
X63236571Y-109445838D01*
G37*
G36*
X62777883Y-117765238D02*
G01*
X63046550Y-117821414D01*
X63314728Y-117765238D01*
X63538943Y-117619670D01*
X63684512Y-117395943D01*
X63740200Y-117127276D01*
X63684512Y-116858609D01*
X63538943Y-116634882D01*
X63314728Y-116489314D01*
X63046550Y-116433138D01*
X62777883Y-116489314D01*
X62554156Y-116634882D01*
X62408587Y-116858609D01*
X62352412Y-117127276D01*
X62408587Y-117395943D01*
X62554156Y-117619670D01*
X62777883Y-117765238D01*
G37*
G36*
X53812705Y-123596292D02*
G01*
X53812705Y-123887429D01*
X55391002Y-123887429D01*
X57394282Y-122723368D01*
X57394282Y-122443466D01*
X55804749Y-122443466D01*
X53812705Y-123596292D01*
G37*
G36*
X56207750Y-121178776D02*
G01*
X53812705Y-121178776D01*
X53812705Y-122208504D01*
X53935803Y-122208504D01*
X56207750Y-122208504D01*
X57013751Y-122208504D01*
X57909146Y-121693640D01*
X57013751Y-121178776D01*
X56207750Y-121178776D01*
G37*
G36*
X57629243Y-124111156D02*
G01*
X58155343Y-124637255D01*
X58670206Y-124111156D01*
X58658971Y-124111156D01*
X58658971Y-123909900D01*
X58658971Y-123887429D01*
X58658971Y-122443466D01*
X58658971Y-122208504D01*
X58658971Y-122130346D01*
X58144107Y-121827974D01*
X57629243Y-122130346D01*
X57629243Y-122208504D01*
X57629243Y-122443466D01*
X57629243Y-122589034D01*
X57629243Y-124111156D01*
G37*
G36*
X61983116Y-122208504D02*
G01*
X62475510Y-122208504D01*
X62475510Y-121178776D01*
X60080465Y-121178776D01*
X59274463Y-121178776D01*
X58379069Y-121693640D01*
X59274463Y-122208504D01*
X60080465Y-122208504D01*
X61983116Y-122208504D01*
G37*
G36*
X58144107Y-118738790D02*
G01*
X57618008Y-119276124D01*
X57629243Y-119276124D01*
X57629243Y-120798246D01*
X57629243Y-121257422D01*
X58144107Y-121559307D01*
X58658971Y-121257422D01*
X58658971Y-119499851D01*
X58658971Y-119466634D01*
X58658971Y-119276124D01*
X58670206Y-119276124D01*
X58144107Y-118738790D01*
G37*
G36*
X60483465Y-120943815D02*
G01*
X62475510Y-119790988D01*
X62475510Y-119499851D01*
X60897213Y-119499851D01*
X58893933Y-120663912D01*
X58893933Y-120943815D01*
X60483465Y-120943815D01*
G37*
G36*
X58893933Y-122443466D02*
G01*
X58893933Y-122723368D01*
X60897213Y-123887429D01*
X62475510Y-123887429D01*
X62475510Y-123596292D01*
X60483465Y-122443466D01*
X58893933Y-122443466D01*
G37*
G36*
X52894840Y-118738790D02*
G01*
X52548015Y-119086104D01*
X52548015Y-124301665D01*
X52894840Y-124648490D01*
X53588978Y-123954352D01*
X53588978Y-123730626D01*
X53588978Y-122208504D01*
X53588978Y-121178776D01*
X53588978Y-119656655D01*
X53588978Y-119432928D01*
X52894840Y-118738790D01*
G37*
G36*
X57394282Y-120943815D02*
G01*
X57394282Y-120663912D01*
X55391002Y-119499851D01*
X53812705Y-119499851D01*
X53812705Y-119790988D01*
X55804749Y-120943815D01*
X57394282Y-120943815D01*
G37*
G36*
X58312146Y-124794059D02*
G01*
X58267206Y-124849746D01*
X58267206Y-125152119D01*
X62889746Y-125152119D01*
X63236571Y-124805294D01*
X62542433Y-124111156D01*
X62475510Y-124111156D01*
X61300213Y-124111156D01*
X58994561Y-124111156D01*
X58312146Y-124794059D01*
G37*
G36*
X63393375Y-124648490D02*
G01*
X63740200Y-124301665D01*
X63740200Y-119086104D01*
X63393375Y-118738790D01*
X62699236Y-119432928D01*
X62699236Y-119656655D01*
X62699236Y-121178776D01*
X62699236Y-122208504D01*
X62699236Y-123730626D01*
X62699236Y-123954352D01*
X63393375Y-124648490D01*
G37*
G36*
X53051644Y-124805294D02*
G01*
X53398469Y-125152119D01*
X58032244Y-125152119D01*
X58032244Y-124849746D01*
X57987303Y-124794059D01*
X57304889Y-124111156D01*
X56946340Y-124111156D01*
X54988001Y-124111156D01*
X53812705Y-124111156D01*
X53745782Y-124111156D01*
X53051644Y-124805294D01*
G37*
G36*
X57976068Y-118582475D02*
G01*
X58032244Y-118537534D01*
X58032244Y-118235161D01*
X53398469Y-118235161D01*
X53051644Y-118582475D01*
X53745782Y-119276124D01*
X53812705Y-119276124D01*
X54988001Y-119276124D01*
X57293654Y-119276124D01*
X57976068Y-118582475D01*
G37*
G36*
X63236571Y-118582475D02*
G01*
X62889746Y-118235161D01*
X58255971Y-118235161D01*
X58255971Y-118537534D01*
X58312146Y-118582475D01*
X58994561Y-119276124D01*
X61300213Y-119276124D01*
X62475510Y-119276124D01*
X62542433Y-119276124D01*
X63236571Y-118582475D01*
G37*
G36*
X62777883Y-126901875D02*
G01*
X63046550Y-126958051D01*
X63314728Y-126901875D01*
X63538943Y-126756306D01*
X63684512Y-126532579D01*
X63740200Y-126263912D01*
X63684512Y-125995245D01*
X63538943Y-125771519D01*
X63314728Y-125625950D01*
X63046550Y-125569774D01*
X62777883Y-125625950D01*
X62554156Y-125771519D01*
X62408587Y-125995245D01*
X62352412Y-126263912D01*
X62408587Y-126532579D01*
X62554156Y-126756306D01*
X62777883Y-126901875D01*
G37*
X49123819Y-64254594D02*
X48123819Y-64254594D01*
X48123819Y-64254594D02*
X48123819Y-64492689D01*
X48123819Y-64492689D02*
X48171438Y-64635546D01*
X48171438Y-64635546D02*
X48266676Y-64730784D01*
X48266676Y-64730784D02*
X48361914Y-64778403D01*
X48361914Y-64778403D02*
X48552390Y-64826022D01*
X48552390Y-64826022D02*
X48695247Y-64826022D01*
X48695247Y-64826022D02*
X48885723Y-64778403D01*
X48885723Y-64778403D02*
X48980961Y-64730784D01*
X48980961Y-64730784D02*
X49076200Y-64635546D01*
X49076200Y-64635546D02*
X49123819Y-64492689D01*
X49123819Y-64492689D02*
X49123819Y-64254594D01*
X49076200Y-65206975D02*
X49123819Y-65349832D01*
X49123819Y-65349832D02*
X49123819Y-65587927D01*
X49123819Y-65587927D02*
X49076200Y-65683165D01*
X49076200Y-65683165D02*
X49028580Y-65730784D01*
X49028580Y-65730784D02*
X48933342Y-65778403D01*
X48933342Y-65778403D02*
X48838104Y-65778403D01*
X48838104Y-65778403D02*
X48742866Y-65730784D01*
X48742866Y-65730784D02*
X48695247Y-65683165D01*
X48695247Y-65683165D02*
X48647628Y-65587927D01*
X48647628Y-65587927D02*
X48600009Y-65397451D01*
X48600009Y-65397451D02*
X48552390Y-65302213D01*
X48552390Y-65302213D02*
X48504771Y-65254594D01*
X48504771Y-65254594D02*
X48409533Y-65206975D01*
X48409533Y-65206975D02*
X48314295Y-65206975D01*
X48314295Y-65206975D02*
X48219057Y-65254594D01*
X48219057Y-65254594D02*
X48171438Y-65302213D01*
X48171438Y-65302213D02*
X48123819Y-65397451D01*
X48123819Y-65397451D02*
X48123819Y-65635546D01*
X48123819Y-65635546D02*
X48171438Y-65778403D01*
X49123819Y-66206975D02*
X48123819Y-66206975D01*
X48123819Y-66206975D02*
X48123819Y-66587927D01*
X48123819Y-66587927D02*
X48171438Y-66683165D01*
X48171438Y-66683165D02*
X48219057Y-66730784D01*
X48219057Y-66730784D02*
X48314295Y-66778403D01*
X48314295Y-66778403D02*
X48457152Y-66778403D01*
X48457152Y-66778403D02*
X48552390Y-66730784D01*
X48552390Y-66730784D02*
X48600009Y-66683165D01*
X48600009Y-66683165D02*
X48647628Y-66587927D01*
X48647628Y-66587927D02*
X48647628Y-66206975D01*
X48123819Y-67683165D02*
X48123819Y-67206975D01*
X48123819Y-67206975D02*
X48600009Y-67159356D01*
X48600009Y-67159356D02*
X48552390Y-67206975D01*
X48552390Y-67206975D02*
X48504771Y-67302213D01*
X48504771Y-67302213D02*
X48504771Y-67540308D01*
X48504771Y-67540308D02*
X48552390Y-67635546D01*
X48552390Y-67635546D02*
X48600009Y-67683165D01*
X48600009Y-67683165D02*
X48695247Y-67730784D01*
X48695247Y-67730784D02*
X48933342Y-67730784D01*
X48933342Y-67730784D02*
X49028580Y-67683165D01*
X49028580Y-67683165D02*
X49076200Y-67635546D01*
X49076200Y-67635546D02*
X49123819Y-67540308D01*
X49123819Y-67540308D02*
X49123819Y-67302213D01*
X49123819Y-67302213D02*
X49076200Y-67206975D01*
X49076200Y-67206975D02*
X49028580Y-67159356D01*
G36*
X53812705Y-63700296D02*
G01*
X53812705Y-63991433D01*
X55391002Y-63991433D01*
X57394282Y-62827372D01*
X57394282Y-62547469D01*
X55804749Y-62547469D01*
X53812705Y-63700296D01*
G37*
G36*
X56207750Y-61282780D02*
G01*
X53812705Y-61282780D01*
X53812705Y-62312508D01*
X53935803Y-62312508D01*
X56207750Y-62312508D01*
X57013751Y-62312508D01*
X57909146Y-61797644D01*
X57013751Y-61282780D01*
X56207750Y-61282780D01*
G37*
G36*
X57629243Y-64215159D02*
G01*
X58155343Y-64741259D01*
X58670206Y-64215159D01*
X58658971Y-64215159D01*
X58658971Y-64013903D01*
X58658971Y-63991433D01*
X58658971Y-62547469D01*
X58658971Y-62312508D01*
X58658971Y-62234350D01*
X58144107Y-61931977D01*
X57629243Y-62234350D01*
X57629243Y-62312508D01*
X57629243Y-62547469D01*
X57629243Y-62693038D01*
X57629243Y-64215159D01*
G37*
G36*
X61983116Y-62312508D02*
G01*
X62475510Y-62312508D01*
X62475510Y-61282780D01*
X60080465Y-61282780D01*
X59274463Y-61282780D01*
X58379069Y-61797644D01*
X59274463Y-62312508D01*
X60080465Y-62312508D01*
X61983116Y-62312508D01*
G37*
G36*
X58144107Y-58842794D02*
G01*
X57618008Y-59380128D01*
X57629243Y-59380128D01*
X57629243Y-60902249D01*
X57629243Y-61361426D01*
X58144107Y-61663310D01*
X58658971Y-61361426D01*
X58658971Y-59603855D01*
X58658971Y-59570637D01*
X58658971Y-59380128D01*
X58670206Y-59380128D01*
X58144107Y-58842794D01*
G37*
G36*
X60483465Y-61047818D02*
G01*
X62475510Y-59894992D01*
X62475510Y-59603855D01*
X60897213Y-59603855D01*
X58893933Y-60767916D01*
X58893933Y-61047818D01*
X60483465Y-61047818D01*
G37*
G36*
X58893933Y-62547469D02*
G01*
X58893933Y-62827372D01*
X60897213Y-63991433D01*
X62475510Y-63991433D01*
X62475510Y-63700296D01*
X60483465Y-62547469D01*
X58893933Y-62547469D01*
G37*
G36*
X52894840Y-58842794D02*
G01*
X52548015Y-59190107D01*
X52548015Y-64405669D01*
X52894840Y-64752494D01*
X53588978Y-64058356D01*
X53588978Y-63834629D01*
X53588978Y-62312508D01*
X53588978Y-61282780D01*
X53588978Y-59760658D01*
X53588978Y-59536932D01*
X52894840Y-58842794D01*
G37*
G36*
X57394282Y-61047818D02*
G01*
X57394282Y-60767916D01*
X55391002Y-59603855D01*
X53812705Y-59603855D01*
X53812705Y-59894992D01*
X55804749Y-61047818D01*
X57394282Y-61047818D01*
G37*
G36*
X58312146Y-64898062D02*
G01*
X58267206Y-64953750D01*
X58267206Y-65256122D01*
X62889746Y-65256122D01*
X63236571Y-64909298D01*
X62542433Y-64215159D01*
X62475510Y-64215159D01*
X61300213Y-64215159D01*
X58994561Y-64215159D01*
X58312146Y-64898062D01*
G37*
G36*
X63393375Y-64752494D02*
G01*
X63740200Y-64405669D01*
X63740200Y-59190107D01*
X63393375Y-58842794D01*
X62699236Y-59536932D01*
X62699236Y-59760658D01*
X62699236Y-61282780D01*
X62699236Y-62312508D01*
X62699236Y-63834629D01*
X62699236Y-64058356D01*
X63393375Y-64752494D01*
G37*
G36*
X53051644Y-64909298D02*
G01*
X53398469Y-65256122D01*
X58032244Y-65256122D01*
X58032244Y-64953750D01*
X57987303Y-64898062D01*
X57304889Y-64215159D01*
X56946340Y-64215159D01*
X54988001Y-64215159D01*
X53812705Y-64215159D01*
X53745782Y-64215159D01*
X53051644Y-64909298D01*
G37*
G36*
X57976068Y-58686478D02*
G01*
X58032244Y-58641538D01*
X58032244Y-58339165D01*
X53398469Y-58339165D01*
X53051644Y-58686478D01*
X53745782Y-59380128D01*
X53812705Y-59380128D01*
X54988001Y-59380128D01*
X57293654Y-59380128D01*
X57976068Y-58686478D01*
G37*
G36*
X63236571Y-58686478D02*
G01*
X62889746Y-58339165D01*
X58255971Y-58339165D01*
X58255971Y-58641538D01*
X58312146Y-58686478D01*
X58994561Y-59380128D01*
X61300213Y-59380128D01*
X62475510Y-59380128D01*
X62542433Y-59380128D01*
X63236571Y-58686478D01*
G37*
G36*
X62777883Y-67005878D02*
G01*
X63046550Y-67062054D01*
X63314728Y-67005878D01*
X63538943Y-66860310D01*
X63684512Y-66636583D01*
X63740200Y-66367916D01*
X63684512Y-66099249D01*
X63538943Y-65875522D01*
X63314728Y-65729954D01*
X63046550Y-65673778D01*
X62777883Y-65729954D01*
X62554156Y-65875522D01*
X62408587Y-66099249D01*
X62352412Y-66367916D01*
X62408587Y-66636583D01*
X62554156Y-66860310D01*
X62777883Y-67005878D01*
G37*
G36*
X53812705Y-72836932D02*
G01*
X53812705Y-73128069D01*
X55391002Y-73128069D01*
X57394282Y-71964008D01*
X57394282Y-71684106D01*
X55804749Y-71684106D01*
X53812705Y-72836932D01*
G37*
G36*
X56207750Y-70419416D02*
G01*
X53812705Y-70419416D01*
X53812705Y-71449144D01*
X53935803Y-71449144D01*
X56207750Y-71449144D01*
X57013751Y-71449144D01*
X57909146Y-70934280D01*
X57013751Y-70419416D01*
X56207750Y-70419416D01*
G37*
G36*
X57629243Y-73351796D02*
G01*
X58155343Y-73877895D01*
X58670206Y-73351796D01*
X58658971Y-73351796D01*
X58658971Y-73150540D01*
X58658971Y-73128069D01*
X58658971Y-71684106D01*
X58658971Y-71449144D01*
X58658971Y-71370986D01*
X58144107Y-71068614D01*
X57629243Y-71370986D01*
X57629243Y-71449144D01*
X57629243Y-71684106D01*
X57629243Y-71829674D01*
X57629243Y-73351796D01*
G37*
G36*
X61983116Y-71449144D02*
G01*
X62475510Y-71449144D01*
X62475510Y-70419416D01*
X60080465Y-70419416D01*
X59274463Y-70419416D01*
X58379069Y-70934280D01*
X59274463Y-71449144D01*
X60080465Y-71449144D01*
X61983116Y-71449144D01*
G37*
G36*
X58144107Y-67979430D02*
G01*
X57618008Y-68516764D01*
X57629243Y-68516764D01*
X57629243Y-70038886D01*
X57629243Y-70498062D01*
X58144107Y-70799947D01*
X58658971Y-70498062D01*
X58658971Y-68740491D01*
X58658971Y-68707274D01*
X58658971Y-68516764D01*
X58670206Y-68516764D01*
X58144107Y-67979430D01*
G37*
G36*
X60483465Y-70184455D02*
G01*
X62475510Y-69031628D01*
X62475510Y-68740491D01*
X60897213Y-68740491D01*
X58893933Y-69904552D01*
X58893933Y-70184455D01*
X60483465Y-70184455D01*
G37*
G36*
X58893933Y-71684106D02*
G01*
X58893933Y-71964008D01*
X60897213Y-73128069D01*
X62475510Y-73128069D01*
X62475510Y-72836932D01*
X60483465Y-71684106D01*
X58893933Y-71684106D01*
G37*
G36*
X52894840Y-67979430D02*
G01*
X52548015Y-68326744D01*
X52548015Y-73542305D01*
X52894840Y-73889130D01*
X53588978Y-73194992D01*
X53588978Y-72971266D01*
X53588978Y-71449144D01*
X53588978Y-70419416D01*
X53588978Y-68897295D01*
X53588978Y-68673568D01*
X52894840Y-67979430D01*
G37*
G36*
X57394282Y-70184455D02*
G01*
X57394282Y-69904552D01*
X55391002Y-68740491D01*
X53812705Y-68740491D01*
X53812705Y-69031628D01*
X55804749Y-70184455D01*
X57394282Y-70184455D01*
G37*
G36*
X58312146Y-74034699D02*
G01*
X58267206Y-74090386D01*
X58267206Y-74392759D01*
X62889746Y-74392759D01*
X63236571Y-74045934D01*
X62542433Y-73351796D01*
X62475510Y-73351796D01*
X61300213Y-73351796D01*
X58994561Y-73351796D01*
X58312146Y-74034699D01*
G37*
G36*
X63393375Y-73889130D02*
G01*
X63740200Y-73542305D01*
X63740200Y-68326744D01*
X63393375Y-67979430D01*
X62699236Y-68673568D01*
X62699236Y-68897295D01*
X62699236Y-70419416D01*
X62699236Y-71449144D01*
X62699236Y-72971266D01*
X62699236Y-73194992D01*
X63393375Y-73889130D01*
G37*
G36*
X53051644Y-74045934D02*
G01*
X53398469Y-74392759D01*
X58032244Y-74392759D01*
X58032244Y-74090386D01*
X57987303Y-74034699D01*
X57304889Y-73351796D01*
X56946340Y-73351796D01*
X54988001Y-73351796D01*
X53812705Y-73351796D01*
X53745782Y-73351796D01*
X53051644Y-74045934D01*
G37*
G36*
X57976068Y-67823115D02*
G01*
X58032244Y-67778174D01*
X58032244Y-67475801D01*
X53398469Y-67475801D01*
X53051644Y-67823115D01*
X53745782Y-68516764D01*
X53812705Y-68516764D01*
X54988001Y-68516764D01*
X57293654Y-68516764D01*
X57976068Y-67823115D01*
G37*
G36*
X63236571Y-67823115D02*
G01*
X62889746Y-67475801D01*
X58255971Y-67475801D01*
X58255971Y-67778174D01*
X58312146Y-67823115D01*
X58994561Y-68516764D01*
X61300213Y-68516764D01*
X62475510Y-68516764D01*
X62542433Y-68516764D01*
X63236571Y-67823115D01*
G37*
G36*
X62777883Y-76142515D02*
G01*
X63046550Y-76198691D01*
X63314728Y-76142515D01*
X63538943Y-75996946D01*
X63684512Y-75773219D01*
X63740200Y-75504552D01*
X63684512Y-75235885D01*
X63538943Y-75012159D01*
X63314728Y-74866590D01*
X63046550Y-74810414D01*
X62777883Y-74866590D01*
X62554156Y-75012159D01*
X62408587Y-75235885D01*
X62352412Y-75504552D01*
X62408587Y-75773219D01*
X62554156Y-75996946D01*
X62777883Y-76142515D01*
G37*
X49123819Y-140393634D02*
X48123819Y-140393634D01*
X48123819Y-140393634D02*
X48123819Y-140631729D01*
X48123819Y-140631729D02*
X48171438Y-140774586D01*
X48171438Y-140774586D02*
X48266676Y-140869824D01*
X48266676Y-140869824D02*
X48361914Y-140917443D01*
X48361914Y-140917443D02*
X48552390Y-140965062D01*
X48552390Y-140965062D02*
X48695247Y-140965062D01*
X48695247Y-140965062D02*
X48885723Y-140917443D01*
X48885723Y-140917443D02*
X48980961Y-140869824D01*
X48980961Y-140869824D02*
X49076200Y-140774586D01*
X49076200Y-140774586D02*
X49123819Y-140631729D01*
X49123819Y-140631729D02*
X49123819Y-140393634D01*
X49076200Y-141346015D02*
X49123819Y-141488872D01*
X49123819Y-141488872D02*
X49123819Y-141726967D01*
X49123819Y-141726967D02*
X49076200Y-141822205D01*
X49076200Y-141822205D02*
X49028580Y-141869824D01*
X49028580Y-141869824D02*
X48933342Y-141917443D01*
X48933342Y-141917443D02*
X48838104Y-141917443D01*
X48838104Y-141917443D02*
X48742866Y-141869824D01*
X48742866Y-141869824D02*
X48695247Y-141822205D01*
X48695247Y-141822205D02*
X48647628Y-141726967D01*
X48647628Y-141726967D02*
X48600009Y-141536491D01*
X48600009Y-141536491D02*
X48552390Y-141441253D01*
X48552390Y-141441253D02*
X48504771Y-141393634D01*
X48504771Y-141393634D02*
X48409533Y-141346015D01*
X48409533Y-141346015D02*
X48314295Y-141346015D01*
X48314295Y-141346015D02*
X48219057Y-141393634D01*
X48219057Y-141393634D02*
X48171438Y-141441253D01*
X48171438Y-141441253D02*
X48123819Y-141536491D01*
X48123819Y-141536491D02*
X48123819Y-141774586D01*
X48123819Y-141774586D02*
X48171438Y-141917443D01*
X49123819Y-142346015D02*
X48123819Y-142346015D01*
X48123819Y-142346015D02*
X48123819Y-142726967D01*
X48123819Y-142726967D02*
X48171438Y-142822205D01*
X48171438Y-142822205D02*
X48219057Y-142869824D01*
X48219057Y-142869824D02*
X48314295Y-142917443D01*
X48314295Y-142917443D02*
X48457152Y-142917443D01*
X48457152Y-142917443D02*
X48552390Y-142869824D01*
X48552390Y-142869824D02*
X48600009Y-142822205D01*
X48600009Y-142822205D02*
X48647628Y-142726967D01*
X48647628Y-142726967D02*
X48647628Y-142346015D01*
X48219057Y-143298396D02*
X48171438Y-143346015D01*
X48171438Y-143346015D02*
X48123819Y-143441253D01*
X48123819Y-143441253D02*
X48123819Y-143679348D01*
X48123819Y-143679348D02*
X48171438Y-143774586D01*
X48171438Y-143774586D02*
X48219057Y-143822205D01*
X48219057Y-143822205D02*
X48314295Y-143869824D01*
X48314295Y-143869824D02*
X48409533Y-143869824D01*
X48409533Y-143869824D02*
X48552390Y-143822205D01*
X48552390Y-143822205D02*
X49123819Y-143250777D01*
X49123819Y-143250777D02*
X49123819Y-143869824D01*
G36*
X53812705Y-139839336D02*
G01*
X53812705Y-140130473D01*
X55391002Y-140130473D01*
X57394282Y-138966412D01*
X57394282Y-138686509D01*
X55804749Y-138686509D01*
X53812705Y-139839336D01*
G37*
G36*
X56207750Y-137421820D02*
G01*
X53812705Y-137421820D01*
X53812705Y-138451548D01*
X53935803Y-138451548D01*
X56207750Y-138451548D01*
X57013751Y-138451548D01*
X57909146Y-137936684D01*
X57013751Y-137421820D01*
X56207750Y-137421820D01*
G37*
G36*
X57629243Y-140354199D02*
G01*
X58155343Y-140880299D01*
X58670206Y-140354199D01*
X58658971Y-140354199D01*
X58658971Y-140152943D01*
X58658971Y-140130473D01*
X58658971Y-138686509D01*
X58658971Y-138451548D01*
X58658971Y-138373390D01*
X58144107Y-138071017D01*
X57629243Y-138373390D01*
X57629243Y-138451548D01*
X57629243Y-138686509D01*
X57629243Y-138832078D01*
X57629243Y-140354199D01*
G37*
G36*
X61983116Y-138451548D02*
G01*
X62475510Y-138451548D01*
X62475510Y-137421820D01*
X60080465Y-137421820D01*
X59274463Y-137421820D01*
X58379069Y-137936684D01*
X59274463Y-138451548D01*
X60080465Y-138451548D01*
X61983116Y-138451548D01*
G37*
G36*
X58144107Y-134981834D02*
G01*
X57618008Y-135519168D01*
X57629243Y-135519168D01*
X57629243Y-137041289D01*
X57629243Y-137500466D01*
X58144107Y-137802350D01*
X58658971Y-137500466D01*
X58658971Y-135742895D01*
X58658971Y-135709677D01*
X58658971Y-135519168D01*
X58670206Y-135519168D01*
X58144107Y-134981834D01*
G37*
G36*
X60483465Y-137186858D02*
G01*
X62475510Y-136034032D01*
X62475510Y-135742895D01*
X60897213Y-135742895D01*
X58893933Y-136906956D01*
X58893933Y-137186858D01*
X60483465Y-137186858D01*
G37*
G36*
X58893933Y-138686509D02*
G01*
X58893933Y-138966412D01*
X60897213Y-140130473D01*
X62475510Y-140130473D01*
X62475510Y-139839336D01*
X60483465Y-138686509D01*
X58893933Y-138686509D01*
G37*
G36*
X52894840Y-134981834D02*
G01*
X52548015Y-135329147D01*
X52548015Y-140544709D01*
X52894840Y-140891534D01*
X53588978Y-140197396D01*
X53588978Y-139973669D01*
X53588978Y-138451548D01*
X53588978Y-137421820D01*
X53588978Y-135899698D01*
X53588978Y-135675972D01*
X52894840Y-134981834D01*
G37*
G36*
X57394282Y-137186858D02*
G01*
X57394282Y-136906956D01*
X55391002Y-135742895D01*
X53812705Y-135742895D01*
X53812705Y-136034032D01*
X55804749Y-137186858D01*
X57394282Y-137186858D01*
G37*
G36*
X58312146Y-141037102D02*
G01*
X58267206Y-141092790D01*
X58267206Y-141395162D01*
X62889746Y-141395162D01*
X63236571Y-141048338D01*
X62542433Y-140354199D01*
X62475510Y-140354199D01*
X61300213Y-140354199D01*
X58994561Y-140354199D01*
X58312146Y-141037102D01*
G37*
G36*
X63393375Y-140891534D02*
G01*
X63740200Y-140544709D01*
X63740200Y-135329147D01*
X63393375Y-134981834D01*
X62699236Y-135675972D01*
X62699236Y-135899698D01*
X62699236Y-137421820D01*
X62699236Y-138451548D01*
X62699236Y-139973669D01*
X62699236Y-140197396D01*
X63393375Y-140891534D01*
G37*
G36*
X53051644Y-141048338D02*
G01*
X53398469Y-141395162D01*
X58032244Y-141395162D01*
X58032244Y-141092790D01*
X57987303Y-141037102D01*
X57304889Y-140354199D01*
X56946340Y-140354199D01*
X54988001Y-140354199D01*
X53812705Y-140354199D01*
X53745782Y-140354199D01*
X53051644Y-141048338D01*
G37*
G36*
X57976068Y-134825518D02*
G01*
X58032244Y-134780578D01*
X58032244Y-134478205D01*
X53398469Y-134478205D01*
X53051644Y-134825518D01*
X53745782Y-135519168D01*
X53812705Y-135519168D01*
X54988001Y-135519168D01*
X57293654Y-135519168D01*
X57976068Y-134825518D01*
G37*
G36*
X63236571Y-134825518D02*
G01*
X62889746Y-134478205D01*
X58255971Y-134478205D01*
X58255971Y-134780578D01*
X58312146Y-134825518D01*
X58994561Y-135519168D01*
X61300213Y-135519168D01*
X62475510Y-135519168D01*
X62542433Y-135519168D01*
X63236571Y-134825518D01*
G37*
G36*
X62777883Y-143144918D02*
G01*
X63046550Y-143201094D01*
X63314728Y-143144918D01*
X63538943Y-142999350D01*
X63684512Y-142775623D01*
X63740200Y-142506956D01*
X63684512Y-142238289D01*
X63538943Y-142014562D01*
X63314728Y-141868994D01*
X63046550Y-141812818D01*
X62777883Y-141868994D01*
X62554156Y-142014562D01*
X62408587Y-142238289D01*
X62352412Y-142506956D01*
X62408587Y-142775623D01*
X62554156Y-142999350D01*
X62777883Y-143144918D01*
G37*
G36*
X53812705Y-148975972D02*
G01*
X53812705Y-149267109D01*
X55391002Y-149267109D01*
X57394282Y-148103048D01*
X57394282Y-147823146D01*
X55804749Y-147823146D01*
X53812705Y-148975972D01*
G37*
G36*
X56207750Y-146558456D02*
G01*
X53812705Y-146558456D01*
X53812705Y-147588184D01*
X53935803Y-147588184D01*
X56207750Y-147588184D01*
X57013751Y-147588184D01*
X57909146Y-147073320D01*
X57013751Y-146558456D01*
X56207750Y-146558456D01*
G37*
G36*
X57629243Y-149490836D02*
G01*
X58155343Y-150016935D01*
X58670206Y-149490836D01*
X58658971Y-149490836D01*
X58658971Y-149289580D01*
X58658971Y-149267109D01*
X58658971Y-147823146D01*
X58658971Y-147588184D01*
X58658971Y-147510026D01*
X58144107Y-147207654D01*
X57629243Y-147510026D01*
X57629243Y-147588184D01*
X57629243Y-147823146D01*
X57629243Y-147968714D01*
X57629243Y-149490836D01*
G37*
G36*
X61983116Y-147588184D02*
G01*
X62475510Y-147588184D01*
X62475510Y-146558456D01*
X60080465Y-146558456D01*
X59274463Y-146558456D01*
X58379069Y-147073320D01*
X59274463Y-147588184D01*
X60080465Y-147588184D01*
X61983116Y-147588184D01*
G37*
G36*
X58144107Y-144118470D02*
G01*
X57618008Y-144655804D01*
X57629243Y-144655804D01*
X57629243Y-146177926D01*
X57629243Y-146637102D01*
X58144107Y-146938987D01*
X58658971Y-146637102D01*
X58658971Y-144879531D01*
X58658971Y-144846314D01*
X58658971Y-144655804D01*
X58670206Y-144655804D01*
X58144107Y-144118470D01*
G37*
G36*
X60483465Y-146323495D02*
G01*
X62475510Y-145170668D01*
X62475510Y-144879531D01*
X60897213Y-144879531D01*
X58893933Y-146043592D01*
X58893933Y-146323495D01*
X60483465Y-146323495D01*
G37*
G36*
X58893933Y-147823146D02*
G01*
X58893933Y-148103048D01*
X60897213Y-149267109D01*
X62475510Y-149267109D01*
X62475510Y-148975972D01*
X60483465Y-147823146D01*
X58893933Y-147823146D01*
G37*
G36*
X52894840Y-144118470D02*
G01*
X52548015Y-144465784D01*
X52548015Y-149681345D01*
X52894840Y-150028170D01*
X53588978Y-149334032D01*
X53588978Y-149110306D01*
X53588978Y-147588184D01*
X53588978Y-146558456D01*
X53588978Y-145036335D01*
X53588978Y-144812608D01*
X52894840Y-144118470D01*
G37*
G36*
X57394282Y-146323495D02*
G01*
X57394282Y-146043592D01*
X55391002Y-144879531D01*
X53812705Y-144879531D01*
X53812705Y-145170668D01*
X55804749Y-146323495D01*
X57394282Y-146323495D01*
G37*
G36*
X58312146Y-150173739D02*
G01*
X58267206Y-150229426D01*
X58267206Y-150531799D01*
X62889746Y-150531799D01*
X63236571Y-150184974D01*
X62542433Y-149490836D01*
X62475510Y-149490836D01*
X61300213Y-149490836D01*
X58994561Y-149490836D01*
X58312146Y-150173739D01*
G37*
G36*
X63393375Y-150028170D02*
G01*
X63740200Y-149681345D01*
X63740200Y-144465784D01*
X63393375Y-144118470D01*
X62699236Y-144812608D01*
X62699236Y-145036335D01*
X62699236Y-146558456D01*
X62699236Y-147588184D01*
X62699236Y-149110306D01*
X62699236Y-149334032D01*
X63393375Y-150028170D01*
G37*
G36*
X53051644Y-150184974D02*
G01*
X53398469Y-150531799D01*
X58032244Y-150531799D01*
X58032244Y-150229426D01*
X57987303Y-150173739D01*
X57304889Y-149490836D01*
X56946340Y-149490836D01*
X54988001Y-149490836D01*
X53812705Y-149490836D01*
X53745782Y-149490836D01*
X53051644Y-150184974D01*
G37*
G36*
X57976068Y-143962155D02*
G01*
X58032244Y-143917214D01*
X58032244Y-143614841D01*
X53398469Y-143614841D01*
X53051644Y-143962155D01*
X53745782Y-144655804D01*
X53812705Y-144655804D01*
X54988001Y-144655804D01*
X57293654Y-144655804D01*
X57976068Y-143962155D01*
G37*
G36*
X63236571Y-143962155D02*
G01*
X62889746Y-143614841D01*
X58255971Y-143614841D01*
X58255971Y-143917214D01*
X58312146Y-143962155D01*
X58994561Y-144655804D01*
X61300213Y-144655804D01*
X62475510Y-144655804D01*
X62542433Y-144655804D01*
X63236571Y-143962155D01*
G37*
G36*
X62777883Y-152281555D02*
G01*
X63046550Y-152337731D01*
X63314728Y-152281555D01*
X63538943Y-152135986D01*
X63684512Y-151912259D01*
X63740200Y-151643592D01*
X63684512Y-151374925D01*
X63538943Y-151151199D01*
X63314728Y-151005630D01*
X63046550Y-150949454D01*
X62777883Y-151005630D01*
X62554156Y-151151199D01*
X62408587Y-151374925D01*
X62352412Y-151643592D01*
X62408587Y-151912259D01*
X62554156Y-152135986D01*
X62777883Y-152281555D01*
G37*
X49123819Y-165773314D02*
X48123819Y-165773314D01*
X48123819Y-165773314D02*
X48123819Y-166011409D01*
X48123819Y-166011409D02*
X48171438Y-166154266D01*
X48171438Y-166154266D02*
X48266676Y-166249504D01*
X48266676Y-166249504D02*
X48361914Y-166297123D01*
X48361914Y-166297123D02*
X48552390Y-166344742D01*
X48552390Y-166344742D02*
X48695247Y-166344742D01*
X48695247Y-166344742D02*
X48885723Y-166297123D01*
X48885723Y-166297123D02*
X48980961Y-166249504D01*
X48980961Y-166249504D02*
X49076200Y-166154266D01*
X49076200Y-166154266D02*
X49123819Y-166011409D01*
X49123819Y-166011409D02*
X49123819Y-165773314D01*
X49076200Y-166725695D02*
X49123819Y-166868552D01*
X49123819Y-166868552D02*
X49123819Y-167106647D01*
X49123819Y-167106647D02*
X49076200Y-167201885D01*
X49076200Y-167201885D02*
X49028580Y-167249504D01*
X49028580Y-167249504D02*
X48933342Y-167297123D01*
X48933342Y-167297123D02*
X48838104Y-167297123D01*
X48838104Y-167297123D02*
X48742866Y-167249504D01*
X48742866Y-167249504D02*
X48695247Y-167201885D01*
X48695247Y-167201885D02*
X48647628Y-167106647D01*
X48647628Y-167106647D02*
X48600009Y-166916171D01*
X48600009Y-166916171D02*
X48552390Y-166820933D01*
X48552390Y-166820933D02*
X48504771Y-166773314D01*
X48504771Y-166773314D02*
X48409533Y-166725695D01*
X48409533Y-166725695D02*
X48314295Y-166725695D01*
X48314295Y-166725695D02*
X48219057Y-166773314D01*
X48219057Y-166773314D02*
X48171438Y-166820933D01*
X48171438Y-166820933D02*
X48123819Y-166916171D01*
X48123819Y-166916171D02*
X48123819Y-167154266D01*
X48123819Y-167154266D02*
X48171438Y-167297123D01*
X49123819Y-167725695D02*
X48123819Y-167725695D01*
X48123819Y-167725695D02*
X48123819Y-168106647D01*
X48123819Y-168106647D02*
X48171438Y-168201885D01*
X48171438Y-168201885D02*
X48219057Y-168249504D01*
X48219057Y-168249504D02*
X48314295Y-168297123D01*
X48314295Y-168297123D02*
X48457152Y-168297123D01*
X48457152Y-168297123D02*
X48552390Y-168249504D01*
X48552390Y-168249504D02*
X48600009Y-168201885D01*
X48600009Y-168201885D02*
X48647628Y-168106647D01*
X48647628Y-168106647D02*
X48647628Y-167725695D01*
X49123819Y-169249504D02*
X49123819Y-168678076D01*
X49123819Y-168963790D02*
X48123819Y-168963790D01*
X48123819Y-168963790D02*
X48266676Y-168868552D01*
X48266676Y-168868552D02*
X48361914Y-168773314D01*
X48361914Y-168773314D02*
X48409533Y-168678076D01*
G36*
X53812705Y-165219016D02*
G01*
X53812705Y-165510153D01*
X55391002Y-165510153D01*
X57394282Y-164346092D01*
X57394282Y-164066189D01*
X55804749Y-164066189D01*
X53812705Y-165219016D01*
G37*
G36*
X56207750Y-162801500D02*
G01*
X53812705Y-162801500D01*
X53812705Y-163831228D01*
X53935803Y-163831228D01*
X56207750Y-163831228D01*
X57013751Y-163831228D01*
X57909146Y-163316364D01*
X57013751Y-162801500D01*
X56207750Y-162801500D01*
G37*
G36*
X57629243Y-165733879D02*
G01*
X58155343Y-166259979D01*
X58670206Y-165733879D01*
X58658971Y-165733879D01*
X58658971Y-165532623D01*
X58658971Y-165510153D01*
X58658971Y-164066189D01*
X58658971Y-163831228D01*
X58658971Y-163753070D01*
X58144107Y-163450697D01*
X57629243Y-163753070D01*
X57629243Y-163831228D01*
X57629243Y-164066189D01*
X57629243Y-164211758D01*
X57629243Y-165733879D01*
G37*
G36*
X61983116Y-163831228D02*
G01*
X62475510Y-163831228D01*
X62475510Y-162801500D01*
X60080465Y-162801500D01*
X59274463Y-162801500D01*
X58379069Y-163316364D01*
X59274463Y-163831228D01*
X60080465Y-163831228D01*
X61983116Y-163831228D01*
G37*
G36*
X58144107Y-160361514D02*
G01*
X57618008Y-160898848D01*
X57629243Y-160898848D01*
X57629243Y-162420969D01*
X57629243Y-162880146D01*
X58144107Y-163182030D01*
X58658971Y-162880146D01*
X58658971Y-161122575D01*
X58658971Y-161089357D01*
X58658971Y-160898848D01*
X58670206Y-160898848D01*
X58144107Y-160361514D01*
G37*
G36*
X60483465Y-162566538D02*
G01*
X62475510Y-161413712D01*
X62475510Y-161122575D01*
X60897213Y-161122575D01*
X58893933Y-162286636D01*
X58893933Y-162566538D01*
X60483465Y-162566538D01*
G37*
G36*
X58893933Y-164066189D02*
G01*
X58893933Y-164346092D01*
X60897213Y-165510153D01*
X62475510Y-165510153D01*
X62475510Y-165219016D01*
X60483465Y-164066189D01*
X58893933Y-164066189D01*
G37*
G36*
X52894840Y-160361514D02*
G01*
X52548015Y-160708827D01*
X52548015Y-165924389D01*
X52894840Y-166271214D01*
X53588978Y-165577076D01*
X53588978Y-165353349D01*
X53588978Y-163831228D01*
X53588978Y-162801500D01*
X53588978Y-161279378D01*
X53588978Y-161055652D01*
X52894840Y-160361514D01*
G37*
G36*
X57394282Y-162566538D02*
G01*
X57394282Y-162286636D01*
X55391002Y-161122575D01*
X53812705Y-161122575D01*
X53812705Y-161413712D01*
X55804749Y-162566538D01*
X57394282Y-162566538D01*
G37*
G36*
X58312146Y-166416782D02*
G01*
X58267206Y-166472470D01*
X58267206Y-166774842D01*
X62889746Y-166774842D01*
X63236571Y-166428018D01*
X62542433Y-165733879D01*
X62475510Y-165733879D01*
X61300213Y-165733879D01*
X58994561Y-165733879D01*
X58312146Y-166416782D01*
G37*
G36*
X63393375Y-166271214D02*
G01*
X63740200Y-165924389D01*
X63740200Y-160708827D01*
X63393375Y-160361514D01*
X62699236Y-161055652D01*
X62699236Y-161279378D01*
X62699236Y-162801500D01*
X62699236Y-163831228D01*
X62699236Y-165353349D01*
X62699236Y-165577076D01*
X63393375Y-166271214D01*
G37*
G36*
X53051644Y-166428018D02*
G01*
X53398469Y-166774842D01*
X58032244Y-166774842D01*
X58032244Y-166472470D01*
X57987303Y-166416782D01*
X57304889Y-165733879D01*
X56946340Y-165733879D01*
X54988001Y-165733879D01*
X53812705Y-165733879D01*
X53745782Y-165733879D01*
X53051644Y-166428018D01*
G37*
G36*
X57976068Y-160205198D02*
G01*
X58032244Y-160160258D01*
X58032244Y-159857885D01*
X53398469Y-159857885D01*
X53051644Y-160205198D01*
X53745782Y-160898848D01*
X53812705Y-160898848D01*
X54988001Y-160898848D01*
X57293654Y-160898848D01*
X57976068Y-160205198D01*
G37*
G36*
X63236571Y-160205198D02*
G01*
X62889746Y-159857885D01*
X58255971Y-159857885D01*
X58255971Y-160160258D01*
X58312146Y-160205198D01*
X58994561Y-160898848D01*
X61300213Y-160898848D01*
X62475510Y-160898848D01*
X62542433Y-160898848D01*
X63236571Y-160205198D01*
G37*
G36*
X62777883Y-168524598D02*
G01*
X63046550Y-168580774D01*
X63314728Y-168524598D01*
X63538943Y-168379030D01*
X63684512Y-168155303D01*
X63740200Y-167886636D01*
X63684512Y-167617969D01*
X63538943Y-167394242D01*
X63314728Y-167248674D01*
X63046550Y-167192498D01*
X62777883Y-167248674D01*
X62554156Y-167394242D01*
X62408587Y-167617969D01*
X62352412Y-167886636D01*
X62408587Y-168155303D01*
X62554156Y-168379030D01*
X62777883Y-168524598D01*
G37*
G36*
X53812705Y-174355652D02*
G01*
X53812705Y-174646789D01*
X55391002Y-174646789D01*
X57394282Y-173482728D01*
X57394282Y-173202826D01*
X55804749Y-173202826D01*
X53812705Y-174355652D01*
G37*
G36*
X56207750Y-171938136D02*
G01*
X53812705Y-171938136D01*
X53812705Y-172967864D01*
X53935803Y-172967864D01*
X56207750Y-172967864D01*
X57013751Y-172967864D01*
X57909146Y-172453000D01*
X57013751Y-171938136D01*
X56207750Y-171938136D01*
G37*
G36*
X57629243Y-174870516D02*
G01*
X58155343Y-175396615D01*
X58670206Y-174870516D01*
X58658971Y-174870516D01*
X58658971Y-174669260D01*
X58658971Y-174646789D01*
X58658971Y-173202826D01*
X58658971Y-172967864D01*
X58658971Y-172889706D01*
X58144107Y-172587334D01*
X57629243Y-172889706D01*
X57629243Y-172967864D01*
X57629243Y-173202826D01*
X57629243Y-173348394D01*
X57629243Y-174870516D01*
G37*
G36*
X61983116Y-172967864D02*
G01*
X62475510Y-172967864D01*
X62475510Y-171938136D01*
X60080465Y-171938136D01*
X59274463Y-171938136D01*
X58379069Y-172453000D01*
X59274463Y-172967864D01*
X60080465Y-172967864D01*
X61983116Y-172967864D01*
G37*
G36*
X58144107Y-169498150D02*
G01*
X57618008Y-170035484D01*
X57629243Y-170035484D01*
X57629243Y-171557606D01*
X57629243Y-172016782D01*
X58144107Y-172318667D01*
X58658971Y-172016782D01*
X58658971Y-170259211D01*
X58658971Y-170225994D01*
X58658971Y-170035484D01*
X58670206Y-170035484D01*
X58144107Y-169498150D01*
G37*
G36*
X60483465Y-171703175D02*
G01*
X62475510Y-170550348D01*
X62475510Y-170259211D01*
X60897213Y-170259211D01*
X58893933Y-171423272D01*
X58893933Y-171703175D01*
X60483465Y-171703175D01*
G37*
G36*
X58893933Y-173202826D02*
G01*
X58893933Y-173482728D01*
X60897213Y-174646789D01*
X62475510Y-174646789D01*
X62475510Y-174355652D01*
X60483465Y-173202826D01*
X58893933Y-173202826D01*
G37*
G36*
X52894840Y-169498150D02*
G01*
X52548015Y-169845464D01*
X52548015Y-175061025D01*
X52894840Y-175407850D01*
X53588978Y-174713712D01*
X53588978Y-174489986D01*
X53588978Y-172967864D01*
X53588978Y-171938136D01*
X53588978Y-170416015D01*
X53588978Y-170192288D01*
X52894840Y-169498150D01*
G37*
G36*
X57394282Y-171703175D02*
G01*
X57394282Y-171423272D01*
X55391002Y-170259211D01*
X53812705Y-170259211D01*
X53812705Y-170550348D01*
X55804749Y-171703175D01*
X57394282Y-171703175D01*
G37*
G36*
X58312146Y-175553419D02*
G01*
X58267206Y-175609106D01*
X58267206Y-175911479D01*
X62889746Y-175911479D01*
X63236571Y-175564654D01*
X62542433Y-174870516D01*
X62475510Y-174870516D01*
X61300213Y-174870516D01*
X58994561Y-174870516D01*
X58312146Y-175553419D01*
G37*
G36*
X63393375Y-175407850D02*
G01*
X63740200Y-175061025D01*
X63740200Y-169845464D01*
X63393375Y-169498150D01*
X62699236Y-170192288D01*
X62699236Y-170416015D01*
X62699236Y-171938136D01*
X62699236Y-172967864D01*
X62699236Y-174489986D01*
X62699236Y-174713712D01*
X63393375Y-175407850D01*
G37*
G36*
X53051644Y-175564654D02*
G01*
X53398469Y-175911479D01*
X58032244Y-175911479D01*
X58032244Y-175609106D01*
X57987303Y-175553419D01*
X57304889Y-174870516D01*
X56946340Y-174870516D01*
X54988001Y-174870516D01*
X53812705Y-174870516D01*
X53745782Y-174870516D01*
X53051644Y-175564654D01*
G37*
G36*
X57976068Y-169341835D02*
G01*
X58032244Y-169296894D01*
X58032244Y-168994521D01*
X53398469Y-168994521D01*
X53051644Y-169341835D01*
X53745782Y-170035484D01*
X53812705Y-170035484D01*
X54988001Y-170035484D01*
X57293654Y-170035484D01*
X57976068Y-169341835D01*
G37*
G36*
X63236571Y-169341835D02*
G01*
X62889746Y-168994521D01*
X58255971Y-168994521D01*
X58255971Y-169296894D01*
X58312146Y-169341835D01*
X58994561Y-170035484D01*
X61300213Y-170035484D01*
X62475510Y-170035484D01*
X62542433Y-170035484D01*
X63236571Y-169341835D01*
G37*
G36*
X62777883Y-177661235D02*
G01*
X63046550Y-177717411D01*
X63314728Y-177661235D01*
X63538943Y-177515666D01*
X63684512Y-177291939D01*
X63740200Y-177023272D01*
X63684512Y-176754605D01*
X63538943Y-176530879D01*
X63314728Y-176385310D01*
X63046550Y-176329134D01*
X62777883Y-176385310D01*
X62554156Y-176530879D01*
X62408587Y-176754605D01*
X62352412Y-177023272D01*
X62408587Y-177291939D01*
X62554156Y-177515666D01*
X62777883Y-177661235D01*
G37*
%TO.C,DSP4*%
D12*
X47515200Y-78950960D02*
X47515200Y-83200960D01*
X47515200Y-78950960D02*
X51765200Y-78950960D01*
X47516181Y-104044404D02*
X47516181Y-99794404D01*
X47516181Y-104044404D02*
X51766181Y-104044404D01*
X68718426Y-81423344D02*
X66415200Y-78950960D01*
X68721223Y-104047639D02*
X64471223Y-104047639D01*
X68721223Y-104047639D02*
X68721223Y-99797639D01*
%TO.C,DSP6*%
X47515200Y-28191600D02*
X47515200Y-32441600D01*
X47515200Y-28191600D02*
X51765200Y-28191600D01*
X47516181Y-53285044D02*
X47516181Y-49035044D01*
X47516181Y-53285044D02*
X51766181Y-53285044D01*
X68718426Y-30663984D02*
X66415200Y-28191600D01*
X68721223Y-53288279D02*
X64471223Y-53288279D01*
X68721223Y-53288279D02*
X68721223Y-49038279D01*
%TO.C,DSP3*%
X47515200Y-104330640D02*
X47515200Y-108580640D01*
X47515200Y-104330640D02*
X51765200Y-104330640D01*
X47516181Y-129424084D02*
X47516181Y-125174084D01*
X47516181Y-129424084D02*
X51766181Y-129424084D01*
X68718426Y-106803024D02*
X66415200Y-104330640D01*
X68721223Y-129427319D02*
X64471223Y-129427319D01*
X68721223Y-129427319D02*
X68721223Y-125177319D01*
%TO.C,DSP5*%
X47515200Y-53571280D02*
X47515200Y-57821280D01*
X47515200Y-53571280D02*
X51765200Y-53571280D01*
X47516181Y-78664724D02*
X47516181Y-74414724D01*
X47516181Y-78664724D02*
X51766181Y-78664724D01*
X68718426Y-56043664D02*
X66415200Y-53571280D01*
X68721223Y-78667959D02*
X64471223Y-78667959D01*
X68721223Y-78667959D02*
X68721223Y-74417959D01*
%TO.C,DSP2*%
X47515200Y-129710320D02*
X47515200Y-133960320D01*
X47515200Y-129710320D02*
X51765200Y-129710320D01*
X47516181Y-154803764D02*
X47516181Y-150553764D01*
X47516181Y-154803764D02*
X51766181Y-154803764D01*
X68718426Y-132182704D02*
X66415200Y-129710320D01*
X68721223Y-154806999D02*
X64471223Y-154806999D01*
X68721223Y-154806999D02*
X68721223Y-150556999D01*
%TO.C,DSP1*%
X47515200Y-155090000D02*
X47515200Y-159340000D01*
X47515200Y-155090000D02*
X51765200Y-155090000D01*
X47516181Y-180183444D02*
X47516181Y-175933444D01*
X47516181Y-180183444D02*
X51766181Y-180183444D01*
X68718426Y-157562384D02*
X66415200Y-155090000D01*
X68721223Y-180186679D02*
X64471223Y-180186679D01*
X68721223Y-180186679D02*
X68721223Y-175936679D01*
%TD*%
M02*
