%TF.GenerationSoftware,KiCad,Pcbnew,10.0.0*%
%TF.CreationDate,2026-08-16T09:25:36-04:00*%
%TF.ProjectId,emustation-alpha-display,656d7573-7461-4746-996f-6e2d616c7068,rev?*%
%TF.SameCoordinates,Original*%
%TF.FileFunction,Soldermask,Top*%
%TF.FilePolarity,Negative*%
%FSLAX46Y46*%
G04 Gerber Fmt 4.6, Leading zero omitted, Abs format (unit mm)*
G04 Created by KiCad (PCBNEW 10.0.0) date 2026-08-16 09:25:36*
%MOMM*%
%LPD*%
G01*
G04 APERTURE LIST*
G04 Aperture macros list*
%AMRoundRect*
0 Rectangle with rounded corners*
0 $1 Rounding radius*
0 $2 $3 $4 $5 $6 $7 $8 $9 X,Y pos of 4 corners*
0 Add a 4 corners polygon primitive as box body*
4,1,4,$2,$3,$4,$5,$6,$7,$8,$9,$2,$3,0*
0 Add four circle primitives for the rounded corners*
1,1,$1+$1,$2,$3*
1,1,$1+$1,$4,$5*
1,1,$1+$1,$6,$7*
1,1,$1+$1,$8,$9*
0 Add four rect primitives between the rounded corners*
20,1,$1+$1,$2,$3,$4,$5,0*
20,1,$1+$1,$4,$5,$6,$7,0*
20,1,$1+$1,$6,$7,$8,$9,0*
20,1,$1+$1,$8,$9,$2,$3,0*%
%AMFreePoly0*
4,1,6,1.000000,0.000000,0.500000,-0.750000,-0.500000,-0.750000,-0.500000,0.750000,0.500000,0.750000,1.000000,0.000000,1.000000,0.000000,$1*%
%AMFreePoly1*
4,1,6,0.500000,-0.750000,-0.650000,-0.750000,-0.150000,0.000000,-0.650000,0.750000,0.500000,0.750000,0.500000,-0.750000,0.500000,-0.750000,$1*%
G04 Aperture macros list end*
%ADD10C,3.200000*%
%ADD11R,3.000000X3.000000*%
%ADD12RoundRect,0.200000X-0.200000X-0.275000X0.200000X-0.275000X0.200000X0.275000X-0.200000X0.275000X0*%
%ADD13R,1.000000X1.000000*%
%ADD14RoundRect,0.250000X0.375000X0.625000X-0.375000X0.625000X-0.375000X-0.625000X0.375000X-0.625000X0*%
%ADD15RoundRect,0.225000X0.250000X-0.225000X0.250000X0.225000X-0.250000X0.225000X-0.250000X-0.225000X0*%
%ADD16RoundRect,0.100000X-0.637500X-0.100000X0.637500X-0.100000X0.637500X0.100000X-0.637500X0.100000X0*%
%ADD17RoundRect,0.137500X-0.600000X-0.137500X0.600000X-0.137500X0.600000X0.137500X-0.600000X0.137500X0*%
%ADD18RoundRect,0.137500X-0.137500X-0.600000X0.137500X-0.600000X0.137500X0.600000X-0.137500X0.600000X0*%
%ADD19R,0.500000X0.800000*%
%ADD20R,0.400000X0.800000*%
%ADD21RoundRect,0.225000X-0.250000X0.225000X-0.250000X-0.225000X0.250000X-0.225000X0.250000X0.225000X0*%
%ADD22RoundRect,0.225000X-0.225000X-0.250000X0.225000X-0.250000X0.225000X0.250000X-0.225000X0.250000X0*%
%ADD23R,2.000000X2.000000*%
%ADD24RoundRect,0.249999X-0.850001X-3.500001X0.850001X-3.500001X0.850001X3.500001X-0.850001X3.500001X0*%
%ADD25RoundRect,0.100000X-0.100000X0.637500X-0.100000X-0.637500X0.100000X-0.637500X0.100000X0.637500X0*%
%ADD26RoundRect,0.225000X0.225000X0.250000X-0.225000X0.250000X-0.225000X-0.250000X0.225000X-0.250000X0*%
%ADD27R,0.850000X0.850000*%
%ADD28C,0.850000*%
%ADD29C,0.990600*%
%ADD30C,0.787400*%
%ADD31RoundRect,0.200000X0.200000X0.275000X-0.200000X0.275000X-0.200000X-0.275000X0.200000X-0.275000X0*%
%ADD32R,0.300000X0.800000*%
%ADD33RoundRect,0.100000X0.100000X-0.637500X0.100000X0.637500X-0.100000X0.637500X-0.100000X-0.637500X0*%
%ADD34R,0.400000X1.100000*%
%ADD35FreePoly0,90.000000*%
%ADD36FreePoly1,90.000000*%
%ADD37C,2.000000*%
%ADD38RoundRect,0.250000X-0.250000X-0.475000X0.250000X-0.475000X0.250000X0.475000X-0.250000X0.475000X0*%
%ADD39RoundRect,0.087500X-0.087500X0.250000X-0.087500X-0.250000X0.087500X-0.250000X0.087500X0.250000X0*%
%ADD40C,1.400000*%
G04 APERTURE END LIST*
%TO.C,JP2*%
G36*
X56550000Y-116650000D02*
G01*
X58050000Y-116650000D01*
X58050000Y-119100000D01*
X56550000Y-119100000D01*
X56550000Y-116650000D01*
G37*
%TO.C,JP3*%
G36*
X59100000Y-116650000D02*
G01*
X60600000Y-116650000D01*
X60600000Y-119100000D01*
X59100000Y-119100000D01*
X59100000Y-116650000D01*
G37*
%TO.C,JP4*%
G36*
X61650000Y-116650000D02*
G01*
X63150000Y-116650000D01*
X63150000Y-119100000D01*
X61650000Y-119100000D01*
X61650000Y-116650000D01*
G37*
%TO.C,JP1*%
G36*
X54000000Y-116650000D02*
G01*
X55500000Y-116650000D01*
X55500000Y-119100000D01*
X54000000Y-119100000D01*
X54000000Y-116650000D01*
G37*
%TD*%
D10*
%TO.C,H2*%
X61950000Y-187000000D03*
%TD*%
D11*
%TO.C,TP2*%
X66250000Y-180700000D03*
%TD*%
D12*
%TO.C,R1*%
X53795400Y-179862026D03*
X55445400Y-179862026D03*
%TD*%
D13*
%TO.C,TP9*%
X55400000Y-126200000D03*
%TD*%
D14*
%TO.C,LED1*%
X66100000Y-195600000D03*
X63300000Y-195600000D03*
%TD*%
D15*
%TO.C,C16*%
X56550800Y-176522226D03*
X56550800Y-174972226D03*
%TD*%
D16*
%TO.C,U4*%
X55412100Y-81629200D03*
X55412100Y-82279200D03*
X55412100Y-82929200D03*
X55412100Y-83579200D03*
X55412100Y-84229200D03*
X55412100Y-84879200D03*
X55412100Y-85529200D03*
X61137100Y-85529200D03*
X61137100Y-84879200D03*
X61137100Y-84229200D03*
X61137100Y-83579200D03*
X61137100Y-82929200D03*
X61137100Y-82279200D03*
X61137100Y-81629200D03*
%TD*%
D17*
%TO.C,U1*%
X54118602Y-104746609D03*
X54118602Y-105546609D03*
X54118602Y-106346609D03*
X54118602Y-107146609D03*
X54118602Y-107946609D03*
X54118602Y-108746609D03*
X54118602Y-109546609D03*
X54118602Y-110346609D03*
D18*
X55481102Y-111709109D03*
X56281102Y-111709109D03*
X57081102Y-111709109D03*
X57881102Y-111709109D03*
X58681102Y-111709109D03*
X59481102Y-111709109D03*
X60281102Y-111709109D03*
X61081102Y-111709109D03*
D17*
X62443602Y-110346609D03*
X62443602Y-109546609D03*
X62443602Y-108746609D03*
X62443602Y-107946609D03*
X62443602Y-107146609D03*
X62443602Y-106346609D03*
X62443602Y-105546609D03*
X62443602Y-104746609D03*
D18*
X61081102Y-103384109D03*
X60281102Y-103384109D03*
X59481102Y-103384109D03*
X58681102Y-103384109D03*
X57881102Y-103384109D03*
X57081102Y-103384109D03*
X56281102Y-103384109D03*
X55481102Y-103384109D03*
%TD*%
D10*
%TO.C,H4*%
X52750000Y-21400000D03*
%TD*%
D19*
%TO.C,RN1*%
X57250000Y-79950000D03*
D20*
X58050000Y-79950000D03*
X58850000Y-79950000D03*
D19*
X59650000Y-79950000D03*
X59650000Y-78150000D03*
D20*
X58850000Y-78150000D03*
X58050000Y-78150000D03*
D19*
X57250000Y-78150000D03*
%TD*%
D10*
%TO.C,H1*%
X52750000Y-187000000D03*
%TD*%
D21*
%TO.C,C4*%
X64000000Y-64625000D03*
X64000000Y-66175000D03*
%TD*%
D22*
%TO.C,C2*%
X62825000Y-80000000D03*
X64375000Y-80000000D03*
%TD*%
D23*
%TO.C,TP13*%
X63000000Y-57300000D03*
%TD*%
D21*
%TO.C,C19*%
X58721361Y-100083864D03*
X58721361Y-101633864D03*
%TD*%
D24*
%TO.C,L1*%
X54157600Y-165688826D03*
X60157600Y-165688826D03*
%TD*%
D25*
%TO.C,U3*%
X60518082Y-52836979D03*
X59868082Y-52836979D03*
X59218082Y-52836979D03*
X58568082Y-52836979D03*
X57918082Y-52836979D03*
X57268082Y-52836979D03*
X56618082Y-52836979D03*
X55968082Y-52836979D03*
X55968082Y-58561979D03*
X56618082Y-58561979D03*
X57268082Y-58561979D03*
X57918082Y-58561979D03*
X58568082Y-58561979D03*
X59218082Y-58561979D03*
X59868082Y-58561979D03*
X60518082Y-58561979D03*
%TD*%
D26*
%TO.C,C1*%
X63450000Y-94100000D03*
X61900000Y-94100000D03*
%TD*%
D15*
%TO.C,C6*%
X63500000Y-37000000D03*
X63500000Y-35450000D03*
%TD*%
D27*
%TO.C,CN4*%
X59850000Y-115050000D03*
D28*
X59850000Y-114050000D03*
X60850000Y-115050000D03*
X60850000Y-114050000D03*
X61850000Y-115050000D03*
X61850000Y-114050000D03*
%TD*%
D15*
%TO.C,C21*%
X63600000Y-113475000D03*
X63600000Y-111925000D03*
%TD*%
D29*
%TO.C,CN3*%
X61650000Y-101250000D03*
X60634000Y-96170000D03*
X62666000Y-96170000D03*
D30*
X62285000Y-99980000D03*
X61015000Y-99980000D03*
X62285000Y-98710000D03*
X61015000Y-98710000D03*
X62285000Y-97440000D03*
X61015000Y-97440000D03*
%TD*%
D25*
%TO.C,U9*%
X59875000Y-128737500D03*
X59225000Y-128737500D03*
X58575000Y-128737500D03*
X57925000Y-128737500D03*
X57275000Y-128737500D03*
X56625000Y-128737500D03*
X55975000Y-128737500D03*
X55325000Y-128737500D03*
X55325000Y-134462500D03*
X55975000Y-134462500D03*
X56625000Y-134462500D03*
X57275000Y-134462500D03*
X57925000Y-134462500D03*
X58575000Y-134462500D03*
X59225000Y-134462500D03*
X59875000Y-134462500D03*
%TD*%
D31*
%TO.C,R3*%
X65650000Y-193250000D03*
X64000000Y-193250000D03*
%TD*%
D22*
%TO.C,C9*%
X62135000Y-156390000D03*
X63685000Y-156390000D03*
%TD*%
D13*
%TO.C,TP12*%
X52200000Y-130200000D03*
%TD*%
D12*
%TO.C,R2*%
X53795400Y-178338026D03*
X55445400Y-178338026D03*
%TD*%
D32*
%TO.C,CN2*%
X55300000Y-192850000D03*
X55800000Y-192850000D03*
X56300000Y-192850000D03*
X56800000Y-192850000D03*
X57300000Y-192850000D03*
X57800000Y-192850000D03*
X58300000Y-192850000D03*
X58800000Y-192850000D03*
X59300000Y-192850000D03*
X59800000Y-192850000D03*
D20*
X54300000Y-195350000D03*
X60800000Y-195350000D03*
%TD*%
D16*
%TO.C,U7*%
X55362500Y-37000000D03*
X55362500Y-37650000D03*
X55362500Y-38300000D03*
X55362500Y-38950000D03*
X55362500Y-39600000D03*
X55362500Y-40250000D03*
X55362500Y-40900000D03*
X61087500Y-40900000D03*
X61087500Y-40250000D03*
X61087500Y-39600000D03*
X61087500Y-38950000D03*
X61087500Y-38300000D03*
X61087500Y-37650000D03*
X61087500Y-37000000D03*
%TD*%
D23*
%TO.C,TP7*%
X62775000Y-53725000D03*
%TD*%
D19*
%TO.C,RN3*%
X57000000Y-45400000D03*
D20*
X57800000Y-45400000D03*
X58600000Y-45400000D03*
D19*
X59400000Y-45400000D03*
X59400000Y-43600000D03*
D20*
X58600000Y-43600000D03*
X57800000Y-43600000D03*
D19*
X57000000Y-43600000D03*
%TD*%
D16*
%TO.C,U5*%
X55408100Y-63987000D03*
X55408100Y-64637000D03*
X55408100Y-65287000D03*
X55408100Y-65937000D03*
X55408100Y-66587000D03*
X55408100Y-67237000D03*
X55408100Y-67887000D03*
X61133100Y-67887000D03*
X61133100Y-67237000D03*
X61133100Y-66587000D03*
X61133100Y-65937000D03*
X61133100Y-65287000D03*
X61133100Y-64637000D03*
X61133100Y-63987000D03*
%TD*%
D33*
%TO.C,U8*%
X53655000Y-153732500D03*
X54305000Y-153732500D03*
X54955000Y-153732500D03*
X55605000Y-153732500D03*
X56255000Y-153732500D03*
X56905000Y-153732500D03*
X57555000Y-153732500D03*
X58205000Y-153732500D03*
X58205000Y-148007500D03*
X57555000Y-148007500D03*
X56905000Y-148007500D03*
X56255000Y-148007500D03*
X55605000Y-148007500D03*
X54955000Y-148007500D03*
X54305000Y-148007500D03*
X53655000Y-148007500D03*
%TD*%
D23*
%TO.C,TP3*%
X63300000Y-165850000D03*
%TD*%
D34*
%TO.C,U14*%
X60300000Y-179646226D03*
X60950000Y-179646226D03*
X61600000Y-179646226D03*
X62250000Y-179646226D03*
X62250000Y-175346226D03*
X61600000Y-175346226D03*
X60950000Y-175346226D03*
X60300000Y-175346226D03*
%TD*%
D23*
%TO.C,TP8*%
X54500000Y-96900000D03*
%TD*%
D25*
%TO.C,U2*%
X60525000Y-88387500D03*
X59875000Y-88387500D03*
X59225000Y-88387500D03*
X58575000Y-88387500D03*
X57925000Y-88387500D03*
X57275000Y-88387500D03*
X56625000Y-88387500D03*
X55975000Y-88387500D03*
X55975000Y-94112500D03*
X56625000Y-94112500D03*
X57275000Y-94112500D03*
X57925000Y-94112500D03*
X58575000Y-94112500D03*
X59225000Y-94112500D03*
X59875000Y-94112500D03*
X60525000Y-94112500D03*
%TD*%
D16*
%TO.C,U12*%
X54137500Y-27850000D03*
X54137500Y-28500000D03*
X54137500Y-29150000D03*
X54137500Y-29800000D03*
X54137500Y-30450000D03*
X54137500Y-31100000D03*
X54137500Y-31750000D03*
X59862500Y-31750000D03*
X59862500Y-31100000D03*
X59862500Y-30450000D03*
X59862500Y-29800000D03*
X59862500Y-29150000D03*
X59862500Y-28500000D03*
X59862500Y-27850000D03*
%TD*%
D21*
%TO.C,C15*%
X58836800Y-171568626D03*
X58836800Y-173118626D03*
%TD*%
D23*
%TO.C,TP17*%
X54575000Y-44600000D03*
%TD*%
D35*
%TO.C,JP2*%
X57300000Y-118600000D03*
D36*
X57300000Y-117150000D03*
%TD*%
D35*
%TO.C,JP3*%
X59850000Y-118600000D03*
D36*
X59850000Y-117150000D03*
%TD*%
D33*
%TO.C,U11*%
X59232500Y-145702500D03*
X59882500Y-145702500D03*
X60532500Y-145702500D03*
X61182500Y-145702500D03*
X61832500Y-145702500D03*
X62482500Y-145702500D03*
X63132500Y-145702500D03*
X63132500Y-139977500D03*
X62482500Y-139977500D03*
X61832500Y-139977500D03*
X61182500Y-139977500D03*
X60532500Y-139977500D03*
X59882500Y-139977500D03*
X59232500Y-139977500D03*
%TD*%
D15*
%TO.C,C10*%
X59200000Y-138175000D03*
X59200000Y-136625000D03*
%TD*%
D22*
%TO.C,C11*%
X62025000Y-30600000D03*
X63575000Y-30600000D03*
%TD*%
D19*
%TO.C,RN2*%
X57500000Y-62400000D03*
D20*
X58300000Y-62400000D03*
X59100000Y-62400000D03*
D19*
X59900000Y-62400000D03*
X59900000Y-60600000D03*
D20*
X59100000Y-60600000D03*
X58300000Y-60600000D03*
D19*
X57500000Y-60600000D03*
%TD*%
D16*
%TO.C,U6*%
X55389413Y-47020263D03*
X55389413Y-47670263D03*
X55389413Y-48320263D03*
X55389413Y-48970263D03*
X55389413Y-49620263D03*
X55389413Y-50270263D03*
X55389413Y-50920263D03*
X61114413Y-50920263D03*
X61114413Y-50270263D03*
X61114413Y-49620263D03*
X61114413Y-48970263D03*
X61114413Y-48320263D03*
X61114413Y-47670263D03*
X61114413Y-47020263D03*
%TD*%
D22*
%TO.C,C17*%
X58500000Y-181446226D03*
X60050000Y-181446226D03*
%TD*%
D23*
%TO.C,TP18*%
X53000000Y-132800000D03*
%TD*%
D15*
%TO.C,C5*%
X62950000Y-47025000D03*
X62950000Y-45475000D03*
%TD*%
D21*
%TO.C,C14*%
X60411600Y-171568626D03*
X60411600Y-173118626D03*
%TD*%
D37*
%TO.C,TP1*%
X48050000Y-197600000D03*
%TD*%
D13*
%TO.C,TP11*%
X54400000Y-113800000D03*
%TD*%
D15*
%TO.C,C18*%
X58650000Y-176846226D03*
X58650000Y-175296226D03*
%TD*%
D16*
%TO.C,U10*%
X54457500Y-156390000D03*
X54457500Y-157040000D03*
X54457500Y-157690000D03*
X54457500Y-158340000D03*
X54457500Y-158990000D03*
X54457500Y-159640000D03*
X54457500Y-160290000D03*
X60182500Y-160290000D03*
X60182500Y-159640000D03*
X60182500Y-158990000D03*
X60182500Y-158340000D03*
X60182500Y-157690000D03*
X60182500Y-157040000D03*
X60182500Y-156390000D03*
%TD*%
D23*
%TO.C,TP16*%
X60770000Y-153680000D03*
%TD*%
D15*
%TO.C,C8*%
X61200000Y-135975000D03*
X61200000Y-134425000D03*
%TD*%
D32*
%TO.C,CN1*%
X59650000Y-17250000D03*
X59150000Y-17250000D03*
X58650000Y-17250000D03*
X58150000Y-17250000D03*
X57650000Y-17250000D03*
X57150000Y-17250000D03*
X56650000Y-17250000D03*
X56150000Y-17250000D03*
X55650000Y-17250000D03*
X55150000Y-17250000D03*
D20*
X60650000Y-14750000D03*
X54150000Y-14750000D03*
%TD*%
D38*
%TO.C,C12*%
X53111600Y-173562826D03*
X55011600Y-173562826D03*
%TD*%
D35*
%TO.C,JP4*%
X62400000Y-118600000D03*
D36*
X62400000Y-117150000D03*
%TD*%
D39*
%TO.C,U13*%
X54655200Y-175187126D03*
X54155200Y-175187126D03*
X53655200Y-175187126D03*
X53655200Y-176612126D03*
X54155200Y-176612126D03*
X54655200Y-176612126D03*
%TD*%
D15*
%TO.C,C3*%
X63200000Y-61075000D03*
X63200000Y-59525000D03*
%TD*%
D10*
%TO.C,H3*%
X61950000Y-21400000D03*
%TD*%
D19*
%TO.C,RN4*%
X57200400Y-35394200D03*
D20*
X58000400Y-35394200D03*
X58800400Y-35394200D03*
D19*
X59600400Y-35394200D03*
X59600400Y-33594200D03*
D20*
X58800400Y-33594200D03*
X58000400Y-33594200D03*
D19*
X57200400Y-33594200D03*
%TD*%
D23*
%TO.C,TP4*%
X63300000Y-168950000D03*
%TD*%
%TO.C,TP14*%
X56800000Y-139000000D03*
%TD*%
%TO.C,TP6*%
X52825000Y-55500000D03*
%TD*%
%TO.C,TP5*%
X53950000Y-92150000D03*
%TD*%
D21*
%TO.C,C7*%
X53600000Y-144665000D03*
X53600000Y-146215000D03*
%TD*%
D35*
%TO.C,JP1*%
X54750000Y-118600000D03*
D36*
X54750000Y-117150000D03*
%TD*%
D13*
%TO.C,TP10*%
X52050000Y-104750000D03*
%TD*%
D23*
%TO.C,TP15*%
X52900000Y-81000000D03*
%TD*%
D38*
%TO.C,C13*%
X53111600Y-171581626D03*
X55011600Y-171581626D03*
%TD*%
D15*
%TO.C,C20*%
X56276782Y-115047687D03*
X56276782Y-113497687D03*
%TD*%
D40*
%TO.C,DSP4*%
X65735200Y-81340960D03*
X65735200Y-83880960D03*
X65735200Y-86420960D03*
X65735200Y-88960960D03*
X65735200Y-91500960D03*
X65735200Y-94040960D03*
X65735200Y-96580960D03*
X65735200Y-99120960D03*
X65735200Y-101660960D03*
X50495200Y-101660960D03*
X50495200Y-99120960D03*
X50495200Y-96580960D03*
X50495200Y-94040960D03*
X50495200Y-91500960D03*
X50495200Y-88960960D03*
X50495200Y-86420960D03*
X50495200Y-83880960D03*
X50495200Y-81340960D03*
%TD*%
%TO.C,DSP6*%
X65735200Y-30581600D03*
X65735200Y-33121600D03*
X65735200Y-35661600D03*
X65735200Y-38201600D03*
X65735200Y-40741600D03*
X65735200Y-43281600D03*
X65735200Y-45821600D03*
X65735200Y-48361600D03*
X65735200Y-50901600D03*
X50495200Y-50901600D03*
X50495200Y-48361600D03*
X50495200Y-45821600D03*
X50495200Y-43281600D03*
X50495200Y-40741600D03*
X50495200Y-38201600D03*
X50495200Y-35661600D03*
X50495200Y-33121600D03*
X50495200Y-30581600D03*
%TD*%
%TO.C,DSP3*%
X65735200Y-106720640D03*
X65735200Y-109260640D03*
X65735200Y-111800640D03*
X65735200Y-114340640D03*
X65735200Y-116880640D03*
X65735200Y-119420640D03*
X65735200Y-121960640D03*
X65735200Y-124500640D03*
X65735200Y-127040640D03*
X50495200Y-127040640D03*
X50495200Y-124500640D03*
X50495200Y-121960640D03*
X50495200Y-119420640D03*
X50495200Y-116880640D03*
X50495200Y-114340640D03*
X50495200Y-111800640D03*
X50495200Y-109260640D03*
X50495200Y-106720640D03*
%TD*%
%TO.C,DSP5*%
X65735200Y-55961280D03*
X65735200Y-58501280D03*
X65735200Y-61041280D03*
X65735200Y-63581280D03*
X65735200Y-66121280D03*
X65735200Y-68661280D03*
X65735200Y-71201280D03*
X65735200Y-73741280D03*
X65735200Y-76281280D03*
X50495200Y-76281280D03*
X50495200Y-73741280D03*
X50495200Y-71201280D03*
X50495200Y-68661280D03*
X50495200Y-66121280D03*
X50495200Y-63581280D03*
X50495200Y-61041280D03*
X50495200Y-58501280D03*
X50495200Y-55961280D03*
%TD*%
%TO.C,DSP2*%
X65735200Y-132100320D03*
X65735200Y-134640320D03*
X65735200Y-137180320D03*
X65735200Y-139720320D03*
X65735200Y-142260320D03*
X65735200Y-144800320D03*
X65735200Y-147340320D03*
X65735200Y-149880320D03*
X65735200Y-152420320D03*
X50495200Y-152420320D03*
X50495200Y-149880320D03*
X50495200Y-147340320D03*
X50495200Y-144800320D03*
X50495200Y-142260320D03*
X50495200Y-139720320D03*
X50495200Y-137180320D03*
X50495200Y-134640320D03*
X50495200Y-132100320D03*
%TD*%
%TO.C,DSP1*%
X65735200Y-157480000D03*
X65735200Y-160020000D03*
X65735200Y-162560000D03*
X65735200Y-165100000D03*
X65735200Y-167640000D03*
X65735200Y-170180000D03*
X65735200Y-172720000D03*
X65735200Y-175260000D03*
X65735200Y-177800000D03*
X50495200Y-177800000D03*
X50495200Y-175260000D03*
X50495200Y-172720000D03*
X50495200Y-170180000D03*
X50495200Y-167640000D03*
X50495200Y-165100000D03*
X50495200Y-162560000D03*
X50495200Y-160020000D03*
X50495200Y-157480000D03*
%TD*%
M02*
