%TF.GenerationSoftware,KiCad,Pcbnew,10.0.0*%
%TF.CreationDate,2026-08-16T09:25:36-04:00*%
%TF.ProjectId,emustation-alpha-display,656d7573-7461-4746-996f-6e2d616c7068,rev?*%
%TF.SameCoordinates,Original*%
%TF.FileFunction,Soldermask,Bot*%
%TF.FilePolarity,Negative*%
%FSLAX46Y46*%
G04 Gerber Fmt 4.6, Leading zero omitted, Abs format (unit mm)*
G04 Created by KiCad (PCBNEW 10.0.0) date 2026-08-16 09:25:36*
%MOMM*%
%LPD*%
G01*
G04 APERTURE LIST*
%ADD10C,3.200000*%
%ADD11R,0.850000X0.850000*%
%ADD12C,0.850000*%
%ADD13C,0.990600*%
%ADD14C,2.000000*%
%ADD15C,1.400000*%
G04 APERTURE END LIST*
D10*
%TO.C,H2*%
X61950000Y-187000000D03*
%TD*%
%TO.C,H4*%
X52750000Y-21400000D03*
%TD*%
%TO.C,H1*%
X52750000Y-187000000D03*
%TD*%
D11*
%TO.C,CN4*%
X59850000Y-115050000D03*
D12*
X59850000Y-114050000D03*
X60850000Y-115050000D03*
X60850000Y-114050000D03*
X61850000Y-115050000D03*
X61850000Y-114050000D03*
%TD*%
D13*
%TO.C,CN3*%
X61650000Y-101250000D03*
X60634000Y-96170000D03*
X62666000Y-96170000D03*
%TD*%
D14*
%TO.C,TP1*%
X48050000Y-197600000D03*
%TD*%
D10*
%TO.C,H3*%
X61950000Y-21400000D03*
%TD*%
D15*
%TO.C,DSP4*%
X65735200Y-81340960D03*
X65735200Y-83880960D03*
X65735200Y-86420960D03*
X65735200Y-88960960D03*
X65735200Y-91500960D03*
X65735200Y-94040960D03*
X65735200Y-96580960D03*
X65735200Y-99120960D03*
X65735200Y-101660960D03*
X50495200Y-101660960D03*
X50495200Y-99120960D03*
X50495200Y-96580960D03*
X50495200Y-94040960D03*
X50495200Y-91500960D03*
X50495200Y-88960960D03*
X50495200Y-86420960D03*
X50495200Y-83880960D03*
X50495200Y-81340960D03*
%TD*%
%TO.C,DSP6*%
X65735200Y-30581600D03*
X65735200Y-33121600D03*
X65735200Y-35661600D03*
X65735200Y-38201600D03*
X65735200Y-40741600D03*
X65735200Y-43281600D03*
X65735200Y-45821600D03*
X65735200Y-48361600D03*
X65735200Y-50901600D03*
X50495200Y-50901600D03*
X50495200Y-48361600D03*
X50495200Y-45821600D03*
X50495200Y-43281600D03*
X50495200Y-40741600D03*
X50495200Y-38201600D03*
X50495200Y-35661600D03*
X50495200Y-33121600D03*
X50495200Y-30581600D03*
%TD*%
%TO.C,DSP3*%
X65735200Y-106720640D03*
X65735200Y-109260640D03*
X65735200Y-111800640D03*
X65735200Y-114340640D03*
X65735200Y-116880640D03*
X65735200Y-119420640D03*
X65735200Y-121960640D03*
X65735200Y-124500640D03*
X65735200Y-127040640D03*
X50495200Y-127040640D03*
X50495200Y-124500640D03*
X50495200Y-121960640D03*
X50495200Y-119420640D03*
X50495200Y-116880640D03*
X50495200Y-114340640D03*
X50495200Y-111800640D03*
X50495200Y-109260640D03*
X50495200Y-106720640D03*
%TD*%
%TO.C,DSP5*%
X65735200Y-55961280D03*
X65735200Y-58501280D03*
X65735200Y-61041280D03*
X65735200Y-63581280D03*
X65735200Y-66121280D03*
X65735200Y-68661280D03*
X65735200Y-71201280D03*
X65735200Y-73741280D03*
X65735200Y-76281280D03*
X50495200Y-76281280D03*
X50495200Y-73741280D03*
X50495200Y-71201280D03*
X50495200Y-68661280D03*
X50495200Y-66121280D03*
X50495200Y-63581280D03*
X50495200Y-61041280D03*
X50495200Y-58501280D03*
X50495200Y-55961280D03*
%TD*%
%TO.C,DSP2*%
X65735200Y-132100320D03*
X65735200Y-134640320D03*
X65735200Y-137180320D03*
X65735200Y-139720320D03*
X65735200Y-142260320D03*
X65735200Y-144800320D03*
X65735200Y-147340320D03*
X65735200Y-149880320D03*
X65735200Y-152420320D03*
X50495200Y-152420320D03*
X50495200Y-149880320D03*
X50495200Y-147340320D03*
X50495200Y-144800320D03*
X50495200Y-142260320D03*
X50495200Y-139720320D03*
X50495200Y-137180320D03*
X50495200Y-134640320D03*
X50495200Y-132100320D03*
%TD*%
%TO.C,DSP1*%
X65735200Y-157480000D03*
X65735200Y-160020000D03*
X65735200Y-162560000D03*
X65735200Y-165100000D03*
X65735200Y-167640000D03*
X65735200Y-170180000D03*
X65735200Y-172720000D03*
X65735200Y-175260000D03*
X65735200Y-177800000D03*
X50495200Y-177800000D03*
X50495200Y-175260000D03*
X50495200Y-172720000D03*
X50495200Y-170180000D03*
X50495200Y-167640000D03*
X50495200Y-165100000D03*
X50495200Y-162560000D03*
X50495200Y-160020000D03*
X50495200Y-157480000D03*
%TD*%
M02*
