%TF.GenerationSoftware,KiCad,Pcbnew,10.0.0*%
%TF.CreationDate,2026-08-16T09:25:36-04:00*%
%TF.ProjectId,emustation-alpha-display,656d7573-7461-4746-996f-6e2d616c7068,rev?*%
%TF.SameCoordinates,Original*%
%TF.FileFunction,Copper,L2,Bot*%
%TF.FilePolarity,Positive*%
%FSLAX46Y46*%
G04 Gerber Fmt 4.6, Leading zero omitted, Abs format (unit mm)*
G04 Created by KiCad (PCBNEW 10.0.0) date 2026-08-16 09:25:36*
%MOMM*%
%LPD*%
G01*
G04 APERTURE LIST*
%TA.AperFunction,ComponentPad*%
%ADD10R,0.850000X0.850000*%
%TD*%
%TA.AperFunction,ComponentPad*%
%ADD11C,0.850000*%
%TD*%
%TA.AperFunction,ComponentPad*%
%ADD12C,2.000000*%
%TD*%
%TA.AperFunction,ComponentPad*%
%ADD13C,1.400000*%
%TD*%
%TA.AperFunction,ViaPad*%
%ADD14C,0.600000*%
%TD*%
%TA.AperFunction,Conductor*%
%ADD15C,0.152400*%
%TD*%
%TA.AperFunction,Conductor*%
%ADD16C,0.508000*%
%TD*%
%TA.AperFunction,Conductor*%
%ADD17C,0.200000*%
%TD*%
%TA.AperFunction,Conductor*%
%ADD18C,0.254000*%
%TD*%
G04 APERTURE END LIST*
D10*
%TO.P,CN4,1,Pin_1_1*%
%TO.N,+5V*%
X59850000Y-115050000D03*
D11*
%TO.P,CN4,2,Pin_2_2*%
%TO.N,/DebugPort.0*%
X59850000Y-114050000D03*
%TO.P,CN4,3,Pin_3_3*%
%TO.N,/DebugPort.1*%
X60850000Y-115050000D03*
%TO.P,CN4,4,Pin_4_4*%
%TO.N,/DebugPort.2*%
X60850000Y-114050000D03*
%TO.P,CN4,5,Pin_5_5*%
%TO.N,/DebugPort.3*%
X61850000Y-115050000D03*
%TO.P,CN4,6,Pin_6_6*%
%TO.N,GND*%
X61850000Y-114050000D03*
%TD*%
D12*
%TO.P,TP1,1,1_1*%
%TO.N,GND*%
X48050000Y-197600000D03*
%TD*%
D13*
%TO.P,DSP4,1,E_1*%
%TO.N,/Display Drivers/Seg.E*%
X65735200Y-81340960D03*
%TO.P,DSP4,2,N_2*%
%TO.N,/Display Drivers/Seg.N*%
X65735200Y-83880960D03*
%TO.P,DSP4,3,NC_3*%
%TO.N,unconnected-(DSP4-NC-Pad3)*%
X65735200Y-86420960D03*
%TO.P,DSP4,4,M_4*%
%TO.N,/Display Drivers/Seg.M*%
X65735200Y-88960960D03*
%TO.P,DSP4,5,L_5*%
%TO.N,/Display Drivers/Seg.L*%
X65735200Y-91500960D03*
%TO.P,DSP4,6,G2_6*%
%TO.N,/Display Drivers/Seg.G2*%
X65735200Y-94040960D03*
%TO.P,DSP4,7,D_7*%
%TO.N,/Display Drivers/Seg.D*%
X65735200Y-96580960D03*
%TO.P,DSP4,8,DP_8*%
%TO.N,/Display Drivers/Seg.DP*%
X65735200Y-99120960D03*
%TO.P,DSP4,9,C_9*%
%TO.N,/Display Drivers/Seg.C*%
X65735200Y-101660960D03*
%TO.P,DSP4,10,B_10*%
%TO.N,/Display Drivers/Seg.B*%
X50495200Y-101660960D03*
%TO.P,DSP4,11,C2_11*%
%TO.N,/Display Drivers/Disp.7*%
X50495200Y-99120960D03*
%TO.P,DSP4,12,A_12*%
%TO.N,/Display Drivers/Seg.A*%
X50495200Y-96580960D03*
%TO.P,DSP4,13,G1_13*%
%TO.N,/Display Drivers/Seg.G1*%
X50495200Y-94040960D03*
%TO.P,DSP4,14,K_14*%
%TO.N,/Display Drivers/Seg.K*%
X50495200Y-91500960D03*
%TO.P,DSP4,15,J_15*%
%TO.N,/Display Drivers/Seg.J*%
X50495200Y-88960960D03*
%TO.P,DSP4,16,C1_16*%
%TO.N,/Display Drivers/Disp.6*%
X50495200Y-86420960D03*
%TO.P,DSP4,17,H_17*%
%TO.N,/Display Drivers/Seg.H*%
X50495200Y-83880960D03*
%TO.P,DSP4,18,F_18*%
%TO.N,/Display Drivers/Seg.F*%
X50495200Y-81340960D03*
%TD*%
%TO.P,DSP6,1,E_1*%
%TO.N,/Display Drivers/Seg.E*%
X65735200Y-30581600D03*
%TO.P,DSP6,2,N_2*%
%TO.N,/Display Drivers/Seg.N*%
X65735200Y-33121600D03*
%TO.P,DSP6,3,NC_3*%
%TO.N,unconnected-(DSP6-NC-Pad3)*%
X65735200Y-35661600D03*
%TO.P,DSP6,4,M_4*%
%TO.N,/Display Drivers/Seg.M*%
X65735200Y-38201600D03*
%TO.P,DSP6,5,L_5*%
%TO.N,/Display Drivers/Seg.L*%
X65735200Y-40741600D03*
%TO.P,DSP6,6,G2_6*%
%TO.N,/Display Drivers/Seg.G2*%
X65735200Y-43281600D03*
%TO.P,DSP6,7,D_7*%
%TO.N,/Display Drivers/Seg.D*%
X65735200Y-45821600D03*
%TO.P,DSP6,8,DP_8*%
%TO.N,/Display Drivers/Seg.DP*%
X65735200Y-48361600D03*
%TO.P,DSP6,9,C_9*%
%TO.N,/Display Drivers/Seg.C*%
X65735200Y-50901600D03*
%TO.P,DSP6,10,B_10*%
%TO.N,/Display Drivers/Seg.B*%
X50495200Y-50901600D03*
%TO.P,DSP6,11,C2_11*%
%TO.N,/Display Drivers/Disp.11*%
X50495200Y-48361600D03*
%TO.P,DSP6,12,A_12*%
%TO.N,/Display Drivers/Seg.A*%
X50495200Y-45821600D03*
%TO.P,DSP6,13,G1_13*%
%TO.N,/Display Drivers/Seg.G1*%
X50495200Y-43281600D03*
%TO.P,DSP6,14,K_14*%
%TO.N,/Display Drivers/Seg.K*%
X50495200Y-40741600D03*
%TO.P,DSP6,15,J_15*%
%TO.N,/Display Drivers/Seg.J*%
X50495200Y-38201600D03*
%TO.P,DSP6,16,C1_16*%
%TO.N,/Display Drivers/Disp.10*%
X50495200Y-35661600D03*
%TO.P,DSP6,17,H_17*%
%TO.N,/Display Drivers/Seg.H*%
X50495200Y-33121600D03*
%TO.P,DSP6,18,F_18*%
%TO.N,/Display Drivers/Seg.F*%
X50495200Y-30581600D03*
%TD*%
%TO.P,DSP3,1,E_1*%
%TO.N,/Display Drivers/Seg.E*%
X65735200Y-106720640D03*
%TO.P,DSP3,2,N_2*%
%TO.N,/Display Drivers/Seg.N*%
X65735200Y-109260640D03*
%TO.P,DSP3,3,NC_3*%
%TO.N,unconnected-(DSP3-NC-Pad3)*%
X65735200Y-111800640D03*
%TO.P,DSP3,4,M_4*%
%TO.N,/Display Drivers/Seg.M*%
X65735200Y-114340640D03*
%TO.P,DSP3,5,L_5*%
%TO.N,/Display Drivers/Seg.L*%
X65735200Y-116880640D03*
%TO.P,DSP3,6,G2_6*%
%TO.N,/Display Drivers/Seg.G2*%
X65735200Y-119420640D03*
%TO.P,DSP3,7,D_7*%
%TO.N,/Display Drivers/Seg.D*%
X65735200Y-121960640D03*
%TO.P,DSP3,8,DP_8*%
%TO.N,/Display Drivers/Seg.DP*%
X65735200Y-124500640D03*
%TO.P,DSP3,9,C_9*%
%TO.N,/Display Drivers/Seg.C*%
X65735200Y-127040640D03*
%TO.P,DSP3,10,B_10*%
%TO.N,/Display Drivers/Seg.B*%
X50495200Y-127040640D03*
%TO.P,DSP3,11,C2_11*%
%TO.N,/Display Drivers/Disp.5*%
X50495200Y-124500640D03*
%TO.P,DSP3,12,A_12*%
%TO.N,/Display Drivers/Seg.A*%
X50495200Y-121960640D03*
%TO.P,DSP3,13,G1_13*%
%TO.N,/Display Drivers/Seg.G1*%
X50495200Y-119420640D03*
%TO.P,DSP3,14,K_14*%
%TO.N,/Display Drivers/Seg.K*%
X50495200Y-116880640D03*
%TO.P,DSP3,15,J_15*%
%TO.N,/Display Drivers/Seg.J*%
X50495200Y-114340640D03*
%TO.P,DSP3,16,C1_16*%
%TO.N,/Display Drivers/Disp.4*%
X50495200Y-111800640D03*
%TO.P,DSP3,17,H_17*%
%TO.N,/Display Drivers/Seg.H*%
X50495200Y-109260640D03*
%TO.P,DSP3,18,F_18*%
%TO.N,/Display Drivers/Seg.F*%
X50495200Y-106720640D03*
%TD*%
%TO.P,DSP5,1,E_1*%
%TO.N,/Display Drivers/Seg.E*%
X65735200Y-55961280D03*
%TO.P,DSP5,2,N_2*%
%TO.N,/Display Drivers/Seg.N*%
X65735200Y-58501280D03*
%TO.P,DSP5,3,NC_3*%
%TO.N,unconnected-(DSP5-NC-Pad3)*%
X65735200Y-61041280D03*
%TO.P,DSP5,4,M_4*%
%TO.N,/Display Drivers/Seg.M*%
X65735200Y-63581280D03*
%TO.P,DSP5,5,L_5*%
%TO.N,/Display Drivers/Seg.L*%
X65735200Y-66121280D03*
%TO.P,DSP5,6,G2_6*%
%TO.N,/Display Drivers/Seg.G2*%
X65735200Y-68661280D03*
%TO.P,DSP5,7,D_7*%
%TO.N,/Display Drivers/Seg.D*%
X65735200Y-71201280D03*
%TO.P,DSP5,8,DP_8*%
%TO.N,/Display Drivers/Seg.DP*%
X65735200Y-73741280D03*
%TO.P,DSP5,9,C_9*%
%TO.N,/Display Drivers/Seg.C*%
X65735200Y-76281280D03*
%TO.P,DSP5,10,B_10*%
%TO.N,/Display Drivers/Seg.B*%
X50495200Y-76281280D03*
%TO.P,DSP5,11,C2_11*%
%TO.N,/Display Drivers/Disp.9*%
X50495200Y-73741280D03*
%TO.P,DSP5,12,A_12*%
%TO.N,/Display Drivers/Seg.A*%
X50495200Y-71201280D03*
%TO.P,DSP5,13,G1_13*%
%TO.N,/Display Drivers/Seg.G1*%
X50495200Y-68661280D03*
%TO.P,DSP5,14,K_14*%
%TO.N,/Display Drivers/Seg.K*%
X50495200Y-66121280D03*
%TO.P,DSP5,15,J_15*%
%TO.N,/Display Drivers/Seg.J*%
X50495200Y-63581280D03*
%TO.P,DSP5,16,C1_16*%
%TO.N,/Display Drivers/Disp.8*%
X50495200Y-61041280D03*
%TO.P,DSP5,17,H_17*%
%TO.N,/Display Drivers/Seg.H*%
X50495200Y-58501280D03*
%TO.P,DSP5,18,F_18*%
%TO.N,/Display Drivers/Seg.F*%
X50495200Y-55961280D03*
%TD*%
%TO.P,DSP2,1,E_1*%
%TO.N,/Display Drivers/Seg.E*%
X65735200Y-132100320D03*
%TO.P,DSP2,2,N_2*%
%TO.N,/Display Drivers/Seg.N*%
X65735200Y-134640320D03*
%TO.P,DSP2,3,NC_3*%
%TO.N,unconnected-(DSP2-NC-Pad3)*%
X65735200Y-137180320D03*
%TO.P,DSP2,4,M_4*%
%TO.N,/Display Drivers/Seg.M*%
X65735200Y-139720320D03*
%TO.P,DSP2,5,L_5*%
%TO.N,/Display Drivers/Seg.L*%
X65735200Y-142260320D03*
%TO.P,DSP2,6,G2_6*%
%TO.N,/Display Drivers/Seg.G2*%
X65735200Y-144800320D03*
%TO.P,DSP2,7,D_7*%
%TO.N,/Display Drivers/Seg.D*%
X65735200Y-147340320D03*
%TO.P,DSP2,8,DP_8*%
%TO.N,/Display Drivers/Seg.DP*%
X65735200Y-149880320D03*
%TO.P,DSP2,9,C_9*%
%TO.N,/Display Drivers/Seg.C*%
X65735200Y-152420320D03*
%TO.P,DSP2,10,B_10*%
%TO.N,/Display Drivers/Seg.B*%
X50495200Y-152420320D03*
%TO.P,DSP2,11,C2_11*%
%TO.N,/Display Drivers/Disp.3*%
X50495200Y-149880320D03*
%TO.P,DSP2,12,A_12*%
%TO.N,/Display Drivers/Seg.A*%
X50495200Y-147340320D03*
%TO.P,DSP2,13,G1_13*%
%TO.N,/Display Drivers/Seg.G1*%
X50495200Y-144800320D03*
%TO.P,DSP2,14,K_14*%
%TO.N,/Display Drivers/Seg.K*%
X50495200Y-142260320D03*
%TO.P,DSP2,15,J_15*%
%TO.N,/Display Drivers/Seg.J*%
X50495200Y-139720320D03*
%TO.P,DSP2,16,C1_16*%
%TO.N,/Display Drivers/Disp.2*%
X50495200Y-137180320D03*
%TO.P,DSP2,17,H_17*%
%TO.N,/Display Drivers/Seg.H*%
X50495200Y-134640320D03*
%TO.P,DSP2,18,F_18*%
%TO.N,/Display Drivers/Seg.F*%
X50495200Y-132100320D03*
%TD*%
%TO.P,DSP1,1,E_1*%
%TO.N,/Display Drivers/Seg.E*%
X65735200Y-157480000D03*
%TO.P,DSP1,2,N_2*%
%TO.N,/Display Drivers/Seg.N*%
X65735200Y-160020000D03*
%TO.P,DSP1,3,NC_3*%
%TO.N,unconnected-(DSP1-NC-Pad3)*%
X65735200Y-162560000D03*
%TO.P,DSP1,4,M_4*%
%TO.N,/Display Drivers/Seg.M*%
X65735200Y-165100000D03*
%TO.P,DSP1,5,L_5*%
%TO.N,/Display Drivers/Seg.L*%
X65735200Y-167640000D03*
%TO.P,DSP1,6,G2_6*%
%TO.N,/Display Drivers/Seg.G2*%
X65735200Y-170180000D03*
%TO.P,DSP1,7,D_7*%
%TO.N,/Display Drivers/Seg.D*%
X65735200Y-172720000D03*
%TO.P,DSP1,8,DP_8*%
%TO.N,/Display Drivers/Seg.DP*%
X65735200Y-175260000D03*
%TO.P,DSP1,9,C_9*%
%TO.N,/Display Drivers/Seg.C*%
X65735200Y-177800000D03*
%TO.P,DSP1,10,B_10*%
%TO.N,/Display Drivers/Seg.B*%
X50495200Y-177800000D03*
%TO.P,DSP1,11,C2_11*%
%TO.N,/Display Drivers/Disp.1*%
X50495200Y-175260000D03*
%TO.P,DSP1,12,A_12*%
%TO.N,/Display Drivers/Seg.A*%
X50495200Y-172720000D03*
%TO.P,DSP1,13,G1_13*%
%TO.N,/Display Drivers/Seg.G1*%
X50495200Y-170180000D03*
%TO.P,DSP1,14,K_14*%
%TO.N,/Display Drivers/Seg.K*%
X50495200Y-167640000D03*
%TO.P,DSP1,15,J_15*%
%TO.N,/Display Drivers/Seg.J*%
X50495200Y-165100000D03*
%TO.P,DSP1,16,C1_16*%
%TO.N,/Display Drivers/Disp.0*%
X50495200Y-162560000D03*
%TO.P,DSP1,17,H_17*%
%TO.N,/Display Drivers/Seg.H*%
X50495200Y-160020000D03*
%TO.P,DSP1,18,F_18*%
%TO.N,/Display Drivers/Seg.F*%
X50495200Y-157480000D03*
%TD*%
D14*
%TO.N,+5V*%
X61725000Y-45575000D03*
X62000000Y-32400000D03*
X58000000Y-142400000D03*
X63175000Y-47950000D03*
X61300000Y-58900000D03*
X57140000Y-155700000D03*
X54600000Y-146215000D03*
X61133100Y-62300000D03*
X53166520Y-149010000D03*
X63100000Y-38150000D03*
%TO.N,/DispDrive.SER*%
X56455306Y-107146890D03*
X54000000Y-135800000D03*
X55600000Y-130000000D03*
X54200000Y-127476480D03*
%TO.N,GND*%
X56600000Y-177673000D03*
X57775000Y-49800000D03*
X57000000Y-85400000D03*
X55400000Y-151400000D03*
X56800000Y-63800000D03*
X57000000Y-69200000D03*
X58200000Y-133050000D03*
X59800000Y-144200000D03*
X62400000Y-148200000D03*
X56950000Y-136450000D03*
X64000000Y-81350000D03*
X60200000Y-105350000D03*
X63350000Y-62150000D03*
X67500000Y-17000000D03*
X58500000Y-56600000D03*
X55050000Y-53250000D03*
X59600000Y-98300000D03*
X63050000Y-120750000D03*
X62600000Y-64800000D03*
X56000000Y-195000000D03*
X56310000Y-159230000D03*
X56800000Y-65600000D03*
X54700000Y-35500000D03*
X62000000Y-62800000D03*
X52950000Y-83000000D03*
X59800000Y-66200000D03*
X62250000Y-137000000D03*
X62200000Y-144200000D03*
X59675000Y-142600000D03*
X56450000Y-92750000D03*
X53850000Y-52050000D03*
X56800000Y-181600000D03*
X64000000Y-69400000D03*
X65300000Y-105150000D03*
X54250000Y-62350000D03*
X61100000Y-117650000D03*
X57000000Y-83000000D03*
X58850000Y-121600000D03*
X59473904Y-83376255D03*
X56900000Y-38450000D03*
X54400000Y-191400000D03*
X57375000Y-47725000D03*
X56025000Y-157150000D03*
X59500000Y-48950000D03*
X58400000Y-139800000D03*
X54200000Y-66200000D03*
X53400000Y-142800000D03*
X53950000Y-60400000D03*
X52570000Y-159200000D03*
X62400000Y-82400000D03*
X53820000Y-155660000D03*
%TO.N,Net-(U2-QB)*%
X61400000Y-90200000D03*
X61463603Y-87278600D03*
%TO.N,/SegDrive.~{SRCLR}*%
X54825000Y-57200000D03*
X54128422Y-100128422D03*
X54100000Y-103900000D03*
%TO.N,/SDA*%
X50200000Y-108000000D03*
X63200000Y-157800000D03*
%TO.N,/SCL*%
X64200000Y-163200000D03*
X60964606Y-109660781D03*
%TO.N,/DispDrive.SRCLK*%
X55052960Y-144200000D03*
X56100000Y-144200000D03*
X52600000Y-103750000D03*
X52711213Y-106561213D03*
%TO.N,/DispDrive.~{SRCLR}*%
X56200000Y-143400000D03*
X52423240Y-108200000D03*
X55600000Y-109600000D03*
X54529440Y-143400000D03*
%TO.N,/SWDIO*%
X59481102Y-110600000D03*
X60004622Y-101200000D03*
%TO.N,/DebugPort.0*%
X59993414Y-106330733D03*
%TO.N,/DebugPort.1*%
X64523520Y-107130270D03*
X61200000Y-107200000D03*
%TO.N,/DebugPort.2*%
X61000000Y-106400000D03*
%TO.N,/DebugPort.3*%
X64200000Y-105600000D03*
X61200000Y-105600000D03*
%TO.N,/~{RESET}*%
X62200000Y-103600000D03*
X63050000Y-98000000D03*
%TO.N,/SegDrive.RCLK*%
X56281102Y-100100000D03*
X57800000Y-57400000D03*
%TO.N,/SegDrive.SRCLK*%
X55481102Y-100100000D03*
X52600000Y-58200000D03*
%TO.N,/Display Drivers/Seg.D*%
X59850000Y-71200000D03*
%TO.N,/Display Drivers/Seg.C*%
X59876480Y-76301600D03*
%TO.N,/Display Drivers/Seg.B*%
X57778600Y-76500000D03*
%TO.N,/Display Drivers/Seg.A*%
X57250000Y-71200000D03*
%TO.N,/Display Drivers/SegDrive.SER-DaisyChain*%
X59200000Y-57400000D03*
X53166520Y-94150000D03*
%TO.N,Net-(U3-QD)*%
X62500000Y-48400000D03*
X59200000Y-51300000D03*
%TO.N,Net-(U3-QE)*%
X62700000Y-40250000D03*
X58497323Y-50625000D03*
%TO.N,Net-(U3-QF)*%
X57750000Y-50625000D03*
X53950000Y-38950000D03*
%TO.N,Net-(U3-QG)*%
X54000000Y-37650000D03*
X56775000Y-50600000D03*
%TO.N,Net-(U3-QA)*%
X54100000Y-47700000D03*
X60400000Y-55523520D03*
%TO.N,Net-(U9-QB)*%
X52776200Y-30600000D03*
X61000000Y-122000000D03*
%TO.N,Net-(U9-QC)*%
X58200000Y-31000000D03*
X60268051Y-121600000D03*
%TO.N,Net-(U9-QD)*%
X59600000Y-121125000D03*
X58400000Y-29200000D03*
%TO.N,Net-(U9-QA)*%
X52800000Y-28600000D03*
X61600000Y-122475000D03*
%TO.N,/IO.VIN*%
X52100000Y-169000000D03*
X59400000Y-15800000D03*
%TO.N,/IO.VIO*%
X58150000Y-16250000D03*
X59800000Y-178300000D03*
X57250000Y-25700000D03*
X48650000Y-178700000D03*
%TO.N,/IO.SCL*%
X56915919Y-16334534D03*
X60650000Y-178300000D03*
%TO.N,/IO.SDA*%
X61900000Y-178300000D03*
X56170571Y-16465200D03*
%TO.N,/IO.Reserved1*%
X57450000Y-196800000D03*
X53900000Y-196800000D03*
%TO.N,/Display Drivers/Seg.E*%
X63800000Y-42927400D03*
%TO.N,/Display Drivers/Seg.J*%
X53166520Y-42600000D03*
%TO.N,Net-(U2-QH)*%
X56000000Y-86600000D03*
X53600000Y-78400000D03*
%TO.N,Net-(U2-QG)*%
X54400000Y-78400000D03*
X57200000Y-86500600D03*
%TO.N,Net-(U2-QE)*%
X61000000Y-78400000D03*
X59665015Y-85534985D03*
%TO.N,Net-(U2-QF)*%
X61752403Y-78400000D03*
X59476480Y-86460665D03*
%TO.N,Net-(U8-QA)*%
X58920000Y-155150000D03*
X52740000Y-156230000D03*
%TO.N,/Display Drivers/Disp.8*%
X51400000Y-29200000D03*
%TO.N,/Display Drivers/Disp.9*%
X49223240Y-33179078D03*
X52082119Y-64282119D03*
X52000000Y-61800000D03*
%TO.N,/Display Drivers/Disp.4*%
X62200000Y-142600000D03*
%TO.N,/Display Drivers/Disp.5*%
X63600000Y-129200000D03*
%TO.N,/Display Drivers/Disp.6*%
X62800000Y-128600000D03*
%TO.N,/Display Drivers/Disp.7*%
X61200000Y-138600000D03*
%TO.N,/Display Drivers/Seg.K*%
X53176223Y-64176223D03*
%TO.N,/Display Drivers/Seg.G1*%
X53171600Y-65397939D03*
%TO.N,/Display Drivers/Disp.2*%
X58610000Y-160280000D03*
%TO.N,/Display Drivers/Disp.3*%
X58960000Y-158280000D03*
%TD*%
%TO.N,+5V*%
D15*
X53860000Y-152420000D02*
X57140000Y-155700000D01*
X61200000Y-59000000D02*
X61300000Y-58900000D01*
X63225000Y-44075000D02*
X61725000Y-45575000D01*
X63100000Y-38150000D02*
X63225000Y-38275000D01*
X63225000Y-38275000D02*
X63225000Y-44075000D01*
X53755000Y-152315000D02*
X53860000Y-152420000D01*
X61133100Y-62300000D02*
X61133100Y-61716900D01*
X61200000Y-61650000D02*
X61200000Y-59000000D01*
X55340370Y-146200000D02*
X58000000Y-143540370D01*
X63175000Y-48475000D02*
X63175000Y-47950000D01*
X54615000Y-146200000D02*
X55340370Y-146200000D01*
X61300000Y-58900000D02*
X61300000Y-50350000D01*
X54600000Y-146215000D02*
X54615000Y-146200000D01*
X58000000Y-143540370D02*
X58000000Y-142400000D01*
X61300000Y-50350000D02*
X63175000Y-48475000D01*
X53166520Y-149010000D02*
X53755000Y-149598480D01*
X62000000Y-37050000D02*
X63100000Y-38150000D01*
X61133100Y-61716900D02*
X61200000Y-61650000D01*
X53860000Y-152410000D02*
X53860000Y-152420000D01*
X53755000Y-149598480D02*
X53755000Y-152315000D01*
X62000000Y-32400000D02*
X62000000Y-37050000D01*
%TO.N,/DispDrive.SER*%
X55600000Y-134200000D02*
X54000000Y-135800000D01*
X55000000Y-111200000D02*
X56455306Y-109744694D01*
X52400000Y-111200000D02*
X55000000Y-111200000D01*
X52199440Y-111400560D02*
X52400000Y-111200000D01*
X56455306Y-109744694D02*
X56455306Y-107146890D01*
X55600000Y-130000000D02*
X55600000Y-134200000D01*
X52676480Y-127476480D02*
X52199440Y-126999440D01*
X52199440Y-126999440D02*
X52199440Y-111400560D01*
X54200000Y-127476480D02*
X52676480Y-127476480D01*
%TO.N,Net-(U2-QB)*%
X61400000Y-90200000D02*
X61400000Y-87342203D01*
X61400000Y-87342203D02*
X61463603Y-87278600D01*
%TO.N,/SegDrive.~{SRCLR}*%
X48145920Y-59029080D02*
X49975000Y-57200000D01*
X48145920Y-77222793D02*
X48145920Y-59029080D01*
X54128422Y-100128422D02*
X54128422Y-103871578D01*
X54118602Y-100138242D02*
X51418720Y-97438360D01*
X54128422Y-103871578D02*
X54100000Y-103900000D01*
X51418720Y-80495593D02*
X48145920Y-77222793D01*
X49975000Y-57200000D02*
X54825000Y-57200000D01*
X51418720Y-97438360D02*
X51418720Y-80495593D01*
%TO.N,/SDA*%
X50200000Y-108000000D02*
X48145920Y-110054080D01*
X63156480Y-157756480D02*
X63200000Y-157800000D01*
X51418720Y-155649090D02*
X53526110Y-157756480D01*
X53526110Y-157756480D02*
X63156480Y-157756480D01*
X48145920Y-128475465D02*
X49570455Y-129900000D01*
X51418720Y-131443720D02*
X51418720Y-155649090D01*
X49875000Y-129900000D02*
X51418720Y-131443720D01*
X49570455Y-129900000D02*
X49875000Y-129900000D01*
X48145920Y-110054080D02*
X48145920Y-128475465D01*
%TO.N,/SCL*%
X63592480Y-128028242D02*
X64800000Y-129235762D01*
X64800000Y-129235762D02*
X64800000Y-132109013D01*
X63416850Y-133492163D02*
X63416850Y-157276480D01*
X63592480Y-112173354D02*
X63592480Y-128028242D01*
X61079907Y-109660781D02*
X63592480Y-112173354D01*
X60964606Y-109660781D02*
X61079907Y-109660781D01*
X64200000Y-158059630D02*
X64200000Y-163200000D01*
X63416850Y-157276480D02*
X64200000Y-158059630D01*
X64800000Y-132109013D02*
X63416850Y-133492163D01*
%TO.N,/DispDrive.SRCLK*%
X52711213Y-103861213D02*
X52600000Y-103750000D01*
X55052960Y-144200000D02*
X56100000Y-144200000D01*
X52711213Y-106561213D02*
X52711213Y-103861213D01*
%TO.N,/DispDrive.~{SRCLR}*%
X53823240Y-109600000D02*
X55600000Y-109600000D01*
X54529440Y-143400000D02*
X56200000Y-143400000D01*
X52423240Y-108200000D02*
X53823240Y-109600000D01*
%TO.N,/SWDIO*%
X59481102Y-110600000D02*
X59481102Y-110318898D01*
X59481102Y-110318898D02*
X59400000Y-110237796D01*
X59400000Y-110237796D02*
X59400000Y-101800000D01*
X60000000Y-101200000D02*
X60004622Y-101200000D01*
X59400000Y-101800000D02*
X60000000Y-101200000D01*
%TO.N,/DebugPort.0*%
X59993414Y-106330733D02*
X60004622Y-106341941D01*
X60004622Y-110995378D02*
X59850000Y-111150000D01*
X60004622Y-106341941D02*
X60004622Y-110995378D01*
X59850000Y-111150000D02*
X59850000Y-114050000D01*
X60000000Y-113850000D02*
X60200000Y-114050000D01*
%TO.N,/DebugPort.1*%
X61269730Y-107130270D02*
X61200000Y-107200000D01*
X64523520Y-107130270D02*
X61269730Y-107130270D01*
%TO.N,/DebugPort.2*%
X61000000Y-106400000D02*
X61051662Y-106451662D01*
X60400000Y-107340370D02*
X60400000Y-113600000D01*
X60523520Y-106876480D02*
X60523520Y-107216850D01*
X61051662Y-106451662D02*
X60948338Y-106451662D01*
X60523520Y-107216850D02*
X60400000Y-107340370D01*
X60948338Y-106451662D02*
X60523520Y-106876480D01*
X60400000Y-113600000D02*
X60850000Y-114050000D01*
%TO.N,/DebugPort.3*%
X64200000Y-105600000D02*
X61200000Y-105600000D01*
%TO.N,/~{RESET}*%
X63050000Y-98000000D02*
X63200000Y-98150000D01*
X63200000Y-98150000D02*
X63200000Y-102600000D01*
X63200000Y-102600000D02*
X62200000Y-103600000D01*
%TO.N,/SegDrive.RCLK*%
X57800000Y-57400000D02*
X52800000Y-62400000D01*
X49445360Y-62400000D02*
X48745360Y-63100000D01*
X48745360Y-63100000D02*
X48745360Y-76860180D01*
X52018160Y-80132980D02*
X52018160Y-95827609D01*
X52018160Y-95827609D02*
X56281102Y-100090551D01*
X56281102Y-100090551D02*
X56281102Y-100100000D01*
X48745360Y-76860180D02*
X52018160Y-80132980D01*
X52800000Y-62400000D02*
X49445360Y-62400000D01*
%TO.N,/SegDrive.SRCLK*%
X51718440Y-96318440D02*
X55481102Y-100081102D01*
X52600000Y-58200000D02*
X50900000Y-59900000D01*
X51718440Y-80318440D02*
X51718440Y-96318440D01*
X50900000Y-59900000D02*
X49775372Y-59900000D01*
X55481102Y-100081102D02*
X55481102Y-100100000D01*
X48445640Y-77045640D02*
X51718440Y-80318440D01*
X49775372Y-59900000D02*
X48445640Y-61229732D01*
X48445640Y-61229732D02*
X48445640Y-77045640D01*
%TO.N,/Display Drivers/Seg.D*%
X60050000Y-71200000D02*
X60071600Y-71221600D01*
X59850000Y-71200000D02*
X60050000Y-71200000D01*
X60050000Y-71200000D02*
X60100000Y-71250000D01*
X60071600Y-71221600D02*
X65735200Y-71221600D01*
%TO.N,/Display Drivers/Seg.C*%
X59876480Y-76301600D02*
X65735200Y-76301600D01*
%TO.N,/Display Drivers/Seg.B*%
X57580200Y-76301600D02*
X50495200Y-76301600D01*
X57778600Y-76500000D02*
X57580200Y-76301600D01*
%TO.N,/Display Drivers/Seg.A*%
X57228400Y-71221600D02*
X57250000Y-71200000D01*
X50495200Y-71221600D02*
X57228400Y-71221600D01*
%TO.N,/Display Drivers/SegDrive.SER-DaisyChain*%
X52317880Y-79920766D02*
X49045080Y-76647966D01*
X53166520Y-94150000D02*
X53050000Y-94150000D01*
X58600000Y-57400000D02*
X59200000Y-57400000D01*
X51023868Y-64600000D02*
X57411934Y-58211934D01*
X49045080Y-65354920D02*
X49800000Y-64600000D01*
X49045080Y-76647966D02*
X49045080Y-65354920D01*
X53050000Y-94150000D02*
X52317880Y-93417880D01*
X57411934Y-58211934D02*
X57788066Y-58211934D01*
X52317880Y-93417880D02*
X52317880Y-79920766D01*
X49800000Y-64600000D02*
X51023868Y-64600000D01*
X57788066Y-58211934D02*
X58600000Y-57400000D01*
%TO.N,Net-(U3-QD)*%
X62100000Y-48400000D02*
X59200000Y-51300000D01*
X62500000Y-48400000D02*
X62100000Y-48400000D01*
%TO.N,Net-(U3-QE)*%
X58497323Y-50625000D02*
X58497323Y-44452677D01*
X58497323Y-44452677D02*
X62700000Y-40250000D01*
%TO.N,Net-(U3-QF)*%
X56558150Y-51123520D02*
X57251480Y-51123520D01*
X53950000Y-38950000D02*
X54130688Y-38950000D01*
X55000000Y-49565370D02*
X56558150Y-51123520D01*
X54200000Y-39400000D02*
X55000000Y-40200000D01*
X55000000Y-40200000D02*
X55000000Y-49565370D01*
X57251480Y-51123520D02*
X57750000Y-50625000D01*
X54130688Y-38950000D02*
X54200000Y-39019312D01*
X54200000Y-39019312D02*
X54200000Y-39400000D01*
%TO.N,Net-(U3-QG)*%
X56775000Y-40675000D02*
X56775000Y-50600000D01*
X54000000Y-37900000D02*
X56775000Y-40675000D01*
X54000000Y-37650000D02*
X54000000Y-37900000D01*
%TO.N,Net-(U3-QA)*%
X60376480Y-55500000D02*
X59900000Y-55500000D01*
X54100000Y-49700000D02*
X54100000Y-47700000D01*
X60400000Y-55523520D02*
X60376480Y-55500000D01*
X59900000Y-55500000D02*
X54100000Y-49700000D01*
%TO.N,Net-(U9-QB)*%
X58916570Y-76950136D02*
X58916570Y-59731166D01*
X58411934Y-88611934D02*
X58400000Y-88600000D01*
X52999440Y-39351704D02*
X53000000Y-39351144D01*
X61000000Y-122000000D02*
X61000000Y-119176132D01*
X54357590Y-40709854D02*
X52999440Y-39351704D01*
X53199440Y-49711334D02*
X53199440Y-44248296D01*
X58400000Y-88600000D02*
X58400000Y-77466706D01*
X53000000Y-30823800D02*
X52776200Y-30600000D01*
X60400000Y-58247736D02*
X60400000Y-56911894D01*
X58916570Y-59731166D02*
X60400000Y-58247736D01*
X61000000Y-119176132D02*
X58411934Y-116588066D01*
X58400000Y-77466706D02*
X58916570Y-76950136D01*
X53199440Y-44248296D02*
X54357590Y-43090146D01*
X58411934Y-116588066D02*
X58411934Y-88611934D01*
X60400000Y-56911894D02*
X53199440Y-49711334D01*
X54357590Y-43090146D02*
X54357590Y-40709854D01*
X53000000Y-39351144D02*
X53000000Y-30823800D01*
%TO.N,Net-(U9-QC)*%
X60268051Y-121600000D02*
X60268051Y-118868051D01*
X52252680Y-28406950D02*
X52583150Y-28076480D01*
X55276480Y-28076480D02*
X58200000Y-31000000D01*
X52899720Y-44124148D02*
X54057870Y-42965998D01*
X58023240Y-77419598D02*
X58616850Y-76825988D01*
X58023240Y-88776760D02*
X58023240Y-77419598D01*
X54057870Y-40834002D02*
X52699720Y-39475852D01*
X52699720Y-39475852D02*
X52699720Y-31263890D01*
X52899720Y-49835482D02*
X52899720Y-44124148D01*
X52699720Y-31263890D02*
X52252680Y-30816850D01*
X58616850Y-76825988D02*
X58616850Y-59607018D01*
X54057870Y-42965998D02*
X54057870Y-40834002D01*
X60023240Y-56959002D02*
X52899720Y-49835482D01*
X58616850Y-59607018D02*
X60023240Y-58200628D01*
X60023240Y-58200628D02*
X60023240Y-56959002D01*
X52583150Y-28076480D02*
X55276480Y-28076480D01*
X60268051Y-118868051D02*
X58000000Y-116600000D01*
X52252680Y-30816850D02*
X52252680Y-28406950D01*
X58000000Y-116600000D02*
X58000000Y-88800000D01*
X58000000Y-88800000D02*
X58023240Y-88776760D01*
%TO.N,Net-(U9-QD)*%
X51952960Y-34352960D02*
X51952960Y-28282802D01*
X56976760Y-27776760D02*
X58400000Y-29200000D01*
X57600000Y-88600000D02*
X57723520Y-88476480D01*
X59600000Y-118798320D02*
X57600000Y-116798320D01*
X59723520Y-57083150D02*
X52600000Y-49959630D01*
X52400000Y-34800000D02*
X51952960Y-34352960D01*
X58302120Y-76716850D02*
X58302120Y-66642490D01*
X53758150Y-40958150D02*
X52400000Y-39600000D01*
X59600000Y-121125000D02*
X59600000Y-118798320D01*
X52459002Y-27776760D02*
X56976760Y-27776760D01*
X57723520Y-77295450D02*
X58302120Y-76716850D01*
X57600000Y-116798320D02*
X57600000Y-88600000D01*
X57811934Y-66152304D02*
X57811934Y-59988066D01*
X53758150Y-42841850D02*
X53758150Y-40958150D01*
X52600000Y-44000000D02*
X53758150Y-42841850D01*
X52400000Y-39600000D02*
X52400000Y-34800000D01*
X58302120Y-66642490D02*
X57811934Y-66152304D01*
X52600000Y-49959630D02*
X52600000Y-44000000D01*
X57811934Y-59988066D02*
X59723520Y-58076480D01*
X51952960Y-28282802D02*
X52459002Y-27776760D01*
X57723520Y-88476480D02*
X57723520Y-77295450D01*
X59723520Y-58076480D02*
X59723520Y-57083150D01*
%TO.N,Net-(U9-QA)*%
X61621810Y-122453190D02*
X61621810Y-119374074D01*
X60699720Y-59133420D02*
X60699720Y-56699720D01*
X60699720Y-56699720D02*
X60131945Y-56131945D01*
X60131945Y-56131945D02*
X60043919Y-56131945D01*
X53499160Y-49587186D02*
X53499160Y-44372444D01*
X58800000Y-77490574D02*
X59216290Y-77074284D01*
X59216290Y-77074284D02*
X59216290Y-60616850D01*
X54657310Y-43214294D02*
X54657310Y-40585706D01*
X53499160Y-44372444D02*
X54657310Y-43214294D01*
X53299720Y-29099720D02*
X52800000Y-28600000D01*
X58800000Y-116552264D02*
X58800000Y-77490574D01*
X61600000Y-122475000D02*
X61621810Y-122453190D01*
X59216290Y-60616850D02*
X60699720Y-59133420D01*
X54657310Y-40585706D02*
X53299720Y-39228116D01*
X61621810Y-119374074D02*
X58800000Y-116552264D01*
X53299720Y-39228116D02*
X53299720Y-29099720D01*
X60043919Y-56131945D02*
X53499160Y-49587186D01*
%TO.N,/IO.VIN*%
D16*
X48000000Y-169000000D02*
X46754000Y-167754000D01*
X52100000Y-169000000D02*
X48000000Y-169000000D01*
X46754000Y-167754000D02*
X46754000Y-17200000D01*
X59054000Y-15454000D02*
X59400000Y-15800000D01*
X46754000Y-17200000D02*
X48500000Y-15454000D01*
X48500000Y-15454000D02*
X59054000Y-15454000D01*
%TO.N,/IO.VIO*%
D15*
X59800000Y-178300000D02*
X59371400Y-178728600D01*
X57250000Y-17150000D02*
X57250000Y-25700000D01*
X59371400Y-178728600D02*
X48678600Y-178728600D01*
X58150000Y-16250000D02*
X57250000Y-17150000D01*
X48678600Y-178728600D02*
X48650000Y-178700000D01*
%TO.N,/IO.SCL*%
X47236600Y-17632348D02*
X47236600Y-166236600D01*
X48932348Y-15936600D02*
X47236600Y-17632348D01*
X56517985Y-15936600D02*
X48932348Y-15936600D01*
X60650000Y-175650000D02*
X60650000Y-178300000D01*
X47600000Y-166600000D02*
X51600000Y-166600000D01*
X47236600Y-166236600D02*
X47600000Y-166600000D01*
X56915919Y-16334534D02*
X56517985Y-15936600D01*
X51600000Y-166600000D02*
X60650000Y-175650000D01*
%TO.N,/IO.SDA*%
X56135771Y-16500000D02*
X48800000Y-16500000D01*
X48800000Y-16500000D02*
X47541400Y-17758600D01*
X47541400Y-166041400D02*
X47750000Y-166250000D01*
X56170571Y-16465200D02*
X56135771Y-16500000D01*
X61900000Y-176468948D02*
X61900000Y-178300000D01*
X47541400Y-17758600D02*
X47541400Y-166041400D01*
X47750000Y-166250000D02*
X51681052Y-166250000D01*
X51681052Y-166250000D02*
X61900000Y-176468948D01*
%TO.N,/IO.Reserved1*%
D17*
X53900000Y-196800000D02*
X57450000Y-196800000D01*
%TO.N,/Display Drivers/Seg.F*%
D15*
X47846200Y-78732600D02*
X47846200Y-58630600D01*
X50495200Y-157480000D02*
X47846200Y-154831000D01*
X47846200Y-129481800D02*
X47846200Y-109379800D01*
X47846200Y-84030600D02*
X50495200Y-81381600D01*
X47846200Y-53332600D02*
X47846200Y-33230600D01*
X47846200Y-104081800D02*
X47846200Y-84030600D01*
X47846200Y-58630600D02*
X50495200Y-55981600D01*
X50495200Y-106730800D02*
X47846200Y-104081800D01*
X50495200Y-132130800D02*
X47846200Y-129481800D01*
X47846200Y-33230600D02*
X50495200Y-30581600D01*
X50495200Y-55981600D02*
X47846200Y-53332600D01*
X50495200Y-81381600D02*
X47846200Y-78732600D01*
X47846200Y-154831000D02*
X47846200Y-134779800D01*
X47846200Y-134779800D02*
X50495200Y-132130800D01*
X47846200Y-109379800D02*
X50495200Y-106730800D01*
%TO.N,/Display Drivers/Seg.E*%
D18*
X65735200Y-81381600D02*
X66218400Y-81381600D01*
X63943000Y-83173800D02*
X65735200Y-81381600D01*
X66140881Y-44842200D02*
X65714800Y-44842200D01*
X66464000Y-120991400D02*
X65910719Y-120991400D01*
X66872600Y-121400000D02*
X66464000Y-120991400D01*
X65735200Y-106730800D02*
X65735200Y-106664800D01*
X66872600Y-130993400D02*
X66872600Y-121400000D01*
X63943000Y-93674481D02*
X63943000Y-83173800D01*
X65735200Y-157480000D02*
X66872600Y-156342600D01*
X66872600Y-70622600D02*
X66200000Y-69950000D01*
X63943000Y-57773800D02*
X66872600Y-54844200D01*
X63943000Y-133923000D02*
X66872600Y-130993400D01*
X65618519Y-69950000D02*
X63943000Y-68274481D01*
X63943000Y-68274481D02*
X63943000Y-57773800D01*
X65329519Y-95061000D02*
X63943000Y-93674481D01*
X65719319Y-146200000D02*
X63943000Y-144423681D01*
X66872600Y-146672600D02*
X66400000Y-146200000D01*
X65714800Y-44842200D02*
X63800000Y-42927400D01*
X66872600Y-80727400D02*
X66872600Y-70622600D01*
X66872600Y-95872600D02*
X66061000Y-95061000D01*
X63943000Y-144423681D02*
X63943000Y-133923000D01*
X66872600Y-156342600D02*
X66872600Y-146672600D01*
X65910719Y-120991400D02*
X63943000Y-119023681D01*
X65735200Y-106664800D02*
X66872600Y-105527400D01*
X63943000Y-119023681D02*
X63943000Y-108523000D01*
X66400000Y-146200000D02*
X65719319Y-146200000D01*
X63800000Y-32516800D02*
X65735200Y-30581600D01*
X63943000Y-108523000D02*
X65735200Y-106730800D01*
X63800000Y-42927400D02*
X63800000Y-32516800D01*
X66200000Y-69950000D02*
X65618519Y-69950000D01*
X66872600Y-105527400D02*
X66872600Y-95872600D01*
X66872600Y-45573919D02*
X66140881Y-44842200D01*
X66872600Y-54844200D02*
X66872600Y-45573919D01*
X66218400Y-81381600D02*
X66872600Y-80727400D01*
X66061000Y-95061000D02*
X65329519Y-95061000D01*
%TO.N,/Display Drivers/Seg.J*%
D15*
X53166520Y-42600000D02*
X53166520Y-40872920D01*
X53166520Y-40872920D02*
X50495200Y-38201600D01*
%TO.N,Net-(U2-QH)*%
X53600000Y-78400000D02*
X53600000Y-84200000D01*
X53600000Y-84200000D02*
X56000000Y-86600000D01*
%TO.N,Net-(U2-QG)*%
X54400000Y-78400000D02*
X54400000Y-83700600D01*
X54400000Y-83700600D02*
X57200000Y-86500600D01*
%TO.N,Net-(U2-QE)*%
X61000000Y-84200000D02*
X61000000Y-78400000D01*
X59665015Y-85534985D02*
X61000000Y-84200000D01*
%TO.N,Net-(U2-QF)*%
X59486889Y-86460665D02*
X61626037Y-84321517D01*
X59476480Y-86460665D02*
X59486889Y-86460665D01*
X61626037Y-78526366D02*
X61752403Y-78400000D01*
X61626037Y-84321517D02*
X61626037Y-78526366D01*
%TO.N,Net-(U8-QA)*%
X57840000Y-156230000D02*
X52740000Y-156230000D01*
X58920000Y-155150000D02*
X57840000Y-156230000D01*
%TO.N,/Display Drivers/Disp.8*%
X50495200Y-61061600D02*
X51703770Y-61061600D01*
X51418720Y-29218720D02*
X51400000Y-29200000D01*
X50112665Y-31505120D02*
X50877735Y-31505120D01*
X51703770Y-61061600D02*
X55348520Y-57416850D01*
X50877735Y-31505120D02*
X51418720Y-30964135D01*
X50190490Y-51825120D02*
X49571040Y-51825120D01*
X55348520Y-56983150D02*
X50190490Y-51825120D01*
X55348520Y-57416850D02*
X55348520Y-56983150D01*
X51418720Y-30964135D02*
X51418720Y-29218720D01*
X48145920Y-33471865D02*
X50112665Y-31505120D01*
X48145920Y-50400000D02*
X48145920Y-33471865D01*
X49571040Y-51825120D02*
X48145920Y-50400000D01*
%TO.N,/Display Drivers/Disp.9*%
X49344800Y-72611200D02*
X49344800Y-65479068D01*
X49066562Y-33179078D02*
X49223240Y-33179078D01*
X50877735Y-49978080D02*
X49578080Y-49978080D01*
X48445640Y-33800000D02*
X49066562Y-33179078D01*
X52000000Y-61550000D02*
X55699655Y-57850345D01*
X55699655Y-57850345D02*
X55699655Y-54800000D01*
X52000000Y-61800000D02*
X52000000Y-61550000D01*
X48445640Y-48845640D02*
X48445640Y-33800000D01*
X49344800Y-65479068D02*
X49924148Y-64899720D01*
X49578080Y-49978080D02*
X48445640Y-48845640D01*
X51400000Y-64899720D02*
X51464518Y-64899720D01*
X50495200Y-73761600D02*
X49344800Y-72611200D01*
X49924148Y-64899720D02*
X51400000Y-64899720D01*
X51464518Y-64899720D02*
X52082119Y-64282119D01*
X55699655Y-54800000D02*
X50877735Y-49978080D01*
%TO.N,/Display Drivers/Disp.4*%
X53000000Y-141000000D02*
X53000000Y-131285523D01*
X62200000Y-142600000D02*
X61400000Y-141800000D01*
X49271960Y-127557483D02*
X49271960Y-113034040D01*
X53000000Y-131285523D02*
X49271960Y-127557483D01*
X49271960Y-113034040D02*
X50495200Y-111810800D01*
X61400000Y-141800000D02*
X53800000Y-141800000D01*
X53800000Y-141800000D02*
X53000000Y-141000000D01*
%TO.N,/Display Drivers/Disp.5*%
X49571680Y-125434320D02*
X49571680Y-127433335D01*
X63600000Y-129200000D02*
X51338346Y-129200000D01*
X50495200Y-124510800D02*
X49571680Y-125434320D01*
X51338346Y-129200000D02*
X51269173Y-129130827D01*
X51269173Y-129130827D02*
X51338345Y-129200000D01*
X49571680Y-127433335D02*
X51269173Y-129130827D01*
%TO.N,/Display Drivers/Disp.6*%
X52400000Y-128400000D02*
X62600000Y-128400000D01*
X62600000Y-128400000D02*
X62800000Y-128600000D01*
X52299720Y-128299720D02*
X52400000Y-128400000D01*
X52275852Y-128299720D02*
X52299720Y-128299720D01*
X51600000Y-106108160D02*
X51600000Y-127623868D01*
X48145920Y-102654080D02*
X51600000Y-106108160D01*
X51600000Y-127623868D02*
X52275852Y-128299720D01*
X48145920Y-88809280D02*
X48145920Y-102654080D01*
X50495200Y-86460000D02*
X48145920Y-88809280D01*
%TO.N,/Display Drivers/Disp.7*%
X48445640Y-101209560D02*
X48445640Y-102529932D01*
X64123520Y-132361625D02*
X61200000Y-135285145D01*
X52400000Y-128000000D02*
X63140370Y-128000000D01*
X51899720Y-127499720D02*
X52400000Y-128000000D01*
X50495200Y-99160000D02*
X48445640Y-101209560D01*
X64123520Y-128983150D02*
X64123520Y-132361625D01*
X48445640Y-102529932D02*
X51899720Y-105984012D01*
X63140370Y-128000000D02*
X64123520Y-128983150D01*
X61200000Y-135285145D02*
X61200000Y-138600000D01*
X51899720Y-105984012D02*
X51899720Y-127499720D01*
%TO.N,/Display Drivers/Seg.L*%
D18*
X65735200Y-167640000D02*
X68091800Y-165283400D01*
X68091800Y-119247400D02*
X65735200Y-116890800D01*
X68091800Y-92375000D02*
X68091800Y-68498200D01*
X68091800Y-144647400D02*
X68091800Y-143275000D01*
X67200000Y-91500000D02*
X67199040Y-91500960D01*
X68091800Y-165283400D02*
X68091800Y-144647400D01*
X68075000Y-92375000D02*
X67200000Y-91500000D01*
X67199040Y-91500960D02*
X65735200Y-91500960D01*
X68091800Y-143275000D02*
X68091800Y-143116800D01*
X68091800Y-119247400D02*
X68091800Y-93898200D01*
X68091800Y-92375000D02*
X68075000Y-92375000D01*
X68091800Y-68091800D02*
X66141600Y-66141600D01*
X68091800Y-43098200D02*
X65735200Y-40741600D01*
X66141600Y-66141600D02*
X65735200Y-66141600D01*
X68091800Y-68498200D02*
X68091800Y-68091800D01*
X68091800Y-68498200D02*
X68091800Y-43098200D01*
X67235320Y-142260320D02*
X65735200Y-142260320D01*
X68091800Y-143275000D02*
X68091800Y-119247400D01*
X68091800Y-93898200D02*
X68091800Y-92375000D01*
X68091800Y-143116800D02*
X67235320Y-142260320D01*
%TO.N,/Display Drivers/Seg.K*%
D15*
X53023777Y-64176223D02*
X51058400Y-66141600D01*
X53176223Y-64176223D02*
X53023777Y-64176223D01*
X51058400Y-66141600D02*
X50495200Y-66141600D01*
%TO.N,/Display Drivers/Seg.G1*%
X53171600Y-65397939D02*
X53171600Y-66005200D01*
X53171600Y-66005200D02*
X50495200Y-68681600D01*
%TO.N,/Display Drivers/Disp.2*%
X54880000Y-160280000D02*
X48170000Y-153570000D01*
X48170000Y-153570000D02*
X48170000Y-139536000D01*
X48170000Y-139536000D02*
X50495200Y-137210800D01*
X58610000Y-160280000D02*
X54880000Y-160280000D01*
%TO.N,/Display Drivers/Disp.3*%
X49200000Y-154176132D02*
X53303868Y-158280000D01*
X49200000Y-151206000D02*
X49200000Y-154176132D01*
X53303868Y-158280000D02*
X58960000Y-158280000D01*
X50495200Y-149910800D02*
X49200000Y-151206000D01*
%TO.N,/Display Drivers/Seg.N*%
D18*
X67279000Y-119584072D02*
X67279000Y-134121000D01*
X64349400Y-136056600D02*
X64349400Y-142864817D01*
X64349400Y-41315617D02*
X65161183Y-42127400D01*
X66425000Y-143675000D02*
X67279000Y-144529000D01*
X67279000Y-144529000D02*
X67279000Y-159521000D01*
X65161183Y-42127400D02*
X65971528Y-42127400D01*
X65161183Y-92927400D02*
X66434848Y-92927400D01*
X64349400Y-142864817D02*
X65161183Y-143676600D01*
X67279000Y-93771552D02*
X67279000Y-107727000D01*
X67279000Y-134121000D02*
X66729200Y-134670800D01*
X66780000Y-160020000D02*
X65735200Y-160020000D01*
X64349400Y-66715617D02*
X65161183Y-67527400D01*
X66729200Y-134670800D02*
X65735200Y-134670800D01*
X67279000Y-43434872D02*
X67279000Y-56977800D01*
X64349400Y-59907400D02*
X64349400Y-66715617D01*
X67279000Y-107727000D02*
X64349400Y-110656600D01*
X65971528Y-118276600D02*
X67279000Y-119584072D01*
X64349400Y-34507400D02*
X64349400Y-41315617D01*
X64349400Y-92115617D02*
X65161183Y-92927400D01*
X65971528Y-42127400D02*
X67279000Y-43434872D01*
X64349400Y-117464817D02*
X65161183Y-118276600D01*
X65735200Y-134670800D02*
X64349400Y-136056600D01*
X65735200Y-33121600D02*
X64349400Y-34507400D01*
X66423400Y-143676600D02*
X66425000Y-143675000D01*
X66392296Y-67527400D02*
X67279000Y-68414104D01*
X67279000Y-56977800D02*
X64349400Y-59907400D01*
X65161183Y-67527400D02*
X66392296Y-67527400D01*
X64349400Y-85307400D02*
X64349400Y-92115617D01*
X67279000Y-68414104D02*
X67279000Y-82377800D01*
X66434848Y-92927400D02*
X67279000Y-93771552D01*
X65161183Y-143676600D02*
X66423400Y-143676600D01*
X67279000Y-82377800D02*
X64349400Y-85307400D01*
X67279000Y-159521000D02*
X66780000Y-160020000D01*
X64349400Y-110656600D02*
X64349400Y-117464817D01*
X65161183Y-118276600D02*
X65971528Y-118276600D01*
%TO.N,/Display Drivers/Seg.M*%
X66596000Y-92521000D02*
X65329519Y-92521000D01*
X64755800Y-115330200D02*
X67685400Y-112400600D01*
X64755800Y-64581000D02*
X67685400Y-61651400D01*
X67685400Y-137800600D02*
X67685400Y-119415736D01*
X67685400Y-87051400D02*
X67685400Y-68252952D01*
X64755800Y-117296481D02*
X64755800Y-115330200D01*
X64755800Y-39181000D02*
X65735200Y-38201600D01*
X65329519Y-117870200D02*
X64755800Y-117296481D01*
X64755800Y-140730200D02*
X67685400Y-137800600D01*
X66553448Y-67121000D02*
X65329519Y-67121000D01*
X67685400Y-68252952D02*
X66553448Y-67121000D01*
X67685400Y-163149800D02*
X67685400Y-144335400D01*
X65329519Y-92521000D02*
X64755800Y-91947281D01*
X66620200Y-143270200D02*
X65329519Y-143270200D01*
X67685400Y-61651400D02*
X67685400Y-43266536D01*
X66139864Y-41721000D02*
X65329519Y-41721000D01*
X64755800Y-91947281D02*
X64755800Y-89981000D01*
X67685400Y-93610400D02*
X66596000Y-92521000D01*
X65329519Y-41721000D02*
X64755800Y-41147281D01*
X67685400Y-112400600D02*
X67685400Y-93610400D01*
X67685400Y-144335400D02*
X66620200Y-143270200D01*
X64755800Y-41147281D02*
X64755800Y-39181000D01*
X67685400Y-119415736D02*
X66139864Y-117870200D01*
X65735200Y-165100000D02*
X67685400Y-163149800D01*
X64755800Y-89981000D02*
X67685400Y-87051400D01*
X64755800Y-142696481D02*
X64755800Y-140730200D01*
X65329519Y-143270200D02*
X64755800Y-142696481D01*
X67685400Y-43266536D02*
X66139864Y-41721000D01*
X64755800Y-66547281D02*
X64755800Y-64581000D01*
X65329519Y-67121000D02*
X64755800Y-66547281D01*
X66139864Y-117870200D02*
X65329519Y-117870200D01*
%TD*%
%TA.AperFunction,Conductor*%
%TO.N,GND*%
G36*
X63868485Y-144816846D02*
G01*
X65401475Y-146349836D01*
X65429701Y-146405234D01*
X65419975Y-146466642D01*
X65376011Y-146510606D01*
X65368838Y-146513913D01*
X65307140Y-146539469D01*
X65159126Y-146638368D01*
X65159125Y-146638370D01*
X65033250Y-146764245D01*
X65033248Y-146764246D01*
X64934349Y-146912260D01*
X64866228Y-147076717D01*
X64831500Y-147251313D01*
X64831500Y-147429326D01*
X64866228Y-147603922D01*
X64934349Y-147768379D01*
X64934351Y-147768383D01*
X64984135Y-147842889D01*
X65033248Y-147916393D01*
X65033250Y-147916395D01*
X65159125Y-148042270D01*
X65307137Y-148141169D01*
X65347867Y-148158040D01*
X65471597Y-148209291D01*
X65471598Y-148209291D01*
X65471600Y-148209292D01*
X65646193Y-148244020D01*
X65646194Y-148244020D01*
X65824206Y-148244020D01*
X65824207Y-148244020D01*
X65998800Y-148209292D01*
X66163263Y-148141169D01*
X66311275Y-148042270D01*
X66370165Y-147983380D01*
X66425563Y-147955154D01*
X66486971Y-147964880D01*
X66530935Y-148008844D01*
X66541900Y-148054515D01*
X66541900Y-149166125D01*
X66522687Y-149225256D01*
X66472387Y-149261801D01*
X66410213Y-149261801D01*
X66370165Y-149237260D01*
X66311273Y-149178368D01*
X66207577Y-149109081D01*
X66163263Y-149079471D01*
X66163260Y-149079469D01*
X66163259Y-149079469D01*
X65998802Y-149011348D01*
X65882404Y-148988196D01*
X65824207Y-148976620D01*
X65646193Y-148976620D01*
X65602544Y-148985302D01*
X65471597Y-149011348D01*
X65307140Y-149079469D01*
X65159126Y-149178368D01*
X65159125Y-149178370D01*
X65033250Y-149304245D01*
X65033248Y-149304246D01*
X64934349Y-149452260D01*
X64866228Y-149616717D01*
X64831500Y-149791313D01*
X64831500Y-149969326D01*
X64866228Y-150143922D01*
X64934349Y-150308379D01*
X64934351Y-150308383D01*
X64969619Y-150361165D01*
X65033248Y-150456393D01*
X65033250Y-150456395D01*
X65159125Y-150582270D01*
X65307137Y-150681169D01*
X65347867Y-150698040D01*
X65471597Y-150749291D01*
X65471598Y-150749291D01*
X65471600Y-150749292D01*
X65646193Y-150784020D01*
X65646194Y-150784020D01*
X65824206Y-150784020D01*
X65824207Y-150784020D01*
X65998800Y-150749292D01*
X66163263Y-150681169D01*
X66311275Y-150582270D01*
X66370165Y-150523380D01*
X66425563Y-150495154D01*
X66486971Y-150504880D01*
X66530935Y-150548844D01*
X66541900Y-150594515D01*
X66541900Y-151706125D01*
X66522687Y-151765256D01*
X66472387Y-151801801D01*
X66410213Y-151801801D01*
X66370165Y-151777260D01*
X66311273Y-151718368D01*
X66222329Y-151658938D01*
X66163263Y-151619471D01*
X66163260Y-151619469D01*
X66163259Y-151619469D01*
X65998802Y-151551348D01*
X65882404Y-151528196D01*
X65824207Y-151516620D01*
X65646193Y-151516620D01*
X65602544Y-151525302D01*
X65471597Y-151551348D01*
X65307140Y-151619469D01*
X65159126Y-151718368D01*
X65159125Y-151718370D01*
X65033250Y-151844245D01*
X65033248Y-151844246D01*
X64934349Y-151992260D01*
X64866228Y-152156717D01*
X64831500Y-152331313D01*
X64831500Y-152509326D01*
X64866228Y-152683922D01*
X64934349Y-152848379D01*
X64934351Y-152848383D01*
X64984135Y-152922889D01*
X65033248Y-152996393D01*
X65033250Y-152996395D01*
X65159125Y-153122270D01*
X65307137Y-153221169D01*
X65347867Y-153238040D01*
X65471597Y-153289291D01*
X65471598Y-153289291D01*
X65471600Y-153289292D01*
X65646193Y-153324020D01*
X65646194Y-153324020D01*
X65824206Y-153324020D01*
X65824207Y-153324020D01*
X65998800Y-153289292D01*
X66163263Y-153221169D01*
X66311275Y-153122270D01*
X66370165Y-153063380D01*
X66425563Y-153035154D01*
X66486971Y-153044880D01*
X66530935Y-153088844D01*
X66541900Y-153134515D01*
X66541900Y-156163948D01*
X66522687Y-156223079D01*
X66512435Y-156235083D01*
X66143692Y-156603825D01*
X66088294Y-156632051D01*
X66034060Y-156625633D01*
X65998798Y-156611027D01*
X65867556Y-156584922D01*
X65824207Y-156576300D01*
X65646193Y-156576300D01*
X65602544Y-156584982D01*
X65471597Y-156611028D01*
X65307140Y-156679149D01*
X65159126Y-156778048D01*
X65159125Y-156778050D01*
X65033250Y-156903925D01*
X65033248Y-156903926D01*
X64934349Y-157051940D01*
X64866228Y-157216397D01*
X64831500Y-157390993D01*
X64831500Y-157569006D01*
X64866228Y-157743602D01*
X64925944Y-157887767D01*
X64934351Y-157908063D01*
X64963437Y-157951593D01*
X65033248Y-158056073D01*
X65033250Y-158056075D01*
X65159125Y-158181950D01*
X65307137Y-158280849D01*
X65362302Y-158303699D01*
X65471597Y-158348971D01*
X65471598Y-158348971D01*
X65471600Y-158348972D01*
X65646193Y-158383700D01*
X65646194Y-158383700D01*
X65824206Y-158383700D01*
X65824207Y-158383700D01*
X65998800Y-158348972D01*
X66163263Y-158280849D01*
X66311275Y-158181950D01*
X66437150Y-158056075D01*
X66536049Y-157908063D01*
X66604172Y-157743600D01*
X66638900Y-157569007D01*
X66638900Y-157390993D01*
X66604172Y-157216400D01*
X66589566Y-157181140D01*
X66584687Y-157119159D01*
X66611371Y-157071508D01*
X66776565Y-156906315D01*
X66831963Y-156878089D01*
X66893372Y-156887815D01*
X66937335Y-156931779D01*
X66948300Y-156977450D01*
X66948300Y-159342349D01*
X66929087Y-159401480D01*
X66918835Y-159413484D01*
X66702357Y-159629961D01*
X66646959Y-159658187D01*
X66585550Y-159648461D01*
X66541587Y-159604497D01*
X66538278Y-159597319D01*
X66536050Y-159591939D01*
X66437151Y-159443926D01*
X66311273Y-159318048D01*
X66237769Y-159268935D01*
X66163263Y-159219151D01*
X66163260Y-159219149D01*
X66163259Y-159219149D01*
X65998802Y-159151028D01*
X65882404Y-159127876D01*
X65824207Y-159116300D01*
X65646193Y-159116300D01*
X65602544Y-159124982D01*
X65471597Y-159151028D01*
X65307140Y-159219149D01*
X65159126Y-159318048D01*
X65159125Y-159318050D01*
X65033250Y-159443925D01*
X65033248Y-159443926D01*
X64934349Y-159591940D01*
X64866228Y-159756397D01*
X64831500Y-159930993D01*
X64831500Y-160109006D01*
X64866228Y-160283602D01*
X64900162Y-160365524D01*
X64934351Y-160448063D01*
X64951963Y-160474421D01*
X65033248Y-160596073D01*
X65033250Y-160596075D01*
X65159125Y-160721950D01*
X65307137Y-160820849D01*
X65389368Y-160854910D01*
X65471597Y-160888971D01*
X65471598Y-160888971D01*
X65471600Y-160888972D01*
X65646193Y-160923700D01*
X65646194Y-160923700D01*
X65824206Y-160923700D01*
X65824207Y-160923700D01*
X65998800Y-160888972D01*
X66163263Y-160820849D01*
X66311275Y-160721950D01*
X66437150Y-160596075D01*
X66536049Y-160448063D01*
X66550655Y-160412802D01*
X66591034Y-160365524D01*
X66643597Y-160350700D01*
X66823537Y-160350700D01*
X66823538Y-160350700D01*
X66854889Y-160342299D01*
X66907641Y-160328166D01*
X66907643Y-160328165D01*
X66907643Y-160328164D01*
X66907646Y-160328164D01*
X66983055Y-160284626D01*
X67044626Y-160223055D01*
X67044626Y-160223053D01*
X67052904Y-160214776D01*
X67052906Y-160214772D01*
X67182965Y-160084713D01*
X67238363Y-160056487D01*
X67299772Y-160066214D01*
X67343735Y-160110178D01*
X67354700Y-160155849D01*
X67354700Y-162971149D01*
X67335487Y-163030280D01*
X67325235Y-163042284D01*
X66143693Y-164223825D01*
X66088295Y-164252051D01*
X66034061Y-164245633D01*
X65998800Y-164231027D01*
X65853172Y-164202061D01*
X65824207Y-164196300D01*
X65646193Y-164196300D01*
X65602544Y-164204982D01*
X65471597Y-164231028D01*
X65307140Y-164299149D01*
X65159126Y-164398048D01*
X65159125Y-164398050D01*
X65033250Y-164523925D01*
X65033248Y-164523926D01*
X64934349Y-164671940D01*
X64866228Y-164836397D01*
X64831500Y-165010993D01*
X64831500Y-165189006D01*
X64866228Y-165363602D01*
X64908597Y-165465888D01*
X64934351Y-165528063D01*
X64947690Y-165548026D01*
X65033248Y-165676073D01*
X65033250Y-165676075D01*
X65159125Y-165801950D01*
X65307137Y-165900849D01*
X65366558Y-165925462D01*
X65471597Y-165968971D01*
X65471598Y-165968971D01*
X65471600Y-165968972D01*
X65646193Y-166003700D01*
X65646194Y-166003700D01*
X65824206Y-166003700D01*
X65824207Y-166003700D01*
X65998800Y-165968972D01*
X66163263Y-165900849D01*
X66311275Y-165801950D01*
X66437150Y-165676075D01*
X66536049Y-165528063D01*
X66604172Y-165363600D01*
X66638900Y-165189007D01*
X66638900Y-165010993D01*
X66604172Y-164836400D01*
X66589565Y-164801138D01*
X66584688Y-164739157D01*
X66611373Y-164691506D01*
X67106579Y-164196300D01*
X67589366Y-163713513D01*
X67644763Y-163685288D01*
X67706171Y-163695014D01*
X67750135Y-163738978D01*
X67761100Y-163784649D01*
X67761100Y-165104749D01*
X67741887Y-165163880D01*
X67731635Y-165175884D01*
X66143693Y-166763825D01*
X66088295Y-166792051D01*
X66034061Y-166785633D01*
X65998800Y-166771027D01*
X65853172Y-166742061D01*
X65824207Y-166736300D01*
X65646193Y-166736300D01*
X65602544Y-166744982D01*
X65471597Y-166771028D01*
X65307140Y-166839149D01*
X65159126Y-166938048D01*
X65159125Y-166938050D01*
X65033250Y-167063925D01*
X65033248Y-167063926D01*
X64934349Y-167211940D01*
X64866228Y-167376397D01*
X64831500Y-167550993D01*
X64831500Y-167729006D01*
X64866228Y-167903602D01*
X64934349Y-168068059D01*
X64934351Y-168068063D01*
X64984135Y-168142569D01*
X65033248Y-168216073D01*
X65033250Y-168216075D01*
X65159125Y-168341950D01*
X65307137Y-168440849D01*
X65375116Y-168469007D01*
X65471597Y-168508971D01*
X65471598Y-168508971D01*
X65471600Y-168508972D01*
X65646193Y-168543700D01*
X65646194Y-168543700D01*
X65824206Y-168543700D01*
X65824207Y-168543700D01*
X65998800Y-168508972D01*
X66163263Y-168440849D01*
X66311275Y-168341950D01*
X66437150Y-168216075D01*
X66536049Y-168068063D01*
X66604172Y-167903600D01*
X66638900Y-167729007D01*
X66638900Y-167550993D01*
X66604172Y-167376400D01*
X66589564Y-167341136D01*
X66584688Y-167279155D01*
X66611371Y-167231507D01*
X68196565Y-165646314D01*
X68251963Y-165618088D01*
X68313371Y-165627814D01*
X68357335Y-165671778D01*
X68368300Y-165717449D01*
X68368300Y-198910083D01*
X68367061Y-198925821D01*
X68357993Y-198983070D01*
X68348268Y-199013003D01*
X68325593Y-199057506D01*
X68307092Y-199082970D01*
X68271770Y-199118292D01*
X68246307Y-199136791D01*
X68201803Y-199159468D01*
X68171871Y-199169193D01*
X68135621Y-199174934D01*
X68114620Y-199178261D01*
X68098884Y-199179500D01*
X46769916Y-199179500D01*
X46754178Y-199178261D01*
X46696929Y-199169193D01*
X46666999Y-199159469D01*
X46622489Y-199136790D01*
X46597029Y-199118292D01*
X46561707Y-199082970D01*
X46543210Y-199057512D01*
X46520528Y-199012996D01*
X46510807Y-198983076D01*
X46501737Y-198925810D01*
X46500500Y-198910083D01*
X46500500Y-197505299D01*
X46846800Y-197505299D01*
X46846800Y-197694700D01*
X46876424Y-197881743D01*
X46876428Y-197881759D01*
X46934949Y-198061869D01*
X47020926Y-198230606D01*
X47020933Y-198230617D01*
X47128140Y-198378174D01*
X47631382Y-197874932D01*
X47649901Y-197907007D01*
X47742993Y-198000099D01*
X47775066Y-198018616D01*
X47271824Y-198521858D01*
X47419382Y-198629066D01*
X47419393Y-198629073D01*
X47588130Y-198715050D01*
X47768240Y-198773571D01*
X47768256Y-198773575D01*
X47955299Y-198803199D01*
X47955304Y-198803200D01*
X48144696Y-198803200D01*
X48144700Y-198803199D01*
X48331743Y-198773575D01*
X48331759Y-198773571D01*
X48511869Y-198715050D01*
X48680606Y-198629073D01*
X48680617Y-198629066D01*
X48828174Y-198521859D01*
X48828174Y-198521858D01*
X48324932Y-198018616D01*
X48357007Y-198000099D01*
X48450099Y-197907007D01*
X48468616Y-197874932D01*
X48971858Y-198378174D01*
X48971859Y-198378174D01*
X49079066Y-198230617D01*
X49079073Y-198230606D01*
X49165050Y-198061869D01*
X49223571Y-197881759D01*
X49223575Y-197881743D01*
X49253199Y-197694700D01*
X49253200Y-197694696D01*
X49253200Y-197505303D01*
X49253199Y-197505299D01*
X49223575Y-197318256D01*
X49223571Y-197318240D01*
X49165050Y-197138130D01*
X49079073Y-196969393D01*
X49079066Y-196969382D01*
X48971858Y-196821824D01*
X48468616Y-197325066D01*
X48450099Y-197292993D01*
X48357007Y-197199901D01*
X48324931Y-197181382D01*
X48772630Y-196733684D01*
X53396300Y-196733684D01*
X53396300Y-196866315D01*
X53430628Y-196994424D01*
X53493719Y-197103700D01*
X53496940Y-197109279D01*
X53590721Y-197203060D01*
X53590723Y-197203061D01*
X53705575Y-197269371D01*
X53705576Y-197269371D01*
X53705579Y-197269373D01*
X53833687Y-197303700D01*
X53966313Y-197303700D01*
X54094421Y-197269373D01*
X54209279Y-197203060D01*
X54279175Y-197133163D01*
X54334571Y-197104939D01*
X54350308Y-197103700D01*
X56999692Y-197103700D01*
X57058823Y-197122913D01*
X57070820Y-197133159D01*
X57140721Y-197203060D01*
X57140723Y-197203061D01*
X57255575Y-197269371D01*
X57255576Y-197269371D01*
X57255579Y-197269373D01*
X57383687Y-197303700D01*
X57516313Y-197303700D01*
X57644421Y-197269373D01*
X57759279Y-197203060D01*
X57853060Y-197109279D01*
X57919373Y-196994421D01*
X57953700Y-196866313D01*
X57953700Y-196733687D01*
X57919373Y-196605579D01*
X57853060Y-196490721D01*
X57759279Y-196396940D01*
X57759037Y-196396800D01*
X57644424Y-196330628D01*
X57644421Y-196330627D01*
X57610099Y-196321430D01*
X57516315Y-196296300D01*
X57516313Y-196296300D01*
X57383687Y-196296300D01*
X57383684Y-196296300D01*
X57255575Y-196330628D01*
X57140723Y-196396938D01*
X57140722Y-196396939D01*
X57140721Y-196396940D01*
X57070824Y-196466836D01*
X57015429Y-196495061D01*
X56999692Y-196496300D01*
X54350308Y-196496300D01*
X54291177Y-196477087D01*
X54279179Y-196466840D01*
X54209279Y-196396940D01*
X54209037Y-196396800D01*
X54094424Y-196330628D01*
X54094421Y-196330627D01*
X54060099Y-196321430D01*
X53966315Y-196296300D01*
X53966313Y-196296300D01*
X53833687Y-196296300D01*
X53833684Y-196296300D01*
X53705575Y-196330628D01*
X53590723Y-196396938D01*
X53590722Y-196396939D01*
X53590721Y-196396940D01*
X53496940Y-196490721D01*
X53496939Y-196490722D01*
X53496938Y-196490723D01*
X53430628Y-196605575D01*
X53396300Y-196733684D01*
X48772630Y-196733684D01*
X48828174Y-196678140D01*
X48680617Y-196570933D01*
X48680606Y-196570926D01*
X48511869Y-196484949D01*
X48331759Y-196426428D01*
X48331743Y-196426424D01*
X48144700Y-196396800D01*
X47955299Y-196396800D01*
X47768256Y-196426424D01*
X47768240Y-196426428D01*
X47588130Y-196484949D01*
X47419394Y-196570926D01*
X47419391Y-196570928D01*
X47271824Y-196678140D01*
X47775067Y-197181383D01*
X47742993Y-197199901D01*
X47649901Y-197292993D01*
X47631383Y-197325067D01*
X47128140Y-196821824D01*
X47020928Y-196969391D01*
X47020926Y-196969394D01*
X46934949Y-197138130D01*
X46876428Y-197318240D01*
X46876424Y-197318256D01*
X46846800Y-197505299D01*
X46500500Y-197505299D01*
X46500500Y-186878709D01*
X50899500Y-186878709D01*
X50899500Y-187121290D01*
X50931159Y-187361774D01*
X50931160Y-187361783D01*
X50993945Y-187596100D01*
X50993946Y-187596102D01*
X51086775Y-187820211D01*
X51208063Y-188030289D01*
X51355730Y-188222733D01*
X51527266Y-188394269D01*
X51719710Y-188541936D01*
X51929788Y-188663224D01*
X52153897Y-188756053D01*
X52153899Y-188756054D01*
X52257214Y-188783737D01*
X52388211Y-188818838D01*
X52388213Y-188818838D01*
X52388216Y-188818839D01*
X52388225Y-188818840D01*
X52628710Y-188850500D01*
X52628712Y-188850500D01*
X52871290Y-188850500D01*
X53111774Y-188818840D01*
X53111783Y-188818839D01*
X53111784Y-188818838D01*
X53111789Y-188818838D01*
X53346100Y-188756054D01*
X53570212Y-188663224D01*
X53780289Y-188541936D01*
X53972738Y-188394265D01*
X54144265Y-188222738D01*
X54291936Y-188030289D01*
X54413224Y-187820212D01*
X54506054Y-187596100D01*
X54568838Y-187361789D01*
X54600500Y-187121288D01*
X54600500Y-186878712D01*
X54600500Y-186878709D01*
X60099500Y-186878709D01*
X60099500Y-187121290D01*
X60131159Y-187361774D01*
X60131160Y-187361783D01*
X60193945Y-187596100D01*
X60193946Y-187596102D01*
X60286775Y-187820211D01*
X60408063Y-188030289D01*
X60555730Y-188222733D01*
X60727266Y-188394269D01*
X60919710Y-188541936D01*
X61129788Y-188663224D01*
X61353897Y-188756053D01*
X61353899Y-188756054D01*
X61457214Y-188783737D01*
X61588211Y-188818838D01*
X61588213Y-188818838D01*
X61588216Y-188818839D01*
X61588225Y-188818840D01*
X61828710Y-188850500D01*
X61828712Y-188850500D01*
X62071290Y-188850500D01*
X62311774Y-188818840D01*
X62311783Y-188818839D01*
X62311784Y-188818838D01*
X62311789Y-188818838D01*
X62546100Y-188756054D01*
X62770212Y-188663224D01*
X62980289Y-188541936D01*
X63172738Y-188394265D01*
X63344265Y-188222738D01*
X63491936Y-188030289D01*
X63613224Y-187820212D01*
X63706054Y-187596100D01*
X63768838Y-187361789D01*
X63800500Y-187121288D01*
X63800500Y-186878712D01*
X63768838Y-186638211D01*
X63706054Y-186403900D01*
X63613224Y-186179788D01*
X63491936Y-185969710D01*
X63344269Y-185777266D01*
X63172733Y-185605730D01*
X62980289Y-185458063D01*
X62770211Y-185336775D01*
X62546102Y-185243946D01*
X62546100Y-185243945D01*
X62311783Y-185181160D01*
X62311774Y-185181159D01*
X62071290Y-185149500D01*
X62071288Y-185149500D01*
X61828712Y-185149500D01*
X61828710Y-185149500D01*
X61588225Y-185181159D01*
X61588216Y-185181160D01*
X61353899Y-185243945D01*
X61353897Y-185243946D01*
X61129788Y-185336775D01*
X60919710Y-185458063D01*
X60727266Y-185605730D01*
X60555730Y-185777266D01*
X60408063Y-185969710D01*
X60286775Y-186179788D01*
X60193946Y-186403897D01*
X60193945Y-186403899D01*
X60131160Y-186638216D01*
X60131159Y-186638225D01*
X60099500Y-186878709D01*
X54600500Y-186878709D01*
X54568838Y-186638211D01*
X54506054Y-186403900D01*
X54413224Y-186179788D01*
X54291936Y-185969710D01*
X54144269Y-185777266D01*
X53972733Y-185605730D01*
X53780289Y-185458063D01*
X53570211Y-185336775D01*
X53346102Y-185243946D01*
X53346100Y-185243945D01*
X53111783Y-185181160D01*
X53111774Y-185181159D01*
X52871290Y-185149500D01*
X52871288Y-185149500D01*
X52628712Y-185149500D01*
X52628710Y-185149500D01*
X52388225Y-185181159D01*
X52388216Y-185181160D01*
X52153899Y-185243945D01*
X52153897Y-185243946D01*
X51929788Y-185336775D01*
X51719710Y-185458063D01*
X51527266Y-185605730D01*
X51355730Y-185777266D01*
X51208063Y-185969710D01*
X51086775Y-186179788D01*
X50993946Y-186403897D01*
X50993945Y-186403899D01*
X50931160Y-186638216D01*
X50931159Y-186638225D01*
X50899500Y-186878709D01*
X46500500Y-186878709D01*
X46500500Y-175170993D01*
X49591500Y-175170993D01*
X49591500Y-175349006D01*
X49626228Y-175523602D01*
X49694349Y-175688059D01*
X49694351Y-175688063D01*
X49726698Y-175736473D01*
X49793248Y-175836073D01*
X49793250Y-175836075D01*
X49919125Y-175961950D01*
X50067137Y-176060849D01*
X50080589Y-176066421D01*
X50231597Y-176128971D01*
X50231598Y-176128971D01*
X50231600Y-176128972D01*
X50406193Y-176163700D01*
X50406194Y-176163700D01*
X50584206Y-176163700D01*
X50584207Y-176163700D01*
X50758800Y-176128972D01*
X50923263Y-176060849D01*
X51071275Y-175961950D01*
X51197150Y-175836075D01*
X51296049Y-175688063D01*
X51364172Y-175523600D01*
X51398900Y-175349007D01*
X51398900Y-175170993D01*
X51364172Y-174996400D01*
X51296049Y-174831937D01*
X51197150Y-174683925D01*
X51071275Y-174558050D01*
X51071273Y-174558048D01*
X50997769Y-174508935D01*
X50923263Y-174459151D01*
X50923260Y-174459149D01*
X50923259Y-174459149D01*
X50758802Y-174391028D01*
X50642404Y-174367876D01*
X50584207Y-174356300D01*
X50406193Y-174356300D01*
X50362544Y-174364982D01*
X50231597Y-174391028D01*
X50067140Y-174459149D01*
X49919126Y-174558048D01*
X49919125Y-174558050D01*
X49793250Y-174683925D01*
X49793248Y-174683926D01*
X49694349Y-174831940D01*
X49626228Y-174996397D01*
X49591500Y-175170993D01*
X46500500Y-175170993D01*
X46500500Y-172630993D01*
X49591500Y-172630993D01*
X49591500Y-172809006D01*
X49626228Y-172983602D01*
X49694349Y-173148059D01*
X49694351Y-173148063D01*
X49744135Y-173222569D01*
X49793248Y-173296073D01*
X49793250Y-173296075D01*
X49919125Y-173421950D01*
X50067137Y-173520849D01*
X50149368Y-173554910D01*
X50231597Y-173588971D01*
X50231598Y-173588971D01*
X50231600Y-173588972D01*
X50406193Y-173623700D01*
X50406194Y-173623700D01*
X50584206Y-173623700D01*
X50584207Y-173623700D01*
X50758800Y-173588972D01*
X50923263Y-173520849D01*
X51071275Y-173421950D01*
X51197150Y-173296075D01*
X51296049Y-173148063D01*
X51364172Y-172983600D01*
X51398900Y-172809007D01*
X51398900Y-172630993D01*
X51364172Y-172456400D01*
X51296049Y-172291937D01*
X51197150Y-172143925D01*
X51071275Y-172018050D01*
X51071273Y-172018048D01*
X50997769Y-171968935D01*
X50923263Y-171919151D01*
X50923260Y-171919149D01*
X50923259Y-171919149D01*
X50758802Y-171851028D01*
X50642404Y-171827876D01*
X50584207Y-171816300D01*
X50406193Y-171816300D01*
X50362544Y-171824982D01*
X50231597Y-171851028D01*
X50067140Y-171919149D01*
X49919126Y-172018048D01*
X49919125Y-172018050D01*
X49793250Y-172143925D01*
X49793248Y-172143926D01*
X49694349Y-172291940D01*
X49626228Y-172456397D01*
X49591500Y-172630993D01*
X46500500Y-172630993D01*
X46500500Y-168390655D01*
X46519713Y-168331524D01*
X46570013Y-168294979D01*
X46632187Y-168294979D01*
X46672232Y-168319518D01*
X47718965Y-169366251D01*
X47718967Y-169366252D01*
X47823330Y-169426506D01*
X47823334Y-169426508D01*
X47939742Y-169457700D01*
X47939743Y-169457700D01*
X49702745Y-169457700D01*
X49761876Y-169476913D01*
X49798421Y-169527213D01*
X49798421Y-169589387D01*
X49786391Y-169614190D01*
X49694349Y-169751940D01*
X49626228Y-169916397D01*
X49591500Y-170090993D01*
X49591500Y-170269006D01*
X49626228Y-170443602D01*
X49694349Y-170608059D01*
X49694351Y-170608063D01*
X49744135Y-170682569D01*
X49793248Y-170756073D01*
X49793250Y-170756075D01*
X49919125Y-170881950D01*
X50067137Y-170980849D01*
X50149368Y-171014910D01*
X50231597Y-171048971D01*
X50231598Y-171048971D01*
X50231600Y-171048972D01*
X50406193Y-171083700D01*
X50406194Y-171083700D01*
X50584206Y-171083700D01*
X50584207Y-171083700D01*
X50758800Y-171048972D01*
X50923263Y-170980849D01*
X51071275Y-170881950D01*
X51197150Y-170756075D01*
X51296049Y-170608063D01*
X51364172Y-170443600D01*
X51398900Y-170269007D01*
X51398900Y-170090993D01*
X51364172Y-169916400D01*
X51296049Y-169751937D01*
X51204009Y-169614190D01*
X51187133Y-169554350D01*
X51208652Y-169496019D01*
X51260348Y-169461477D01*
X51287655Y-169457700D01*
X51858405Y-169457700D01*
X51898791Y-169468522D01*
X51899485Y-169466849D01*
X51905574Y-169469370D01*
X51905579Y-169469373D01*
X52033687Y-169503700D01*
X52166313Y-169503700D01*
X52294421Y-169469373D01*
X52409279Y-169403060D01*
X52503060Y-169309279D01*
X52569373Y-169194421D01*
X52603700Y-169066313D01*
X52603700Y-168933687D01*
X52569373Y-168805579D01*
X52503060Y-168690721D01*
X52409279Y-168596940D01*
X52409276Y-168596938D01*
X52294424Y-168530628D01*
X52294421Y-168530627D01*
X52257385Y-168520703D01*
X52166315Y-168496300D01*
X52166313Y-168496300D01*
X52033687Y-168496300D01*
X52033684Y-168496300D01*
X51942615Y-168520703D01*
X51905579Y-168530627D01*
X51905578Y-168530627D01*
X51905576Y-168530628D01*
X51899485Y-168533151D01*
X51898791Y-168531477D01*
X51858405Y-168542300D01*
X51103064Y-168542300D01*
X51043933Y-168523087D01*
X51007388Y-168472787D01*
X51007388Y-168410613D01*
X51043933Y-168360313D01*
X51047174Y-168358054D01*
X51054190Y-168353365D01*
X51071275Y-168341950D01*
X51197150Y-168216075D01*
X51296049Y-168068063D01*
X51364172Y-167903600D01*
X51398900Y-167729007D01*
X51398900Y-167550993D01*
X51364172Y-167376400D01*
X51296049Y-167211937D01*
X51197150Y-167063925D01*
X51184860Y-167051635D01*
X51156634Y-166996237D01*
X51166360Y-166934829D01*
X51210324Y-166890865D01*
X51255995Y-166879900D01*
X51442392Y-166879900D01*
X51501523Y-166899113D01*
X51513527Y-166909365D01*
X60340635Y-175736473D01*
X60368861Y-175791871D01*
X60370100Y-175807608D01*
X60370100Y-177825891D01*
X60350887Y-177885022D01*
X60340634Y-177897027D01*
X60296133Y-177941527D01*
X60240735Y-177969753D01*
X60179327Y-177960026D01*
X60153867Y-177941528D01*
X60109279Y-177896940D01*
X60095537Y-177889006D01*
X59994424Y-177830628D01*
X59994421Y-177830627D01*
X59960099Y-177821430D01*
X59866315Y-177796300D01*
X59866313Y-177796300D01*
X59733687Y-177796300D01*
X59733684Y-177796300D01*
X59605575Y-177830628D01*
X59490723Y-177896938D01*
X59490722Y-177896939D01*
X59490721Y-177896940D01*
X59396940Y-177990721D01*
X59396939Y-177990722D01*
X59396938Y-177990723D01*
X59330628Y-178105575D01*
X59296300Y-178233684D01*
X59296300Y-178348100D01*
X59277087Y-178407231D01*
X59226787Y-178443776D01*
X59195700Y-178448700D01*
X51336833Y-178448700D01*
X51277702Y-178429487D01*
X51241157Y-178379187D01*
X51241157Y-178317013D01*
X51253187Y-178292210D01*
X51296049Y-178228063D01*
X51364172Y-178063600D01*
X51398900Y-177889007D01*
X51398900Y-177710993D01*
X51364172Y-177536400D01*
X51296049Y-177371937D01*
X51197150Y-177223925D01*
X51071275Y-177098050D01*
X51071273Y-177098048D01*
X50997769Y-177048935D01*
X50923263Y-176999151D01*
X50923260Y-176999149D01*
X50923259Y-176999149D01*
X50758802Y-176931028D01*
X50642404Y-176907876D01*
X50584207Y-176896300D01*
X50406193Y-176896300D01*
X50362544Y-176904982D01*
X50231597Y-176931028D01*
X50067140Y-176999149D01*
X49919126Y-177098048D01*
X49919125Y-177098050D01*
X49793250Y-177223925D01*
X49793248Y-177223926D01*
X49694349Y-177371940D01*
X49626228Y-177536397D01*
X49591500Y-177710993D01*
X49591500Y-177889006D01*
X49626228Y-178063602D01*
X49643616Y-178105579D01*
X49694351Y-178228063D01*
X49698107Y-178233684D01*
X49737213Y-178292210D01*
X49754089Y-178352050D01*
X49732570Y-178410381D01*
X49680874Y-178444923D01*
X49653567Y-178448700D01*
X49144615Y-178448700D01*
X49085484Y-178429487D01*
X49057494Y-178398401D01*
X49053060Y-178390721D01*
X48959279Y-178296940D01*
X48959276Y-178296938D01*
X48844424Y-178230628D01*
X48844421Y-178230627D01*
X48810099Y-178221430D01*
X48716315Y-178196300D01*
X48716313Y-178196300D01*
X48583687Y-178196300D01*
X48583684Y-178196300D01*
X48455575Y-178230628D01*
X48340723Y-178296938D01*
X48340722Y-178296939D01*
X48340721Y-178296940D01*
X48246940Y-178390721D01*
X48246939Y-178390722D01*
X48246938Y-178390723D01*
X48180628Y-178505575D01*
X48146300Y-178633684D01*
X48146300Y-178766315D01*
X48180628Y-178894424D01*
X48246490Y-179008500D01*
X48246940Y-179009279D01*
X48340721Y-179103060D01*
X48340723Y-179103061D01*
X48455575Y-179169371D01*
X48455576Y-179169371D01*
X48455579Y-179169373D01*
X48583687Y-179203700D01*
X48716313Y-179203700D01*
X48844421Y-179169373D01*
X48959279Y-179103060D01*
X48991828Y-179070510D01*
X49024375Y-179037965D01*
X49079772Y-179009738D01*
X49095509Y-179008500D01*
X59408250Y-179008500D01*
X59479437Y-178989425D01*
X59543262Y-178952576D01*
X59662672Y-178833164D01*
X59718069Y-178804939D01*
X59733807Y-178803700D01*
X59866313Y-178803700D01*
X59994421Y-178769373D01*
X60109279Y-178703060D01*
X60153867Y-178658471D01*
X60209263Y-178630247D01*
X60270671Y-178639973D01*
X60296131Y-178658470D01*
X60340721Y-178703060D01*
X60340723Y-178703061D01*
X60455575Y-178769371D01*
X60455576Y-178769371D01*
X60455579Y-178769373D01*
X60583687Y-178803700D01*
X60716313Y-178803700D01*
X60844421Y-178769373D01*
X60959279Y-178703060D01*
X61053060Y-178609279D01*
X61119373Y-178494421D01*
X61153700Y-178366313D01*
X61153700Y-178233687D01*
X61119373Y-178105579D01*
X61053060Y-177990721D01*
X60959365Y-177897026D01*
X60931138Y-177841628D01*
X60929900Y-177825891D01*
X60929900Y-176137556D01*
X60949113Y-176078425D01*
X60999413Y-176041880D01*
X61061587Y-176041880D01*
X61101635Y-176066421D01*
X61590635Y-176555421D01*
X61618861Y-176610819D01*
X61620100Y-176626556D01*
X61620100Y-177825891D01*
X61600887Y-177885022D01*
X61590635Y-177897026D01*
X61496938Y-177990723D01*
X61430628Y-178105575D01*
X61396300Y-178233684D01*
X61396300Y-178366315D01*
X61430628Y-178494424D01*
X61496938Y-178609276D01*
X61496940Y-178609279D01*
X61590721Y-178703060D01*
X61590723Y-178703061D01*
X61705575Y-178769371D01*
X61705576Y-178769371D01*
X61705579Y-178769373D01*
X61833687Y-178803700D01*
X61966313Y-178803700D01*
X62094421Y-178769373D01*
X62209279Y-178703060D01*
X62303060Y-178609279D01*
X62369373Y-178494421D01*
X62403700Y-178366313D01*
X62403700Y-178233687D01*
X62369373Y-178105579D01*
X62303060Y-177990721D01*
X62209365Y-177897026D01*
X62181138Y-177841628D01*
X62179900Y-177825891D01*
X62179900Y-177710993D01*
X64831500Y-177710993D01*
X64831500Y-177889006D01*
X64866228Y-178063602D01*
X64883616Y-178105579D01*
X64934351Y-178228063D01*
X64938107Y-178233684D01*
X65033248Y-178376073D01*
X65033250Y-178376075D01*
X65159125Y-178501950D01*
X65307137Y-178600849D01*
X65327489Y-178609279D01*
X65471597Y-178668971D01*
X65471598Y-178668971D01*
X65471600Y-178668972D01*
X65646193Y-178703700D01*
X65646194Y-178703700D01*
X65824206Y-178703700D01*
X65824207Y-178703700D01*
X65998800Y-178668972D01*
X66163263Y-178600849D01*
X66311275Y-178501950D01*
X66437150Y-178376075D01*
X66536049Y-178228063D01*
X66604172Y-178063600D01*
X66638900Y-177889007D01*
X66638900Y-177710993D01*
X66604172Y-177536400D01*
X66536049Y-177371937D01*
X66437150Y-177223925D01*
X66311275Y-177098050D01*
X66311273Y-177098048D01*
X66237769Y-177048935D01*
X66163263Y-176999151D01*
X66163260Y-176999149D01*
X66163259Y-176999149D01*
X65998802Y-176931028D01*
X65882404Y-176907876D01*
X65824207Y-176896300D01*
X65646193Y-176896300D01*
X65602544Y-176904982D01*
X65471597Y-176931028D01*
X65307140Y-176999149D01*
X65159126Y-177098048D01*
X65159125Y-177098050D01*
X65033250Y-177223925D01*
X65033248Y-177223926D01*
X64934349Y-177371940D01*
X64866228Y-177536397D01*
X64831500Y-177710993D01*
X62179900Y-177710993D01*
X62179900Y-176432098D01*
X62160825Y-176360911D01*
X62123976Y-176297086D01*
X62071862Y-176244972D01*
X60997883Y-175170993D01*
X64831500Y-175170993D01*
X64831500Y-175349006D01*
X64866228Y-175523602D01*
X64934349Y-175688059D01*
X64934351Y-175688063D01*
X64966698Y-175736473D01*
X65033248Y-175836073D01*
X65033250Y-175836075D01*
X65159125Y-175961950D01*
X65307137Y-176060849D01*
X65320589Y-176066421D01*
X65471597Y-176128971D01*
X65471598Y-176128971D01*
X65471600Y-176128972D01*
X65646193Y-176163700D01*
X65646194Y-176163700D01*
X65824206Y-176163700D01*
X65824207Y-176163700D01*
X65998800Y-176128972D01*
X66163263Y-176060849D01*
X66311275Y-175961950D01*
X66437150Y-175836075D01*
X66536049Y-175688063D01*
X66604172Y-175523600D01*
X66638900Y-175349007D01*
X66638900Y-175170993D01*
X66604172Y-174996400D01*
X66536049Y-174831937D01*
X66437150Y-174683925D01*
X66311275Y-174558050D01*
X66311273Y-174558048D01*
X66237769Y-174508935D01*
X66163263Y-174459151D01*
X66163260Y-174459149D01*
X66163259Y-174459149D01*
X65998802Y-174391028D01*
X65882404Y-174367876D01*
X65824207Y-174356300D01*
X65646193Y-174356300D01*
X65602544Y-174364982D01*
X65471597Y-174391028D01*
X65307140Y-174459149D01*
X65159126Y-174558048D01*
X65159125Y-174558050D01*
X65033250Y-174683925D01*
X65033248Y-174683926D01*
X64934349Y-174831940D01*
X64866228Y-174996397D01*
X64831500Y-175170993D01*
X60997883Y-175170993D01*
X58457883Y-172630993D01*
X64831500Y-172630993D01*
X64831500Y-172809006D01*
X64866228Y-172983602D01*
X64934349Y-173148059D01*
X64934351Y-173148063D01*
X64984135Y-173222569D01*
X65033248Y-173296073D01*
X65033250Y-173296075D01*
X65159125Y-173421950D01*
X65307137Y-173520849D01*
X65389368Y-173554910D01*
X65471597Y-173588971D01*
X65471598Y-173588971D01*
X65471600Y-173588972D01*
X65646193Y-173623700D01*
X65646194Y-173623700D01*
X65824206Y-173623700D01*
X65824207Y-173623700D01*
X65998800Y-173588972D01*
X66163263Y-173520849D01*
X66311275Y-173421950D01*
X66437150Y-173296075D01*
X66536049Y-173148063D01*
X66604172Y-172983600D01*
X66638900Y-172809007D01*
X66638900Y-172630993D01*
X66604172Y-172456400D01*
X66536049Y-172291937D01*
X66437150Y-172143925D01*
X66311275Y-172018050D01*
X66311273Y-172018048D01*
X66237769Y-171968935D01*
X66163263Y-171919151D01*
X66163260Y-171919149D01*
X66163259Y-171919149D01*
X65998802Y-171851028D01*
X65882404Y-171827876D01*
X65824207Y-171816300D01*
X65646193Y-171816300D01*
X65602544Y-171824982D01*
X65471597Y-171851028D01*
X65307140Y-171919149D01*
X65159126Y-172018048D01*
X65159125Y-172018050D01*
X65033250Y-172143925D01*
X65033248Y-172143926D01*
X64934349Y-172291940D01*
X64866228Y-172456397D01*
X64831500Y-172630993D01*
X58457883Y-172630993D01*
X55917883Y-170090993D01*
X64831500Y-170090993D01*
X64831500Y-170269006D01*
X64866228Y-170443602D01*
X64934349Y-170608059D01*
X64934351Y-170608063D01*
X64984135Y-170682569D01*
X65033248Y-170756073D01*
X65033250Y-170756075D01*
X65159125Y-170881950D01*
X65307137Y-170980849D01*
X65389368Y-171014910D01*
X65471597Y-171048971D01*
X65471598Y-171048971D01*
X65471600Y-171048972D01*
X65646193Y-171083700D01*
X65646194Y-171083700D01*
X65824206Y-171083700D01*
X65824207Y-171083700D01*
X65998800Y-171048972D01*
X66163263Y-170980849D01*
X66311275Y-170881950D01*
X66437150Y-170756075D01*
X66536049Y-170608063D01*
X66604172Y-170443600D01*
X66638900Y-170269007D01*
X66638900Y-170090993D01*
X66604172Y-169916400D01*
X66536049Y-169751937D01*
X66437150Y-169603925D01*
X66311275Y-169478050D01*
X66311273Y-169478048D01*
X66234134Y-169426506D01*
X66163263Y-169379151D01*
X66163260Y-169379149D01*
X66163259Y-169379149D01*
X65998802Y-169311028D01*
X65882404Y-169287876D01*
X65824207Y-169276300D01*
X65646193Y-169276300D01*
X65602544Y-169284982D01*
X65471597Y-169311028D01*
X65307140Y-169379149D01*
X65159126Y-169478048D01*
X65159125Y-169478050D01*
X65033250Y-169603925D01*
X65033248Y-169603926D01*
X64934349Y-169751940D01*
X64866228Y-169916397D01*
X64831500Y-170090993D01*
X55917883Y-170090993D01*
X51852914Y-166026024D01*
X51789089Y-165989175D01*
X51717902Y-165970100D01*
X51145995Y-165970100D01*
X51086864Y-165950887D01*
X51050319Y-165900587D01*
X51050319Y-165838413D01*
X51074860Y-165798365D01*
X51197150Y-165676075D01*
X51197151Y-165676073D01*
X51200021Y-165671778D01*
X51296049Y-165528063D01*
X51364172Y-165363600D01*
X51398900Y-165189007D01*
X51398900Y-165010993D01*
X51364172Y-164836400D01*
X51349566Y-164801139D01*
X51330110Y-164754168D01*
X51296049Y-164671937D01*
X51197150Y-164523925D01*
X51071275Y-164398050D01*
X51071273Y-164398048D01*
X50997769Y-164348935D01*
X50923263Y-164299151D01*
X50923260Y-164299149D01*
X50923259Y-164299149D01*
X50758802Y-164231028D01*
X50642404Y-164207876D01*
X50584207Y-164196300D01*
X50406193Y-164196300D01*
X50362544Y-164204982D01*
X50231597Y-164231028D01*
X50067140Y-164299149D01*
X49919126Y-164398048D01*
X49919125Y-164398050D01*
X49793250Y-164523925D01*
X49793248Y-164523926D01*
X49694349Y-164671940D01*
X49626228Y-164836397D01*
X49591500Y-165010993D01*
X49591500Y-165189006D01*
X49626228Y-165363602D01*
X49668597Y-165465888D01*
X49694351Y-165528063D01*
X49707690Y-165548026D01*
X49793248Y-165676073D01*
X49915540Y-165798365D01*
X49943766Y-165853763D01*
X49934040Y-165915171D01*
X49890076Y-165959135D01*
X49844405Y-165970100D01*
X47921900Y-165970100D01*
X47862769Y-165950887D01*
X47826224Y-165900587D01*
X47821300Y-165869500D01*
X47821300Y-162470993D01*
X49591500Y-162470993D01*
X49591500Y-162649006D01*
X49626228Y-162823602D01*
X49654031Y-162890723D01*
X49694351Y-162988063D01*
X49722560Y-163030280D01*
X49793248Y-163136073D01*
X49919126Y-163261951D01*
X49955877Y-163286507D01*
X50067137Y-163360849D01*
X50148187Y-163394421D01*
X50231597Y-163428971D01*
X50231598Y-163428971D01*
X50231600Y-163428972D01*
X50406193Y-163463700D01*
X50406194Y-163463700D01*
X50584206Y-163463700D01*
X50584207Y-163463700D01*
X50758800Y-163428972D01*
X50923263Y-163360849D01*
X51071275Y-163261950D01*
X51197150Y-163136075D01*
X51296049Y-162988063D01*
X51364172Y-162823600D01*
X51398900Y-162649007D01*
X51398900Y-162470993D01*
X51364172Y-162296400D01*
X51296049Y-162131937D01*
X51197150Y-161983925D01*
X51071275Y-161858050D01*
X51071273Y-161858048D01*
X50997769Y-161808935D01*
X50923263Y-161759151D01*
X50923260Y-161759149D01*
X50923259Y-161759149D01*
X50758802Y-161691028D01*
X50642404Y-161667876D01*
X50584207Y-161656300D01*
X50406193Y-161656300D01*
X50362544Y-161664982D01*
X50231597Y-161691028D01*
X50067140Y-161759149D01*
X49919126Y-161858048D01*
X49919125Y-161858050D01*
X49793250Y-161983925D01*
X49793248Y-161983926D01*
X49694349Y-162131940D01*
X49626228Y-162296397D01*
X49591500Y-162470993D01*
X47821300Y-162470993D01*
X47821300Y-159930993D01*
X49591500Y-159930993D01*
X49591500Y-160109006D01*
X49626228Y-160283602D01*
X49660162Y-160365524D01*
X49694351Y-160448063D01*
X49711963Y-160474421D01*
X49793248Y-160596073D01*
X49793250Y-160596075D01*
X49919125Y-160721950D01*
X50067137Y-160820849D01*
X50149368Y-160854910D01*
X50231597Y-160888971D01*
X50231598Y-160888971D01*
X50231600Y-160888972D01*
X50406193Y-160923700D01*
X50406194Y-160923700D01*
X50584206Y-160923700D01*
X50584207Y-160923700D01*
X50758800Y-160888972D01*
X50923263Y-160820849D01*
X51071275Y-160721950D01*
X51197150Y-160596075D01*
X51296049Y-160448063D01*
X51364172Y-160283600D01*
X51398900Y-160109007D01*
X51398900Y-159930993D01*
X51364172Y-159756400D01*
X51296049Y-159591937D01*
X51197150Y-159443925D01*
X51071275Y-159318050D01*
X51071273Y-159318048D01*
X50997769Y-159268935D01*
X50923263Y-159219151D01*
X50923260Y-159219149D01*
X50923259Y-159219149D01*
X50758802Y-159151028D01*
X50642404Y-159127876D01*
X50584207Y-159116300D01*
X50406193Y-159116300D01*
X50362544Y-159124982D01*
X50231597Y-159151028D01*
X50067140Y-159219149D01*
X49919126Y-159318048D01*
X49919125Y-159318050D01*
X49793250Y-159443925D01*
X49793248Y-159443926D01*
X49694349Y-159591940D01*
X49626228Y-159756397D01*
X49591500Y-159930993D01*
X47821300Y-159930993D01*
X47821300Y-155444808D01*
X47840513Y-155385677D01*
X47890813Y-155349132D01*
X47952987Y-155349132D01*
X47993035Y-155373673D01*
X49640068Y-157020706D01*
X49668294Y-157076104D01*
X49661875Y-157130339D01*
X49626228Y-157216397D01*
X49591500Y-157390993D01*
X49591500Y-157569006D01*
X49626228Y-157743602D01*
X49685944Y-157887767D01*
X49694351Y-157908063D01*
X49723437Y-157951593D01*
X49793248Y-158056073D01*
X49793250Y-158056075D01*
X49919125Y-158181950D01*
X50067137Y-158280849D01*
X50122302Y-158303699D01*
X50231597Y-158348971D01*
X50231598Y-158348971D01*
X50231600Y-158348972D01*
X50406193Y-158383700D01*
X50406194Y-158383700D01*
X50584206Y-158383700D01*
X50584207Y-158383700D01*
X50758800Y-158348972D01*
X50923263Y-158280849D01*
X51071275Y-158181950D01*
X51197150Y-158056075D01*
X51296049Y-157908063D01*
X51364172Y-157743600D01*
X51398900Y-157569007D01*
X51398900Y-157437608D01*
X51418113Y-157378477D01*
X51468413Y-157341932D01*
X51530587Y-157341932D01*
X51570635Y-157366473D01*
X54656024Y-160451862D01*
X54708138Y-160503976D01*
X54771963Y-160540825D01*
X54843150Y-160559900D01*
X58135891Y-160559900D01*
X58195022Y-160579113D01*
X58207026Y-160589365D01*
X58300721Y-160683060D01*
X58300723Y-160683061D01*
X58415575Y-160749371D01*
X58415576Y-160749371D01*
X58415579Y-160749373D01*
X58543687Y-160783700D01*
X58676313Y-160783700D01*
X58804421Y-160749373D01*
X58919279Y-160683060D01*
X59013060Y-160589279D01*
X59079373Y-160474421D01*
X59113700Y-160346313D01*
X59113700Y-160213687D01*
X59079373Y-160085579D01*
X59013060Y-159970721D01*
X58919279Y-159876940D01*
X58919276Y-159876938D01*
X58804424Y-159810628D01*
X58804421Y-159810627D01*
X58770099Y-159801430D01*
X58676315Y-159776300D01*
X58676313Y-159776300D01*
X58543687Y-159776300D01*
X58543684Y-159776300D01*
X58415575Y-159810628D01*
X58300723Y-159876938D01*
X58207026Y-159970635D01*
X58151628Y-159998862D01*
X58135891Y-160000100D01*
X55037608Y-160000100D01*
X54978477Y-159980887D01*
X54966473Y-159970635D01*
X53727473Y-158731635D01*
X53699247Y-158676237D01*
X53708973Y-158614829D01*
X53752937Y-158570865D01*
X53798608Y-158559900D01*
X58485891Y-158559900D01*
X58545022Y-158579113D01*
X58557026Y-158589365D01*
X58650721Y-158683060D01*
X58650723Y-158683061D01*
X58765575Y-158749371D01*
X58765576Y-158749371D01*
X58765579Y-158749373D01*
X58893687Y-158783700D01*
X59026313Y-158783700D01*
X59154421Y-158749373D01*
X59269279Y-158683060D01*
X59363060Y-158589279D01*
X59429373Y-158474421D01*
X59463700Y-158346313D01*
X59463700Y-158213687D01*
X59450123Y-158163017D01*
X59453376Y-158100929D01*
X59492503Y-158052610D01*
X59547295Y-158036380D01*
X62696771Y-158036380D01*
X62755902Y-158055593D01*
X62783891Y-158086678D01*
X62796940Y-158109279D01*
X62890721Y-158203060D01*
X62909128Y-158213687D01*
X63005575Y-158269371D01*
X63005576Y-158269371D01*
X63005579Y-158269373D01*
X63133687Y-158303700D01*
X63266313Y-158303700D01*
X63394421Y-158269373D01*
X63509279Y-158203060D01*
X63603060Y-158109279D01*
X63629289Y-158063847D01*
X63675491Y-158022246D01*
X63737324Y-158015746D01*
X63787545Y-158043013D01*
X63890635Y-158146103D01*
X63918861Y-158201501D01*
X63920100Y-158217238D01*
X63920100Y-162725891D01*
X63900887Y-162785022D01*
X63890635Y-162797026D01*
X63796938Y-162890723D01*
X63730628Y-163005575D01*
X63696300Y-163133684D01*
X63696300Y-163266315D01*
X63730628Y-163394424D01*
X63770625Y-163463700D01*
X63796940Y-163509279D01*
X63890721Y-163603060D01*
X63890723Y-163603061D01*
X64005575Y-163669371D01*
X64005576Y-163669371D01*
X64005579Y-163669373D01*
X64133687Y-163703700D01*
X64266313Y-163703700D01*
X64394421Y-163669373D01*
X64509279Y-163603060D01*
X64603060Y-163509279D01*
X64669373Y-163394421D01*
X64703700Y-163266313D01*
X64703700Y-163133687D01*
X64669373Y-163005579D01*
X64603060Y-162890721D01*
X64509365Y-162797026D01*
X64481138Y-162741628D01*
X64479900Y-162725891D01*
X64479900Y-162470993D01*
X64831500Y-162470993D01*
X64831500Y-162649006D01*
X64866228Y-162823602D01*
X64894031Y-162890723D01*
X64934351Y-162988063D01*
X64962560Y-163030280D01*
X65033248Y-163136073D01*
X65159126Y-163261951D01*
X65195877Y-163286507D01*
X65307137Y-163360849D01*
X65388187Y-163394421D01*
X65471597Y-163428971D01*
X65471598Y-163428971D01*
X65471600Y-163428972D01*
X65646193Y-163463700D01*
X65646194Y-163463700D01*
X65824206Y-163463700D01*
X65824207Y-163463700D01*
X65998800Y-163428972D01*
X66163263Y-163360849D01*
X66311275Y-163261950D01*
X66437150Y-163136075D01*
X66536049Y-162988063D01*
X66604172Y-162823600D01*
X66638900Y-162649007D01*
X66638900Y-162470993D01*
X66604172Y-162296400D01*
X66536049Y-162131937D01*
X66437150Y-161983925D01*
X66311275Y-161858050D01*
X66311273Y-161858048D01*
X66237769Y-161808935D01*
X66163263Y-161759151D01*
X66163260Y-161759149D01*
X66163259Y-161759149D01*
X65998802Y-161691028D01*
X65882404Y-161667876D01*
X65824207Y-161656300D01*
X65646193Y-161656300D01*
X65602544Y-161664982D01*
X65471597Y-161691028D01*
X65307140Y-161759149D01*
X65159126Y-161858048D01*
X65159125Y-161858050D01*
X65033250Y-161983925D01*
X65033248Y-161983926D01*
X64934349Y-162131940D01*
X64866228Y-162296397D01*
X64831500Y-162470993D01*
X64479900Y-162470993D01*
X64479900Y-158022780D01*
X64479899Y-158022777D01*
X64460825Y-157951593D01*
X64460825Y-157951592D01*
X64423976Y-157887767D01*
X63726215Y-157190006D01*
X63697989Y-157134608D01*
X63696750Y-157118871D01*
X63696750Y-144887981D01*
X63715963Y-144828850D01*
X63766263Y-144792305D01*
X63828437Y-144792305D01*
X63868485Y-144816846D01*
G37*
%TD.AperFunction*%
%TA.AperFunction,Conductor*%
G36*
X49498429Y-109151531D02*
G01*
X49521987Y-109151531D01*
X49528554Y-109156302D01*
X49536571Y-109157572D01*
X49553227Y-109174228D01*
X49572287Y-109188076D01*
X49574848Y-109195849D01*
X49580535Y-109201536D01*
X49590771Y-109244174D01*
X49591497Y-109246375D01*
X49591500Y-109246738D01*
X49591500Y-109349647D01*
X49592386Y-109354106D01*
X49592387Y-109354108D01*
X49626228Y-109524242D01*
X49694349Y-109688699D01*
X49694351Y-109688703D01*
X49744135Y-109763209D01*
X49793248Y-109836713D01*
X49793250Y-109836715D01*
X49919125Y-109962590D01*
X50067137Y-110061489D01*
X50141420Y-110092258D01*
X50231597Y-110129611D01*
X50231598Y-110129611D01*
X50231600Y-110129612D01*
X50406193Y-110164340D01*
X50406194Y-110164340D01*
X50584206Y-110164340D01*
X50584207Y-110164340D01*
X50758800Y-110129612D01*
X50923263Y-110061489D01*
X51071275Y-109962590D01*
X51148365Y-109885500D01*
X51203763Y-109857274D01*
X51265171Y-109867000D01*
X51309135Y-109910964D01*
X51320100Y-109956635D01*
X51320100Y-111104645D01*
X51300887Y-111163776D01*
X51250587Y-111200321D01*
X51188413Y-111200321D01*
X51148365Y-111175780D01*
X51071273Y-111098688D01*
X50997614Y-111049471D01*
X50923263Y-110999791D01*
X50923260Y-110999789D01*
X50923259Y-110999789D01*
X50758802Y-110931668D01*
X50642404Y-110908516D01*
X50584207Y-110896940D01*
X50406193Y-110896940D01*
X50362544Y-110905622D01*
X50231597Y-110931668D01*
X50067140Y-110999789D01*
X49919126Y-111098688D01*
X49919125Y-111098690D01*
X49793250Y-111224565D01*
X49793248Y-111224566D01*
X49694349Y-111372580D01*
X49626228Y-111537037D01*
X49611000Y-111613597D01*
X49591500Y-111711633D01*
X49591500Y-111889647D01*
X49626228Y-112064240D01*
X49633642Y-112082140D01*
X49664851Y-112157483D01*
X49669730Y-112219466D01*
X49643044Y-112267117D01*
X49100098Y-112810062D01*
X49100099Y-112810063D01*
X49047982Y-112862180D01*
X49011136Y-112926001D01*
X49011135Y-112926003D01*
X48992060Y-112997190D01*
X48992060Y-127520633D01*
X48992060Y-127594333D01*
X49011135Y-127665520D01*
X49047984Y-127729345D01*
X52690636Y-131371997D01*
X52718861Y-131427393D01*
X52720100Y-131443130D01*
X52720100Y-140963150D01*
X52720100Y-141036850D01*
X52739175Y-141108037D01*
X52776024Y-141171862D01*
X53628138Y-142023976D01*
X53691963Y-142060825D01*
X53763150Y-142079900D01*
X53836850Y-142079900D01*
X57433199Y-142079900D01*
X57492330Y-142099113D01*
X57528875Y-142149413D01*
X57530370Y-142206534D01*
X57502372Y-142311024D01*
X57496300Y-142333686D01*
X57496300Y-142466315D01*
X57530628Y-142594424D01*
X57596938Y-142709276D01*
X57596940Y-142709279D01*
X57690636Y-142802975D01*
X57718861Y-142858371D01*
X57720100Y-142874108D01*
X57720100Y-143382762D01*
X57700887Y-143441893D01*
X57690635Y-143453897D01*
X56768698Y-144375833D01*
X56713300Y-144404059D01*
X56651892Y-144394333D01*
X56607928Y-144350369D01*
X56598202Y-144288961D01*
X56600389Y-144278667D01*
X56603700Y-144266313D01*
X56603700Y-144133687D01*
X56569373Y-144005579D01*
X56511845Y-143905938D01*
X56498919Y-143845125D01*
X56524207Y-143788326D01*
X56527814Y-143784524D01*
X56603060Y-143709279D01*
X56669373Y-143594421D01*
X56703700Y-143466313D01*
X56703700Y-143333687D01*
X56669373Y-143205579D01*
X56603060Y-143090721D01*
X56509279Y-142996940D01*
X56509276Y-142996938D01*
X56394424Y-142930628D01*
X56394421Y-142930627D01*
X56355832Y-142920287D01*
X56266315Y-142896300D01*
X56266313Y-142896300D01*
X56133687Y-142896300D01*
X56133684Y-142896300D01*
X56005575Y-142930628D01*
X55890723Y-142996938D01*
X55797026Y-143090635D01*
X55741628Y-143118862D01*
X55725891Y-143120100D01*
X55003549Y-143120100D01*
X54944418Y-143100887D01*
X54932414Y-143090635D01*
X54902948Y-143061169D01*
X54838719Y-142996940D01*
X54838716Y-142996938D01*
X54723864Y-142930628D01*
X54723861Y-142930627D01*
X54685272Y-142920287D01*
X54595755Y-142896300D01*
X54595753Y-142896300D01*
X54463127Y-142896300D01*
X54463124Y-142896300D01*
X54335015Y-142930628D01*
X54220163Y-142996938D01*
X54220162Y-142996939D01*
X54220161Y-142996940D01*
X54126380Y-143090721D01*
X54126379Y-143090722D01*
X54126378Y-143090723D01*
X54060068Y-143205575D01*
X54025740Y-143333684D01*
X54025740Y-143466315D01*
X54060068Y-143594424D01*
X54121340Y-143700550D01*
X54126380Y-143709279D01*
X54220161Y-143803060D01*
X54220163Y-143803061D01*
X54335015Y-143869371D01*
X54335016Y-143869371D01*
X54335019Y-143869373D01*
X54463127Y-143903700D01*
X54479781Y-143903700D01*
X54538912Y-143922913D01*
X54575457Y-143973213D01*
X54576952Y-144030337D01*
X54571425Y-144050968D01*
X54549260Y-144133684D01*
X54549260Y-144266315D01*
X54562618Y-144316166D01*
X54583563Y-144394333D01*
X54583588Y-144394424D01*
X54644693Y-144500261D01*
X54649900Y-144509279D01*
X54743681Y-144603060D01*
X54743683Y-144603061D01*
X54858535Y-144669371D01*
X54858536Y-144669371D01*
X54858539Y-144669373D01*
X54986647Y-144703700D01*
X55119273Y-144703700D01*
X55247381Y-144669373D01*
X55362239Y-144603060D01*
X55455934Y-144509365D01*
X55511332Y-144481138D01*
X55527069Y-144479900D01*
X55625891Y-144479900D01*
X55685022Y-144499113D01*
X55697026Y-144509365D01*
X55790721Y-144603060D01*
X55790723Y-144603061D01*
X55905575Y-144669371D01*
X55905576Y-144669371D01*
X55905579Y-144669373D01*
X56033687Y-144703700D01*
X56166313Y-144703700D01*
X56178658Y-144700392D01*
X56240745Y-144703643D01*
X56289065Y-144742768D01*
X56305160Y-144802823D01*
X56282882Y-144860868D01*
X56275833Y-144868698D01*
X55253897Y-145890635D01*
X55198499Y-145918861D01*
X55182762Y-145920100D01*
X55059109Y-145920100D01*
X54999978Y-145900887D01*
X54987974Y-145890635D01*
X54966639Y-145869300D01*
X54909279Y-145811940D01*
X54909276Y-145811938D01*
X54794424Y-145745628D01*
X54794421Y-145745627D01*
X54760099Y-145736430D01*
X54666315Y-145711300D01*
X54666313Y-145711300D01*
X54533687Y-145711300D01*
X54533684Y-145711300D01*
X54405575Y-145745628D01*
X54290723Y-145811938D01*
X54290722Y-145811939D01*
X54290721Y-145811940D01*
X54196940Y-145905721D01*
X54196939Y-145905722D01*
X54196938Y-145905723D01*
X54130628Y-146020575D01*
X54096300Y-146148684D01*
X54096300Y-146281315D01*
X54114661Y-146349836D01*
X54128920Y-146403052D01*
X54130628Y-146409424D01*
X54180204Y-146495292D01*
X54196940Y-146524279D01*
X54290721Y-146618060D01*
X54290723Y-146618061D01*
X54405575Y-146684371D01*
X54405576Y-146684371D01*
X54405579Y-146684373D01*
X54533687Y-146718700D01*
X54666313Y-146718700D01*
X54794421Y-146684373D01*
X54909279Y-146618060D01*
X55003060Y-146524279D01*
X55003065Y-146524269D01*
X55006912Y-146519258D01*
X55058152Y-146484043D01*
X55086723Y-146479900D01*
X55377220Y-146479900D01*
X55448407Y-146460825D01*
X55512232Y-146423976D01*
X58223976Y-143712232D01*
X58260825Y-143648407D01*
X58279900Y-143577220D01*
X58279900Y-143503520D01*
X58279900Y-142874108D01*
X58299113Y-142814977D01*
X58309359Y-142802979D01*
X58403060Y-142709279D01*
X58469373Y-142594421D01*
X58503700Y-142466313D01*
X58503700Y-142333687D01*
X58469629Y-142206535D01*
X58472882Y-142144449D01*
X58512009Y-142096130D01*
X58566801Y-142079900D01*
X61242392Y-142079900D01*
X61301523Y-142099113D01*
X61313527Y-142109365D01*
X61666835Y-142462673D01*
X61695061Y-142518071D01*
X61696300Y-142533808D01*
X61696300Y-142666315D01*
X61730628Y-142794424D01*
X61796938Y-142909276D01*
X61796940Y-142909279D01*
X61890721Y-143003060D01*
X61923008Y-143021701D01*
X62005575Y-143069371D01*
X62005576Y-143069371D01*
X62005579Y-143069373D01*
X62133687Y-143103700D01*
X62266313Y-143103700D01*
X62394421Y-143069373D01*
X62509279Y-143003060D01*
X62603060Y-142909279D01*
X62669373Y-142794421D01*
X62703700Y-142666313D01*
X62703700Y-142533687D01*
X62669373Y-142405579D01*
X62636895Y-142349326D01*
X62603061Y-142290723D01*
X62603060Y-142290721D01*
X62509279Y-142196940D01*
X62464892Y-142171313D01*
X62394424Y-142130628D01*
X62394421Y-142130627D01*
X62360099Y-142121430D01*
X62266315Y-142096300D01*
X62266313Y-142096300D01*
X62133808Y-142096300D01*
X62074677Y-142077087D01*
X62062673Y-142066835D01*
X61828095Y-141832257D01*
X61571862Y-141576024D01*
X61508037Y-141539175D01*
X61436850Y-141520100D01*
X53957608Y-141520100D01*
X53898477Y-141500887D01*
X53886473Y-141490635D01*
X53309365Y-140913527D01*
X53281139Y-140858129D01*
X53279900Y-140842392D01*
X53279900Y-131248673D01*
X53260825Y-131177486D01*
X53223976Y-131113661D01*
X53171862Y-131061547D01*
X51761950Y-129651635D01*
X51733724Y-129596237D01*
X51743450Y-129534829D01*
X51787414Y-129490865D01*
X51833085Y-129479900D01*
X55164892Y-129479900D01*
X55224023Y-129499113D01*
X55260568Y-129549413D01*
X55260568Y-129611587D01*
X55236028Y-129651632D01*
X55196940Y-129690721D01*
X55196939Y-129690722D01*
X55196938Y-129690723D01*
X55130628Y-129805575D01*
X55096300Y-129933684D01*
X55096300Y-130066315D01*
X55130628Y-130194424D01*
X55196938Y-130309276D01*
X55196940Y-130309279D01*
X55290636Y-130402975D01*
X55318861Y-130458371D01*
X55320100Y-130474108D01*
X55320100Y-134042391D01*
X55300887Y-134101522D01*
X55290635Y-134113526D01*
X54137326Y-135266835D01*
X54081928Y-135295061D01*
X54066191Y-135296300D01*
X53933684Y-135296300D01*
X53805575Y-135330628D01*
X53690723Y-135396938D01*
X53690722Y-135396939D01*
X53690721Y-135396940D01*
X53596940Y-135490721D01*
X53596939Y-135490722D01*
X53596938Y-135490723D01*
X53530628Y-135605575D01*
X53496300Y-135733684D01*
X53496300Y-135866315D01*
X53530628Y-135994424D01*
X53596938Y-136109276D01*
X53596940Y-136109279D01*
X53690721Y-136203060D01*
X53690723Y-136203061D01*
X53805575Y-136269371D01*
X53805576Y-136269371D01*
X53805579Y-136269373D01*
X53933687Y-136303700D01*
X54066313Y-136303700D01*
X54194421Y-136269373D01*
X54309279Y-136203060D01*
X54403060Y-136109279D01*
X54469373Y-135994421D01*
X54503700Y-135866313D01*
X54503700Y-135733807D01*
X54522913Y-135674676D01*
X54533165Y-135662672D01*
X55134668Y-135061169D01*
X55823976Y-134371862D01*
X55860825Y-134308037D01*
X55879900Y-134236850D01*
X55879900Y-134163150D01*
X55879900Y-130474108D01*
X55899113Y-130414977D01*
X55909359Y-130402979D01*
X56003060Y-130309279D01*
X56069373Y-130194421D01*
X56103700Y-130066313D01*
X56103700Y-129933687D01*
X56069373Y-129805579D01*
X56003060Y-129690721D01*
X55963971Y-129651632D01*
X55935747Y-129596237D01*
X55945473Y-129534829D01*
X55989437Y-129490865D01*
X56035108Y-129479900D01*
X63125891Y-129479900D01*
X63185022Y-129499113D01*
X63197026Y-129509365D01*
X63290721Y-129603060D01*
X63290723Y-129603061D01*
X63405575Y-129669371D01*
X63405576Y-129669371D01*
X63405579Y-129669373D01*
X63533687Y-129703700D01*
X63666313Y-129703700D01*
X63716982Y-129690123D01*
X63779071Y-129693376D01*
X63827390Y-129732503D01*
X63843620Y-129787295D01*
X63843620Y-132204017D01*
X63824407Y-132263148D01*
X63814155Y-132275152D01*
X60976022Y-135113285D01*
X60939176Y-135177106D01*
X60920100Y-135248294D01*
X60920100Y-138125891D01*
X60900887Y-138185022D01*
X60890635Y-138197026D01*
X60796938Y-138290723D01*
X60730628Y-138405575D01*
X60696300Y-138533684D01*
X60696300Y-138666315D01*
X60730628Y-138794424D01*
X60796938Y-138909276D01*
X60796940Y-138909279D01*
X60890721Y-139003060D01*
X60890723Y-139003061D01*
X61005575Y-139069371D01*
X61005576Y-139069371D01*
X61005579Y-139069373D01*
X61133687Y-139103700D01*
X61266313Y-139103700D01*
X61394421Y-139069373D01*
X61509279Y-139003060D01*
X61603060Y-138909279D01*
X61669373Y-138794421D01*
X61703700Y-138666313D01*
X61703700Y-138533687D01*
X61669373Y-138405579D01*
X61660250Y-138389778D01*
X61603061Y-138290723D01*
X61603060Y-138290721D01*
X61509365Y-138197026D01*
X61481138Y-138141628D01*
X61479900Y-138125891D01*
X61479900Y-135442753D01*
X61499113Y-135383622D01*
X61509365Y-135371618D01*
X62965215Y-133915768D01*
X63020613Y-133887542D01*
X63082021Y-133897268D01*
X63125985Y-133941232D01*
X63136950Y-133986903D01*
X63136950Y-157218233D01*
X63117737Y-157277364D01*
X63067437Y-157313909D01*
X63062394Y-157315403D01*
X63022028Y-157326219D01*
X63005575Y-157330628D01*
X62890723Y-157396938D01*
X62840545Y-157447116D01*
X62785147Y-157475342D01*
X62769411Y-157476580D01*
X53683718Y-157476580D01*
X53624587Y-157457367D01*
X53612583Y-157447115D01*
X52983013Y-156817545D01*
X52954787Y-156762147D01*
X52964513Y-156700739D01*
X53003847Y-156659289D01*
X53049279Y-156633060D01*
X53142974Y-156539365D01*
X53198372Y-156511138D01*
X53214109Y-156509900D01*
X57876850Y-156509900D01*
X57948037Y-156490825D01*
X58011862Y-156453976D01*
X58782672Y-155683164D01*
X58838070Y-155654939D01*
X58853807Y-155653700D01*
X58986313Y-155653700D01*
X59114421Y-155619373D01*
X59229279Y-155553060D01*
X59323060Y-155459279D01*
X59389373Y-155344421D01*
X59423700Y-155216313D01*
X59423700Y-155083687D01*
X59389373Y-154955579D01*
X59323060Y-154840721D01*
X59229279Y-154746940D01*
X59225100Y-154744527D01*
X59114424Y-154680628D01*
X59114421Y-154680627D01*
X59080099Y-154671430D01*
X58986315Y-154646300D01*
X58986313Y-154646300D01*
X58853687Y-154646300D01*
X58853684Y-154646300D01*
X58725575Y-154680628D01*
X58610723Y-154746938D01*
X58610722Y-154746939D01*
X58610721Y-154746940D01*
X58516940Y-154840721D01*
X58516939Y-154840722D01*
X58516938Y-154840723D01*
X58450628Y-154955575D01*
X58416300Y-155083684D01*
X58416300Y-155216191D01*
X58397087Y-155275322D01*
X58386835Y-155287326D01*
X57812494Y-155861667D01*
X57757096Y-155889893D01*
X57695688Y-155880167D01*
X57651724Y-155836203D01*
X57641998Y-155774795D01*
X57643535Y-155767560D01*
X57643700Y-155766312D01*
X57643700Y-155633687D01*
X57643699Y-155633684D01*
X57609373Y-155505579D01*
X57543060Y-155390721D01*
X57449279Y-155296940D01*
X57449276Y-155296938D01*
X57334424Y-155230628D01*
X57334421Y-155230627D01*
X57281009Y-155216315D01*
X57206315Y-155196300D01*
X57206313Y-155196300D01*
X57073809Y-155196300D01*
X57014678Y-155177087D01*
X57002674Y-155166835D01*
X54107000Y-152271162D01*
X54099963Y-152263347D01*
X54094974Y-152257187D01*
X54083976Y-152238138D01*
X54060645Y-152214807D01*
X54057328Y-152210712D01*
X54047978Y-152186366D01*
X54036139Y-152163129D01*
X54035386Y-152153577D01*
X54035039Y-152152671D01*
X54035252Y-152151872D01*
X54034900Y-152147392D01*
X54034900Y-149561630D01*
X54034899Y-149561627D01*
X54015825Y-149490443D01*
X54015824Y-149490441D01*
X53993781Y-149452260D01*
X53978976Y-149426617D01*
X53856604Y-149304245D01*
X53699685Y-149147326D01*
X53671459Y-149091928D01*
X53670220Y-149076191D01*
X53670220Y-148943687D01*
X53670219Y-148943684D01*
X53635893Y-148815579D01*
X53569580Y-148700721D01*
X53475799Y-148606940D01*
X53475796Y-148606938D01*
X53360944Y-148540628D01*
X53360941Y-148540627D01*
X53326619Y-148531430D01*
X53232835Y-148506300D01*
X53232833Y-148506300D01*
X53100207Y-148506300D01*
X53100204Y-148506300D01*
X52972095Y-148540628D01*
X52857243Y-148606938D01*
X52857242Y-148606939D01*
X52857241Y-148606940D01*
X52763460Y-148700721D01*
X52763459Y-148700722D01*
X52763458Y-148700723D01*
X52697148Y-148815575D01*
X52662820Y-148943684D01*
X52662820Y-149076315D01*
X52697148Y-149204424D01*
X52763458Y-149319276D01*
X52763460Y-149319279D01*
X52857241Y-149413060D01*
X52857243Y-149413061D01*
X52972095Y-149479371D01*
X52972096Y-149479371D01*
X52972099Y-149479373D01*
X53100207Y-149513700D01*
X53232712Y-149513700D01*
X53291843Y-149532913D01*
X53303847Y-149543165D01*
X53445635Y-149684953D01*
X53473861Y-149740351D01*
X53475100Y-149756088D01*
X53475100Y-152278150D01*
X53475100Y-152351850D01*
X53494175Y-152423037D01*
X53494176Y-152423038D01*
X53531023Y-152486861D01*
X53693868Y-152649707D01*
X53693873Y-152649711D01*
X56606836Y-155562675D01*
X56635061Y-155618071D01*
X56636300Y-155633808D01*
X56636300Y-155766316D01*
X56651613Y-155823462D01*
X56648359Y-155885551D01*
X56609232Y-155933870D01*
X56554441Y-155950100D01*
X53214109Y-155950100D01*
X53154978Y-155930887D01*
X53142974Y-155920635D01*
X53102506Y-155880167D01*
X53049279Y-155826940D01*
X53043255Y-155823462D01*
X52934424Y-155760628D01*
X52934421Y-155760627D01*
X52900099Y-155751430D01*
X52806315Y-155726300D01*
X52806313Y-155726300D01*
X52673687Y-155726300D01*
X52673684Y-155726300D01*
X52545575Y-155760628D01*
X52430723Y-155826938D01*
X52430722Y-155826939D01*
X52430721Y-155826940D01*
X52336940Y-155920721D01*
X52336939Y-155920722D01*
X52336938Y-155920723D01*
X52310711Y-155966151D01*
X52264506Y-156007754D01*
X52202673Y-156014253D01*
X52152454Y-155986986D01*
X51728085Y-155562617D01*
X51699859Y-155507219D01*
X51698620Y-155491482D01*
X51698620Y-131406870D01*
X51679545Y-131335683D01*
X51642696Y-131271858D01*
X51590582Y-131219744D01*
X50046862Y-129676024D01*
X49983037Y-129639175D01*
X49911850Y-129620100D01*
X49728063Y-129620100D01*
X49668932Y-129600887D01*
X49656928Y-129590635D01*
X48455285Y-128388992D01*
X48427059Y-128333594D01*
X48425820Y-128317857D01*
X48425820Y-110211687D01*
X48445033Y-110152556D01*
X48455279Y-110140558D01*
X49419765Y-109176071D01*
X49440755Y-109165377D01*
X49459813Y-109151531D01*
X49467931Y-109151531D01*
X49475163Y-109147846D01*
X49498429Y-109151531D01*
G37*
%TD.AperFunction*%
%TA.AperFunction,Conductor*%
G36*
X57204389Y-76582348D02*
G01*
X57207042Y-76581638D01*
X57233724Y-76591880D01*
X57260908Y-76600713D01*
X57262522Y-76602934D01*
X57265086Y-76603919D01*
X57287080Y-76636735D01*
X57297453Y-76651013D01*
X57298090Y-76653164D01*
X57298154Y-76653259D01*
X57298568Y-76654643D01*
X57309227Y-76694421D01*
X57311811Y-76698897D01*
X57311812Y-76698899D01*
X57375538Y-76809276D01*
X57375540Y-76809279D01*
X57469321Y-76903060D01*
X57469323Y-76903061D01*
X57514751Y-76929289D01*
X57556354Y-76975494D01*
X57562853Y-77037327D01*
X57535587Y-77087545D01*
X57499542Y-77123590D01*
X57462696Y-77187411D01*
X57443620Y-77258599D01*
X57443620Y-85913304D01*
X57424407Y-85972435D01*
X57374107Y-86008980D01*
X57316983Y-86010476D01*
X57266318Y-85996900D01*
X57266313Y-85996900D01*
X57133808Y-85996900D01*
X57074677Y-85977687D01*
X57062673Y-85967435D01*
X54709365Y-83614127D01*
X54681139Y-83558729D01*
X54679900Y-83542992D01*
X54679900Y-78874108D01*
X54699113Y-78814977D01*
X54709359Y-78802979D01*
X54803060Y-78709279D01*
X54869373Y-78594421D01*
X54903700Y-78466313D01*
X54903700Y-78333687D01*
X54869373Y-78205579D01*
X54803060Y-78090721D01*
X54709279Y-77996940D01*
X54709276Y-77996938D01*
X54594424Y-77930628D01*
X54594421Y-77930627D01*
X54560099Y-77921430D01*
X54466315Y-77896300D01*
X54466313Y-77896300D01*
X54333687Y-77896300D01*
X54333684Y-77896300D01*
X54205575Y-77930628D01*
X54090723Y-77996938D01*
X54090716Y-77996943D01*
X54071133Y-78016527D01*
X54015735Y-78044753D01*
X53954327Y-78035025D01*
X53928867Y-78016527D01*
X53909283Y-77996943D01*
X53909276Y-77996938D01*
X53794424Y-77930628D01*
X53794421Y-77930627D01*
X53760099Y-77921430D01*
X53666315Y-77896300D01*
X53666313Y-77896300D01*
X53533687Y-77896300D01*
X53533684Y-77896300D01*
X53405575Y-77930628D01*
X53290723Y-77996938D01*
X53290722Y-77996939D01*
X53290721Y-77996940D01*
X53196940Y-78090721D01*
X53196939Y-78090722D01*
X53196938Y-78090723D01*
X53130628Y-78205575D01*
X53096300Y-78333684D01*
X53096300Y-78466315D01*
X53130628Y-78594424D01*
X53160479Y-78646127D01*
X53196940Y-78709279D01*
X53290636Y-78802975D01*
X53318861Y-78858371D01*
X53320100Y-78874108D01*
X53320100Y-84163150D01*
X53320100Y-84236850D01*
X53339175Y-84308037D01*
X53361725Y-84347095D01*
X53368231Y-84358365D01*
X53376024Y-84371862D01*
X55466836Y-86462674D01*
X55495061Y-86518070D01*
X55496300Y-86533807D01*
X55496300Y-86666315D01*
X55516301Y-86740958D01*
X55524067Y-86769941D01*
X55530628Y-86794424D01*
X55596938Y-86909276D01*
X55596940Y-86909279D01*
X55690721Y-87003060D01*
X55690723Y-87003061D01*
X55805575Y-87069371D01*
X55805576Y-87069371D01*
X55805579Y-87069373D01*
X55933687Y-87103700D01*
X56066313Y-87103700D01*
X56194421Y-87069373D01*
X56309279Y-87003060D01*
X56403060Y-86909279D01*
X56469373Y-86794421D01*
X56503700Y-86666313D01*
X56503700Y-86612253D01*
X56522913Y-86553122D01*
X56573213Y-86516577D01*
X56635387Y-86516577D01*
X56685687Y-86553122D01*
X56701472Y-86586215D01*
X56727824Y-86684562D01*
X56730628Y-86695024D01*
X56796564Y-86809228D01*
X56796940Y-86809879D01*
X56890721Y-86903660D01*
X56909358Y-86914420D01*
X57005575Y-86969971D01*
X57005576Y-86969971D01*
X57005579Y-86969973D01*
X57133687Y-87004300D01*
X57266313Y-87004300D01*
X57316982Y-86990723D01*
X57379071Y-86993976D01*
X57427390Y-87033103D01*
X57443620Y-87087895D01*
X57443620Y-88318872D01*
X57424407Y-88378003D01*
X57414156Y-88390006D01*
X57376022Y-88428140D01*
X57339176Y-88491961D01*
X57339175Y-88491963D01*
X57320100Y-88563150D01*
X57320100Y-116761470D01*
X57320100Y-116835170D01*
X57339175Y-116906357D01*
X57339176Y-116906358D01*
X57375714Y-116969646D01*
X57376024Y-116970182D01*
X59290636Y-118884794D01*
X59318861Y-118940190D01*
X59320100Y-118955927D01*
X59320100Y-120650891D01*
X59300887Y-120710022D01*
X59290635Y-120722026D01*
X59196938Y-120815723D01*
X59130628Y-120930575D01*
X59096300Y-121058684D01*
X59096300Y-121191315D01*
X59130628Y-121319424D01*
X59168238Y-121384566D01*
X59196940Y-121434279D01*
X59290721Y-121528060D01*
X59290723Y-121528061D01*
X59405575Y-121594371D01*
X59405576Y-121594371D01*
X59405579Y-121594373D01*
X59533687Y-121628700D01*
X59672907Y-121628700D01*
X59672907Y-121630718D01*
X59724930Y-121640355D01*
X59767732Y-121685450D01*
X59774109Y-121702730D01*
X59798679Y-121794424D01*
X59843256Y-121871633D01*
X59864991Y-121909279D01*
X59958772Y-122003060D01*
X59958774Y-122003061D01*
X60073626Y-122069371D01*
X60073627Y-122069371D01*
X60073630Y-122069373D01*
X60201738Y-122103700D01*
X60334364Y-122103700D01*
X60397628Y-122086748D01*
X60459714Y-122090001D01*
X60508033Y-122129128D01*
X60520835Y-122157878D01*
X60530627Y-122194421D01*
X60596940Y-122309279D01*
X60690721Y-122403060D01*
X60707278Y-122412619D01*
X60805575Y-122469371D01*
X60805576Y-122469371D01*
X60805579Y-122469373D01*
X60933687Y-122503700D01*
X61009029Y-122503700D01*
X61068160Y-122522913D01*
X61104705Y-122573213D01*
X61106197Y-122578248D01*
X61119840Y-122629164D01*
X61130628Y-122669424D01*
X61196938Y-122784276D01*
X61196940Y-122784279D01*
X61290721Y-122878060D01*
X61290723Y-122878061D01*
X61405575Y-122944371D01*
X61405576Y-122944371D01*
X61405579Y-122944373D01*
X61533687Y-122978700D01*
X61666313Y-122978700D01*
X61794421Y-122944373D01*
X61909279Y-122878060D01*
X62003060Y-122784279D01*
X62069373Y-122669421D01*
X62103700Y-122541313D01*
X62103700Y-122408687D01*
X62069373Y-122280579D01*
X62003060Y-122165721D01*
X61995219Y-122157880D01*
X61931175Y-122093835D01*
X61902948Y-122038438D01*
X61901710Y-122022701D01*
X61901710Y-119337224D01*
X61882635Y-119266037D01*
X61845786Y-119202212D01*
X61793672Y-119150098D01*
X59109365Y-116465791D01*
X59081139Y-116410393D01*
X59079900Y-116394656D01*
X59079900Y-115656805D01*
X59099113Y-115597674D01*
X59149413Y-115561129D01*
X59211587Y-115561129D01*
X59261887Y-115597674D01*
X59264144Y-115600913D01*
X59278140Y-115621860D01*
X59345520Y-115666881D01*
X59404936Y-115678700D01*
X59404937Y-115678700D01*
X60295063Y-115678700D01*
X60295064Y-115678700D01*
X60354480Y-115666881D01*
X60421860Y-115621860D01*
X60421866Y-115621850D01*
X60424503Y-115619215D01*
X60430038Y-115616394D01*
X60430097Y-115616355D01*
X60430101Y-115616361D01*
X60479900Y-115590985D01*
X60541309Y-115600708D01*
X60551517Y-115606691D01*
X60552199Y-115607147D01*
X60587720Y-115621860D01*
X60666612Y-115654538D01*
X60666613Y-115654538D01*
X60666615Y-115654539D01*
X60788078Y-115678700D01*
X60788079Y-115678700D01*
X60911921Y-115678700D01*
X60911922Y-115678700D01*
X61033385Y-115654539D01*
X61147801Y-115607147D01*
X61250773Y-115538343D01*
X61278865Y-115510251D01*
X61334263Y-115482025D01*
X61395671Y-115491751D01*
X61421135Y-115510251D01*
X61449227Y-115538343D01*
X61552199Y-115607147D01*
X61587720Y-115621860D01*
X61666612Y-115654538D01*
X61666613Y-115654538D01*
X61666615Y-115654539D01*
X61788078Y-115678700D01*
X61788079Y-115678700D01*
X61911921Y-115678700D01*
X61911922Y-115678700D01*
X62033385Y-115654539D01*
X62147801Y-115607147D01*
X62250773Y-115538343D01*
X62338343Y-115450773D01*
X62407147Y-115347801D01*
X62454539Y-115233385D01*
X62478700Y-115111922D01*
X62478700Y-114988078D01*
X62454539Y-114866615D01*
X62438524Y-114827952D01*
X62407148Y-114752202D01*
X62407147Y-114752199D01*
X62338343Y-114649227D01*
X62250773Y-114561657D01*
X62166113Y-114505089D01*
X62166099Y-114505078D01*
X62160159Y-114501109D01*
X62144915Y-114488599D01*
X61939741Y-114283425D01*
X61991614Y-114261940D01*
X62061940Y-114191614D01*
X62083425Y-114139741D01*
X62283013Y-114339329D01*
X62381769Y-114384881D01*
X62406699Y-114347570D01*
X62406707Y-114347556D01*
X62454058Y-114233241D01*
X62478200Y-114111871D01*
X62478200Y-113988128D01*
X62454058Y-113866758D01*
X62406707Y-113752443D01*
X62406699Y-113752428D01*
X62360458Y-113683225D01*
X62360457Y-113683225D01*
X62083425Y-113960257D01*
X62061940Y-113908386D01*
X61991614Y-113838060D01*
X61939740Y-113816573D01*
X62216773Y-113539541D01*
X62147557Y-113493293D01*
X62033241Y-113445941D01*
X61911871Y-113421800D01*
X61788129Y-113421800D01*
X61666758Y-113445941D01*
X61552439Y-113493294D01*
X61552431Y-113493298D01*
X61483225Y-113539540D01*
X61481249Y-113559607D01*
X61472545Y-113579504D01*
X61511656Y-113581041D01*
X61547972Y-113604288D01*
X61760258Y-113816574D01*
X61708386Y-113838060D01*
X61638060Y-113908386D01*
X61616574Y-113960258D01*
X61411397Y-113755081D01*
X61398887Y-113739837D01*
X61393192Y-113731314D01*
X61376315Y-113671474D01*
X61385592Y-113646325D01*
X61340818Y-113641916D01*
X61309998Y-113620882D01*
X61250774Y-113561658D01*
X61147800Y-113492852D01*
X61147797Y-113492851D01*
X61033387Y-113445461D01*
X60952409Y-113429353D01*
X60911922Y-113421300D01*
X60788078Y-113421300D01*
X60783136Y-113421300D01*
X60783136Y-113419495D01*
X60729611Y-113407738D01*
X60688322Y-113361253D01*
X60679900Y-113320959D01*
X60679900Y-110237066D01*
X60699113Y-110177935D01*
X60749413Y-110141390D01*
X60806534Y-110139894D01*
X60898293Y-110164481D01*
X61030919Y-110164481D01*
X61098519Y-110146367D01*
X61160608Y-110149620D01*
X61195692Y-110172404D01*
X63283115Y-112259827D01*
X63311341Y-112315225D01*
X63312580Y-112330962D01*
X63312580Y-127625264D01*
X63293367Y-127684395D01*
X63243067Y-127720940D01*
X63185947Y-127722437D01*
X63177227Y-127720101D01*
X63177220Y-127720100D01*
X54787295Y-127720100D01*
X54728164Y-127700887D01*
X54691619Y-127650587D01*
X54690123Y-127593462D01*
X54703699Y-127542795D01*
X54703700Y-127542792D01*
X54703700Y-127410167D01*
X54703699Y-127410164D01*
X54696630Y-127383782D01*
X54669373Y-127282059D01*
X54603060Y-127167201D01*
X54509279Y-127073420D01*
X54509276Y-127073418D01*
X54394424Y-127007108D01*
X54394421Y-127007107D01*
X54360099Y-126997910D01*
X54266315Y-126972780D01*
X54266313Y-126972780D01*
X54133687Y-126972780D01*
X54133684Y-126972780D01*
X54005575Y-127007108D01*
X53890723Y-127073418D01*
X53797026Y-127167115D01*
X53741628Y-127195342D01*
X53725891Y-127196580D01*
X52834089Y-127196580D01*
X52774958Y-127177367D01*
X52762954Y-127167115D01*
X52508805Y-126912966D01*
X52480579Y-126857568D01*
X52479340Y-126841831D01*
X52479340Y-111580500D01*
X52498553Y-111521369D01*
X52548853Y-111484824D01*
X52579940Y-111479900D01*
X55036850Y-111479900D01*
X55108037Y-111460825D01*
X55171862Y-111423976D01*
X56679282Y-109916557D01*
X56716130Y-109852732D01*
X56716131Y-109852731D01*
X56735206Y-109781544D01*
X56735206Y-107620998D01*
X56754419Y-107561867D01*
X56764665Y-107549869D01*
X56858366Y-107456169D01*
X56924679Y-107341311D01*
X56959006Y-107213203D01*
X56959006Y-107080577D01*
X56924679Y-106952469D01*
X56858366Y-106837611D01*
X56764585Y-106743830D01*
X56764582Y-106743828D01*
X56649730Y-106677518D01*
X56649727Y-106677517D01*
X56615405Y-106668320D01*
X56521621Y-106643190D01*
X56521619Y-106643190D01*
X56388993Y-106643190D01*
X56388990Y-106643190D01*
X56260881Y-106677518D01*
X56146029Y-106743828D01*
X56146028Y-106743829D01*
X56146027Y-106743830D01*
X56052246Y-106837611D01*
X56052245Y-106837612D01*
X56052244Y-106837613D01*
X55985934Y-106952465D01*
X55951606Y-107080574D01*
X55951606Y-107213205D01*
X55985934Y-107341314D01*
X56036781Y-107429383D01*
X56052246Y-107456169D01*
X56145942Y-107549865D01*
X56174167Y-107605261D01*
X56175406Y-107620998D01*
X56175406Y-109220198D01*
X56156193Y-109279329D01*
X56105893Y-109315874D01*
X56043719Y-109315874D01*
X56003671Y-109291333D01*
X56003061Y-109290723D01*
X56003060Y-109290721D01*
X55909279Y-109196940D01*
X55909276Y-109196938D01*
X55794424Y-109130628D01*
X55794421Y-109130627D01*
X55760099Y-109121430D01*
X55666315Y-109096300D01*
X55666313Y-109096300D01*
X55533687Y-109096300D01*
X55533684Y-109096300D01*
X55405575Y-109130628D01*
X55290723Y-109196938D01*
X55197026Y-109290635D01*
X55141628Y-109318862D01*
X55125891Y-109320100D01*
X53980848Y-109320100D01*
X53921717Y-109300887D01*
X53909713Y-109290635D01*
X52956405Y-108337327D01*
X52928179Y-108281929D01*
X52926940Y-108266192D01*
X52926940Y-108133687D01*
X52926939Y-108133684D01*
X52908887Y-108066315D01*
X52892613Y-108005579D01*
X52826300Y-107890721D01*
X52732519Y-107796940D01*
X52732516Y-107796938D01*
X52617664Y-107730628D01*
X52617661Y-107730627D01*
X52569843Y-107717814D01*
X52489555Y-107696300D01*
X52489553Y-107696300D01*
X52356927Y-107696300D01*
X52356921Y-107696300D01*
X52306257Y-107709876D01*
X52244168Y-107706622D01*
X52195849Y-107667494D01*
X52179620Y-107612704D01*
X52179620Y-106984828D01*
X52198833Y-106925697D01*
X52249133Y-106889152D01*
X52311307Y-106889152D01*
X52351352Y-106913691D01*
X52401934Y-106964273D01*
X52437536Y-106984828D01*
X52516788Y-107030584D01*
X52516789Y-107030584D01*
X52516792Y-107030586D01*
X52644900Y-107064913D01*
X52777526Y-107064913D01*
X52905634Y-107030586D01*
X53020492Y-106964273D01*
X53114273Y-106870492D01*
X53180586Y-106755634D01*
X53214913Y-106627526D01*
X53214913Y-106494900D01*
X53180586Y-106366792D01*
X53171261Y-106350641D01*
X53114274Y-106251936D01*
X53114273Y-106251934D01*
X53020578Y-106158239D01*
X52992351Y-106102841D01*
X52991113Y-106087104D01*
X52991113Y-104106926D01*
X53004590Y-104056628D01*
X53069373Y-103944421D01*
X53103700Y-103816313D01*
X53103700Y-103683687D01*
X53069373Y-103555579D01*
X53051976Y-103525447D01*
X53003061Y-103440723D01*
X53003060Y-103440721D01*
X52909279Y-103346940D01*
X52909276Y-103346938D01*
X52794424Y-103280628D01*
X52794421Y-103280627D01*
X52760099Y-103271430D01*
X52666315Y-103246300D01*
X52666313Y-103246300D01*
X52533687Y-103246300D01*
X52533684Y-103246300D01*
X52405575Y-103280628D01*
X52290723Y-103346938D01*
X52290722Y-103346939D01*
X52290721Y-103346940D01*
X52196940Y-103440721D01*
X52196939Y-103440722D01*
X52196938Y-103440723D01*
X52130628Y-103555575D01*
X52096300Y-103683684D01*
X52096300Y-103816315D01*
X52100955Y-103833687D01*
X52129423Y-103939929D01*
X52130628Y-103944424D01*
X52195408Y-104056626D01*
X52196940Y-104059279D01*
X52290721Y-104153060D01*
X52381012Y-104205189D01*
X52422615Y-104251393D01*
X52431313Y-104292311D01*
X52431313Y-106087104D01*
X52412100Y-106146235D01*
X52401848Y-106158239D01*
X52351355Y-106208732D01*
X52295957Y-106236958D01*
X52234549Y-106227232D01*
X52190585Y-106183268D01*
X52179620Y-106137597D01*
X52179620Y-105947162D01*
X52160545Y-105875975D01*
X52123696Y-105812150D01*
X52071582Y-105760036D01*
X48755005Y-102443459D01*
X48726779Y-102388061D01*
X48725540Y-102372324D01*
X48725540Y-101571953D01*
X49591500Y-101571953D01*
X49591500Y-101749966D01*
X49626228Y-101924562D01*
X49694349Y-102089019D01*
X49694351Y-102089023D01*
X49744135Y-102163529D01*
X49793248Y-102237033D01*
X49793250Y-102237035D01*
X49919125Y-102362910D01*
X50067137Y-102461809D01*
X50149368Y-102495870D01*
X50231597Y-102529931D01*
X50231598Y-102529931D01*
X50231600Y-102529932D01*
X50406193Y-102564660D01*
X50406194Y-102564660D01*
X50584206Y-102564660D01*
X50584207Y-102564660D01*
X50758800Y-102529932D01*
X50923263Y-102461809D01*
X51071275Y-102362910D01*
X51197150Y-102237035D01*
X51296049Y-102089023D01*
X51364172Y-101924560D01*
X51398900Y-101749967D01*
X51398900Y-101571953D01*
X51364172Y-101397360D01*
X51296049Y-101232897D01*
X51197150Y-101084885D01*
X51071275Y-100959010D01*
X51071273Y-100959008D01*
X50978068Y-100896731D01*
X50923263Y-100860111D01*
X50923260Y-100860109D01*
X50923259Y-100860109D01*
X50758802Y-100791988D01*
X50642404Y-100768836D01*
X50584207Y-100757260D01*
X50406193Y-100757260D01*
X50362544Y-100765942D01*
X50231597Y-100791988D01*
X50067140Y-100860109D01*
X49919126Y-100959008D01*
X49919125Y-100959010D01*
X49793250Y-101084885D01*
X49793248Y-101084886D01*
X49694349Y-101232900D01*
X49626228Y-101397357D01*
X49591500Y-101571953D01*
X48725540Y-101571953D01*
X48725540Y-101367167D01*
X48744753Y-101308036D01*
X48754999Y-101296038D01*
X50063513Y-99987523D01*
X50118909Y-99959299D01*
X50173141Y-99965717D01*
X50231600Y-99989932D01*
X50406193Y-100024660D01*
X50406194Y-100024660D01*
X50584206Y-100024660D01*
X50584207Y-100024660D01*
X50758800Y-99989932D01*
X50923263Y-99921809D01*
X51071275Y-99822910D01*
X51197150Y-99697035D01*
X51296049Y-99549023D01*
X51364172Y-99384560D01*
X51398900Y-99209967D01*
X51398900Y-99031953D01*
X51364172Y-98857360D01*
X51296049Y-98692897D01*
X51197150Y-98544885D01*
X51071275Y-98419010D01*
X51071273Y-98419008D01*
X50997769Y-98369895D01*
X50923263Y-98320111D01*
X50923260Y-98320109D01*
X50923259Y-98320109D01*
X50758802Y-98251988D01*
X50642404Y-98228836D01*
X50584207Y-98217260D01*
X50406193Y-98217260D01*
X50362544Y-98225942D01*
X50231597Y-98251988D01*
X50067140Y-98320109D01*
X49919126Y-98419008D01*
X49919125Y-98419010D01*
X49793250Y-98544885D01*
X49793248Y-98544886D01*
X49694349Y-98692900D01*
X49626228Y-98857357D01*
X49591500Y-99031953D01*
X49591500Y-99209966D01*
X49626228Y-99384562D01*
X49673309Y-99498225D01*
X49678187Y-99560208D01*
X49651502Y-99607858D01*
X48597555Y-100661806D01*
X48542157Y-100690032D01*
X48480749Y-100680306D01*
X48436785Y-100636342D01*
X48425820Y-100590671D01*
X48425820Y-88966887D01*
X48445033Y-88907756D01*
X48455279Y-88895758D01*
X50063513Y-87287523D01*
X50118909Y-87259299D01*
X50173141Y-87265717D01*
X50231600Y-87289932D01*
X50406193Y-87324660D01*
X50406194Y-87324660D01*
X50584206Y-87324660D01*
X50584207Y-87324660D01*
X50758800Y-87289932D01*
X50923263Y-87221809D01*
X50982331Y-87182340D01*
X51042169Y-87165465D01*
X51100501Y-87186984D01*
X51135043Y-87238680D01*
X51138820Y-87265987D01*
X51138820Y-88115932D01*
X51119607Y-88175063D01*
X51069307Y-88211608D01*
X51007133Y-88211608D01*
X50982330Y-88199578D01*
X50945640Y-88175063D01*
X50923263Y-88160111D01*
X50923260Y-88160109D01*
X50923259Y-88160109D01*
X50758802Y-88091988D01*
X50642404Y-88068836D01*
X50584207Y-88057260D01*
X50406193Y-88057260D01*
X50362544Y-88065942D01*
X50231597Y-88091988D01*
X50067140Y-88160109D01*
X49919126Y-88259008D01*
X49919125Y-88259010D01*
X49793250Y-88384885D01*
X49793248Y-88384886D01*
X49694349Y-88532900D01*
X49626228Y-88697357D01*
X49591500Y-88871953D01*
X49591500Y-89049966D01*
X49626228Y-89224562D01*
X49678460Y-89350659D01*
X49694351Y-89389023D01*
X49744135Y-89463529D01*
X49793248Y-89537033D01*
X49793250Y-89537035D01*
X49919125Y-89662910D01*
X50067137Y-89761809D01*
X50107867Y-89778680D01*
X50231597Y-89829931D01*
X50231598Y-89829931D01*
X50231600Y-89829932D01*
X50406193Y-89864660D01*
X50406194Y-89864660D01*
X50584206Y-89864660D01*
X50584207Y-89864660D01*
X50758800Y-89829932D01*
X50923263Y-89761809D01*
X50982331Y-89722340D01*
X51042169Y-89705465D01*
X51100501Y-89726984D01*
X51135043Y-89778680D01*
X51138820Y-89805987D01*
X51138820Y-90655932D01*
X51119607Y-90715063D01*
X51069307Y-90751608D01*
X51007133Y-90751608D01*
X50982330Y-90739578D01*
X50945640Y-90715063D01*
X50923263Y-90700111D01*
X50923260Y-90700109D01*
X50923259Y-90700109D01*
X50758802Y-90631988D01*
X50613366Y-90603060D01*
X50584207Y-90597260D01*
X50406193Y-90597260D01*
X50377034Y-90603060D01*
X50231597Y-90631988D01*
X50067140Y-90700109D01*
X49919126Y-90799008D01*
X49919125Y-90799010D01*
X49793250Y-90924885D01*
X49793248Y-90924886D01*
X49694349Y-91072900D01*
X49626228Y-91237357D01*
X49591500Y-91411953D01*
X49591500Y-91589966D01*
X49626228Y-91764562D01*
X49674344Y-91880722D01*
X49694351Y-91929023D01*
X49744135Y-92003529D01*
X49793248Y-92077033D01*
X49919126Y-92202911D01*
X49933977Y-92212834D01*
X50067137Y-92301809D01*
X50107867Y-92318680D01*
X50231597Y-92369931D01*
X50231598Y-92369931D01*
X50231600Y-92369932D01*
X50406193Y-92404660D01*
X50406194Y-92404660D01*
X50584206Y-92404660D01*
X50584207Y-92404660D01*
X50758800Y-92369932D01*
X50923263Y-92301809D01*
X50982331Y-92262340D01*
X51042169Y-92245465D01*
X51100501Y-92266984D01*
X51135043Y-92318680D01*
X51138820Y-92345987D01*
X51138820Y-93195932D01*
X51119607Y-93255063D01*
X51069307Y-93291608D01*
X51007133Y-93291608D01*
X50982330Y-93279578D01*
X50945640Y-93255063D01*
X50923263Y-93240111D01*
X50923260Y-93240109D01*
X50923259Y-93240109D01*
X50758802Y-93171988D01*
X50642404Y-93148836D01*
X50584207Y-93137260D01*
X50406193Y-93137260D01*
X50362544Y-93145942D01*
X50231597Y-93171988D01*
X50067140Y-93240109D01*
X49919126Y-93339008D01*
X49919125Y-93339010D01*
X49793250Y-93464885D01*
X49793248Y-93464886D01*
X49694349Y-93612900D01*
X49626228Y-93777357D01*
X49591500Y-93951953D01*
X49591500Y-94129966D01*
X49626228Y-94304562D01*
X49690314Y-94459278D01*
X49694351Y-94469023D01*
X49744135Y-94543529D01*
X49793248Y-94617033D01*
X49919126Y-94742911D01*
X49955877Y-94767467D01*
X50067137Y-94841809D01*
X50107867Y-94858680D01*
X50231597Y-94909931D01*
X50231598Y-94909931D01*
X50231600Y-94909932D01*
X50406193Y-94944660D01*
X50406194Y-94944660D01*
X50584206Y-94944660D01*
X50584207Y-94944660D01*
X50758800Y-94909932D01*
X50923263Y-94841809D01*
X50982331Y-94802340D01*
X51042169Y-94785465D01*
X51100501Y-94806984D01*
X51135043Y-94858680D01*
X51138820Y-94885987D01*
X51138820Y-95735932D01*
X51119607Y-95795063D01*
X51069307Y-95831608D01*
X51007133Y-95831608D01*
X50982330Y-95819578D01*
X50945640Y-95795063D01*
X50923263Y-95780111D01*
X50923260Y-95780109D01*
X50923259Y-95780109D01*
X50758802Y-95711988D01*
X50642404Y-95688836D01*
X50584207Y-95677260D01*
X50406193Y-95677260D01*
X50363575Y-95685737D01*
X50231597Y-95711988D01*
X50067140Y-95780109D01*
X49919126Y-95879008D01*
X49919125Y-95879010D01*
X49793250Y-96004885D01*
X49793248Y-96004886D01*
X49694349Y-96152900D01*
X49626228Y-96317357D01*
X49591500Y-96491953D01*
X49591500Y-96669967D01*
X49603076Y-96728164D01*
X49626228Y-96844562D01*
X49694349Y-97009019D01*
X49694351Y-97009023D01*
X49744135Y-97083529D01*
X49793248Y-97157033D01*
X49793250Y-97157035D01*
X49919125Y-97282910D01*
X50067137Y-97381809D01*
X50149368Y-97415870D01*
X50231597Y-97449931D01*
X50231598Y-97449931D01*
X50231600Y-97449932D01*
X50406193Y-97484660D01*
X50406194Y-97484660D01*
X50584206Y-97484660D01*
X50584207Y-97484660D01*
X50758800Y-97449932D01*
X50923263Y-97381809D01*
X50982331Y-97342340D01*
X51042169Y-97325465D01*
X51100501Y-97346984D01*
X51135043Y-97398680D01*
X51138820Y-97425987D01*
X51138820Y-97475210D01*
X51157895Y-97546397D01*
X51157896Y-97546398D01*
X51187074Y-97596938D01*
X51194744Y-97610222D01*
X53595258Y-100010736D01*
X53623483Y-100066132D01*
X53624722Y-100081869D01*
X53624722Y-100194737D01*
X53659050Y-100322846D01*
X53710719Y-100412339D01*
X53725362Y-100437701D01*
X53819058Y-100531397D01*
X53847283Y-100586793D01*
X53848522Y-100602530D01*
X53848522Y-103405486D01*
X53829309Y-103464617D01*
X53798227Y-103492605D01*
X53790725Y-103496936D01*
X53790721Y-103496939D01*
X53696940Y-103590721D01*
X53696938Y-103590723D01*
X53630628Y-103705575D01*
X53596300Y-103833684D01*
X53596300Y-103966315D01*
X53630628Y-104094424D01*
X53696938Y-104209276D01*
X53696940Y-104209279D01*
X53790721Y-104303060D01*
X53790723Y-104303061D01*
X53905575Y-104369371D01*
X53905576Y-104369371D01*
X53905579Y-104369373D01*
X54033687Y-104403700D01*
X54166313Y-104403700D01*
X54294421Y-104369373D01*
X54409279Y-104303060D01*
X54503060Y-104209279D01*
X54569373Y-104094421D01*
X54603700Y-103966313D01*
X54603700Y-103833687D01*
X54569373Y-103705579D01*
X54503060Y-103590721D01*
X54503056Y-103590717D01*
X54437787Y-103525447D01*
X54409560Y-103470050D01*
X54408322Y-103454313D01*
X54408322Y-100602530D01*
X54427535Y-100543399D01*
X54437781Y-100531401D01*
X54531482Y-100437701D01*
X54597795Y-100322843D01*
X54632122Y-100194735D01*
X54632122Y-100062109D01*
X54597795Y-99934001D01*
X54581383Y-99905575D01*
X54531483Y-99819145D01*
X54531482Y-99819143D01*
X54437701Y-99725362D01*
X54437698Y-99725360D01*
X54322846Y-99659050D01*
X54322843Y-99659049D01*
X54288521Y-99649852D01*
X54194737Y-99624722D01*
X54194735Y-99624722D01*
X54062109Y-99624722D01*
X54062103Y-99624722D01*
X54057216Y-99625365D01*
X53996084Y-99614030D01*
X53972958Y-99596760D01*
X51728085Y-97351887D01*
X51699859Y-97296489D01*
X51698620Y-97280752D01*
X51698620Y-96937328D01*
X51717833Y-96878197D01*
X51768133Y-96841652D01*
X51830307Y-96841652D01*
X51870355Y-96866193D01*
X54949354Y-99945192D01*
X54977580Y-100000590D01*
X54977959Y-100029455D01*
X54977402Y-100033686D01*
X54977402Y-100166315D01*
X55011730Y-100294424D01*
X55078040Y-100409276D01*
X55078042Y-100409279D01*
X55171823Y-100503060D01*
X55171825Y-100503061D01*
X55286677Y-100569371D01*
X55286678Y-100569371D01*
X55286681Y-100569373D01*
X55414789Y-100603700D01*
X55547415Y-100603700D01*
X55675523Y-100569373D01*
X55790381Y-100503060D01*
X55809969Y-100483471D01*
X55865365Y-100455247D01*
X55926773Y-100464973D01*
X55952233Y-100483470D01*
X55971823Y-100503060D01*
X55971825Y-100503061D01*
X56086677Y-100569371D01*
X56086678Y-100569371D01*
X56086681Y-100569373D01*
X56214789Y-100603700D01*
X56347415Y-100603700D01*
X56475523Y-100569373D01*
X56590381Y-100503060D01*
X56684162Y-100409279D01*
X56750475Y-100294421D01*
X56784802Y-100166313D01*
X56784802Y-100033687D01*
X56750475Y-99905579D01*
X56684162Y-99790721D01*
X56590381Y-99696940D01*
X56590378Y-99696938D01*
X56475526Y-99630628D01*
X56475523Y-99630627D01*
X56441201Y-99621430D01*
X56347417Y-99596300D01*
X56347415Y-99596300D01*
X56224360Y-99596300D01*
X56165229Y-99577087D01*
X56153225Y-99566835D01*
X52327525Y-95741135D01*
X52299299Y-95685737D01*
X52298060Y-95670000D01*
X52298060Y-94036768D01*
X52317273Y-93977637D01*
X52367573Y-93941092D01*
X52429747Y-93941092D01*
X52469795Y-93965633D01*
X52633355Y-94129193D01*
X52661581Y-94184591D01*
X52662820Y-94200328D01*
X52662820Y-94216315D01*
X52697148Y-94344424D01*
X52763458Y-94459276D01*
X52763460Y-94459279D01*
X52857241Y-94553060D01*
X52857243Y-94553061D01*
X52972095Y-94619371D01*
X52972096Y-94619371D01*
X52972099Y-94619373D01*
X53100207Y-94653700D01*
X53232833Y-94653700D01*
X53360941Y-94619373D01*
X53475799Y-94553060D01*
X53569580Y-94459279D01*
X53635893Y-94344421D01*
X53670220Y-94216313D01*
X53670220Y-94083687D01*
X53635893Y-93955579D01*
X53569580Y-93840721D01*
X53475799Y-93746940D01*
X53469474Y-93743288D01*
X53360944Y-93680628D01*
X53360941Y-93680627D01*
X53326619Y-93671430D01*
X53232835Y-93646300D01*
X53232833Y-93646300D01*
X53100207Y-93646300D01*
X53100202Y-93646300D01*
X53031644Y-93664671D01*
X52969555Y-93661417D01*
X52934472Y-93638634D01*
X52627245Y-93331407D01*
X52599019Y-93276009D01*
X52597780Y-93260272D01*
X52597780Y-79883916D01*
X52597779Y-79883913D01*
X52578705Y-79812729D01*
X52578704Y-79812727D01*
X52541855Y-79748903D01*
X50096897Y-77303945D01*
X50068671Y-77248547D01*
X50078397Y-77187139D01*
X50122361Y-77143175D01*
X50183769Y-77133449D01*
X50206530Y-77139867D01*
X50231600Y-77150252D01*
X50406193Y-77184980D01*
X50406194Y-77184980D01*
X50584206Y-77184980D01*
X50584207Y-77184980D01*
X50758800Y-77150252D01*
X50923263Y-77082129D01*
X51071275Y-76983230D01*
X51197150Y-76857355D01*
X51296049Y-76709343D01*
X51323280Y-76643602D01*
X51363659Y-76596324D01*
X51416222Y-76581500D01*
X57201777Y-76581500D01*
X57204389Y-76582348D01*
G37*
%TD.AperFunction*%
%TA.AperFunction,Conductor*%
G36*
X64840164Y-76589943D02*
G01*
X64866741Y-76596324D01*
X64869449Y-76599458D01*
X64873309Y-76600713D01*
X64902281Y-76637464D01*
X64906680Y-76642556D01*
X64906907Y-76643089D01*
X64934351Y-76709343D01*
X64936792Y-76712996D01*
X65033248Y-76857353D01*
X65159126Y-76983231D01*
X65177451Y-76995475D01*
X65307137Y-77082129D01*
X65377159Y-77111133D01*
X65471597Y-77150251D01*
X65471598Y-77150251D01*
X65471600Y-77150252D01*
X65646193Y-77184980D01*
X65646194Y-77184980D01*
X65824206Y-77184980D01*
X65824207Y-77184980D01*
X65998800Y-77150252D01*
X66163263Y-77082129D01*
X66311275Y-76983230D01*
X66370165Y-76924340D01*
X66425563Y-76896114D01*
X66486971Y-76905840D01*
X66530935Y-76949804D01*
X66541900Y-76995475D01*
X66541900Y-80548749D01*
X66522687Y-80607880D01*
X66512435Y-80619884D01*
X66473427Y-80658892D01*
X66418029Y-80687118D01*
X66356621Y-80677392D01*
X66331157Y-80658892D01*
X66311273Y-80639008D01*
X66237769Y-80589895D01*
X66163263Y-80540111D01*
X66163260Y-80540109D01*
X66163259Y-80540109D01*
X65998802Y-80471988D01*
X65882404Y-80448836D01*
X65824207Y-80437260D01*
X65646193Y-80437260D01*
X65602544Y-80445942D01*
X65471597Y-80471988D01*
X65307140Y-80540109D01*
X65159126Y-80639008D01*
X65159125Y-80639010D01*
X65033250Y-80764885D01*
X65033248Y-80764886D01*
X64934349Y-80912900D01*
X64866228Y-81077357D01*
X64831500Y-81251953D01*
X64831500Y-81429966D01*
X64866228Y-81604560D01*
X64892736Y-81668555D01*
X64897615Y-81730538D01*
X64870929Y-81778189D01*
X63739947Y-82909172D01*
X63678374Y-82970744D01*
X63634834Y-83046156D01*
X63634833Y-83046158D01*
X63612301Y-83130255D01*
X63612300Y-83130263D01*
X63612300Y-93718017D01*
X63612301Y-93718025D01*
X63634833Y-93802122D01*
X63634834Y-93802124D01*
X63678374Y-93877536D01*
X63745676Y-93944838D01*
X63745682Y-93944843D01*
X65061375Y-95260536D01*
X65061380Y-95260542D01*
X65064893Y-95264055D01*
X65126464Y-95325626D01*
X65139974Y-95333426D01*
X65201875Y-95369165D01*
X65201877Y-95369166D01*
X65276034Y-95389034D01*
X65285981Y-95391700D01*
X65285982Y-95391700D01*
X65373056Y-95391700D01*
X65882350Y-95391700D01*
X65941481Y-95410913D01*
X65953485Y-95421165D01*
X66070767Y-95538447D01*
X66098993Y-95593845D01*
X66089267Y-95655253D01*
X66045303Y-95699217D01*
X65983895Y-95708943D01*
X65980007Y-95708249D01*
X65824208Y-95677260D01*
X65824207Y-95677260D01*
X65646193Y-95677260D01*
X65603575Y-95685737D01*
X65471597Y-95711988D01*
X65307140Y-95780109D01*
X65159126Y-95879008D01*
X65159125Y-95879010D01*
X65033250Y-96004885D01*
X65033248Y-96004886D01*
X64934349Y-96152900D01*
X64866228Y-96317357D01*
X64831500Y-96491953D01*
X64831500Y-96669967D01*
X64843076Y-96728164D01*
X64866228Y-96844562D01*
X64934349Y-97009019D01*
X64934351Y-97009023D01*
X64984135Y-97083529D01*
X65033248Y-97157033D01*
X65033250Y-97157035D01*
X65159125Y-97282910D01*
X65307137Y-97381809D01*
X65389368Y-97415870D01*
X65471597Y-97449931D01*
X65471598Y-97449931D01*
X65471600Y-97449932D01*
X65646193Y-97484660D01*
X65646194Y-97484660D01*
X65824206Y-97484660D01*
X65824207Y-97484660D01*
X65998800Y-97449932D01*
X66163263Y-97381809D01*
X66311275Y-97282910D01*
X66370165Y-97224020D01*
X66425563Y-97195794D01*
X66486971Y-97205520D01*
X66530935Y-97249484D01*
X66541900Y-97295155D01*
X66541900Y-98406765D01*
X66522687Y-98465896D01*
X66472387Y-98502441D01*
X66410213Y-98502441D01*
X66370165Y-98477900D01*
X66311273Y-98419008D01*
X66237769Y-98369895D01*
X66163263Y-98320111D01*
X66163260Y-98320109D01*
X66163259Y-98320109D01*
X65998802Y-98251988D01*
X65882404Y-98228836D01*
X65824207Y-98217260D01*
X65646193Y-98217260D01*
X65602544Y-98225942D01*
X65471597Y-98251988D01*
X65307140Y-98320109D01*
X65159126Y-98419008D01*
X65159125Y-98419010D01*
X65033250Y-98544885D01*
X65033248Y-98544886D01*
X64934349Y-98692900D01*
X64866228Y-98857357D01*
X64831500Y-99031953D01*
X64831500Y-99209966D01*
X64866228Y-99384562D01*
X64934349Y-99549019D01*
X64934351Y-99549023D01*
X64940755Y-99558607D01*
X65033248Y-99697033D01*
X65033250Y-99697035D01*
X65159125Y-99822910D01*
X65307137Y-99921809D01*
X65389368Y-99955870D01*
X65471597Y-99989931D01*
X65471598Y-99989931D01*
X65471600Y-99989932D01*
X65646193Y-100024660D01*
X65646194Y-100024660D01*
X65824206Y-100024660D01*
X65824207Y-100024660D01*
X65998800Y-99989932D01*
X66163263Y-99921809D01*
X66311275Y-99822910D01*
X66370165Y-99764020D01*
X66425563Y-99735794D01*
X66486971Y-99745520D01*
X66530935Y-99789484D01*
X66541900Y-99835155D01*
X66541900Y-100946765D01*
X66522687Y-101005896D01*
X66472387Y-101042441D01*
X66410213Y-101042441D01*
X66370165Y-101017900D01*
X66311273Y-100959008D01*
X66218068Y-100896731D01*
X66163263Y-100860111D01*
X66163260Y-100860109D01*
X66163259Y-100860109D01*
X65998802Y-100791988D01*
X65882404Y-100768836D01*
X65824207Y-100757260D01*
X65646193Y-100757260D01*
X65602544Y-100765942D01*
X65471597Y-100791988D01*
X65307140Y-100860109D01*
X65159126Y-100959008D01*
X65159125Y-100959010D01*
X65033250Y-101084885D01*
X65033248Y-101084886D01*
X64934349Y-101232900D01*
X64866228Y-101397357D01*
X64831500Y-101571953D01*
X64831500Y-101749966D01*
X64866228Y-101924562D01*
X64934349Y-102089019D01*
X64934351Y-102089023D01*
X64984135Y-102163529D01*
X65033248Y-102237033D01*
X65033250Y-102237035D01*
X65159125Y-102362910D01*
X65307137Y-102461809D01*
X65389368Y-102495870D01*
X65471597Y-102529931D01*
X65471598Y-102529931D01*
X65471600Y-102529932D01*
X65646193Y-102564660D01*
X65646194Y-102564660D01*
X65824206Y-102564660D01*
X65824207Y-102564660D01*
X65998800Y-102529932D01*
X66163263Y-102461809D01*
X66311275Y-102362910D01*
X66370165Y-102304020D01*
X66425563Y-102275794D01*
X66486971Y-102285520D01*
X66530935Y-102329484D01*
X66541900Y-102375155D01*
X66541900Y-105348748D01*
X66522687Y-105407879D01*
X66512435Y-105419883D01*
X66104207Y-105828110D01*
X66048809Y-105856336D01*
X66004147Y-105851064D01*
X66003529Y-105853102D01*
X65998803Y-105851668D01*
X65863894Y-105824834D01*
X65824207Y-105816940D01*
X65646193Y-105816940D01*
X65606506Y-105824834D01*
X65471597Y-105851668D01*
X65307140Y-105919789D01*
X65159126Y-106018688D01*
X65159125Y-106018690D01*
X65033250Y-106144565D01*
X65033248Y-106144566D01*
X64934349Y-106292580D01*
X64866228Y-106457037D01*
X64841181Y-106582959D01*
X64810801Y-106637206D01*
X64754338Y-106663236D01*
X64716478Y-106660505D01*
X64647071Y-106641907D01*
X64589835Y-106626570D01*
X64589833Y-106626570D01*
X64457207Y-106626570D01*
X64457204Y-106626570D01*
X64329095Y-106660898D01*
X64214243Y-106727208D01*
X64120546Y-106820905D01*
X64065148Y-106849132D01*
X64049411Y-106850370D01*
X61604378Y-106850370D01*
X61545247Y-106831157D01*
X61543282Y-106829693D01*
X61537975Y-106825636D01*
X61509279Y-106796940D01*
X61473146Y-106776079D01*
X61467982Y-106772131D01*
X61453838Y-106751632D01*
X61437175Y-106733125D01*
X61436475Y-106726466D01*
X61432673Y-106720956D01*
X61433279Y-106696056D01*
X61430677Y-106671291D01*
X61434099Y-106662373D01*
X61434187Y-106658800D01*
X61436767Y-106655424D01*
X61441953Y-106641912D01*
X61469373Y-106594421D01*
X61503700Y-106466313D01*
X61503700Y-106333687D01*
X61469373Y-106205579D01*
X61441956Y-106158091D01*
X61429029Y-106097276D01*
X61454318Y-106040477D01*
X61462718Y-106032182D01*
X61470176Y-106025635D01*
X61509279Y-106003060D01*
X61603060Y-105909279D01*
X61603379Y-105908726D01*
X61607749Y-105904891D01*
X61633443Y-105893839D01*
X61658372Y-105881138D01*
X61664006Y-105880694D01*
X61664864Y-105880326D01*
X61665853Y-105880549D01*
X61674109Y-105879900D01*
X63725891Y-105879900D01*
X63785022Y-105899113D01*
X63797026Y-105909365D01*
X63890721Y-106003060D01*
X63922582Y-106021455D01*
X64005575Y-106069371D01*
X64005576Y-106069371D01*
X64005579Y-106069373D01*
X64133687Y-106103700D01*
X64266313Y-106103700D01*
X64394421Y-106069373D01*
X64509279Y-106003060D01*
X64603060Y-105909279D01*
X64669373Y-105794421D01*
X64703700Y-105666313D01*
X64703700Y-105533687D01*
X64669373Y-105405579D01*
X64660620Y-105390419D01*
X64603061Y-105290723D01*
X64603060Y-105290721D01*
X64509279Y-105196940D01*
X64509276Y-105196938D01*
X64394424Y-105130628D01*
X64394421Y-105130627D01*
X64360099Y-105121430D01*
X64266315Y-105096300D01*
X64266313Y-105096300D01*
X64133687Y-105096300D01*
X64133684Y-105096300D01*
X64005575Y-105130628D01*
X63890723Y-105196938D01*
X63797026Y-105290635D01*
X63741628Y-105318862D01*
X63725891Y-105320100D01*
X61674109Y-105320100D01*
X61614978Y-105300887D01*
X61602974Y-105290635D01*
X61509279Y-105196940D01*
X61509276Y-105196938D01*
X61394424Y-105130628D01*
X61394421Y-105130627D01*
X61360099Y-105121430D01*
X61266315Y-105096300D01*
X61266313Y-105096300D01*
X61133687Y-105096300D01*
X61133684Y-105096300D01*
X61005575Y-105130628D01*
X60890723Y-105196938D01*
X60890722Y-105196939D01*
X60890721Y-105196940D01*
X60796940Y-105290721D01*
X60796939Y-105290722D01*
X60796938Y-105290723D01*
X60730628Y-105405575D01*
X60696300Y-105533684D01*
X60696300Y-105666315D01*
X60730628Y-105794424D01*
X60758043Y-105841908D01*
X60770970Y-105902724D01*
X60745681Y-105959523D01*
X60721223Y-105979329D01*
X60690723Y-105996938D01*
X60690722Y-105996939D01*
X60690721Y-105996940D01*
X60596940Y-106090721D01*
X60596938Y-106090723D01*
X60592278Y-106095384D01*
X60591386Y-106094492D01*
X60545764Y-106125836D01*
X60483611Y-106124198D01*
X60434292Y-106086340D01*
X60430087Y-106079674D01*
X60424140Y-106069373D01*
X60396474Y-106021454D01*
X60302693Y-105927673D01*
X60289041Y-105919791D01*
X60187838Y-105861361D01*
X60187835Y-105861360D01*
X60151665Y-105851668D01*
X60059729Y-105827033D01*
X60059727Y-105827033D01*
X59927101Y-105827033D01*
X59927097Y-105827033D01*
X59806538Y-105859338D01*
X59744449Y-105856084D01*
X59696130Y-105816957D01*
X59679900Y-105762166D01*
X59679900Y-103533684D01*
X61696300Y-103533684D01*
X61696300Y-103666315D01*
X61730628Y-103794424D01*
X61743266Y-103816313D01*
X61796940Y-103909279D01*
X61890721Y-104003060D01*
X61890723Y-104003061D01*
X62005575Y-104069371D01*
X62005576Y-104069371D01*
X62005579Y-104069373D01*
X62133687Y-104103700D01*
X62266313Y-104103700D01*
X62394421Y-104069373D01*
X62509279Y-104003060D01*
X62603060Y-103909279D01*
X62669373Y-103794421D01*
X62703700Y-103666313D01*
X62703700Y-103533807D01*
X62722913Y-103474676D01*
X62733165Y-103462672D01*
X63018545Y-103177292D01*
X63423976Y-102771862D01*
X63460825Y-102708037D01*
X63479900Y-102636850D01*
X63479900Y-102563150D01*
X63479900Y-98289745D01*
X63493377Y-98239446D01*
X63519373Y-98194421D01*
X63553700Y-98066313D01*
X63553700Y-97933687D01*
X63519373Y-97805579D01*
X63453060Y-97690721D01*
X63359279Y-97596940D01*
X63359276Y-97596938D01*
X63244424Y-97530628D01*
X63244421Y-97530627D01*
X63210099Y-97521430D01*
X63116315Y-97496300D01*
X63116313Y-97496300D01*
X62983687Y-97496300D01*
X62983684Y-97496300D01*
X62855575Y-97530628D01*
X62740723Y-97596938D01*
X62740722Y-97596939D01*
X62740721Y-97596940D01*
X62646940Y-97690721D01*
X62646939Y-97690722D01*
X62646938Y-97690723D01*
X62580628Y-97805575D01*
X62546300Y-97933684D01*
X62546300Y-98066315D01*
X62580628Y-98194424D01*
X62635662Y-98289745D01*
X62646940Y-98309279D01*
X62740721Y-98403060D01*
X62855579Y-98469373D01*
X62855581Y-98469373D01*
X62857998Y-98470375D01*
X62859423Y-98471592D01*
X62861290Y-98472670D01*
X62861090Y-98473016D01*
X62905276Y-98510754D01*
X62920100Y-98563317D01*
X62920100Y-102442391D01*
X62900887Y-102501522D01*
X62890635Y-102513526D01*
X62337326Y-103066835D01*
X62281928Y-103095061D01*
X62266191Y-103096300D01*
X62133684Y-103096300D01*
X62005575Y-103130628D01*
X61890723Y-103196938D01*
X61890722Y-103196939D01*
X61890721Y-103196940D01*
X61796940Y-103290721D01*
X61796939Y-103290722D01*
X61796938Y-103290723D01*
X61730628Y-103405575D01*
X61696300Y-103533684D01*
X59679900Y-103533684D01*
X59679900Y-101957607D01*
X59699113Y-101898476D01*
X59709359Y-101886477D01*
X59862672Y-101733164D01*
X59918070Y-101704939D01*
X59933807Y-101703700D01*
X60070935Y-101703700D01*
X60199043Y-101669373D01*
X60313901Y-101603060D01*
X60407682Y-101509279D01*
X60473995Y-101394421D01*
X60508322Y-101266313D01*
X60508322Y-101176545D01*
X60904200Y-101176545D01*
X60904200Y-101323455D01*
X60906040Y-101332704D01*
X60932860Y-101467544D01*
X60989078Y-101603265D01*
X60989080Y-101603269D01*
X61005697Y-101628138D01*
X61070697Y-101725418D01*
X61070699Y-101725420D01*
X61174580Y-101829301D01*
X61296731Y-101910920D01*
X61308846Y-101915938D01*
X61432455Y-101967139D01*
X61432456Y-101967139D01*
X61432458Y-101967140D01*
X61576545Y-101995800D01*
X61723455Y-101995800D01*
X61867542Y-101967140D01*
X62003269Y-101910920D01*
X62125420Y-101829301D01*
X62229301Y-101725420D01*
X62310920Y-101603269D01*
X62367140Y-101467542D01*
X62395800Y-101323455D01*
X62395800Y-101176545D01*
X62367140Y-101032458D01*
X62310920Y-100896731D01*
X62229301Y-100774580D01*
X62125420Y-100670699D01*
X62125418Y-100670697D01*
X62025149Y-100603700D01*
X62003269Y-100589080D01*
X62003266Y-100589078D01*
X62003265Y-100589078D01*
X61867544Y-100532860D01*
X61723455Y-100504200D01*
X61576545Y-100504200D01*
X61432455Y-100532860D01*
X61296734Y-100589078D01*
X61174581Y-100670697D01*
X61174580Y-100670699D01*
X61070699Y-100774580D01*
X61070697Y-100774581D01*
X60989078Y-100896734D01*
X60932860Y-101032455D01*
X60912725Y-101133684D01*
X60904200Y-101176545D01*
X60508322Y-101176545D01*
X60508322Y-101133687D01*
X60473995Y-101005579D01*
X60447108Y-100959010D01*
X60429786Y-100929007D01*
X60407682Y-100890721D01*
X60313901Y-100796940D01*
X60305324Y-100791988D01*
X60199046Y-100730628D01*
X60199043Y-100730627D01*
X60164721Y-100721430D01*
X60070937Y-100696300D01*
X60070935Y-100696300D01*
X59938309Y-100696300D01*
X59938306Y-100696300D01*
X59810197Y-100730628D01*
X59695345Y-100796938D01*
X59695344Y-100796939D01*
X59695343Y-100796940D01*
X59601562Y-100890721D01*
X59601561Y-100890722D01*
X59601560Y-100890723D01*
X59535250Y-101005575D01*
X59500922Y-101133684D01*
X59500922Y-101261569D01*
X59481709Y-101320700D01*
X59471457Y-101332704D01*
X59251635Y-101552526D01*
X59196237Y-101580752D01*
X59134829Y-101571026D01*
X59090865Y-101527062D01*
X59079900Y-101481391D01*
X59079900Y-96096545D01*
X59888200Y-96096545D01*
X59888200Y-96243454D01*
X59916860Y-96387544D01*
X59960108Y-96491953D01*
X59973080Y-96523269D01*
X60014165Y-96584756D01*
X60054697Y-96645418D01*
X60054699Y-96645420D01*
X60158580Y-96749301D01*
X60280731Y-96830920D01*
X60313661Y-96844560D01*
X60416455Y-96887139D01*
X60416456Y-96887139D01*
X60416458Y-96887140D01*
X60560545Y-96915800D01*
X60707455Y-96915800D01*
X60851542Y-96887140D01*
X60987269Y-96830920D01*
X61109420Y-96749301D01*
X61213301Y-96645420D01*
X61294920Y-96523269D01*
X61351140Y-96387542D01*
X61379800Y-96243455D01*
X61379800Y-96096545D01*
X61920200Y-96096545D01*
X61920200Y-96243454D01*
X61948860Y-96387544D01*
X61992108Y-96491953D01*
X62005080Y-96523269D01*
X62046165Y-96584756D01*
X62086697Y-96645418D01*
X62086699Y-96645420D01*
X62190580Y-96749301D01*
X62312731Y-96830920D01*
X62345661Y-96844560D01*
X62448455Y-96887139D01*
X62448456Y-96887139D01*
X62448458Y-96887140D01*
X62592545Y-96915800D01*
X62739455Y-96915800D01*
X62883542Y-96887140D01*
X63019269Y-96830920D01*
X63141420Y-96749301D01*
X63245301Y-96645420D01*
X63326920Y-96523269D01*
X63383140Y-96387542D01*
X63411800Y-96243455D01*
X63411800Y-96096545D01*
X63383140Y-95952458D01*
X63326920Y-95816731D01*
X63254898Y-95708943D01*
X63245302Y-95694581D01*
X63141418Y-95590697D01*
X63080756Y-95550165D01*
X63019269Y-95509080D01*
X63019266Y-95509078D01*
X63019265Y-95509078D01*
X62883544Y-95452860D01*
X62739455Y-95424200D01*
X62592545Y-95424200D01*
X62448455Y-95452860D01*
X62312734Y-95509078D01*
X62190581Y-95590697D01*
X62190580Y-95590699D01*
X62086699Y-95694580D01*
X62086697Y-95694581D01*
X62005078Y-95816734D01*
X61948860Y-95952455D01*
X61920200Y-96096545D01*
X61379800Y-96096545D01*
X61351140Y-95952458D01*
X61294920Y-95816731D01*
X61222898Y-95708943D01*
X61213302Y-95694581D01*
X61109418Y-95590697D01*
X61048756Y-95550165D01*
X60987269Y-95509080D01*
X60987266Y-95509078D01*
X60987265Y-95509078D01*
X60851544Y-95452860D01*
X60707455Y-95424200D01*
X60560545Y-95424200D01*
X60416455Y-95452860D01*
X60280734Y-95509078D01*
X60158581Y-95590697D01*
X60158580Y-95590699D01*
X60054699Y-95694580D01*
X60054697Y-95694581D01*
X59973078Y-95816734D01*
X59916860Y-95952455D01*
X59888200Y-96096545D01*
X59079900Y-96096545D01*
X59079900Y-90133684D01*
X60896300Y-90133684D01*
X60896300Y-90266315D01*
X60930628Y-90394424D01*
X60996938Y-90509276D01*
X60996940Y-90509279D01*
X61090721Y-90603060D01*
X61090723Y-90603061D01*
X61205575Y-90669371D01*
X61205576Y-90669371D01*
X61205579Y-90669373D01*
X61333687Y-90703700D01*
X61466313Y-90703700D01*
X61594421Y-90669373D01*
X61709279Y-90603060D01*
X61803060Y-90509279D01*
X61869373Y-90394421D01*
X61903700Y-90266313D01*
X61903700Y-90133687D01*
X61869373Y-90005579D01*
X61803060Y-89890721D01*
X61709365Y-89797026D01*
X61681138Y-89741628D01*
X61679900Y-89725891D01*
X61679900Y-87793424D01*
X61699113Y-87734293D01*
X61730202Y-87706301D01*
X61772879Y-87681662D01*
X61772880Y-87681661D01*
X61772879Y-87681661D01*
X61772882Y-87681660D01*
X61866663Y-87587879D01*
X61932976Y-87473021D01*
X61967303Y-87344913D01*
X61967303Y-87212287D01*
X61932976Y-87084179D01*
X61866663Y-86969321D01*
X61772882Y-86875540D01*
X61768048Y-86872749D01*
X61658027Y-86809228D01*
X61658024Y-86809227D01*
X61616965Y-86798225D01*
X61529918Y-86774900D01*
X61529916Y-86774900D01*
X61397290Y-86774900D01*
X61397287Y-86774900D01*
X61269178Y-86809228D01*
X61154326Y-86875538D01*
X61154325Y-86875539D01*
X61154324Y-86875540D01*
X61060543Y-86969321D01*
X61060542Y-86969322D01*
X61060541Y-86969323D01*
X60994231Y-87084175D01*
X60959903Y-87212284D01*
X60959903Y-87344915D01*
X60994231Y-87473024D01*
X61059971Y-87586888D01*
X61060543Y-87587879D01*
X61090636Y-87617972D01*
X61118861Y-87673368D01*
X61120100Y-87689105D01*
X61120100Y-89725891D01*
X61100887Y-89785022D01*
X61090635Y-89797026D01*
X60996938Y-89890723D01*
X60930628Y-90005575D01*
X60896300Y-90133684D01*
X59079900Y-90133684D01*
X59079900Y-86987565D01*
X59099113Y-86928434D01*
X59149413Y-86891889D01*
X59211587Y-86891889D01*
X59230791Y-86900438D01*
X59282059Y-86930038D01*
X59410167Y-86964365D01*
X59542793Y-86964365D01*
X59670901Y-86930038D01*
X59785759Y-86863725D01*
X59879540Y-86769944D01*
X59945853Y-86655086D01*
X59980180Y-86526978D01*
X59980180Y-86404881D01*
X59999393Y-86345750D01*
X60009645Y-86333746D01*
X60899011Y-85444380D01*
X61850013Y-84493379D01*
X61886862Y-84429555D01*
X61905937Y-84358367D01*
X61905937Y-84284667D01*
X61905937Y-78951060D01*
X61925150Y-78891929D01*
X61956235Y-78863939D01*
X62061682Y-78803060D01*
X62155463Y-78709279D01*
X62221776Y-78594421D01*
X62256103Y-78466313D01*
X62256103Y-78333687D01*
X62221776Y-78205579D01*
X62155463Y-78090721D01*
X62061682Y-77996940D01*
X62061679Y-77996938D01*
X61946827Y-77930628D01*
X61946824Y-77930627D01*
X61912502Y-77921430D01*
X61818718Y-77896300D01*
X61818716Y-77896300D01*
X61686090Y-77896300D01*
X61686087Y-77896300D01*
X61557978Y-77930628D01*
X61443123Y-77996940D01*
X61437890Y-78000956D01*
X61436018Y-77998516D01*
X61391828Y-78020971D01*
X61330430Y-78011177D01*
X61315171Y-78000090D01*
X61314509Y-78000954D01*
X61309276Y-77996938D01*
X61194424Y-77930628D01*
X61194421Y-77930627D01*
X61160099Y-77921430D01*
X61066315Y-77896300D01*
X61066313Y-77896300D01*
X60933687Y-77896300D01*
X60933684Y-77896300D01*
X60805575Y-77930628D01*
X60690723Y-77996938D01*
X60690722Y-77996939D01*
X60690721Y-77996940D01*
X60596940Y-78090721D01*
X60596939Y-78090722D01*
X60596938Y-78090723D01*
X60530628Y-78205575D01*
X60496300Y-78333684D01*
X60496300Y-78466315D01*
X60530628Y-78594424D01*
X60560479Y-78646127D01*
X60596940Y-78709279D01*
X60690636Y-78802975D01*
X60718861Y-78858371D01*
X60720100Y-78874108D01*
X60720100Y-84042391D01*
X60700887Y-84101522D01*
X60690635Y-84113526D01*
X59802341Y-85001820D01*
X59746943Y-85030046D01*
X59731206Y-85031285D01*
X59598699Y-85031285D01*
X59470590Y-85065613D01*
X59355738Y-85131923D01*
X59355737Y-85131924D01*
X59355736Y-85131925D01*
X59264077Y-85223584D01*
X59261955Y-85225706D01*
X59260309Y-85227852D01*
X59258713Y-85228948D01*
X59257293Y-85230369D01*
X59257029Y-85230105D01*
X59209068Y-85263065D01*
X59146915Y-85261435D01*
X59097590Y-85223584D01*
X59079900Y-85166607D01*
X59079900Y-77648181D01*
X59099113Y-77589050D01*
X59109359Y-77577052D01*
X59440266Y-77246146D01*
X59477115Y-77182321D01*
X59496190Y-77111134D01*
X59496190Y-77037434D01*
X59496190Y-76837905D01*
X59515403Y-76778774D01*
X59565703Y-76742229D01*
X59627877Y-76742229D01*
X59647085Y-76750781D01*
X59682059Y-76770973D01*
X59810167Y-76805300D01*
X59942793Y-76805300D01*
X60070901Y-76770973D01*
X60185759Y-76704660D01*
X60279454Y-76610965D01*
X60334852Y-76582738D01*
X60350589Y-76581500D01*
X64814178Y-76581500D01*
X64840164Y-76589943D01*
G37*
%TD.AperFunction*%
%TA.AperFunction,Conductor*%
G36*
X58772030Y-57704285D02*
G01*
X58787420Y-57706723D01*
X58810834Y-57723733D01*
X58811934Y-57724285D01*
X58812392Y-57724731D01*
X58890721Y-57803060D01*
X58895895Y-57806047D01*
X59005575Y-57869371D01*
X59005576Y-57869371D01*
X59005579Y-57869373D01*
X59133687Y-57903700D01*
X59257592Y-57903700D01*
X59316723Y-57922913D01*
X59353268Y-57973213D01*
X59353268Y-58035387D01*
X59328727Y-58075435D01*
X57587956Y-59816206D01*
X57551110Y-59880027D01*
X57551109Y-59880029D01*
X57532034Y-59951216D01*
X57532034Y-66115454D01*
X57532034Y-66189154D01*
X57551109Y-66260341D01*
X57587958Y-66324166D01*
X57992756Y-66728964D01*
X58020981Y-66784360D01*
X58022220Y-66800097D01*
X58022220Y-75912704D01*
X58003007Y-75971835D01*
X57952707Y-76008380D01*
X57895583Y-76009876D01*
X57844918Y-75996300D01*
X57844913Y-75996300D01*
X57712287Y-75996300D01*
X57712284Y-75996300D01*
X57667203Y-76008380D01*
X57630284Y-76018272D01*
X57604249Y-76021700D01*
X51433056Y-76021700D01*
X51373925Y-76002487D01*
X51340114Y-75959598D01*
X51296050Y-75853220D01*
X51296049Y-75853217D01*
X51197150Y-75705205D01*
X51071275Y-75579330D01*
X51071273Y-75579328D01*
X50997769Y-75530215D01*
X50923263Y-75480431D01*
X50923260Y-75480429D01*
X50923259Y-75480429D01*
X50758802Y-75412308D01*
X50642404Y-75389156D01*
X50584207Y-75377580D01*
X50406193Y-75377580D01*
X50362544Y-75386262D01*
X50231597Y-75412308D01*
X50067140Y-75480429D01*
X49919126Y-75579328D01*
X49919125Y-75579330D01*
X49793250Y-75705205D01*
X49793248Y-75705206D01*
X49694349Y-75853220D01*
X49626228Y-76017677D01*
X49591500Y-76192273D01*
X49591500Y-76370286D01*
X49626227Y-76544880D01*
X49636612Y-76569950D01*
X49641489Y-76631932D01*
X49609003Y-76684944D01*
X49551561Y-76708737D01*
X49491105Y-76694222D01*
X49472534Y-76679582D01*
X49354445Y-76561493D01*
X49326219Y-76506095D01*
X49324980Y-76490358D01*
X49324980Y-73230088D01*
X49344193Y-73170957D01*
X49394493Y-73134412D01*
X49456667Y-73134412D01*
X49496715Y-73158953D01*
X49634116Y-73296354D01*
X49662342Y-73351752D01*
X49655924Y-73405986D01*
X49626227Y-73477679D01*
X49591500Y-73652273D01*
X49591500Y-73830286D01*
X49626228Y-74004882D01*
X49694349Y-74169339D01*
X49694351Y-74169343D01*
X49744135Y-74243849D01*
X49793248Y-74317353D01*
X49793250Y-74317355D01*
X49919125Y-74443230D01*
X50067137Y-74542129D01*
X50149368Y-74576190D01*
X50231597Y-74610251D01*
X50231598Y-74610251D01*
X50231600Y-74610252D01*
X50406193Y-74644980D01*
X50406194Y-74644980D01*
X50584206Y-74644980D01*
X50584207Y-74644980D01*
X50758800Y-74610252D01*
X50923263Y-74542129D01*
X51071275Y-74443230D01*
X51197150Y-74317355D01*
X51296049Y-74169343D01*
X51364172Y-74004880D01*
X51398900Y-73830287D01*
X51398900Y-73652273D01*
X51364172Y-73477680D01*
X51296049Y-73313217D01*
X51221707Y-73201957D01*
X51197151Y-73165206D01*
X51071273Y-73039328D01*
X50993284Y-72987218D01*
X50923263Y-72940431D01*
X50923260Y-72940429D01*
X50923259Y-72940429D01*
X50758802Y-72872308D01*
X50642404Y-72849156D01*
X50584207Y-72837580D01*
X50406193Y-72837580D01*
X50362544Y-72846262D01*
X50231597Y-72872308D01*
X50131171Y-72913906D01*
X50069188Y-72918784D01*
X50021538Y-72892099D01*
X49654165Y-72524726D01*
X49625939Y-72469328D01*
X49624700Y-72453591D01*
X49624700Y-71851675D01*
X49643913Y-71792544D01*
X49694213Y-71755999D01*
X49756387Y-71755999D01*
X49796435Y-71780540D01*
X49919125Y-71903230D01*
X50067137Y-72002129D01*
X50149368Y-72036190D01*
X50231597Y-72070251D01*
X50231598Y-72070251D01*
X50231600Y-72070252D01*
X50406193Y-72104980D01*
X50406194Y-72104980D01*
X50584206Y-72104980D01*
X50584207Y-72104980D01*
X50758800Y-72070252D01*
X50923263Y-72002129D01*
X51071275Y-71903230D01*
X51197150Y-71777355D01*
X51296049Y-71629343D01*
X51323280Y-71563602D01*
X51363659Y-71516324D01*
X51416222Y-71501500D01*
X56797491Y-71501500D01*
X56856622Y-71520713D01*
X56868625Y-71530965D01*
X56940717Y-71603056D01*
X56940721Y-71603060D01*
X56940723Y-71603061D01*
X57055575Y-71669371D01*
X57055576Y-71669371D01*
X57055579Y-71669373D01*
X57183687Y-71703700D01*
X57316313Y-71703700D01*
X57444421Y-71669373D01*
X57559279Y-71603060D01*
X57653060Y-71509279D01*
X57719373Y-71394421D01*
X57753700Y-71266313D01*
X57753700Y-71133687D01*
X57719373Y-71005579D01*
X57653060Y-70890721D01*
X57559279Y-70796940D01*
X57518195Y-70773220D01*
X57444424Y-70730628D01*
X57444421Y-70730627D01*
X57410099Y-70721430D01*
X57316315Y-70696300D01*
X57316313Y-70696300D01*
X57183687Y-70696300D01*
X57183684Y-70696300D01*
X57055575Y-70730628D01*
X56940723Y-70796938D01*
X56940721Y-70796940D01*
X56846940Y-70890720D01*
X56846550Y-70891397D01*
X56846133Y-70891772D01*
X56842926Y-70895952D01*
X56842151Y-70895357D01*
X56800347Y-70933001D01*
X56759426Y-70941700D01*
X51433056Y-70941700D01*
X51373925Y-70922487D01*
X51340114Y-70879598D01*
X51305875Y-70796940D01*
X51296049Y-70773217D01*
X51197150Y-70625205D01*
X51071275Y-70499330D01*
X51071273Y-70499328D01*
X50981994Y-70439674D01*
X50923263Y-70400431D01*
X50923260Y-70400429D01*
X50923259Y-70400429D01*
X50758802Y-70332308D01*
X50642404Y-70309156D01*
X50584207Y-70297580D01*
X50406193Y-70297580D01*
X50362544Y-70306262D01*
X50231597Y-70332308D01*
X50067140Y-70400429D01*
X49919126Y-70499328D01*
X49919125Y-70499330D01*
X49796435Y-70622020D01*
X49741037Y-70650246D01*
X49679629Y-70640520D01*
X49635665Y-70596556D01*
X49624700Y-70550885D01*
X49624700Y-69311675D01*
X49643913Y-69252544D01*
X49694213Y-69215999D01*
X49756387Y-69215999D01*
X49796435Y-69240540D01*
X49919125Y-69363230D01*
X50067137Y-69462129D01*
X50149368Y-69496190D01*
X50231597Y-69530251D01*
X50231598Y-69530251D01*
X50231600Y-69530252D01*
X50406193Y-69564980D01*
X50406194Y-69564980D01*
X50584206Y-69564980D01*
X50584207Y-69564980D01*
X50758800Y-69530252D01*
X50923263Y-69462129D01*
X51071275Y-69363230D01*
X51197150Y-69237355D01*
X51296049Y-69089343D01*
X51364172Y-68924880D01*
X51398900Y-68750287D01*
X51398900Y-68572273D01*
X51364172Y-68397680D01*
X51334474Y-68325984D01*
X51329596Y-68264006D01*
X51356280Y-68216356D01*
X53395576Y-66177062D01*
X53432425Y-66113238D01*
X53451500Y-66042050D01*
X53451500Y-65968350D01*
X53451500Y-65872047D01*
X53470713Y-65812916D01*
X53480959Y-65800918D01*
X53574660Y-65707218D01*
X53640973Y-65592360D01*
X53675300Y-65464252D01*
X53675300Y-65331626D01*
X53640973Y-65203518D01*
X53574660Y-65088660D01*
X53480879Y-64994879D01*
X53476052Y-64992092D01*
X53366024Y-64928567D01*
X53366021Y-64928566D01*
X53331699Y-64919369D01*
X53237915Y-64894239D01*
X53237913Y-64894239D01*
X53105287Y-64894239D01*
X53105284Y-64894239D01*
X52977174Y-64928567D01*
X52977173Y-64928568D01*
X52905686Y-64969841D01*
X52844871Y-64982768D01*
X52788072Y-64957479D01*
X52756985Y-64903634D01*
X52763485Y-64841801D01*
X52784249Y-64811587D01*
X52915842Y-64679994D01*
X52971238Y-64651770D01*
X53013012Y-64653958D01*
X53109910Y-64679923D01*
X53242536Y-64679923D01*
X53370644Y-64645596D01*
X53485502Y-64579283D01*
X53579283Y-64485502D01*
X53645596Y-64370644D01*
X53679923Y-64242536D01*
X53679923Y-64109910D01*
X53645596Y-63981802D01*
X53640422Y-63972841D01*
X53601387Y-63905230D01*
X53579283Y-63866944D01*
X53485502Y-63773163D01*
X53485499Y-63773161D01*
X53370647Y-63706851D01*
X53370644Y-63706850D01*
X53324823Y-63694572D01*
X53242538Y-63672523D01*
X53242536Y-63672523D01*
X53109910Y-63672523D01*
X53109907Y-63672523D01*
X52981798Y-63706851D01*
X52866946Y-63773161D01*
X52866945Y-63773162D01*
X52866944Y-63773163D01*
X52773163Y-63866944D01*
X52773162Y-63866945D01*
X52773161Y-63866946D01*
X52706850Y-63981800D01*
X52701081Y-64003330D01*
X52667217Y-64055472D01*
X52609171Y-64077751D01*
X52549116Y-64061657D01*
X52516788Y-64027589D01*
X52485179Y-63972840D01*
X52391398Y-63879059D01*
X52345965Y-63852828D01*
X52304364Y-63806624D01*
X52297866Y-63744790D01*
X52325130Y-63694574D01*
X57498407Y-58521299D01*
X57553805Y-58493073D01*
X57569542Y-58491834D01*
X57824916Y-58491834D01*
X57896103Y-58472759D01*
X57959928Y-58435910D01*
X58670616Y-57725221D01*
X58684810Y-57717989D01*
X58696077Y-57706723D01*
X58711816Y-57704229D01*
X58726012Y-57696997D01*
X58741746Y-57699489D01*
X58757486Y-57696996D01*
X58772030Y-57704285D01*
G37*
%TD.AperFunction*%
%TA.AperFunction,Conductor*%
G36*
X62880550Y-40742979D02*
G01*
X62928869Y-40782106D01*
X62945100Y-40836898D01*
X62945100Y-43917391D01*
X62925887Y-43976522D01*
X62915635Y-43988526D01*
X61862326Y-45041835D01*
X61806928Y-45070061D01*
X61791191Y-45071300D01*
X61658684Y-45071300D01*
X61530575Y-45105628D01*
X61415723Y-45171938D01*
X61415722Y-45171939D01*
X61415721Y-45171940D01*
X61321940Y-45265721D01*
X61321939Y-45265722D01*
X61321938Y-45265723D01*
X61255628Y-45380575D01*
X61221300Y-45508684D01*
X61221300Y-45641315D01*
X61255628Y-45769424D01*
X61321938Y-45884276D01*
X61321940Y-45884279D01*
X61415721Y-45978060D01*
X61415723Y-45978061D01*
X61530575Y-46044371D01*
X61530576Y-46044371D01*
X61530579Y-46044373D01*
X61658687Y-46078700D01*
X61791313Y-46078700D01*
X61919421Y-46044373D01*
X62034279Y-45978060D01*
X62128060Y-45884279D01*
X62194373Y-45769421D01*
X62228700Y-45641313D01*
X62228700Y-45508807D01*
X62247913Y-45449676D01*
X62258165Y-45437672D01*
X62523899Y-45171938D01*
X63448976Y-44246863D01*
X63485825Y-44183038D01*
X63485827Y-44183031D01*
X63495088Y-44148469D01*
X63495088Y-44148467D01*
X63504900Y-44111850D01*
X63504900Y-43500900D01*
X63524113Y-43441769D01*
X63574413Y-43405224D01*
X63621693Y-43401612D01*
X63626663Y-43402422D01*
X63733687Y-43431100D01*
X63802498Y-43431100D01*
X63810543Y-43432412D01*
X63831287Y-43443101D01*
X63853481Y-43450313D01*
X63865485Y-43460565D01*
X65291515Y-44886595D01*
X65319741Y-44941993D01*
X65310015Y-45003401D01*
X65276270Y-45041376D01*
X65159126Y-45119648D01*
X65159125Y-45119650D01*
X65033250Y-45245525D01*
X65033248Y-45245526D01*
X64934349Y-45393540D01*
X64866228Y-45557997D01*
X64831500Y-45732593D01*
X64831500Y-45910606D01*
X64866228Y-46085202D01*
X64934349Y-46249659D01*
X64934351Y-46249663D01*
X64984135Y-46324169D01*
X65033248Y-46397673D01*
X65033250Y-46397675D01*
X65159125Y-46523550D01*
X65307137Y-46622449D01*
X65389368Y-46656510D01*
X65471597Y-46690571D01*
X65471598Y-46690571D01*
X65471600Y-46690572D01*
X65646193Y-46725300D01*
X65646194Y-46725300D01*
X65824206Y-46725300D01*
X65824207Y-46725300D01*
X65998800Y-46690572D01*
X66163263Y-46622449D01*
X66311275Y-46523550D01*
X66370165Y-46464660D01*
X66425563Y-46436434D01*
X66486971Y-46446160D01*
X66530935Y-46490124D01*
X66541900Y-46535795D01*
X66541900Y-47647405D01*
X66522687Y-47706536D01*
X66472387Y-47743081D01*
X66410213Y-47743081D01*
X66370165Y-47718540D01*
X66311273Y-47659648D01*
X66237769Y-47610535D01*
X66163263Y-47560751D01*
X66163260Y-47560749D01*
X66163259Y-47560749D01*
X65998802Y-47492628D01*
X65882404Y-47469476D01*
X65824207Y-47457900D01*
X65646193Y-47457900D01*
X65602544Y-47466582D01*
X65471597Y-47492628D01*
X65307140Y-47560749D01*
X65159126Y-47659648D01*
X65159125Y-47659650D01*
X65033250Y-47785525D01*
X65033248Y-47785526D01*
X64934349Y-47933540D01*
X64866228Y-48097997D01*
X64831500Y-48272593D01*
X64831500Y-48450606D01*
X64866228Y-48625202D01*
X64934349Y-48789659D01*
X64934351Y-48789663D01*
X64955820Y-48821793D01*
X65033248Y-48937673D01*
X65033250Y-48937675D01*
X65159125Y-49063550D01*
X65307137Y-49162449D01*
X65389368Y-49196510D01*
X65471597Y-49230571D01*
X65471598Y-49230571D01*
X65471600Y-49230572D01*
X65646193Y-49265300D01*
X65646194Y-49265300D01*
X65824206Y-49265300D01*
X65824207Y-49265300D01*
X65998800Y-49230572D01*
X66163263Y-49162449D01*
X66311275Y-49063550D01*
X66370165Y-49004660D01*
X66425563Y-48976434D01*
X66486971Y-48986160D01*
X66530935Y-49030124D01*
X66541900Y-49075795D01*
X66541900Y-50187405D01*
X66522687Y-50246536D01*
X66472387Y-50283081D01*
X66410213Y-50283081D01*
X66370165Y-50258540D01*
X66311273Y-50199648D01*
X66218924Y-50137943D01*
X66163263Y-50100751D01*
X66163260Y-50100749D01*
X66163259Y-50100749D01*
X65998802Y-50032628D01*
X65882404Y-50009476D01*
X65824207Y-49997900D01*
X65646193Y-49997900D01*
X65602544Y-50006582D01*
X65471597Y-50032628D01*
X65307140Y-50100749D01*
X65159126Y-50199648D01*
X65159125Y-50199650D01*
X65033250Y-50325525D01*
X65033248Y-50325526D01*
X64934349Y-50473540D01*
X64866228Y-50637997D01*
X64831500Y-50812593D01*
X64831500Y-50990606D01*
X64866228Y-51165202D01*
X64934349Y-51329659D01*
X64934351Y-51329663D01*
X64983633Y-51403419D01*
X65033248Y-51477673D01*
X65159126Y-51603551D01*
X65167699Y-51609279D01*
X65307137Y-51702449D01*
X65389368Y-51736510D01*
X65471597Y-51770571D01*
X65471598Y-51770571D01*
X65471600Y-51770572D01*
X65646193Y-51805300D01*
X65646194Y-51805300D01*
X65824206Y-51805300D01*
X65824207Y-51805300D01*
X65998800Y-51770572D01*
X66163263Y-51702449D01*
X66311275Y-51603550D01*
X66370165Y-51544660D01*
X66425563Y-51516434D01*
X66486971Y-51526160D01*
X66530935Y-51570124D01*
X66541900Y-51615795D01*
X66541900Y-54665549D01*
X66522687Y-54724680D01*
X66512435Y-54736684D01*
X66158061Y-55091057D01*
X66102663Y-55119283D01*
X66048428Y-55112864D01*
X65998802Y-55092308D01*
X65882404Y-55069156D01*
X65824207Y-55057580D01*
X65646193Y-55057580D01*
X65602544Y-55066262D01*
X65471597Y-55092308D01*
X65307140Y-55160429D01*
X65159126Y-55259328D01*
X65159125Y-55259330D01*
X65033250Y-55385205D01*
X65033248Y-55385206D01*
X64934349Y-55533220D01*
X64866228Y-55697677D01*
X64831500Y-55872273D01*
X64831500Y-56050286D01*
X64866228Y-56224882D01*
X64886784Y-56274508D01*
X64891662Y-56336490D01*
X64864977Y-56384141D01*
X63739947Y-57509172D01*
X63678374Y-57570744D01*
X63634834Y-57646156D01*
X63634833Y-57646158D01*
X63612301Y-57730255D01*
X63612300Y-57730263D01*
X63612300Y-68318017D01*
X63612301Y-68318025D01*
X63634833Y-68402122D01*
X63634834Y-68402124D01*
X63678374Y-68477536D01*
X63745676Y-68544838D01*
X63745682Y-68544843D01*
X65353891Y-70153052D01*
X65353893Y-70153055D01*
X65408659Y-70207821D01*
X65436885Y-70263219D01*
X65427158Y-70324627D01*
X65383194Y-70368591D01*
X65383190Y-70368591D01*
X65376022Y-70371897D01*
X65307138Y-70400430D01*
X65159126Y-70499328D01*
X65159125Y-70499330D01*
X65033250Y-70625205D01*
X65033248Y-70625206D01*
X64934349Y-70773220D01*
X64890286Y-70879598D01*
X64849907Y-70926876D01*
X64797344Y-70941700D01*
X60340574Y-70941700D01*
X60281443Y-70922487D01*
X60257356Y-70895735D01*
X60257074Y-70895952D01*
X60254321Y-70892364D01*
X60253450Y-70891397D01*
X60253059Y-70890720D01*
X60241937Y-70879598D01*
X60159279Y-70796940D01*
X60118195Y-70773220D01*
X60044424Y-70730628D01*
X60044421Y-70730627D01*
X60010099Y-70721430D01*
X59916315Y-70696300D01*
X59916313Y-70696300D01*
X59783687Y-70696300D01*
X59783684Y-70696300D01*
X59655574Y-70730628D01*
X59655573Y-70730629D01*
X59647086Y-70735529D01*
X59586270Y-70748453D01*
X59529472Y-70723163D01*
X59498387Y-70669317D01*
X59496190Y-70648405D01*
X59496190Y-60774458D01*
X59515403Y-60715327D01*
X59525655Y-60703323D01*
X60748365Y-59480613D01*
X60803763Y-59452387D01*
X60865171Y-59462113D01*
X60909135Y-59506077D01*
X60920100Y-59551748D01*
X60920100Y-61499070D01*
X60906623Y-61549369D01*
X60874171Y-61605579D01*
X60872275Y-61608863D01*
X60870000Y-61617353D01*
X60853200Y-61680049D01*
X60853200Y-61825891D01*
X60833987Y-61885022D01*
X60823735Y-61897026D01*
X60730038Y-61990723D01*
X60663728Y-62105575D01*
X60629400Y-62233684D01*
X60629400Y-62366315D01*
X60663728Y-62494424D01*
X60697112Y-62552246D01*
X60730040Y-62609279D01*
X60823821Y-62703060D01*
X60823823Y-62703061D01*
X60938675Y-62769371D01*
X60938676Y-62769371D01*
X60938679Y-62769373D01*
X61066787Y-62803700D01*
X61199413Y-62803700D01*
X61327521Y-62769373D01*
X61442379Y-62703060D01*
X61536160Y-62609279D01*
X61602473Y-62494421D01*
X61636800Y-62366313D01*
X61636800Y-62233687D01*
X61602473Y-62105579D01*
X61601486Y-62103870D01*
X61536161Y-61990723D01*
X61536160Y-61990721D01*
X61457815Y-61912376D01*
X61429588Y-61856978D01*
X61439315Y-61795569D01*
X61441828Y-61790941D01*
X61460825Y-61758037D01*
X61479900Y-61686850D01*
X61479900Y-61613150D01*
X61479900Y-59435838D01*
X61499113Y-59376707D01*
X61530200Y-59348716D01*
X61552443Y-59335874D01*
X61609279Y-59303060D01*
X61703060Y-59209279D01*
X61769373Y-59094421D01*
X61803700Y-58966313D01*
X61803700Y-58833687D01*
X61769373Y-58705579D01*
X61769003Y-58704939D01*
X61703061Y-58590723D01*
X61703060Y-58590721D01*
X61609365Y-58497026D01*
X61581138Y-58441628D01*
X61579900Y-58425891D01*
X61579900Y-50507608D01*
X61599113Y-50448477D01*
X61609365Y-50436473D01*
X62487709Y-49558129D01*
X63398976Y-48646863D01*
X63435825Y-48583038D01*
X63444317Y-48551344D01*
X63454900Y-48511850D01*
X63454900Y-48419522D01*
X63455318Y-48414950D01*
X63465854Y-48390393D01*
X63474113Y-48364977D01*
X63479432Y-48358748D01*
X63479834Y-48357813D01*
X63480642Y-48357331D01*
X63484359Y-48352979D01*
X63578060Y-48259279D01*
X63644373Y-48144421D01*
X63678700Y-48016313D01*
X63678700Y-47883687D01*
X63644373Y-47755579D01*
X63637157Y-47743081D01*
X63578061Y-47640723D01*
X63578060Y-47640721D01*
X63484279Y-47546940D01*
X63484276Y-47546938D01*
X63369424Y-47480628D01*
X63369421Y-47480627D01*
X63335099Y-47471430D01*
X63241315Y-47446300D01*
X63241313Y-47446300D01*
X63108687Y-47446300D01*
X63108684Y-47446300D01*
X62980575Y-47480628D01*
X62865723Y-47546938D01*
X62865722Y-47546939D01*
X62865721Y-47546940D01*
X62771940Y-47640721D01*
X62771939Y-47640722D01*
X62771938Y-47640723D01*
X62705628Y-47755575D01*
X62687151Y-47824531D01*
X62653287Y-47876674D01*
X62595242Y-47898954D01*
X62572924Y-47896609D01*
X62572852Y-47897161D01*
X62566314Y-47896300D01*
X62566313Y-47896300D01*
X62433687Y-47896300D01*
X62433684Y-47896300D01*
X62305575Y-47930628D01*
X62190723Y-47996938D01*
X62092278Y-48095383D01*
X62090992Y-48094097D01*
X62046849Y-48124432D01*
X62044323Y-48125144D01*
X61991966Y-48139173D01*
X61991963Y-48139174D01*
X61928139Y-48176022D01*
X59337326Y-50766835D01*
X59281928Y-50795061D01*
X59269327Y-50796251D01*
X59266463Y-50796340D01*
X59266313Y-50796300D01*
X59133687Y-50796300D01*
X59116025Y-50801032D01*
X59104372Y-50801396D01*
X59085160Y-50795809D01*
X59065178Y-50794761D01*
X59056004Y-50787331D01*
X59044671Y-50784036D01*
X59032410Y-50768223D01*
X59016862Y-50755630D01*
X59013807Y-50744228D01*
X59006575Y-50734900D01*
X59005951Y-50714899D01*
X59001399Y-50697907D01*
X59001023Y-50697907D01*
X59001023Y-50696502D01*
X59000774Y-50695573D01*
X59001023Y-50692867D01*
X59001023Y-50558687D01*
X59001022Y-50558684D01*
X58987336Y-50507608D01*
X58966696Y-50430579D01*
X58952262Y-50405579D01*
X58918088Y-50346387D01*
X58900383Y-50315721D01*
X58806688Y-50222026D01*
X58778461Y-50166628D01*
X58777223Y-50150891D01*
X58777223Y-44610284D01*
X58796436Y-44551153D01*
X58806682Y-44539155D01*
X62562672Y-40783164D01*
X62618070Y-40754939D01*
X62633807Y-40753700D01*
X62766313Y-40753700D01*
X62818463Y-40739726D01*
X62880550Y-40742979D01*
G37*
%TD.AperFunction*%
%TA.AperFunction,Conductor*%
G36*
X51618131Y-31258867D02*
G01*
X51662095Y-31302831D01*
X51673060Y-31348502D01*
X51673060Y-34316110D01*
X51673060Y-34389810D01*
X51692135Y-34460997D01*
X51728984Y-34524822D01*
X52090636Y-34886474D01*
X52118861Y-34941870D01*
X52120100Y-34957607D01*
X52120100Y-39187792D01*
X52100887Y-39246923D01*
X52050587Y-39283468D01*
X51988413Y-39283468D01*
X51948365Y-39258927D01*
X51350331Y-38660893D01*
X51322105Y-38605495D01*
X51328524Y-38551260D01*
X51334940Y-38535770D01*
X51364172Y-38465200D01*
X51398900Y-38290607D01*
X51398900Y-38112593D01*
X51364172Y-37938000D01*
X51296049Y-37773537D01*
X51216898Y-37655080D01*
X51197151Y-37625526D01*
X51071273Y-37499648D01*
X50997769Y-37450535D01*
X50923263Y-37400751D01*
X50923260Y-37400749D01*
X50923259Y-37400749D01*
X50758802Y-37332628D01*
X50642404Y-37309476D01*
X50584207Y-37297900D01*
X50406193Y-37297900D01*
X50362544Y-37306582D01*
X50231597Y-37332628D01*
X50067140Y-37400749D01*
X49919126Y-37499648D01*
X49919125Y-37499650D01*
X49793250Y-37625525D01*
X49793248Y-37625526D01*
X49694349Y-37773540D01*
X49626228Y-37937997D01*
X49591500Y-38112593D01*
X49591500Y-38290606D01*
X49626228Y-38465202D01*
X49694349Y-38629659D01*
X49694351Y-38629663D01*
X49741530Y-38700271D01*
X49793248Y-38777673D01*
X49793250Y-38777675D01*
X49919125Y-38903550D01*
X50067137Y-39002449D01*
X50134235Y-39030242D01*
X50231597Y-39070571D01*
X50231598Y-39070571D01*
X50231600Y-39070572D01*
X50406193Y-39105300D01*
X50406194Y-39105300D01*
X50584206Y-39105300D01*
X50584207Y-39105300D01*
X50758800Y-39070572D01*
X50844860Y-39034923D01*
X50906842Y-39030045D01*
X50954493Y-39056731D01*
X52857155Y-40959393D01*
X52885381Y-41014791D01*
X52886620Y-41030528D01*
X52886620Y-42125891D01*
X52867407Y-42185022D01*
X52857155Y-42197026D01*
X52763458Y-42290723D01*
X52697148Y-42405575D01*
X52662820Y-42533684D01*
X52662820Y-42666315D01*
X52697148Y-42794424D01*
X52763458Y-42909276D01*
X52763460Y-42909279D01*
X52857241Y-43003060D01*
X52857243Y-43003061D01*
X52961699Y-43063369D01*
X53003302Y-43109574D01*
X53009801Y-43171407D01*
X52982534Y-43221626D01*
X52428138Y-43776022D01*
X52428139Y-43776023D01*
X52376022Y-43828140D01*
X52339176Y-43891961D01*
X52339175Y-43891963D01*
X52327082Y-43937091D01*
X52321196Y-43959061D01*
X52320100Y-43963150D01*
X52320100Y-49922780D01*
X52320100Y-49996480D01*
X52339175Y-50067667D01*
X52339176Y-50067668D01*
X52372866Y-50126023D01*
X52376024Y-50131492D01*
X55948070Y-53703538D01*
X59020383Y-56775851D01*
X59048609Y-56831249D01*
X59038883Y-56892657D01*
X58999549Y-56934108D01*
X58890721Y-56996940D01*
X58797026Y-57090635D01*
X58741628Y-57118862D01*
X58725891Y-57120100D01*
X58636850Y-57120100D01*
X58563150Y-57120100D01*
X58491963Y-57139175D01*
X58491961Y-57139175D01*
X58491961Y-57139176D01*
X58428137Y-57176023D01*
X58428137Y-57176024D01*
X58409368Y-57194792D01*
X58353969Y-57223016D01*
X58292561Y-57213287D01*
X58251114Y-57173954D01*
X58231035Y-57139176D01*
X58203060Y-57090721D01*
X58109279Y-56996940D01*
X58109276Y-56996938D01*
X57994424Y-56930628D01*
X57994421Y-56930627D01*
X57950514Y-56918862D01*
X57866315Y-56896300D01*
X57866313Y-56896300D01*
X57733687Y-56896300D01*
X57733684Y-56896300D01*
X57605575Y-56930628D01*
X57490723Y-56996938D01*
X57490722Y-56996939D01*
X57490721Y-56996940D01*
X57396940Y-57090721D01*
X57396939Y-57090722D01*
X57396938Y-57090723D01*
X57330628Y-57205575D01*
X57296300Y-57333684D01*
X57296300Y-57466191D01*
X57277087Y-57525322D01*
X57266835Y-57537326D01*
X52713527Y-62090635D01*
X52658129Y-62118861D01*
X52642392Y-62120100D01*
X52566801Y-62120100D01*
X52507670Y-62100887D01*
X52471125Y-62050587D01*
X52469629Y-61993465D01*
X52503700Y-61866313D01*
X52503700Y-61733687D01*
X52469373Y-61605579D01*
X52460708Y-61590571D01*
X52447783Y-61529757D01*
X52473073Y-61472958D01*
X52476678Y-61469158D01*
X55923631Y-58022207D01*
X55960480Y-57958383D01*
X55979555Y-57887195D01*
X55979555Y-57813495D01*
X55979555Y-54763150D01*
X55960480Y-54691963D01*
X55923631Y-54628138D01*
X55871517Y-54576024D01*
X51049597Y-49754104D01*
X50985772Y-49717255D01*
X50914585Y-49698180D01*
X49735688Y-49698180D01*
X49676557Y-49678967D01*
X49664553Y-49668715D01*
X48755005Y-48759167D01*
X48726779Y-48703769D01*
X48725540Y-48688032D01*
X48725540Y-48272593D01*
X49591500Y-48272593D01*
X49591500Y-48450606D01*
X49626228Y-48625202D01*
X49694349Y-48789659D01*
X49694351Y-48789663D01*
X49715820Y-48821793D01*
X49793248Y-48937673D01*
X49793250Y-48937675D01*
X49919125Y-49063550D01*
X50067137Y-49162449D01*
X50149368Y-49196510D01*
X50231597Y-49230571D01*
X50231598Y-49230571D01*
X50231600Y-49230572D01*
X50406193Y-49265300D01*
X50406194Y-49265300D01*
X50584206Y-49265300D01*
X50584207Y-49265300D01*
X50758800Y-49230572D01*
X50923263Y-49162449D01*
X51071275Y-49063550D01*
X51197150Y-48937675D01*
X51296049Y-48789663D01*
X51364172Y-48625200D01*
X51398900Y-48450607D01*
X51398900Y-48272593D01*
X51364172Y-48098000D01*
X51362555Y-48094097D01*
X51296050Y-47933540D01*
X51296049Y-47933537D01*
X51197150Y-47785525D01*
X51071275Y-47659650D01*
X51071273Y-47659648D01*
X50997769Y-47610535D01*
X50923263Y-47560751D01*
X50923260Y-47560749D01*
X50923259Y-47560749D01*
X50758802Y-47492628D01*
X50642404Y-47469476D01*
X50584207Y-47457900D01*
X50406193Y-47457900D01*
X50362544Y-47466582D01*
X50231597Y-47492628D01*
X50067140Y-47560749D01*
X49919126Y-47659648D01*
X49919125Y-47659650D01*
X49793250Y-47785525D01*
X49793248Y-47785526D01*
X49694349Y-47933540D01*
X49626228Y-48097997D01*
X49591500Y-48272593D01*
X48725540Y-48272593D01*
X48725540Y-45732593D01*
X49591500Y-45732593D01*
X49591500Y-45910606D01*
X49626228Y-46085202D01*
X49694349Y-46249659D01*
X49694351Y-46249663D01*
X49744135Y-46324169D01*
X49793248Y-46397673D01*
X49793250Y-46397675D01*
X49919125Y-46523550D01*
X50067137Y-46622449D01*
X50149368Y-46656510D01*
X50231597Y-46690571D01*
X50231598Y-46690571D01*
X50231600Y-46690572D01*
X50406193Y-46725300D01*
X50406194Y-46725300D01*
X50584206Y-46725300D01*
X50584207Y-46725300D01*
X50758800Y-46690572D01*
X50923263Y-46622449D01*
X51071275Y-46523550D01*
X51197150Y-46397675D01*
X51296049Y-46249663D01*
X51364172Y-46085200D01*
X51398900Y-45910607D01*
X51398900Y-45732593D01*
X51364172Y-45558000D01*
X51296049Y-45393537D01*
X51197150Y-45245525D01*
X51071275Y-45119650D01*
X51071273Y-45119648D01*
X50944206Y-45034745D01*
X50923263Y-45020751D01*
X50923260Y-45020749D01*
X50923259Y-45020749D01*
X50758802Y-44952628D01*
X50642404Y-44929476D01*
X50584207Y-44917900D01*
X50406193Y-44917900D01*
X50362544Y-44926582D01*
X50231597Y-44952628D01*
X50067140Y-45020749D01*
X49919126Y-45119648D01*
X49919125Y-45119650D01*
X49793250Y-45245525D01*
X49793248Y-45245526D01*
X49694349Y-45393540D01*
X49626228Y-45557997D01*
X49591500Y-45732593D01*
X48725540Y-45732593D01*
X48725540Y-43192593D01*
X49591500Y-43192593D01*
X49591500Y-43370606D01*
X49626228Y-43545202D01*
X49690587Y-43700577D01*
X49694351Y-43709663D01*
X49717656Y-43744541D01*
X49793248Y-43857673D01*
X49793250Y-43857675D01*
X49919125Y-43983550D01*
X50067137Y-44082449D01*
X50138115Y-44111849D01*
X50231597Y-44150571D01*
X50231598Y-44150571D01*
X50231600Y-44150572D01*
X50406193Y-44185300D01*
X50406194Y-44185300D01*
X50584206Y-44185300D01*
X50584207Y-44185300D01*
X50758800Y-44150572D01*
X50923263Y-44082449D01*
X51071275Y-43983550D01*
X51197150Y-43857675D01*
X51296049Y-43709663D01*
X51364172Y-43545200D01*
X51398900Y-43370607D01*
X51398900Y-43192593D01*
X51364172Y-43018000D01*
X51296049Y-42853537D01*
X51197150Y-42705525D01*
X51071275Y-42579650D01*
X51071273Y-42579648D01*
X50981744Y-42519827D01*
X50923263Y-42480751D01*
X50923260Y-42480749D01*
X50923259Y-42480749D01*
X50758802Y-42412628D01*
X50642404Y-42389476D01*
X50584207Y-42377900D01*
X50406193Y-42377900D01*
X50362544Y-42386582D01*
X50231597Y-42412628D01*
X50067140Y-42480749D01*
X49919126Y-42579648D01*
X49919125Y-42579650D01*
X49793250Y-42705525D01*
X49793248Y-42705526D01*
X49694349Y-42853540D01*
X49626228Y-43017997D01*
X49591500Y-43192593D01*
X48725540Y-43192593D01*
X48725540Y-40652593D01*
X49591500Y-40652593D01*
X49591500Y-40830607D01*
X49603076Y-40888804D01*
X49626228Y-41005202D01*
X49694349Y-41169659D01*
X49694351Y-41169663D01*
X49744135Y-41244169D01*
X49793248Y-41317673D01*
X49793250Y-41317675D01*
X49919125Y-41443550D01*
X50067137Y-41542449D01*
X50120609Y-41564598D01*
X50231597Y-41610571D01*
X50231598Y-41610571D01*
X50231600Y-41610572D01*
X50406193Y-41645300D01*
X50406194Y-41645300D01*
X50584206Y-41645300D01*
X50584207Y-41645300D01*
X50758800Y-41610572D01*
X50923263Y-41542449D01*
X51071275Y-41443550D01*
X51197150Y-41317675D01*
X51296049Y-41169663D01*
X51364172Y-41005200D01*
X51398900Y-40830607D01*
X51398900Y-40652593D01*
X51364172Y-40478000D01*
X51296049Y-40313537D01*
X51197150Y-40165525D01*
X51071275Y-40039650D01*
X51071273Y-40039648D01*
X50976052Y-39976024D01*
X50923263Y-39940751D01*
X50923260Y-39940749D01*
X50923259Y-39940749D01*
X50758802Y-39872628D01*
X50629645Y-39846938D01*
X50584207Y-39837900D01*
X50406193Y-39837900D01*
X50362544Y-39846582D01*
X50231597Y-39872628D01*
X50067140Y-39940749D01*
X49919126Y-40039648D01*
X49919125Y-40039650D01*
X49793250Y-40165525D01*
X49793248Y-40165526D01*
X49694349Y-40313540D01*
X49626228Y-40477997D01*
X49594373Y-40638149D01*
X49591500Y-40652593D01*
X48725540Y-40652593D01*
X48725540Y-35572593D01*
X49591500Y-35572593D01*
X49591500Y-35750606D01*
X49626228Y-35925202D01*
X49694349Y-36089659D01*
X49694351Y-36089663D01*
X49744135Y-36164169D01*
X49793248Y-36237673D01*
X49793250Y-36237675D01*
X49919125Y-36363550D01*
X50067137Y-36462449D01*
X50149368Y-36496510D01*
X50231597Y-36530571D01*
X50231598Y-36530571D01*
X50231600Y-36530572D01*
X50406193Y-36565300D01*
X50406194Y-36565300D01*
X50584206Y-36565300D01*
X50584207Y-36565300D01*
X50758800Y-36530572D01*
X50923263Y-36462449D01*
X51071275Y-36363550D01*
X51197150Y-36237675D01*
X51296049Y-36089663D01*
X51364172Y-35925200D01*
X51398900Y-35750607D01*
X51398900Y-35572593D01*
X51364172Y-35398000D01*
X51296049Y-35233537D01*
X51197150Y-35085525D01*
X51071275Y-34959650D01*
X51071273Y-34959648D01*
X50997769Y-34910535D01*
X50923263Y-34860751D01*
X50923260Y-34860749D01*
X50923259Y-34860749D01*
X50758802Y-34792628D01*
X50642404Y-34769476D01*
X50584207Y-34757900D01*
X50406193Y-34757900D01*
X50362544Y-34766582D01*
X50231597Y-34792628D01*
X50067140Y-34860749D01*
X49919126Y-34959648D01*
X49919125Y-34959650D01*
X49793250Y-35085525D01*
X49793248Y-35085526D01*
X49694349Y-35233540D01*
X49626228Y-35397997D01*
X49591500Y-35572593D01*
X48725540Y-35572593D01*
X48725540Y-33957608D01*
X48744753Y-33898477D01*
X48755005Y-33886473D01*
X48817928Y-33823550D01*
X48959523Y-33681954D01*
X49014918Y-33653730D01*
X49056688Y-33655918D01*
X49156927Y-33682778D01*
X49289553Y-33682778D01*
X49417661Y-33648451D01*
X49532519Y-33582138D01*
X49555862Y-33558794D01*
X49611255Y-33530570D01*
X49672664Y-33540295D01*
X49710640Y-33574041D01*
X49793248Y-33697673D01*
X49793250Y-33697675D01*
X49919125Y-33823550D01*
X50067137Y-33922449D01*
X50134235Y-33950242D01*
X50231597Y-33990571D01*
X50231598Y-33990571D01*
X50231600Y-33990572D01*
X50406193Y-34025300D01*
X50406194Y-34025300D01*
X50584206Y-34025300D01*
X50584207Y-34025300D01*
X50758800Y-33990572D01*
X50923263Y-33922449D01*
X51071275Y-33823550D01*
X51197150Y-33697675D01*
X51296049Y-33549663D01*
X51364172Y-33385200D01*
X51398900Y-33210607D01*
X51398900Y-33032593D01*
X51364172Y-32858000D01*
X51296049Y-32693537D01*
X51197150Y-32545525D01*
X51071275Y-32419650D01*
X51071273Y-32419648D01*
X50997769Y-32370535D01*
X50923263Y-32320751D01*
X50923260Y-32320749D01*
X50923259Y-32320749D01*
X50758802Y-32252628D01*
X50642404Y-32229476D01*
X50584207Y-32217900D01*
X50406193Y-32217900D01*
X50362544Y-32226582D01*
X50231597Y-32252628D01*
X50067140Y-32320749D01*
X49919126Y-32419648D01*
X49919125Y-32419650D01*
X49793250Y-32545525D01*
X49793248Y-32545526D01*
X49694350Y-32693538D01*
X49679445Y-32729522D01*
X49639065Y-32776799D01*
X49578609Y-32791313D01*
X49536203Y-32778145D01*
X49459090Y-32733624D01*
X49417487Y-32687420D01*
X49410988Y-32625586D01*
X49438253Y-32575369D01*
X50199139Y-31814485D01*
X50254537Y-31786259D01*
X50270274Y-31785020D01*
X50914585Y-31785020D01*
X50985772Y-31765945D01*
X51049597Y-31729096D01*
X51501328Y-31277365D01*
X51556723Y-31249141D01*
X51618131Y-31258867D01*
G37*
%TD.AperFunction*%
%TA.AperFunction,Conductor*%
G36*
X68114621Y-14201739D02*
G01*
X68128157Y-14203882D01*
X68171870Y-14210806D01*
X68201796Y-14220528D01*
X68246312Y-14243210D01*
X68271770Y-14261707D01*
X68307092Y-14297029D01*
X68325590Y-14322489D01*
X68348269Y-14366999D01*
X68357993Y-14396928D01*
X68367061Y-14454175D01*
X68368300Y-14469914D01*
X68368300Y-42664150D01*
X68349087Y-42723281D01*
X68298787Y-42759826D01*
X68236613Y-42759826D01*
X68196565Y-42735285D01*
X66611373Y-41150093D01*
X66583147Y-41094695D01*
X66589565Y-41040461D01*
X66604172Y-41005200D01*
X66638900Y-40830607D01*
X66638900Y-40652593D01*
X66604172Y-40478000D01*
X66536049Y-40313537D01*
X66437150Y-40165525D01*
X66311275Y-40039650D01*
X66311273Y-40039648D01*
X66216052Y-39976024D01*
X66163263Y-39940751D01*
X66163260Y-39940749D01*
X66163259Y-39940749D01*
X65998802Y-39872628D01*
X65869645Y-39846938D01*
X65824207Y-39837900D01*
X65646193Y-39837900D01*
X65602544Y-39846582D01*
X65471597Y-39872628D01*
X65307140Y-39940749D01*
X65242990Y-39983613D01*
X65183150Y-40000489D01*
X65124819Y-39978970D01*
X65090277Y-39927274D01*
X65086500Y-39899967D01*
X65086500Y-39359649D01*
X65105713Y-39300518D01*
X65115959Y-39288520D01*
X65326706Y-39077772D01*
X65382104Y-39049547D01*
X65436338Y-39055965D01*
X65471600Y-39070572D01*
X65646193Y-39105300D01*
X65646194Y-39105300D01*
X65824206Y-39105300D01*
X65824207Y-39105300D01*
X65998800Y-39070572D01*
X66163263Y-39002449D01*
X66311275Y-38903550D01*
X66437150Y-38777675D01*
X66536049Y-38629663D01*
X66604172Y-38465200D01*
X66638900Y-38290607D01*
X66638900Y-38112593D01*
X66604172Y-37938000D01*
X66536049Y-37773537D01*
X66456898Y-37655080D01*
X66437151Y-37625526D01*
X66311273Y-37499648D01*
X66237769Y-37450535D01*
X66163263Y-37400751D01*
X66163260Y-37400749D01*
X66163259Y-37400749D01*
X65998802Y-37332628D01*
X65882404Y-37309476D01*
X65824207Y-37297900D01*
X65646193Y-37297900D01*
X65602544Y-37306582D01*
X65471597Y-37332628D01*
X65307140Y-37400749D01*
X65159126Y-37499648D01*
X65159125Y-37499650D01*
X65033250Y-37625525D01*
X65033248Y-37625526D01*
X64934349Y-37773540D01*
X64873642Y-37920099D01*
X64833263Y-37967377D01*
X64772807Y-37981891D01*
X64715365Y-37958098D01*
X64682879Y-37905085D01*
X64680100Y-37881601D01*
X64680100Y-35981598D01*
X64699313Y-35922467D01*
X64749613Y-35885922D01*
X64811787Y-35885922D01*
X64862087Y-35922467D01*
X64873642Y-35943100D01*
X64934349Y-36089659D01*
X64934351Y-36089663D01*
X64984135Y-36164169D01*
X65033248Y-36237673D01*
X65033250Y-36237675D01*
X65159125Y-36363550D01*
X65307137Y-36462449D01*
X65389368Y-36496510D01*
X65471597Y-36530571D01*
X65471598Y-36530571D01*
X65471600Y-36530572D01*
X65646193Y-36565300D01*
X65646194Y-36565300D01*
X65824206Y-36565300D01*
X65824207Y-36565300D01*
X65998800Y-36530572D01*
X66163263Y-36462449D01*
X66311275Y-36363550D01*
X66437150Y-36237675D01*
X66536049Y-36089663D01*
X66604172Y-35925200D01*
X66638900Y-35750607D01*
X66638900Y-35572593D01*
X66604172Y-35398000D01*
X66536049Y-35233537D01*
X66437150Y-35085525D01*
X66311275Y-34959650D01*
X66311273Y-34959648D01*
X66237769Y-34910535D01*
X66163263Y-34860751D01*
X66163260Y-34860749D01*
X66163259Y-34860749D01*
X65998802Y-34792628D01*
X65882404Y-34769476D01*
X65824207Y-34757900D01*
X65646193Y-34757900D01*
X65602544Y-34766582D01*
X65471597Y-34792628D01*
X65307140Y-34860749D01*
X65159126Y-34959648D01*
X65159125Y-34959650D01*
X65033250Y-35085525D01*
X65033248Y-35085526D01*
X64934349Y-35233540D01*
X64873642Y-35380099D01*
X64833263Y-35427377D01*
X64772807Y-35441891D01*
X64715365Y-35418098D01*
X64682879Y-35365085D01*
X64680100Y-35341601D01*
X64680100Y-34686049D01*
X64699313Y-34626918D01*
X64709559Y-34614920D01*
X65326706Y-33997772D01*
X65382104Y-33969547D01*
X65436338Y-33975965D01*
X65471600Y-33990572D01*
X65646193Y-34025300D01*
X65646194Y-34025300D01*
X65824206Y-34025300D01*
X65824207Y-34025300D01*
X65998800Y-33990572D01*
X66163263Y-33922449D01*
X66311275Y-33823550D01*
X66437150Y-33697675D01*
X66536049Y-33549663D01*
X66604172Y-33385200D01*
X66638900Y-33210607D01*
X66638900Y-33032593D01*
X66604172Y-32858000D01*
X66536049Y-32693537D01*
X66437150Y-32545525D01*
X66311275Y-32419650D01*
X66311273Y-32419648D01*
X66237769Y-32370535D01*
X66163263Y-32320751D01*
X66163260Y-32320749D01*
X66163259Y-32320749D01*
X65998802Y-32252628D01*
X65882404Y-32229476D01*
X65824207Y-32217900D01*
X65646193Y-32217900D01*
X65602544Y-32226582D01*
X65471597Y-32252628D01*
X65307140Y-32320749D01*
X65159126Y-32419648D01*
X65159125Y-32419650D01*
X65033250Y-32545525D01*
X65033248Y-32545526D01*
X64934349Y-32693540D01*
X64866228Y-32857997D01*
X64831500Y-33032593D01*
X64831500Y-33210606D01*
X64866227Y-33385200D01*
X64880833Y-33420461D01*
X64885710Y-33482444D01*
X64859025Y-33530093D01*
X64302435Y-34086684D01*
X64247037Y-34114910D01*
X64185629Y-34105184D01*
X64141665Y-34061221D01*
X64130700Y-34015549D01*
X64130700Y-32695449D01*
X64149913Y-32636318D01*
X64160159Y-32624320D01*
X65326706Y-31457772D01*
X65382104Y-31429547D01*
X65436338Y-31435965D01*
X65471600Y-31450572D01*
X65646193Y-31485300D01*
X65646194Y-31485300D01*
X65824206Y-31485300D01*
X65824207Y-31485300D01*
X65998800Y-31450572D01*
X66163263Y-31382449D01*
X66311275Y-31283550D01*
X66437150Y-31157675D01*
X66536049Y-31009663D01*
X66604172Y-30845200D01*
X66638900Y-30670607D01*
X66638900Y-30492593D01*
X66604172Y-30318000D01*
X66536049Y-30153537D01*
X66437150Y-30005525D01*
X66311275Y-29879650D01*
X66311273Y-29879648D01*
X66222329Y-29820218D01*
X66163263Y-29780751D01*
X66163260Y-29780749D01*
X66163259Y-29780749D01*
X65998802Y-29712628D01*
X65879564Y-29688911D01*
X65824207Y-29677900D01*
X65646193Y-29677900D01*
X65602544Y-29686582D01*
X65471597Y-29712628D01*
X65307140Y-29780749D01*
X65159126Y-29879648D01*
X65159125Y-29879650D01*
X65033250Y-30005525D01*
X65033248Y-30005526D01*
X64934349Y-30153540D01*
X64866228Y-30317997D01*
X64831500Y-30492593D01*
X64831500Y-30670606D01*
X64866227Y-30845200D01*
X64880833Y-30880461D01*
X64885710Y-30942444D01*
X64859025Y-30990093D01*
X63596947Y-32252172D01*
X63535374Y-32313744D01*
X63491834Y-32389156D01*
X63491833Y-32389158D01*
X63469301Y-32473255D01*
X63469300Y-32473263D01*
X63469300Y-37607349D01*
X63450087Y-37666480D01*
X63399787Y-37703025D01*
X63337613Y-37703025D01*
X63318400Y-37694471D01*
X63294424Y-37680628D01*
X63294421Y-37680627D01*
X63241625Y-37666480D01*
X63166315Y-37646300D01*
X63166313Y-37646300D01*
X63033808Y-37646300D01*
X62974677Y-37627087D01*
X62962673Y-37616835D01*
X62309365Y-36963527D01*
X62281139Y-36908129D01*
X62279900Y-36892392D01*
X62279900Y-32874108D01*
X62299113Y-32814977D01*
X62309359Y-32802979D01*
X62403060Y-32709279D01*
X62469373Y-32594421D01*
X62503700Y-32466313D01*
X62503700Y-32333687D01*
X62469373Y-32205579D01*
X62403060Y-32090721D01*
X62309279Y-31996940D01*
X62309276Y-31996938D01*
X62194424Y-31930628D01*
X62194421Y-31930627D01*
X62160099Y-31921430D01*
X62066315Y-31896300D01*
X62066313Y-31896300D01*
X61933687Y-31896300D01*
X61933684Y-31896300D01*
X61805575Y-31930628D01*
X61690723Y-31996938D01*
X61690722Y-31996939D01*
X61690721Y-31996940D01*
X61596940Y-32090721D01*
X61596939Y-32090722D01*
X61596938Y-32090723D01*
X61530628Y-32205575D01*
X61496300Y-32333684D01*
X61496300Y-32466315D01*
X61530628Y-32594424D01*
X61584612Y-32687926D01*
X61596940Y-32709279D01*
X61690636Y-32802975D01*
X61718861Y-32858371D01*
X61720100Y-32874108D01*
X61720100Y-37013150D01*
X61720100Y-37086850D01*
X61739175Y-37158037D01*
X61776024Y-37221862D01*
X62566836Y-38012674D01*
X62595061Y-38068070D01*
X62596300Y-38083807D01*
X62596300Y-38216315D01*
X62630628Y-38344424D01*
X62696938Y-38459276D01*
X62696940Y-38459279D01*
X62790721Y-38553060D01*
X62894801Y-38613150D01*
X62936402Y-38659353D01*
X62945100Y-38700271D01*
X62945100Y-39663101D01*
X62925887Y-39722232D01*
X62875587Y-39758777D01*
X62818463Y-39760273D01*
X62766318Y-39746300D01*
X62766313Y-39746300D01*
X62633687Y-39746300D01*
X62633684Y-39746300D01*
X62505575Y-39780628D01*
X62390723Y-39846938D01*
X62390722Y-39846939D01*
X62390721Y-39846940D01*
X62296940Y-39940721D01*
X62296939Y-39940722D01*
X62296938Y-39940723D01*
X62230628Y-40055575D01*
X62196300Y-40183684D01*
X62196300Y-40316191D01*
X62177087Y-40375322D01*
X62166835Y-40387326D01*
X58325461Y-44228699D01*
X58325462Y-44228700D01*
X58273345Y-44280817D01*
X58236499Y-44344638D01*
X58217423Y-44415826D01*
X58217423Y-50139292D01*
X58198210Y-50198423D01*
X58147910Y-50234968D01*
X58085736Y-50234968D01*
X58065513Y-50224328D01*
X58064989Y-50225237D01*
X58059279Y-50221940D01*
X58026389Y-50202951D01*
X57944424Y-50155628D01*
X57944421Y-50155627D01*
X57892177Y-50141628D01*
X57816315Y-50121300D01*
X57816313Y-50121300D01*
X57683687Y-50121300D01*
X57683684Y-50121300D01*
X57555575Y-50155628D01*
X57440723Y-50221938D01*
X57440722Y-50221939D01*
X57440721Y-50221940D01*
X57346940Y-50315721D01*
X57346938Y-50315723D01*
X57342278Y-50320384D01*
X57340145Y-50318251D01*
X57299091Y-50346387D01*
X57236940Y-50344675D01*
X57196932Y-50318346D01*
X57189205Y-50310025D01*
X57178060Y-50290721D01*
X57084279Y-50196940D01*
X57084091Y-50196831D01*
X57081783Y-50194346D01*
X57069449Y-50167753D01*
X57056138Y-50141628D01*
X57055893Y-50138524D01*
X57055624Y-50137943D01*
X57055784Y-50137128D01*
X57054900Y-50125891D01*
X57054900Y-40638150D01*
X57035825Y-40566963D01*
X56998976Y-40503138D01*
X56946862Y-40451024D01*
X54476697Y-37980859D01*
X54448471Y-37925461D01*
X54458197Y-37864053D01*
X54460691Y-37859458D01*
X54469373Y-37844421D01*
X54503700Y-37716313D01*
X54503700Y-37583687D01*
X54469373Y-37455579D01*
X54403060Y-37340721D01*
X54309279Y-37246940D01*
X54309276Y-37246938D01*
X54194424Y-37180628D01*
X54194421Y-37180627D01*
X54160099Y-37171430D01*
X54066315Y-37146300D01*
X54066313Y-37146300D01*
X53933687Y-37146300D01*
X53933684Y-37146300D01*
X53805575Y-37180628D01*
X53730520Y-37223962D01*
X53669704Y-37236889D01*
X53612905Y-37211600D01*
X53581818Y-37157756D01*
X53579620Y-37136840D01*
X53579620Y-29062870D01*
X53560545Y-28991683D01*
X53523696Y-28927858D01*
X53471582Y-28875744D01*
X53333165Y-28737327D01*
X53304939Y-28681929D01*
X53303700Y-28666192D01*
X53303700Y-28533687D01*
X53303699Y-28533684D01*
X53290123Y-28483018D01*
X53293376Y-28420929D01*
X53332503Y-28372610D01*
X53387295Y-28356380D01*
X55118872Y-28356380D01*
X55178003Y-28375593D01*
X55190007Y-28385845D01*
X57666835Y-30862673D01*
X57695061Y-30918071D01*
X57696300Y-30933808D01*
X57696300Y-31066315D01*
X57730628Y-31194424D01*
X57782085Y-31283550D01*
X57796940Y-31309279D01*
X57890721Y-31403060D01*
X57890723Y-31403061D01*
X58005575Y-31469371D01*
X58005576Y-31469371D01*
X58005579Y-31469373D01*
X58133687Y-31503700D01*
X58266313Y-31503700D01*
X58394421Y-31469373D01*
X58509279Y-31403060D01*
X58603060Y-31309279D01*
X58669373Y-31194421D01*
X58703700Y-31066313D01*
X58703700Y-30933687D01*
X58669373Y-30805579D01*
X58603060Y-30690721D01*
X58509279Y-30596940D01*
X58509276Y-30596938D01*
X58394424Y-30530628D01*
X58394421Y-30530627D01*
X58360099Y-30521430D01*
X58266315Y-30496300D01*
X58266313Y-30496300D01*
X58133808Y-30496300D01*
X58074677Y-30477087D01*
X58062673Y-30466835D01*
X55824233Y-28228395D01*
X55796007Y-28172997D01*
X55805733Y-28111589D01*
X55849697Y-28067625D01*
X55895368Y-28056660D01*
X56819152Y-28056660D01*
X56878283Y-28075873D01*
X56890286Y-28086124D01*
X57866836Y-29062674D01*
X57895061Y-29118071D01*
X57896300Y-29133808D01*
X57896300Y-29266315D01*
X57930628Y-29394424D01*
X57996938Y-29509276D01*
X57996940Y-29509279D01*
X58090721Y-29603060D01*
X58090723Y-29603061D01*
X58205575Y-29669371D01*
X58205576Y-29669371D01*
X58205579Y-29669373D01*
X58333687Y-29703700D01*
X58466313Y-29703700D01*
X58594421Y-29669373D01*
X58709279Y-29603060D01*
X58803060Y-29509279D01*
X58869373Y-29394421D01*
X58903700Y-29266313D01*
X58903700Y-29133687D01*
X58869373Y-29005579D01*
X58803060Y-28890721D01*
X58709279Y-28796940D01*
X58709276Y-28796938D01*
X58594424Y-28730628D01*
X58594421Y-28730627D01*
X58546420Y-28717765D01*
X58466315Y-28696300D01*
X58466313Y-28696300D01*
X58333809Y-28696300D01*
X58274678Y-28677087D01*
X58262674Y-28666835D01*
X58001418Y-28405579D01*
X57148622Y-27552784D01*
X57084797Y-27515935D01*
X57013610Y-27496860D01*
X52422152Y-27496860D01*
X52350960Y-27515936D01*
X52350959Y-27515937D01*
X52323988Y-27531509D01*
X52323988Y-27531510D01*
X52287138Y-27552784D01*
X51781098Y-28058824D01*
X51781099Y-28058825D01*
X51728982Y-28110942D01*
X51692136Y-28174763D01*
X51673060Y-28245951D01*
X51673060Y-28620593D01*
X51653847Y-28679724D01*
X51603547Y-28716269D01*
X51546423Y-28717765D01*
X51466318Y-28696300D01*
X51466313Y-28696300D01*
X51333687Y-28696300D01*
X51333684Y-28696300D01*
X51205575Y-28730628D01*
X51090723Y-28796938D01*
X51090722Y-28796939D01*
X51090721Y-28796940D01*
X50996940Y-28890721D01*
X50996939Y-28890722D01*
X50996938Y-28890723D01*
X50930628Y-29005575D01*
X50896300Y-29133684D01*
X50896300Y-29266315D01*
X50930628Y-29394424D01*
X50996938Y-29509276D01*
X50996940Y-29509279D01*
X51090721Y-29603060D01*
X51095951Y-29607073D01*
X51094720Y-29608676D01*
X51130120Y-29647987D01*
X51138820Y-29688911D01*
X51138820Y-29736572D01*
X51119607Y-29795703D01*
X51069307Y-29832248D01*
X51007133Y-29832248D01*
X50982330Y-29820218D01*
X50945640Y-29795703D01*
X50923263Y-29780751D01*
X50923260Y-29780749D01*
X50923259Y-29780749D01*
X50758802Y-29712628D01*
X50639564Y-29688911D01*
X50584207Y-29677900D01*
X50406193Y-29677900D01*
X50362544Y-29686582D01*
X50231597Y-29712628D01*
X50067140Y-29780749D01*
X49919126Y-29879648D01*
X49919125Y-29879650D01*
X49793250Y-30005525D01*
X49793248Y-30005526D01*
X49694349Y-30153540D01*
X49626228Y-30317997D01*
X49596623Y-30466835D01*
X49591500Y-30492593D01*
X49591500Y-30670607D01*
X49626228Y-30845200D01*
X49656412Y-30918071D01*
X49661875Y-30931258D01*
X49666754Y-30993241D01*
X49640068Y-31040892D01*
X47993035Y-32687926D01*
X47937637Y-32716152D01*
X47876229Y-32706426D01*
X47832265Y-32662462D01*
X47821300Y-32616791D01*
X47821300Y-21278709D01*
X50899500Y-21278709D01*
X50899500Y-21521290D01*
X50931159Y-21761774D01*
X50931160Y-21761783D01*
X50993945Y-21996100D01*
X50993946Y-21996102D01*
X51086775Y-22220211D01*
X51208063Y-22430289D01*
X51355730Y-22622733D01*
X51527266Y-22794269D01*
X51719710Y-22941936D01*
X51929788Y-23063224D01*
X52153897Y-23156053D01*
X52153899Y-23156054D01*
X52257214Y-23183737D01*
X52388211Y-23218838D01*
X52388213Y-23218838D01*
X52388216Y-23218839D01*
X52388225Y-23218840D01*
X52628710Y-23250500D01*
X52628712Y-23250500D01*
X52871290Y-23250500D01*
X53111774Y-23218840D01*
X53111783Y-23218839D01*
X53111784Y-23218838D01*
X53111789Y-23218838D01*
X53346100Y-23156054D01*
X53570212Y-23063224D01*
X53780289Y-22941936D01*
X53972738Y-22794265D01*
X54144265Y-22622738D01*
X54291936Y-22430289D01*
X54413224Y-22220212D01*
X54506054Y-21996100D01*
X54568838Y-21761789D01*
X54600500Y-21521288D01*
X54600500Y-21278712D01*
X54568838Y-21038211D01*
X54506054Y-20803900D01*
X54413224Y-20579788D01*
X54291936Y-20369710D01*
X54144269Y-20177266D01*
X53972733Y-20005730D01*
X53780289Y-19858063D01*
X53570211Y-19736775D01*
X53346102Y-19643946D01*
X53346100Y-19643945D01*
X53111783Y-19581160D01*
X53111774Y-19581159D01*
X52871290Y-19549500D01*
X52871288Y-19549500D01*
X52628712Y-19549500D01*
X52628710Y-19549500D01*
X52388225Y-19581159D01*
X52388216Y-19581160D01*
X52153899Y-19643945D01*
X52153897Y-19643946D01*
X51929788Y-19736775D01*
X51719710Y-19858063D01*
X51527266Y-20005730D01*
X51355730Y-20177266D01*
X51208063Y-20369710D01*
X51086775Y-20579788D01*
X50993946Y-20803897D01*
X50993945Y-20803899D01*
X50931160Y-21038216D01*
X50931159Y-21038225D01*
X50899500Y-21278709D01*
X47821300Y-21278709D01*
X47821300Y-17916208D01*
X47840513Y-17857077D01*
X47850765Y-17845073D01*
X48886473Y-16809365D01*
X48941871Y-16781139D01*
X48957608Y-16779900D01*
X55731262Y-16779900D01*
X55790393Y-16799113D01*
X55802396Y-16809364D01*
X55861292Y-16868260D01*
X55861294Y-16868261D01*
X55976146Y-16934571D01*
X55976147Y-16934571D01*
X55976150Y-16934573D01*
X56104258Y-16968900D01*
X56236884Y-16968900D01*
X56364992Y-16934573D01*
X56479850Y-16868260D01*
X56554515Y-16793594D01*
X56609911Y-16765370D01*
X56671319Y-16775096D01*
X56675948Y-16777609D01*
X56721494Y-16803905D01*
X56721495Y-16803905D01*
X56721498Y-16803907D01*
X56849606Y-16838234D01*
X56932553Y-16838234D01*
X56991684Y-16857447D01*
X57028229Y-16907747D01*
X57028229Y-16969921D01*
X57019675Y-16989133D01*
X56989177Y-17041957D01*
X56989176Y-17041958D01*
X56970100Y-17113149D01*
X56970100Y-25225891D01*
X56950887Y-25285022D01*
X56940635Y-25297026D01*
X56846938Y-25390723D01*
X56780628Y-25505575D01*
X56746300Y-25633684D01*
X56746300Y-25766315D01*
X56780628Y-25894424D01*
X56846938Y-26009276D01*
X56846940Y-26009279D01*
X56940721Y-26103060D01*
X56940723Y-26103061D01*
X57055575Y-26169371D01*
X57055576Y-26169371D01*
X57055579Y-26169373D01*
X57183687Y-26203700D01*
X57316313Y-26203700D01*
X57444421Y-26169373D01*
X57559279Y-26103060D01*
X57653060Y-26009279D01*
X57719373Y-25894421D01*
X57753700Y-25766313D01*
X57753700Y-25633687D01*
X57719373Y-25505579D01*
X57653060Y-25390721D01*
X57559365Y-25297026D01*
X57531138Y-25241628D01*
X57529900Y-25225891D01*
X57529900Y-21278709D01*
X60099500Y-21278709D01*
X60099500Y-21521290D01*
X60131159Y-21761774D01*
X60131160Y-21761783D01*
X60193945Y-21996100D01*
X60193946Y-21996102D01*
X60286775Y-22220211D01*
X60408063Y-22430289D01*
X60555730Y-22622733D01*
X60727266Y-22794269D01*
X60919710Y-22941936D01*
X61129788Y-23063224D01*
X61353897Y-23156053D01*
X61353899Y-23156054D01*
X61457214Y-23183737D01*
X61588211Y-23218838D01*
X61588213Y-23218838D01*
X61588216Y-23218839D01*
X61588225Y-23218840D01*
X61828710Y-23250500D01*
X61828712Y-23250500D01*
X62071290Y-23250500D01*
X62311774Y-23218840D01*
X62311783Y-23218839D01*
X62311784Y-23218838D01*
X62311789Y-23218838D01*
X62546100Y-23156054D01*
X62770212Y-23063224D01*
X62980289Y-22941936D01*
X63172738Y-22794265D01*
X63344265Y-22622738D01*
X63491936Y-22430289D01*
X63613224Y-22220212D01*
X63706054Y-21996100D01*
X63768838Y-21761789D01*
X63800500Y-21521288D01*
X63800500Y-21278712D01*
X63768838Y-21038211D01*
X63706054Y-20803900D01*
X63613224Y-20579788D01*
X63491936Y-20369710D01*
X63344269Y-20177266D01*
X63172733Y-20005730D01*
X62980289Y-19858063D01*
X62770211Y-19736775D01*
X62546102Y-19643946D01*
X62546100Y-19643945D01*
X62311783Y-19581160D01*
X62311774Y-19581159D01*
X62071290Y-19549500D01*
X62071288Y-19549500D01*
X61828712Y-19549500D01*
X61828710Y-19549500D01*
X61588225Y-19581159D01*
X61588216Y-19581160D01*
X61353899Y-19643945D01*
X61353897Y-19643946D01*
X61129788Y-19736775D01*
X60919710Y-19858063D01*
X60727266Y-20005730D01*
X60555730Y-20177266D01*
X60408063Y-20369710D01*
X60286775Y-20579788D01*
X60193946Y-20803897D01*
X60193945Y-20803899D01*
X60131160Y-21038216D01*
X60131159Y-21038225D01*
X60099500Y-21278709D01*
X57529900Y-21278709D01*
X57529900Y-17307607D01*
X57549113Y-17248476D01*
X57559359Y-17236478D01*
X58012672Y-16783164D01*
X58068070Y-16754939D01*
X58083807Y-16753700D01*
X58216313Y-16753700D01*
X58344421Y-16719373D01*
X58459279Y-16653060D01*
X58553060Y-16559279D01*
X58619373Y-16444421D01*
X58653700Y-16316313D01*
X58653700Y-16183687D01*
X58619373Y-16055579D01*
X58619368Y-16055570D01*
X58617390Y-16050793D01*
X58612516Y-15988810D01*
X58645005Y-15935799D01*
X58702448Y-15912010D01*
X58710335Y-15911700D01*
X58822744Y-15911700D01*
X58881875Y-15930913D01*
X58893879Y-15941165D01*
X58905524Y-15952810D01*
X58926433Y-15989022D01*
X58928104Y-15988331D01*
X58930626Y-15994420D01*
X58963173Y-16050793D01*
X58996940Y-16109279D01*
X59090721Y-16203060D01*
X59090723Y-16203061D01*
X59205575Y-16269371D01*
X59205576Y-16269371D01*
X59205579Y-16269373D01*
X59333687Y-16303700D01*
X59466313Y-16303700D01*
X59594421Y-16269373D01*
X59709279Y-16203060D01*
X59803060Y-16109279D01*
X59869373Y-15994421D01*
X59903700Y-15866313D01*
X59903700Y-15733687D01*
X59869373Y-15605579D01*
X59803060Y-15490721D01*
X59709279Y-15396940D01*
X59709276Y-15396938D01*
X59594420Y-15330626D01*
X59588331Y-15328104D01*
X59589022Y-15326433D01*
X59552810Y-15305524D01*
X59335035Y-15087749D01*
X59335032Y-15087747D01*
X59230669Y-15027493D01*
X59230666Y-15027492D01*
X59199479Y-15019135D01*
X59114260Y-14996300D01*
X59114258Y-14996300D01*
X59114257Y-14996300D01*
X48560258Y-14996300D01*
X48439743Y-14996300D01*
X48439738Y-14996300D01*
X48323337Y-15027490D01*
X48323332Y-15027492D01*
X48218967Y-15087747D01*
X46672235Y-16634479D01*
X46616837Y-16662705D01*
X46555429Y-16652979D01*
X46511465Y-16609015D01*
X46500500Y-16563344D01*
X46500500Y-14469914D01*
X46501739Y-14454177D01*
X46510806Y-14396930D01*
X46520528Y-14367004D01*
X46543212Y-14322484D01*
X46561704Y-14297032D01*
X46597032Y-14261704D01*
X46622484Y-14243212D01*
X46667004Y-14220528D01*
X46696921Y-14210807D01*
X46754190Y-14201737D01*
X46769916Y-14200500D01*
X46827893Y-14200500D01*
X68040907Y-14200500D01*
X68098884Y-14200500D01*
X68114621Y-14201739D01*
G37*
%TD.AperFunction*%
%TD*%
M02*
